<?xml version="1.0" encoding="UTF-8"?>
<!DOCTYPE svg PUBLIC "-//W3C//DTD SVG 1.1//EN" "http://www.w3.org/Graphics/SVG/1.1/DTD/svg11.dtd">
<!-- Creator: CorelDRAW X7 -->
<svg xmlns="http://www.w3.org/2000/svg" xml:space="preserve" width="200px" height="64px" version="1.1" shape-rendering="geometricPrecision" text-rendering="geometricPrecision" image-rendering="optimizeQuality" fill-rule="evenodd" clip-rule="evenodd"
viewBox="0 0 189454 60950"
 xmlns:xlink="http://www.w3.org/1999/xlink">
 <g id="Слой_x0020_1">
  <metadata id="CorelCorpID_0Corel-Layer"/>
  <g id="_1897016739312">
   <g>
    <g>
     <polygon fill="#221E1F" fill-rule="nonzero" points="2453,34554 2453,13892 29702,13892 27677,17326 37895,34554 23481,34554 16965,22953 15583,22953 15583,34554 "/>
     <path fill="#221E1F" fill-rule="nonzero" d="M36805 34554l7409 -20662 11602 0c-176,856 -381,1700 -598,2497l-1531 5330 0 0 5085 0 -1481 -5330c-218,-797 -423,-1641 -599,-2497l11602 0 7409 20662 -13279 0 -1135 -3950 -10070 0 -1135 3950 -13279 0z"/>
     <polygon fill="#221E1F" fill-rule="nonzero" points="90607,13892 90607,34554 77476,34554 77476,13892 "/>
     <polygon fill="#221E1F" fill-rule="nonzero" points="107881,13892 107881,14315 119482,14315 119482,25175 107881,25175 107881,34554 94751,34554 94751,13892 "/>
     <path fill="#221E1F" fill-rule="nonzero" d="M156797 13892l0 7038c0,10859 -7800,14463 -16438,14463 -8589,0 -16438,-3604 -16438,-14463l0 -7038 13131 0 0 6445c0,2074 1036,3209 3307,3209 2271,0 3307,-1135 3307,-3209l0 -6445 13131 0z"/>
     <polygon fill="#221E1F" fill-rule="nonzero" points="173724,13892 173724,34554 160594,34554 160594,13892 "/>
    </g>
    <g>
     <g>
      <polygon fill="#221E1F" fill-rule="nonzero" points="0,13892 0,0 13131,0 13131,11600 14907,11600 21029,0 35442,0 27250,13892 "/>
      <path fill="#221E1F" fill-rule="nonzero" d="M41762 13892l4981 -13892 14118 0 4981 13892 -11603 0c-184,-895 -336,-1804 -437,-2687 -101,883 -254,1792 -438,2687l-11602 0z"/>
      <polygon fill="#221E1F" fill-rule="nonzero" points="88154,0 88154,13892 75023,13892 75023,0 "/>
      <polygon fill="#221E1F" fill-rule="nonzero" points="118461,0 118461,11354 105429,11354 105429,13892 92298,13892 92298,0 "/>
      <path fill="#221E1F" fill-rule="nonzero" d="M154344 0l0 13892 -13130 0 0 -13892 13130 0zm-32875 13892l0 -13892 13130 0 0 13892 -13130 0z"/>
      <polygon fill="#221E1F" fill-rule="nonzero" points="171272,0 171272,13892 158142,13892 158142,0 "/>
     </g>
    </g>
    <g>
     <path fill="#CD0F51" fill-rule="nonzero" d="M94725 47943c51,177 51,347 -2,510 -54,163 -129,319 -228,465 -99,147 -207,291 -324,432 -116,142 -202,294 -254,457 -110,311 -196,633 -258,967 -62,335 -112,668 -150,997 -30,363 -60,712 -88,1049 -28,337 -51,677 -69,1019 -52,605 -201,1195 -445,1768 -245,574 -602,1051 -1071,1431 -562,432 -1150,683 -1764,752 -338,14 -625,-23 -863,-113 -16,3 -70,-11 -161,-45 -91,-33 -187,-65 -287,-97 -99,-32 -183,-70 -251,-116 -69,-47 -98,-87 -88,-123 10,-36 102,-41 277,-16 175,26 279,34 311,28 225,25 469,11 731,-40 468,-125 855,-362 1160,-710 267,-289 490,-647 670,-1073 181,-426 259,-831 234,-1217 -8,-388 -22,-789 -42,-1201 -21,-412 -49,-835 -82,-1271 -336,456 -765,956 -1288,1499 -522,544 -1040,1048 -1551,1512 -513,465 -960,849 -1343,1153 -382,303 -602,436 -661,396 -42,-43 135,-285 533,-728 398,-442 878,-986 1440,-1630 562,-644 1131,-1344 1705,-2102 574,-757 1015,-1479 1322,-2168 103,-258 206,-511 310,-761 105,-250 224,-506 360,-770 145,-215 315,-410 510,-584 196,-173 424,-286 686,-337 229,-44 441,-1 637,131 195,132 323,310 384,536z"/>
     <path fill="#CD0F51" fill-rule="nonzero" d="M104621 49582c42,42 8,130 -102,262 -110,131 -179,217 -205,257 -615,764 -1230,1486 -1844,2167 -359,426 -710,868 -1054,1325 -344,458 -684,914 -1020,1370l-488 630c-70,82 -140,156 -212,220 -73,65 -155,123 -246,175 -190,72 -379,61 -566,-29 -188,-91 -317,-231 -388,-422 -74,-205 -85,-437 -33,-694 52,-255 116,-493 192,-713 150,-538 331,-1048 543,-1531 211,-483 483,-1045 817,-1687 -385,466 -753,928 -1105,1387 -353,459 -705,918 -1056,1377 -297,397 -594,786 -894,1167 -300,381 -609,756 -927,1124 -83,100 -184,214 -303,338 -121,125 -244,235 -370,327 -126,93 -263,154 -410,182 -147,29 -296,7 -446,-66 -244,-122 -392,-336 -443,-640 -50,-304 -47,-631 13,-983 58,-351 149,-691 272,-1021 122,-330 217,-585 283,-769 298,-736 656,-1447 1075,-2131 418,-684 876,-1321 1372,-1911 274,-341 574,-672 902,-990 329,-319 693,-584 1093,-799 16,-3 51,-18 106,-45 54,-28 109,-47 167,-58 57,-12 103,-16 137,-15 35,3 32,32 -8,91 -49,95 -106,173 -170,237 -64,64 -129,144 -195,241 -151,183 -289,371 -412,565 -124,194 -250,397 -378,608 -267,460 -525,948 -773,1462 -248,516 -488,1042 -724,1581 -234,537 -461,1074 -679,1609 -219,535 -432,1052 -641,1551 1160,-1109 2282,-2346 3366,-3711 1083,-1366 2212,-2740 3387,-4124 164,-201 364,-436 601,-703 236,-266 409,-427 517,-483 128,-41 241,-25 340,48 100,75 145,172 134,293 -4,69 -55,198 -154,386 -99,190 -167,322 -203,396 -36,76 -125,255 -265,536 -140,282 -312,622 -515,1017 -203,396 -418,820 -644,1272 -226,452 -439,883 -639,1295 -200,414 -371,778 -512,1094 -143,316 -229,528 -259,636 13,-19 119,-129 318,-329 199,-200 436,-445 709,-737 275,-291 575,-600 902,-927 327,-327 634,-624 922,-893 287,-267 534,-481 741,-640 207,-160 331,-218 374,-175z"/>
     <path fill="#CD0F51" fill-rule="nonzero" d="M108466 45267c52,177 51,347 -2,510 -53,164 -129,318 -228,464 -99,147 -207,292 -324,433 -116,142 -201,294 -254,457 -110,311 -196,633 -257,967 -63,335 -112,667 -150,997 -31,363 -61,713 -89,1048 -28,337 -51,677 -69,1020 -52,605 -200,1194 -445,1768 -245,574 -602,1051 -1071,1432 -561,431 -1150,682 -1764,751 -337,13 -624,-23 -863,-113 -16,3 -69,-12 -161,-45 -91,-33 -187,-66 -286,-97 -100,-32 -184,-70 -252,-117 -69,-45 -97,-86 -88,-123 10,-35 103,-41 277,-15 175,25 279,34 311,28 226,25 469,11 731,-40 468,-125 855,-362 1160,-710 267,-289 490,-647 670,-1073 181,-425 259,-831 235,-1217 -9,-389 -23,-789 -43,-1201 -21,-412 -49,-835 -82,-1270 -336,456 -765,955 -1288,1498 -522,543 -1039,1047 -1551,1512 -512,465 -960,849 -1342,1153 -383,303 -603,435 -661,396 -43,-43 134,-285 532,-729 398,-441 878,-985 1441,-1629 561,-644 1129,-1345 1704,-2103 574,-756 1015,-1478 1322,-2167 103,-258 207,-512 310,-761 105,-249 224,-506 360,-770 145,-215 315,-409 511,-584 195,-173 423,-286 685,-337 229,-45 441,-1 637,131 195,132 323,310 384,536z"/>
     <path fill="#CD0F51" fill-rule="nonzero" d="M119288 29559c19,13 36,52 49,118 1,187 -35,389 -112,607 -76,219 -146,428 -209,627 -261,747 -535,1484 -818,2209 -283,727 -573,1458 -871,2195 -441,1053 -884,2087 -1332,3099 -448,1013 -904,2031 -1366,3055 -569,1266 -1185,2591 -1849,3977 -664,1386 -1299,2707 -1903,3962 273,-342 605,-730 996,-1162 391,-433 799,-873 1221,-1320 422,-448 834,-879 1237,-1298 402,-418 750,-792 1042,-1121 181,-204 394,-415 641,-633 246,-217 526,-307 840,-266 209,27 376,126 503,296 126,171 167,355 120,551 -47,196 -138,400 -275,614 -137,213 -255,414 -354,603 -264,476 -553,974 -868,1494 -315,520 -594,1024 -838,1513 -232,469 -439,952 -623,1445 -184,495 -320,997 -407,1506 565,-670 1111,-1308 1640,-1911 527,-604 1113,-1214 1757,-1832 128,-127 261,-250 398,-371 139,-119 291,-230 459,-330 107,-56 143,-50 105,16 -38,69 -71,121 -97,160 -66,98 -136,192 -212,283 -76,91 -146,186 -212,283 -526,612 -1013,1233 -1459,1863 -446,631 -920,1267 -1424,1908 -145,215 -295,427 -449,635 -155,208 -316,406 -483,591 -155,166 -338,273 -549,323 -211,50 -403,-19 -575,-207 -153,-173 -243,-397 -271,-672 -28,-275 -37,-515 -26,-721 2,-425 89,-896 260,-1414 171,-516 371,-1035 601,-1556 230,-520 474,-1030 734,-1530 258,-501 474,-963 646,-1387 -450,478 -933,984 -1449,1517 -516,534 -1045,1129 -1588,1787 -542,658 -1084,1383 -1626,2176 -542,793 -1073,1682 -1595,2666 -60,131 -131,264 -215,399 -85,134 -199,225 -342,270 -194,54 -366,16 -519,-115 -153,-131 -223,-292 -209,-482 8,-137 40,-275 98,-413 58,-139 117,-274 176,-404 394,-1028 841,-2133 1340,-3318 500,-1183 975,-2278 1424,-3282 443,-1037 902,-2061 1376,-3070 474,-1009 953,-2019 1435,-3030 499,-1014 995,-2019 1488,-3015 495,-996 1002,-1987 1523,-2971 356,-698 726,-1393 1109,-2088 383,-694 791,-1364 1226,-2009 26,-39 69,-106 126,-203 58,-96 120,-193 186,-290 65,-98 134,-179 207,-244 72,-66 126,-93 162,-83z"/>
     <path fill="#CD0F51" fill-rule="nonzero" d="M122244 46175c26,-39 102,-105 229,-197 126,-93 200,-124 223,-95 3,16 6,29 7,37 2,8 -17,41 -57,100 -496,674 -1013,1314 -1549,1919 -536,606 -1063,1231 -1583,1875 -217,280 -483,638 -797,1072 -315,435 -573,791 -773,1068 -82,101 -176,208 -281,321 -105,115 -222,213 -350,298 -128,84 -263,132 -405,143 -142,10 -300,-35 -473,-138 -155,-105 -236,-276 -239,-513 -4,-237 18,-453 64,-649 84,-441 247,-952 491,-1535 243,-582 529,-1186 857,-1810 328,-624 676,-1239 1042,-1845 365,-607 713,-1154 1042,-1642 329,-489 616,-892 859,-1212 244,-319 411,-504 504,-557 104,-71 193,-96 265,-76 35,10 69,29 100,56 31,29 36,79 16,150 -136,434 -307,909 -512,1424 -205,516 -431,1056 -678,1622 -245,566 -501,1151 -766,1754 -264,604 -514,1217 -750,1839 125,-142 294,-324 506,-543 211,-220 382,-394 510,-520 414,-403 820,-801 1219,-1193 400,-391 826,-775 1279,-1153zm1310 -7921l0 0c74,122 105,255 91,403 -15,146 -54,290 -120,430 -67,141 -147,271 -242,391 -96,121 -196,217 -301,288 -88,68 -200,128 -335,179 -134,52 -267,87 -399,104 -133,18 -261,13 -385,-14 -124,-27 -224,-101 -298,-222 -149,-243 -165,-499 -48,-768 118,-269 271,-482 462,-637 86,-85 198,-162 337,-232 139,-69 286,-119 442,-149 155,-30 303,-34 444,-11 140,24 257,103 352,238z"/>
     <path fill="#CD0F51" fill-rule="nonzero" d="M142514 30686c49,250 49,509 -2,778 -50,270 -127,541 -231,814 -103,274 -222,541 -355,807 -132,265 -259,511 -378,739 -266,530 -547,1049 -845,1559 -297,508 -595,1010 -895,1506 -381,635 -773,1253 -1175,1858 -401,604 -803,1205 -1206,1802 -180,268 -361,532 -542,793 -182,260 -376,527 -582,800 69,355 185,707 350,1059 163,350 354,702 574,1056 156,242 329,496 516,760 188,263 396,490 625,677 12,-3 31,-9 57,-21 25,-12 99,-53 221,-126 123,-71 314,-180 572,-326 258,-146 621,-353 1088,-622 517,-292 1036,-574 1557,-846 520,-272 1056,-503 1607,-692 102,-33 232,-69 389,-106 156,-37 287,-32 392,15 31,22 17,52 -43,91 -93,18 -179,48 -259,91 -82,44 -171,89 -271,135 -818,433 -1609,915 -2372,1445 -765,532 -1538,1037 -2318,1518 623,534 1300,993 2031,1377 730,383 1497,674 2301,874 231,63 464,120 699,171 235,49 477,118 727,206 73,27 88,51 45,74 -43,22 -85,36 -124,44 -461,21 -909,0 -1345,-65 -676,-102 -1326,-265 -1951,-492 -625,-227 -1228,-501 -1810,-826 -216,-122 -437,-259 -664,-413 -229,-153 -451,-298 -669,-434 -942,635 -1882,1262 -2820,1882 -939,620 -1915,1234 -2931,1841 -171,102 -402,249 -692,442 -290,193 -597,372 -920,538 -323,166 -642,282 -957,350 -315,68 -568,26 -762,-128 -115,-100 -181,-210 -198,-330 -16,-120 -9,-242 22,-363 30,-122 75,-247 132,-375 57,-127 110,-243 158,-347 284,-575 584,-1136 901,-1682 317,-547 650,-1087 997,-1619 400,-610 808,-1213 1226,-1806 417,-594 849,-1179 1297,-1759 217,-288 440,-581 669,-878 229,-297 472,-629 728,-993 -58,-302 -98,-591 -117,-868 -20,-276 -37,-556 -51,-841 -9,-1310 202,-2593 633,-3853 431,-1258 1073,-2394 1928,-3408 421,-505 898,-967 1432,-1385 533,-418 1107,-762 1725,-1033 163,-72 343,-132 539,-177 196,-44 385,-54 568,-29 182,26 346,94 490,203 144,109 241,287 289,538zm-4918 15466l0 0c-437,-420 -827,-877 -1169,-1371 -342,-494 -632,-1038 -871,-1634 -882,1156 -1750,2309 -2605,3459 -856,1150 -1630,2366 -2322,3649 621,-313 1227,-645 1813,-999 587,-353 1173,-710 1759,-1070 575,-344 1141,-683 1698,-1017 556,-334 1122,-673 1697,-1017zm3045 -13299l0 0c202,-367 393,-739 572,-1115 179,-377 343,-778 494,-1203 -380,156 -742,349 -1086,581 -345,231 -667,491 -965,782 -510,468 -987,1032 -1432,1693 -446,660 -831,1364 -1157,2110 -326,747 -581,1507 -765,2280 -184,774 -272,1501 -262,2183 901,-1337 1757,-2641 2569,-3913 810,-1271 1488,-2403 2032,-3398z"/>
     <path fill="#CD0F51" fill-rule="nonzero" d="M162893 38436c20,14 4,60 -49,138 -310,502 -672,997 -1086,1485 -415,488 -842,953 -1282,1395 -680,694 -1367,1332 -2059,1917 -693,585 -1351,1023 -1973,1314 -125,58 -265,124 -420,197 -156,72 -309,136 -459,191 -151,54 -286,102 -405,142 -120,40 -206,57 -258,50 -138,-7 -234,-65 -288,-173 -56,-107 -52,-219 11,-333 23,-55 119,-151 288,-286 169,-134 283,-224 342,-269 13,-20 61,-59 143,-118 82,-58 171,-126 266,-205 95,-77 190,-155 285,-233 95,-78 171,-148 227,-210 269,-273 540,-585 811,-935 272,-349 529,-705 773,-1067 244,-362 479,-721 706,-1080 227,-359 430,-691 609,-997 280,-564 544,-1171 791,-1823 246,-651 433,-1260 561,-1828 -413,148 -850,433 -1311,853 -462,422 -932,930 -1410,1523 -479,594 -954,1247 -1427,1959 -473,712 -916,1423 -1330,2131 -413,709 -793,1399 -1138,2068 -345,671 -628,1265 -850,1783 -479,1112 -953,2211 -1421,3295 -468,1085 -950,2185 -1446,3300 -492,1131 -997,2270 -1512,3415 -516,1144 -1066,2266 -1650,3364 -125,229 -251,457 -377,685 -124,228 -270,443 -434,645 -42,42 -107,102 -194,178 -88,76 -160,52 -218,-72 -32,-79 -42,-170 -29,-275 15,-105 30,-201 46,-289 34,-177 68,-349 103,-516 36,-169 80,-335 133,-497 299,-1078 652,-2127 1055,-3148 404,-1021 803,-2045 1197,-3073 308,-773 618,-1538 929,-2294 310,-757 637,-1526 977,-2305 179,-391 385,-856 620,-1395 235,-537 484,-1091 746,-1660 264,-569 524,-1129 781,-1680 258,-551 488,-1046 691,-1485 204,-438 431,-928 682,-1470 284,-548 543,-1048 777,-1501 215,-381 411,-746 589,-1095 179,-349 301,-572 366,-670 14,-19 70,-103 169,-249 99,-147 210,-313 336,-498 125,-186 263,-370 414,-553 151,-182 286,-318 404,-409 102,-88 188,-122 261,-102 88,17 127,86 116,207 -11,291 -37,550 -77,779 -41,228 -95,451 -163,668 -68,217 -144,436 -229,656 -84,220 -183,477 -296,770 67,-97 131,-182 193,-254 63,-71 120,-146 173,-224 536,-732 1066,-1345 1590,-1838 524,-492 1008,-884 1453,-1174 443,-291 838,-491 1181,-600 344,-109 596,-145 756,-109 268,67 426,245 473,532 48,288 25,632 -66,1032 -92,400 -224,833 -397,1299 -172,467 -354,910 -543,1329 -190,419 -366,784 -525,1096 -161,311 -265,514 -315,608l-396 714c411,-419 823,-835 1235,-1246 412,-412 853,-807 1322,-1188 27,-38 103,-104 229,-197 126,-92 201,-124 223,-95z"/>
     <path fill="#CD0F51" fill-rule="nonzero" d="M166737 37510c26,-40 103,-105 229,-197 126,-93 201,-124 224,-95 3,16 6,29 7,37 1,8 -17,41 -57,100 -497,674 -1013,1314 -1549,1919 -536,606 -1064,1230 -1583,1875 -217,280 -484,638 -798,1072 -314,435 -572,790 -772,1067 -83,101 -177,209 -281,322 -106,114 -223,213 -350,298 -128,84 -263,132 -405,143 -142,10 -301,-35 -473,-138 -156,-105 -236,-276 -240,-513 -3,-237 18,-453 65,-650 84,-440 247,-952 491,-1535 242,-582 528,-1185 857,-1809 328,-624 675,-1239 1041,-1845 366,-607 713,-1154 1043,-1642 329,-489 616,-892 859,-1212 243,-319 411,-505 503,-557 105,-71 194,-97 265,-77 35,10 70,30 100,57 32,29 37,78 17,150 -137,434 -308,909 -512,1424 -205,516 -431,1056 -678,1622 -246,566 -502,1151 -766,1754 -265,603 -515,1216 -750,1839 125,-143 293,-324 505,-543 212,-221 382,-394 511,-520 413,-404 820,-801 1219,-1193 399,-392 825,-776 1278,-1153zm1310 -7921l0 0c75,121 105,255 91,402 -14,147 -54,291 -119,431 -67,141 -148,271 -243,391 -95,120 -196,217 -300,288 -89,68 -201,128 -335,179 -134,51 -267,86 -400,103 -132,19 -261,14 -384,-14 -125,-26 -224,-100 -298,-222 -150,-243 -166,-498 -48,-767 117,-269 271,-482 461,-638 86,-85 198,-162 337,-231 140,-69 287,-119 442,-150 156,-30 304,-33 444,-10 140,24 258,103 352,238z"/>
     <path fill="#CD0F51" fill-rule="nonzero" d="M173453 33018c67,174 80,329 38,464 -41,135 -118,265 -229,388 -378,414 -750,835 -1117,1262 -367,428 -725,880 -1073,1356 -521,729 -1037,1458 -1548,2186 -512,728 -1029,1456 -1549,2187 479,-247 959,-485 1440,-714 482,-230 964,-460 1446,-689 232,-113 465,-222 700,-327 234,-106 479,-200 734,-284 62,-29 137,-60 224,-94 86,-33 164,-49 233,-46 52,7 47,46 -16,117 -62,72 -131,133 -206,181 -430,322 -866,636 -1307,942 -441,307 -880,605 -1316,893 -433,306 -875,608 -1326,908 -451,300 -893,603 -1326,908 -213,126 -417,259 -610,399 -193,139 -395,281 -605,423 -122,75 -228,138 -319,190 -92,52 -207,74 -344,67 -245,-38 -418,-140 -518,-307 -162,-224 -184,-439 -63,-650 120,-210 247,-413 378,-608 422,-626 890,-1273 1405,-1942 515,-669 1047,-1338 1596,-2005 549,-667 1110,-1314 1684,-1945 574,-630 1138,-1219 1693,-1769 -239,81 -540,187 -906,317 -365,131 -746,269 -1142,413 -396,145 -777,283 -1142,414 -365,130 -666,244 -901,341 -33,6 -77,23 -131,51 -54,27 -113,52 -177,72 -63,21 -116,35 -157,43 -41,8 -63,4 -65,-12 9,-36 65,-98 167,-185 177,-137 357,-262 539,-372 182,-113 363,-229 543,-348 469,-296 935,-582 1399,-859 464,-277 940,-557 1429,-839 230,-129 463,-259 701,-390 237,-132 471,-262 700,-392 184,-103 376,-141 577,-113 200,30 356,152 467,368z"/>
     <path fill="#CD0F51" fill-rule="nonzero" d="M180691 31608c68,174 81,329 40,464 -42,136 -118,265 -230,388 -378,414 -751,835 -1117,1263 -367,427 -725,879 -1074,1355 -520,729 -1036,1458 -1548,2186 -512,728 -1028,1457 -1548,2186 479,-246 959,-484 1440,-713 482,-230 964,-460 1446,-689 232,-113 465,-222 700,-327 234,-105 479,-200 734,-284 62,-28 137,-60 223,-94 87,-33 165,-48 233,-46 53,7 48,46 -15,117 -62,73 -131,133 -206,181 -430,322 -866,636 -1307,942 -441,307 -880,605 -1316,893 -433,306 -875,608 -1325,908 -452,300 -894,603 -1327,908 -213,126 -417,259 -610,399 -193,139 -395,280 -605,423 -122,75 -228,138 -320,190 -91,52 -205,74 -343,67 -246,-37 -418,-139 -518,-307 -162,-223 -183,-439 -63,-650 120,-210 247,-413 378,-608 421,-625 889,-1272 1404,-1942 516,-669 1047,-1337 1597,-2005 549,-667 1111,-1315 1684,-1944 573,-630 1138,-1220 1693,-1770 -239,81 -541,187 -906,317 -365,131 -746,269 -1142,413 -396,145 -777,284 -1142,414 -365,131 -666,244 -901,341 -34,6 -77,23 -131,51 -54,27 -113,51 -177,72 -64,22 -116,36 -157,44 -41,8 -63,3 -65,-12 9,-37 65,-98 167,-186 177,-136 357,-261 539,-372 181,-113 363,-228 543,-348 468,-296 935,-582 1399,-859 464,-277 940,-556 1429,-838 230,-130 463,-260 701,-391 237,-132 471,-262 700,-392 184,-103 376,-140 577,-112 200,29 356,151 466,367z"/>
     <path fill="#CD0F51" fill-rule="nonzero" d="M189454 33315c3,17 -13,63 -50,137 -158,235 -334,464 -528,689 -194,224 -388,449 -582,673 -648,687 -1334,1475 -2061,2363 -240,251 -449,508 -627,771 -178,265 -375,536 -592,816 -57,63 -144,160 -261,293 -119,134 -192,220 -218,259 -105,156 -268,234 -489,235 -220,0 -403,-62 -546,-187 -162,-137 -242,-309 -240,-513 3,-204 28,-404 75,-600 100,-444 217,-866 352,-1266 134,-399 287,-812 459,-1236 -204,261 -399,520 -587,778 -188,256 -379,497 -572,722 -297,397 -596,778 -899,1143 -302,364 -621,731 -956,1103 -83,100 -184,214 -303,339 -120,126 -244,230 -372,314 -128,84 -266,141 -413,170 -147,29 -296,7 -446,-67 -205,-94 -334,-256 -387,-484 -53,-228 -64,-438 -34,-630 53,-604 207,-1224 466,-1861 258,-636 538,-1226 839,-1768 302,-542 587,-1002 854,-1376 266,-374 440,-612 523,-714 240,-335 531,-689 875,-1061 344,-373 721,-722 1133,-1048 412,-327 845,-611 1299,-852 454,-241 901,-405 1343,-491 229,-44 489,-61 780,-50 291,11 519,95 686,249 19,12 50,45 94,96 44,51 40,73 -12,66 -464,-29 -893,38 -1286,199 -393,162 -766,379 -1121,652 -354,273 -684,587 -988,943 -304,357 -602,700 -895,1029 -247,301 -508,658 -785,1068 -276,411 -538,857 -784,1337 -246,482 -474,985 -686,1510 -212,525 -385,1056 -518,1591 571,-553 1168,-1174 1789,-1864 621,-690 1226,-1355 1814,-1996 273,-342 576,-685 907,-1030 332,-345 649,-700 952,-1065 83,-100 189,-227 321,-380 131,-153 264,-297 399,-434 135,-137 255,-263 360,-376 105,-113 182,-176 232,-185 124,-58 236,-51 335,23 99,74 144,172 134,293 6,33 -16,97 -65,191 -50,95 -106,199 -168,313 -63,114 -123,219 -181,315 -58,96 -92,162 -101,198 -205,346 -428,746 -671,1201 -242,454 -479,896 -710,1322 -231,427 -430,801 -597,1122 -167,321 -275,529 -324,624 128,-127 303,-297 524,-509 223,-214 395,-392 521,-535 397,-400 805,-789 1224,-1168 419,-379 856,-748 1313,-1109 25,-39 98,-103 216,-195 118,-91 196,-123 236,-97z"/>
    </g>
   </g>
  </g>
 </g>
</svg>
