<?xml version="1.0" encoding="UTF-8"?>
<!DOCTYPE svg PUBLIC "-//W3C//DTD SVG 1.1//EN" "http://www.w3.org/Graphics/SVG/1.1/DTD/svg11.dtd">
<!-- Creator: CorelDRAW X7 -->
<svg xmlns="http://www.w3.org/2000/svg" xml:space="preserve" width="600px" height="165px" version="1.1" shape-rendering="geometricPrecision" text-rendering="geometricPrecision" image-rendering="optimizeQuality" fill-rule="evenodd" clip-rule="evenodd"
viewBox="0 0 569764 157063"
 xmlns:xlink="http://www.w3.org/1999/xlink">
 <g id="Слой_x0020_1">
  <metadata id="CorelCorpID_0Corel-Layer"/>
  <path fill="#161616" fill-rule="nonzero" d="M316528 2056l0 27550 -8758 0 -24 -18599 -3479 18599 -6131 0 -3674 -18181 -24 18181 -8758 0 0 -27550 12935 0c364,1666 762,3628 1192,5869l1419 6994 2279 -12863 13023 0zm4031 0l16689 0 0 5503 -6666 0 0 5259 6227 0 0 5225 -6227 0 0 6060 7347 0 0 5503 -17370 0 0 -27550zm20216 0l10080 0c2724,0 4817,151 6284,459 1460,307 2563,748 3301,1323 738,581 1233,1283 1500,2102 260,824 390,2095 390,3819l0 2398c0,1752 -252,3035 -763,3836 -503,807 -1435,1428 -2782,1858 -1354,430 -3121,644 -5303,644l-2684 0 0 11111 -10023 0 0 -27550zm10023 4702l0 7018c284,12 527,17 730,17 916,0 1549,-162 1906,-487 348,-320 527,-993 527,-2015l0 -2269c0,-940 -203,-1556 -617,-1840 -405,-285 -1256,-424 -2546,-424zm14402 -4702l16689 0 0 5503 -6666 0 0 5259 6228 0 0 5225 -6228 0 0 6060 7347 0 0 5503 -17370 0 0 -27550zm31262 15708c-2109,35 -3163,679 -3163,1939l0 7250c0,964 -146,1649 -447,2049 -291,401 -510,604 -632,604l-8263 0c713,-737 1070,-1834 1070,-3286l0 -6188c0,-1317 511,-2321 1533,-3012 1022,-691 2781,-1185 5263,-1481l0 -35c-4501,-168 -6747,-1665 -6747,-4486l0 -5834c0,-1440 -357,-2514 -1071,-3228l8264 0c235,70 478,313 721,737 236,430 357,1051 357,1881l0 6850c0,1259 1038,1909 3115,1956l0 -11424 10022 0 0 11424c2077,-47 3114,-697 3114,-1956l0 -6850c0,-952 146,-1625 430,-2020 292,-400 511,-598 657,-598l8255 0c-713,714 -1070,1788 -1070,3228l0 5834c0,2821 -2255,4318 -6771,4486l0 35c2489,296 4249,790 5279,1481 1029,691 1541,1695 1541,3012l0 6188c0,1452 356,2549 1070,3286l-8256 0c-259,-81 -502,-337 -738,-766 -234,-430 -348,-1063 -348,-1887l0 -7250c0,-1260 -1054,-1904 -3163,-1939l0 11842 -10022 0 0 -11842zm42232 -15708l5726 27550 -10226 0 -544 -4946 -3608 0 -544 4946 -10355 0 5076 -27550 14475 0zm-5311 17728c-478,-3123 -982,-6989 -1517,-11604 -989,5294 -1614,9160 -1881,11604l3398 0zm-124396 45864c0,2049 -373,3524 -1120,4418 -738,899 -1873,1457 -3381,1683 -1516,226 -3925,343 -7234,343l-11572 0 0 -27550 19609 0 0 4771 -9585 0 0 4667 1548 0c3082,0 5425,128 7007,390 1581,261 2765,835 3552,1729 786,889 1176,2288 1176,4191l0 5358zm-10024 -830l0 -3982c0,-1161 -162,-1864 -486,-2113 -325,-250 -1249,-389 -2773,-424l0 9056c1273,0 2132,-116 2579,-348 454,-233 680,-964 680,-2189zm33362 -20276l-2733 18244c-430,2880 -892,4906 -1378,6067 -495,1161 -1444,1991 -2847,2490 -1411,499 -3730,749 -6949,749l-5839 0 0 -3553 600 0c1322,0 2141,-75 2449,-232 308,-151 470,-383 470,-703 0,-23 -194,-800 -575,-2333l-5279 -20729 8700 0 3147 17176 1500 -17176 8734 0zm30621 32286l-6910 0 0 -4736 -16153 0 0 4736 -6909 0 0 -10483 2043 0c1079,-2258 1971,-5225 2660,-8905 689,-3680 1038,-7703 1038,-12062l0 -836 22187 0 0 21768 2044 0 0 10518zm-12067 -10518l0 -16335 -2968 0 0 203c0,5277 -795,10652 -2384,16132l5352 0zm25196 -21768l0 27550 -10024 0 0 -27550 10024 0zm3998 0l9958 0c3146,0 5530,174 7152,528 1622,348 2927,1062 3925,2130 997,1074 1492,2798 1492,5179 0,1607 -349,2728 -1054,3360 -706,639 -2101,1121 -4177,1463 2320,378 3893,999 4720,1863 827,871 1241,2201 1241,4000l0 2554c0,1863 -300,3239 -892,4139 -592,894 -1533,1509 -2831,1840 -1297,331 -3956,494 -7979,494l-11555 0 0 -27550zm10023 4702l0 6130c421,-12 745,-18 981,-18 957,0 1573,-174 1833,-516 267,-349 397,-1341 397,-2973 0,-864 -106,-1468 -325,-1817 -218,-342 -502,-562 -851,-656 -349,-86 -1030,-139 -2035,-150zm0 10414l0 7732c1378,-35 2262,-192 2643,-477 382,-284 568,-986 568,-2101l0 -2577c0,-1184 -171,-1898 -511,-2153 -341,-250 -1241,-389 -2700,-424zm16842 -15116l16690 0 0 5503 -6666 0 0 5259 6228 0 0 5225 -6228 0 0 6060 7347 0 0 5503 -17371 0 0 -27550zm44642 27550l-10023 0 0 -22047 -2919 0 0 15597c0,2055 -373,3530 -1111,4424 -746,899 -1865,1457 -3366,1683 -1508,226 -3900,343 -7192,343l-1565 0 0 -4737c1224,0 2059,-111 2521,-325 463,-215 690,-952 690,-2212l0 -20276 22965 0 0 27550zm27296 -6444c0,2049 -373,3524 -1118,4418 -739,899 -1874,1457 -3383,1683 -1516,226 -3924,343 -7233,343l-11572 0 0 -27550 10024 0 0 9438 1548 0c3082,0 5425,128 7007,390 1581,261 2765,835 3552,1729 786,889 1175,2288 1175,4191l0 5358zm-10023 -830l0 -3982c0,-1161 -162,-1864 -486,-2113 -325,-250 -1249,-389 -2773,-424l0 9056c1272,0 2132,-116 2578,-348 454,-233 681,-964 681,-2189zm36532 -20276l0 27550 -10023 0 0 -11563 -2919 0 0 11563 -10023 0 0 -27550 10023 0 0 9856 2919 0 0 -9856 10023 0zm26866 16149c0,2769 -89,4725 -276,5874 -178,1155 -746,2206 -1703,3158 -957,952 -2254,1683 -3884,2194 -1630,511 -3527,767 -5692,767 -2060,0 -3901,-244 -5539,-726 -1639,-482 -2960,-1202 -3949,-2165 -998,-964 -1590,-2015 -1784,-3146 -187,-1138 -284,-3124 -284,-5956l0 -4714c0,-2769 88,-4725 276,-5874 178,-1155 746,-2206 1702,-3158 957,-952 2254,-1683 3885,-2194 1630,-511 3527,-766 5693,-766 2059,0 3900,243 5538,725 1638,482 2960,1202 3949,2165 998,964 1590,2015 1784,3147 187,1137 284,3123 284,5955l0 4714zm-10023 -9050c0,-1277 -98,-2095 -292,-2455 -195,-354 -592,-534 -1192,-534 -511,0 -900,145 -1176,435 -267,284 -405,1138 -405,2554l0 12858c0,1596 89,2583 268,2954 178,378 591,563 1240,563 665,0 1095,-214 1281,-644 187,-429 276,-1457 276,-3077l0 -12654zm25220 6797l0 4737 -12554 0 0 -4737 12554 0zm-244398 34092l-7346 0 0 22047 -10024 0 0 -27550 17370 0 0 5503zm25504 10647c0,2769 -89,4725 -276,5874 -178,1155 -745,2206 -1702,3158 -957,952 -2255,1683 -3885,2194 -1630,511 -3527,766 -5692,766 -2061,0 -3901,-243 -5539,-725 -1638,-482 -2960,-1202 -3949,-2165 -997,-964 -1589,-2015 -1785,-3147 -186,-1137 -283,-3123 -283,-5955l0 -4714c0,-2769 89,-4725 276,-5874 178,-1155 746,-2207 1702,-3158 957,-952 2255,-1684 3885,-2194 1630,-511 3527,-767 5693,-767 2059,0 3900,244 5538,726 1638,482 2960,1202 3949,2165 998,964 1590,2014 1784,3146 187,1138 284,3123 284,5956l0 4714zm-10023 -9050c0,-1277 -97,-2096 -292,-2456 -195,-354 -592,-533 -1192,-533 -511,0 -900,144 -1175,435 -268,284 -406,1138 -406,2554l0 12858c0,1596 89,2583 267,2954 179,378 592,563 1241,563 665,0 1095,-214 1282,-644 186,-430 275,-1457 275,-3077l0 -12654zm37141 4917l-10024 0 0 -4784c0,-1393 -105,-2258 -316,-2606 -211,-343 -681,-516 -1403,-516 -811,0 -1330,208 -1549,626 -219,424 -332,1330 -332,2723l0 12782c0,1341 113,2212 332,2624 219,406 714,609 1476,609 738,0 1225,-203 1452,-615 227,-406 340,-1370 340,-2885l0 -3465 10024 0 0 1073c0,2856 -284,4882 -844,6072 -560,1196 -1808,2241 -3730,3141 -1930,900 -4298,1346 -7120,1346 -2927,0 -5344,-377 -7250,-1137 -1897,-761 -3163,-1811 -3779,-3158 -616,-1347 -924,-3367 -924,-6066l0 -8046c0,-1985 97,-3471 284,-4464 194,-992 754,-1950 1703,-2867 940,-917 2246,-1643 3916,-2171 1671,-529 3593,-790 5766,-790 2943,0 5376,406 7298,1225 1914,813 3171,1829 3780,3048 599,1218 900,3111 900,5683l0 2618zm26549 15533l-10023 0 0 -22047 -2919 0 0 22047 -10023 0 0 -27550 22965 0 0 27550zm26866 -11400c0,2769 -89,4725 -276,5874 -178,1155 -745,2206 -1702,3158 -958,952 -2255,1683 -3885,2194 -1630,511 -3527,766 -5693,766 -2060,0 -3900,-243 -5538,-725 -1638,-482 -2960,-1202 -3949,-2165 -998,-964 -1590,-2015 -1785,-3147 -186,-1137 -283,-3123 -283,-5955l0 -4714c0,-2769 89,-4725 276,-5874 178,-1155 746,-2207 1702,-3158 957,-952 2255,-1684 3885,-2194 1630,-511 3527,-767 5692,-767 2060,0 3901,244 5539,726 1638,482 2960,1202 3949,2165 998,964 1590,2014 1784,3146 187,1138 284,3123 284,5956l0 4714zm-10023 -9050c0,-1277 -98,-2096 -292,-2456 -195,-354 -592,-533 -1192,-533 -511,0 -900,144 -1176,435 -268,284 -405,1138 -405,2554l0 12858c0,1596 89,2583 267,2954 179,378 592,563 1241,563 665,0 1095,-214 1281,-644 187,-430 276,-1457 276,-3077l0 -12654zm42395 25187l-6909 0 0 -4737 -16154 0 0 4737 -6909 0 0 -10483 2044 0c1078,-2259 1970,-5225 2659,-8905 690,-3680 1039,-7703 1039,-12062l0 -837 22186 0 0 21769 2044 0 0 10518zm-12067 -10518l0 -16335 -2967 0 0 203c0,5277 -795,10652 -2385,16132l5352 0zm32437 -21769l5726 27550 -10226 0 -544 -4946 -3608 0 -543 4946 -10355 0 5076 -27550 14474 0zm-5311 17729c-478,-3123 -981,-6990 -1517,-11604 -989,5294 -1613,9160 -1881,11604l3398 0zm12756 -17729l10080 0c2724,0 4816,152 6284,459 1460,308 2563,749 3301,1323 738,581 1233,1284 1500,2102 260,824 390,2096 390,3820l0 2397c0,1753 -252,3036 -763,3837 -503,807 -1435,1428 -2781,1858 -1355,429 -3122,644 -5304,644l-2684 0 0 11110 -10023 0 0 -27550zm10023 4702l0 7019c284,11 527,17 730,17 916,0 1549,-162 1906,-488 348,-319 527,-992 527,-2014l0 -2270c0,-940 -203,-1555 -617,-1840 -405,-284 -1257,-424 -2546,-424zm28026 12290c-803,615 -1857,1102 -3155,1474 -1297,365 -2603,551 -3933,551 -2384,0 -4119,-476 -5206,-1428 -1079,-952 -1622,-2426 -1622,-4423l0 -13166 10023 0 0 12399c0,1075 130,1818 389,2218 260,401 690,604 1290,604 1476,0 2214,-917 2214,-2757l0 -12464 10023 0 0 27550 -10023 0 0 -10558zm36338 10558l-8369 0 0 -12532 -5206 12532 -8710 0 0 -27550 8369 0 0 12434 5595 -12434 8321 0 0 27550zm24303 -27550l-3503 12185 5303 15365 -9244 0c-1103,-2751 -2125,-6101 -3065,-10059 -285,1764 -650,3616 -1103,5566l-893 4493 -9731 0 3649 -15365 -3649 -12185 9683 0c203,761 543,2032 1030,3808 397,1347 738,2595 1014,3733l2140 -7541 8369 0zm-251436 42486l0 27550 -8758 0 -24 -18598 -3479 18598 -6131 0 -3674 -18181 -24 18181 -8758 0 0 -27550 12935 0c364,1666 762,3628 1192,5869l1419 6995 2279 -12864 13023 0zm21295 0l5725 27550 -10225 0 -544 -4946 -3608 0 -544 4946 -10355 0 5076 -27550 14475 0zm-5311 17728c-479,-3122 -982,-6989 -1517,-11604 -989,5295 -1614,9160 -1881,11604l3398 0zm12756 -17728l10080 0c2724,0 4816,151 6284,459 1460,307 2562,749 3301,1323 738,581 1232,1283 1500,2102 259,824 389,2095 389,3819l0 2398c0,1753 -251,3036 -762,3837 -503,806 -1436,1428 -2782,1857 -1354,430 -3122,644 -5303,644l-2684 0 0 11111 -10023 0 0 -27550zm10023 4702l0 7018c284,12 527,18 730,18 916,0 1549,-163 1905,-488 349,-319 527,-993 527,-2014l0 -2270c0,-940 -202,-1556 -616,-1840 -406,-285 -1256,-424 -2546,-424zm14402 -4702l10023 0 48 11633c1858,-35 2814,-783 2879,-2246l186 -5376c66,-1979 601,-3320 1606,-4011l9245 0c-892,668 -1330,2055 -1314,4151l49 4725c32,2856 -2214,4487 -6747,4882 4533,395 6779,2049 6747,4951l-49 4383c-16,2090 422,3576 1314,4458l-9245 0c-1070,-691 -1606,-2032 -1606,-4017l0 -5369c0,-686 -283,-1231 -850,-1643 -576,-412 -1314,-627 -2215,-639l-48 11668 -10023 0 0 -27550zm26087 0l16689 0 0 5503 -6666 0 0 5260 6228 0 0 5224 -6228 0 0 6060 7347 0 0 5503 -17370 0 0 -27550zm40360 0l0 5503 -5888 0 0 22047 -10022 0 0 -22047 -5936 0 0 -5503 21846 0zm12310 0l0 27550 -10023 0 0 -27550 10023 0zm3998 0l9958 0c3146,0 5530,174 7152,528 1623,349 2928,1063 3925,2131 998,1074 1492,2798 1492,5178 0,1608 -348,2728 -1054,3361 -705,638 -2100,1120 -4176,1463 2319,377 3892,998 4720,1863 827,871 1240,2200 1240,3999l0 2555c0,1863 -300,3239 -892,4138 -592,895 -1532,1510 -2830,1840 -1298,331 -3957,494 -7979,494l-11556 0 0 -27550zm10023 4702l0 6130c422,-12 746,-17 981,-17 957,0 1573,-174 1833,-517 267,-348 397,-1341 397,-2972 0,-865 -105,-1469 -324,-1817 -219,-343 -503,-563 -852,-656 -349,-87 -1030,-139 -2035,-151zm0 10414l0 7732c1378,-35 2263,-191 2643,-476 382,-284 568,-986 568,-2101l0 -2578c0,-1184 -170,-1898 -511,-2153 -340,-250 -1240,-389 -2700,-424z"/>
  <path fill="#E4000F" d="M0 156982l258673 0 0 -2942 25 0 0 -82221 -727 0 132 -245 -130555 -71574 -78880 42756 0 -11708 -20629 0 0 22890 -20929 11344 3184 5989 117236 -63547 13179 7226 -99307 53828 3184 5989 103199 -55938 14009 7680 -76413 41418 3184 5989 80304 -43528 14987 8216 -55035 29831 3184 5989 58927 -31941 12957 7103 -32703 17727 3184 5988 36595 -19836 41001 22478 0 74242 -251966 0 0 6797zm8334 -16949l0 -43341 16315 0 0 30225 9377 0c2084,0 3608,-143 4574,-428 1677,-523 2516,-1544 2516,-3065 0,-2518 -2008,-5323 -6023,-8412 -2846,-2186 -6074,-4063 -9682,-5631l5108 -3636c2236,-1473 3837,-2637 4803,-3492 2033,-1759 3049,-3303 3049,-4634 0,-1236 -508,-1996 -1524,-2281 -1017,-285 -3050,-428 -6099,-428l-25463 0 3812 -13116 29427 0c6658,0 11511,1426 14561,4277 2439,2281 3659,5346 3659,9196 0,2566 -813,5013 -2439,7342 -1220,1711 -3152,3635 -5794,5774 3303,2234 5895,4705 7776,7414 2134,3136 3201,6463 3201,9979 0,3992 -1372,7200 -4116,9624 -3558,3089 -9225,4633 -17001,4633l-30037 0zm121749 0l-2820 0c-10267,0 -18831,-3564 -25692,-10692 -6658,-6891 -9987,-15137 -9987,-24736 0,-6558 1830,-11833 5489,-15825 4269,-4658 10749,-6986 19440,-6986l12732 0 3811 13116 -12731 0c-3049,0 -5438,452 -7166,1355 -3253,1711 -4879,4942 -4879,9694 0,6036 2236,10978 6709,14828 4726,4087 11028,6130 18906,6130l-3812 13116zm52984 -45123l-17381 0 0 45123 -16315 0 0 -45123 -17382 0 3812 -13116 43455 0 3811 13116zm50850 45123l-16315 0 0 -18462 -17839 0c0,3184 584,6391 1753,9611 1017,2804 2516,5751 4498,8839l-13265 8198c-3049,-4324 -5425,-8958 -7128,-13900 -1703,-4943 -2554,-9956 -2554,-15041 0,-5370 928,-10491 2783,-15362 1855,-4859 4663,-9053 8424,-12570 4015,-3754 8716,-6368 14104,-7841 4218,-1141 9707,-1711 16467,-1711l8005 0 3811 13116 -12807 0c-7573,0 -13240,1616 -17001,4847 -1982,1711 -3812,4610 -5489,8697l16238 0 0 -11762 16315 0 0 43341zm-149804 0l-16315 0 0 -58239 16315 0 0 58239z"/>
 </g>
</svg>
