<?xml version="1.0" encoding="UTF-8"?>
<!DOCTYPE svg PUBLIC "-//W3C//DTD SVG 1.1//EN" "http://www.w3.org/Graphics/SVG/1.1/DTD/svg11.dtd">
<!-- Creator: CorelDRAW X7 -->
<svg xmlns="http://www.w3.org/2000/svg" xml:space="preserve" width="781px" height="773px" version="1.1" shape-rendering="geometricPrecision" text-rendering="geometricPrecision" image-rendering="optimizeQuality" fill-rule="evenodd" clip-rule="evenodd"
viewBox="0 0 624267 617919"
 xmlns:xlink="http://www.w3.org/1999/xlink">
 <g id="Слой_x0020_1">
  <metadata id="CorelCorpID_0Corel-Layer"/>
  <path fill="#A6792C" d="M329173 87759c-8993,-4822 -10791,-12434 -9607,-20248 1188,-7847 5395,-15864 8381,-21335 5968,7650 12674,14904 20152,22207 7565,7380 16026,14717 25715,21751 -13001,5548 -27307,8828 -44641,-2375zm-12593 -79614c3028,3088 7548,8113 11777,12580l18 17 258 274 179 190 98 102 68 70 208 217c1189,1247 2347,2435 3428,3505l12 11 240 238 6 4 469 460 54 52 180 176 85 83 149 140 29 25 192 185 42 37 75 74 382 357 -125 121 -122 123 -2 0 -121 124 -121 125 -2 0 -121 125c-2217,2305 -4070,5015 -5930,7551l-102 139 -101 138 -102 136 -100 136 -180 -277 -63 -95 -184 -282 -14 -27c-3042,-4750 -7118,-12120 -9219,-18606l-37 -125c-966,-3015 -1501,-5836 -1303,-8103zm22895 23274c16269,15717 34910,31415 55965,45899 -5152,3809 -10503,7632 -16721,10569 -9238,-6652 -16718,-13034 -24239,-20612 -8790,-8355 -16720,-17220 -23017,-25958 2329,-3498 4986,-6796 8012,-9898zm115692 23784c-14227,-471 -24328,1334 -32786,4747 -8465,3421 -15329,8540 -23139,14485 -21054,-14610 -39694,-30471 -55762,-46496 12429,-9553 32118,-13253 52614,-8374 20718,4930 42353,17147 59073,35638zm13571 52009c-5682,-490 -11443,-1580 -17456,-3646 -14510,-5365 -31478,-14955 -45335,-24471 7153,-5384 14045,-10415 22443,-13760 8443,-3361 18438,-5185 31886,-4225 6461,8214 10630,16790 12101,24763 1471,7959 410,15447 -3639,21339zm42395 -22190c-2573,11945 -20235,20177 -33766,21971 2819,-6364 3227,-13725 1510,-21410 -1715,-7685 -5682,-15768 -11610,-23636 9771,923 31070,5802 40024,13467 3478,2977 4331,5945 3842,9608zm-125788 7631c6131,-3136 11527,-6832 16760,-10692 17904,12398 43006,26481 61812,30144 -17905,13089 -50980,363 -78572,-19452zm-4865 2231c18678,13505 41167,25450 60420,28313 14144,1686 26124,-2101 32828,-10296 16026,-598 33930,-8012 41249,-19741 2819,-4512 4498,-9951 2084,-15080 -2698,-5784 -9403,-9499 -16640,-12291 -11404,-4967 -26652,-8864 -38058,-10007 -17539,-20575 -41310,-34811 -64470,-41040 -22879,-6152 -45172,-2485 -59319,8485 -7765,-7343 -14878,-14630 -21255,-21952 -2045,-2374 -5847,-1162 -6257,1431 -366,2138 -366,4458 -120,6869 447,-488 940,-960 1348,-1412 36,393 49,799 43,1218 725,1088 354,5293 -155,6990 2252,8728 6924,18095 11803,24820 -4332,7286 -9810,17240 -11121,26918 -1305,9662 1915,17960 13656,24599 20223,11438 39900,8464 53964,2176z"/>
  <path fill="#A6792C" d="M300925 87742c8993,-4824 10751,-12438 9567,-20250 -1186,-7811 -5397,-15845 -8339,-21317 -6009,7670 -12721,14918 -20198,22207 -7565,7379 -15982,14716 -25670,21734 12998,5545 27306,8828 44640,-2374zm12590 -79579c-372,377 -768,787 -1182,1218l-204 215 -18 21 -227 236 -231 243 -20 21 -215 227 -39 42 -196 209 -63 67 -177 187 -86 91 -155 169 -111 114 -137 148 -132 139 -115 126 -156 164 -97 107 -179 189 -73 80 -205 218 -52 58 -228 244 -30 35 -253 269 -8 10 -263 283 -14 17 -251 270 -38 40 -227 248 -63 64 -208 226 -84 91 -186 199 -109 117 -162 176 -134 147 -139 150 -159 169 -115 126 -184 198 -93 99 -208 224 -66 75 -235 253 -45 45 -258 280 -20 21 -277 303 -6 1 -275 301 -30 29 -249 269 -54 61 -228 243 -80 84 -200 216 -105 113 -176 191 -129 135 -153 164 -154 164 -127 136 -178 191 -103 111 -204 216 -303 322 -53 58 -253 267 -28 32 -276 291 -3 2 -278 296 -22 20 -256 272 -44 47 -74 74 -229 245 -206 215 -250 262 -24 25 -116 120 -157 164 -138 145 -133 138 -6 6 -511 528 -24 25 -205 210 -4 7 -237 240 -48 50 -38 35 -248 255 -14 14 -259 264 -12 9 -249 252 -30 33 -62 59 -215 218 -12 11 -241 239 -24 28 -180 174 -27 27 -183 183 -64 61 -178 173 -42 41 -137 133 -33 36 -173 165 -88 88 -188 179 -51 48 -171 165 -71 67 -41 37 -78 75 -380 356c2657,2594 4783,5800 6949,8718l182 -277 60 -93 184 -285 14 -27 192 -296 28 -46 181 -286 25 -40 29 -49 155 -248 38 -61 31 -47 162 -263 56 -90 188 -304 22 -40 27 -43 173 -288 57 -89 166 -277 38 -63 6 -10 154 -262 36 -60 83 -140 186 -316 12 -22 12 -18 216 -374 29 -47 202 -350 22 -37 26 -48 202 -348 37 -68 172 -299 79 -142 11 -23 166 -298 31 -55 25 -44 188 -337 51 -94 180 -330 26 -48 14 -25 59 -106 143 -267 75 -141 148 -276 58 -108 4 -5 38 -70 178 -342 49 -90 434 -836 39 -79 186 -364 36 -70 213 -424 42 -84 149 -302 83 -167 196 -404 16 -31 188 -389 50 -105 184 -393 14 -30 2 -4 24 -45 175 -378 54 -116 188 -410 2 -2 194 -438 47 -104 149 -332 52 -120 179 -416 34 -78 153 -362 43 -101 174 -418 34 -80 147 -360 37 -97 333 -846 47 -120 310 -840 45 -121 123 -346 21 -68 145 -417 29 -89 117 -351 30 -87 14 -50 4 -16c988,-3048 1537,-5904 1334,-8195zm-22894 23275c-16270,15698 -34910,31395 -55963,45881 5149,3805 10505,7612 16719,10531 9240,-6634 16721,-13015 24243,-20574 8788,-8377 16720,-17238 23015,-25959 -2330,-3498 -4988,-6797 -8014,-9879zm-115690 23783c14227,-473 24284,1342 32744,4749 8463,3407 15332,8539 23181,14466 21053,-14611 39692,-30472 55760,-46497 -12429,-9554 -32154,-13207 -52653,-8338 -20715,4920 -42312,17131 -59032,35620zm-13574 51991c5684,-490 11447,-1580 17458,-3644 14514,-5367 31477,-14974 45335,-24472 -7193,-5384 -14085,-10399 -22482,-13743 -8447,-3361 -18398,-5202 -31848,-4223 -6500,8212 -10672,16786 -12141,24743 -1471,7976 -368,15445 3678,21339zm-42392 -22189c2576,11929 20236,20174 33768,21950 -2863,-6326 -3269,-13704 -1554,-21372 1718,-7682 5722,-15786 11651,-23636 -9770,905 -31079,5792 -40022,13451 -3488,2984 -4333,5963 -3843,9607zm125788 7613c-6130,-3135 -11525,-6834 -16760,-10675 -17905,12377 -43005,26483 -61812,30127 17907,13106 50980,340 78572,-19452zm4866 2230c-18682,13506 -41166,25430 -60421,28332 -14145,1668 -26124,-2121 -32828,-10296 -16023,-597 -33930,-8012 -41247,-19724 -2822,-4530 -4457,-9970 -2087,-15099 2700,-5783 9404,-9479 16640,-12272 11405,-4967 26654,-8863 38061,-10025 17535,-20557 41265,-34775 64426,-41006 22881,-6153 45215,-2518 59360,8451 7768,-7326 14879,-14630 21256,-21954 2045,-2356 5847,-1158 6256,1414 369,2175 369,4513 121,6980 -489,-509 -938,-979 -1348,-1413 -36,362 -48,741 -43,1127 -724,1092 -354,5298 155,6993l8 18c-2251,8719 -6927,18084 -11811,24798 4292,7287 9770,17240 11079,26919 1309,9679 -1913,17964 -13614,24582 -20223,11436 -39900,8446 -53963,2175z"/>
  <path fill="#A6792C" d="M88736 292756c-4876,8895 -12574,10672 -20476,9501 -7935,-1175 -16036,-5335 -21571,-8286 7735,-5904 15069,-12534 22453,-19932 7462,-7480 14883,-15852 21994,-25434 5607,12858 8925,27008 -2400,44151zm-80501 12457c3123,-2996 8205,-7465 12719,-11649l20 -20 276 -255 193 -175 102 -96 72 -70 220 -204c1259,-1176 2460,-2320 3542,-3392l12 -11 242 -236 3 -6 465 -465 50 -51 180 -183 84 -82 141 -146 26 -28 186 -190 40 -42 74 -78 359 -377 123 125 125 120 126 124 126 119 126 122c2332,2188 5069,4026 7634,5866l139 101 141 99 140 102 138 98 -281 179 -94 60 -289 182 -25 17c-4804,3008 -12257,7039 -18815,9114l-129 36c-3047,958 -5896,1484 -8191,1292zm23534 -22646c15890,-16091 31764,-34528 46407,-55352 3851,5093 7719,10392 10687,16537 -6725,9140 -13178,16535 -20839,23977 -8450,8695 -17412,16536 -26248,22764 -3536,-2305 -6874,-4931 -10007,-7926zm24049 -114421c-477,14072 1348,24064 4800,32426 3457,8371 8635,15162 14646,22885 -14772,20824 -30810,39259 -47014,55149 -9658,-12294 -13398,-31762 -8468,-52036 4985,-20491 17339,-41887 36036,-58424zm52584 -13421c-494,5617 -1595,11320 -3683,17264 -5427,14355 -15122,31131 -24745,44838 -5443,-7077 -10531,-13893 -13912,-22197 -3401,-8351 -5242,-18238 -4269,-31536 8302,-6390 16973,-10512 25037,-11969 8045,-1455 15616,-405 21572,3600zm-22435 -41928c12078,2547 20401,20014 22215,33395 -6435,-2788 -13878,-3192 -21646,-1497 -7772,1700 -15947,5620 -23900,11484 935,-9663 5869,-30726 13618,-39580 3009,-3441 6011,-4287 9713,-3802zm7717 124408c-3172,-6065 -6908,-11402 -10814,-16576 12536,-17711 26778,-42536 30482,-61135 13234,17709 365,50418 -19668,77711zm2255 4809c13655,-18476 25733,-40714 28628,-59757 1704,-13987 -2124,-25834 -10410,-32464 -604,-15851 -8101,-33559 -19960,-40799 -4566,-2787 -10062,-4446 -15250,-2060 -5847,2670 -9603,9300 -12426,16456 -5023,11278 -8963,26358 -10120,37641 -20802,17348 -35196,40858 -41494,63758 -6222,22633 -2510,44679 8578,58670 -7422,7679 -14792,14716 -22196,21020 -2402,2025 -1173,5783 1446,6190 2163,363 4511,363 6949,121 -494,-445 -972,-930 -1431,-1334 396,-38 807,-50 1234,-43 1099,-719 5353,-351 7068,153 8824,-2228 18293,-6849 25095,-11677 7368,4288 17428,9705 27217,10998 9768,1292 18161,-1890 24872,-13503 11564,-20000 8561,-39461 2200,-53370z"/>
  <path fill="#A6792C" d="M88716 320693c-4874,-8894 -12572,-10630 -20473,-9460 -7899,1173 -16019,5339 -21555,8246 7753,5947 15087,12581 22454,19975 7459,7482 14882,15808 21975,25390 5609,-12857 8927,-27006 -2401,-44151zm-80462 -12451c383,366 794,761 1233,1170l217 201 20 16 239 225 246 230 23 19 226 213 45 40 211 193 65 62 192 177 90 82 169 158 118 107 150 135 139 130 130 114 166 154 105 96 192 177 82 71 220 203 60 53 246 226 34 28 274 252 11 7 285 260 16 14 273 247 39 39 252 226 66 60 225 207 95 84 202 182 121 109 174 160 147 132 152 136 173 160 126 112 202 181 99 94 229 206 75 64 254 232 47 42 284 258 21 21 302 273 7 8 300 270 33 31 272 246 56 53 249 226 86 76 219 200 112 103 193 176 137 125 166 151 167 153 137 126 193 178 112 99 217 202 329 301 57 53 268 249 33 29 292 271 6 3 298 277 22 22 274 253 47 43 77 74 243 224 220 204 265 248 25 23 122 117 165 155 146 138 139 130 5 6 535 505 25 23 214 203 5 5 243 231 51 50 38 36 257 245 14 15 267 257 10 11 254 247 34 29 59 64 221 210 10 11 240 239 29 23 175 178 29 27 186 183 62 64 174 176 42 40 134 134 36 37 166 167 88 90 182 185 51 51 164 167 69 72 40 40 74 77 358 376c2623,-2627 5866,-4730 8819,-6873l-284 -180 -91 -60 -291 -181 -26 -16 -301 -190 -43 -26 -290 -179 -43 -27 -50 -28 -249 -151 -61 -41 -48 -26 -267 -162 -89 -54 -311 -189 -36 -19 -45 -28 -289 -173 -92 -52 -282 -167 -63 -36 -11 -7 -265 -155 -60 -33 -142 -81 -318 -187 -24 -11 -18 -12 -377 -216 -47 -24 -353 -201 -39 -21 -46 -27 -354 -197 -69 -40 -305 -165 -143 -81 -21 -13 -302 -164 -55 -31 -44 -22 -345 -185 -94 -52 -330 -176 -50 -29 -26 -14 -108 -56 -268 -144 -142 -75 -280 -146 -108 -56 -7 -2 -72 -37 -343 -179 -91 -46 -848 -429 -75 -40 -370 -186 -73 -34 -428 -211 -85 -41 -305 -149 -170 -81 -406 -194 -30 -16 -396 -186 -104 -49 -399 -182 -29 -13 -7 -3 -45 -24 -380 -171 -119 -55 -414 -184 -5 -2 -440 -195 -107 -48 -336 -142 -118 -52 -421 -178 -79 -34 -367 -152 -101 -43 -424 -172 -81 -33 -363 -145 -97 -37 -856 -331 -123 -46 -849 -306 -124 -43 -349 -124 -67 -24 -425 -139 -87 -32 -355 -116 -88 -27 -53 -16 -14 -1c-3082,-977 -5969,-1521 -8286,-1320zm23533 22641c15872,16092 31745,34528 46390,55350 3850,-5093 7698,-10392 10652,-16536 -6710,-9138 -13162,-16535 -20804,-23977 -8470,-8692 -17432,-16535 -26248,-22763 -3536,2305 -6874,4936 -9990,7926zm24050 114421c-477,-14072 1355,-24017 4799,-32386 3447,-8368 8634,-15162 14629,-22923 -14775,-20824 -30811,-39259 -47014,-55149 -9660,12290 -13356,31801 -8432,52076 4975,20485 17321,41845 36018,58382zm52566 13422c-495,-5620 -1597,-11320 -3684,-17264 -5428,-14352 -15140,-31133 -24744,-44836 -5443,7116 -10513,13931 -13894,22234 -3401,8354 -5260,18197 -4269,31497 8303,6430 16971,10556 25019,12009 8061,1457 15613,366 21572,-3640zm-22435 41928c12061,-2547 20399,-20014 22195,-33398 -6397,2835 -13856,3233 -21609,1537 -7771,-1698 -15965,-5657 -23900,-11521 917,9662 5856,30739 13601,39585 3017,3445 6028,4282 9713,3797zm7698 -124405c-3169,6060 -6910,11399 -10796,16577 12518,17709 26779,42532 30463,61130 13253,-17709 348,-50418 -19667,-77707zm2255 -4813c13655,18476 25713,40715 28647,59757 1686,13986 -2144,25838 -10410,32468 -605,15848 -8101,33558 -19943,40794 -4583,2789 -10082,4405 -15267,2061 -5847,-2666 -9586,-9297 -12409,-16455 -5022,-11278 -8962,-26360 -10137,-37641 -20784,-17347 -35158,-40813 -41460,-63721 -6220,-22628 -2545,-44717 8543,-58705 -7406,-7682 -14793,-14718 -22197,-21025 -2382,-2019 -1172,-5780 1429,-6187 2201,-364 4566,-364 7057,-119 -513,485 -989,930 -1428,1330 366,39 750,51 1143,46 1101,715 5354,349 7065,-154l22 -6c8816,2225 18283,6848 25073,11682 7370,-4244 17429,-9666 27217,-10958 9789,-1294 18165,1890 24855,13462 11565,20001 8541,39462 2200,53371z"/>
  <path fill="#A6792C" d="M295093 530159c8993,4824 10790,12436 9608,20249 -1188,7846 -5397,15858 -8381,21336 -5969,-7651 -12674,-14907 -20154,-22209 -7563,-7379 -16025,-14717 -25714,-21752 13001,-5545 27307,-8828 44641,2376zm12593 79617c-3027,-3093 -7548,-8116 -11775,-12581l-18 -20 -260 -275 -178 -188 -99 -104 -69 -68 -207 -218c-1190,-1247 -2345,-2433 -3428,-3503l-10 -13 -240 -239 -6 -6 -471 -456 -53 -50 -184 -179 -83 -80 -147 -140 -28 -27 -194 -184 -41 -42 -77 -71 -381 -355 124 -123 124 -126 2 0 122 -121 121 -121 121 -130c2217,-2303 4071,-5009 5930,-7549l103 -138 101 -141 103 -134 99 -140 180 283 63 92 183 285 15 25c3041,4749 7117,12121 9220,18604l34 127c968,3013 1502,5835 1304,8106zm-22894 -23276c-16270,-15719 -34914,-31414 -55966,-45898 5152,-3808 10506,-7635 16720,-10570 9239,6654 16720,13036 24241,20613 8791,8355 16721,17219 23017,25959 -2332,3496 -4987,6795 -8012,9896zm-115692 -23781c14226,468 24328,-1336 32786,-4752 8466,-3418 15329,-8541 23138,-14483 21053,14608 39695,30472 55761,46495 -12427,9554 -32115,13255 -52612,8376 -20720,-4930 -42354,-17147 -59073,-35636zm-13572 -52011c5682,489 11446,1578 17457,3643 14511,5367 31477,14956 45333,24473 -7153,5383 -14045,10414 -22441,13759 -8444,3362 -18436,5183 -31887,4224 -6460,-8212 -10629,-16787 -12101,-24763 -1470,-7960 -411,-15445 3639,-21336zm-42395 22188c2577,-11944 20237,-20175 33769,-21969 -2823,6362 -3229,13723 -1514,21407 1717,7686 5683,15772 11611,23636 -9772,-926 -31069,-5803 -40023,-13466 -3477,-2981 -4332,-5946 -3843,-9608zm125791 -7631c-6133,3136 -11528,6831 -16763,10697 -17905,-12403 -43005,-26486 -61810,-30150 17904,-13088 50978,-362 78573,19453zm4864 -2232c-18681,-13506 -41167,-25451 -60420,-28312 -14145,-1685 -26125,2102 -32830,10296 -16024,598 -33929,8011 -41246,19739 -2823,4514 -4499,9954 -2085,15082 2698,5784 9402,9499 16637,12293 11407,4963 26654,8864 38059,10005 17540,20575 41312,34810 64469,41039 22882,6155 45175,2486 59319,-8483 7767,7342 14880,14631 21257,21955 2045,2373 5848,1157 6254,-1435 370,-2139 370,-4458 127,-6869 -452,490 -941,959 -1351,1411 -37,-388 -51,-795 -43,-1218 -724,-1084 -356,-5293 153,-6988 -2251,-8729 -6922,-18095 -11804,-24820 4334,-7288 9811,-17240 11122,-26919 1305,-9664 -1916,-17960 -13654,-24600 -20224,-11433 -39901,-8465 -53964,-2176z"/>
  <path fill="#A6792C" d="M323342 530176c-8994,4822 -10752,12439 -9568,20249 1187,7814 5397,15843 8340,21319 6009,-7668 12721,-14920 20198,-22208 7565,-7378 15982,-14718 25670,-21731 -12999,-5551 -27305,-8829 -44640,2371zm-12591 79578c372,-376 769,-787 1183,-1218l204 -214 18 -19 226 -237 0 -3 232 -241 20 -25 213 -224 40 -42 196 -206 63 -71 177 -186 87 -89 156 -170 109 -116 137 -144 130 -141 118 -127 153 -164 99 -103 180 -193 73 -77 203 -220 51 -59 228 -241 33 -36 252 -272 10 -10 261 -280 16 -17 249 -270 39 -40 229 -250 61 -63 206 -228 85 -87 188 -203 106 -115 163 -176 133 -145 141 -153 159 -167 115 -125 183 -200 93 -98 206 -226 69 -75 234 -252 45 -45 256 -282 23 -21 278 -298 5 -9 276 -293 27 -34 251 -267 56 -58 226 -247 77 -83 202 -217 105 -113 177 -189 128 -137 153 -161 154 -167 128 -135 177 -191 103 -111 204 -214 304 -324 56 -59 251 -264 26 -34 275 -289 5 -5 278 -293 22 -22 256 -274 45 -46 72 -76 229 -238 208 -218 249 -263 24 -25 115 -121 157 -163 140 -146 133 -138 5 -5 511 -527 24 -23 206 -211 4 -8 236 -241 48 -50 38 -36 248 -252 14 -15 260 -265 11 -11 246 -249 33 -34 60 -60 217 -218 10 -9 242 -240 26 -25 177 -176 29 -29 184 -182 63 -63 176 -172 44 -42 135 -133 35 -34 172 -165 91 -88 186 -177 51 -51 171 -162 70 -70 42 -40 78 -72 380 -353c-2657,-2596 -4783,-5801 -6949,-8724l-182 283 -62 91 -182 286 -17 26 -189 297 -27 43 -182 291 -24 36 -33 50 -155 247 -36 62 -31 47 -164 264 -54 88 -187 305 -22 39 -27 45 -176 287 -53 91 -167 275 -37 65 -8 8 -155 262 -35 59 -82 139 -186 317 -15 23 -10 18 -219 374 -25 47 -204 348 -20 40 -27 46 -200 349 -40 67 -170 303 -79 139 -12 22 -165 301 -31 51 -25 47 -187 337 -51 92 -183 331 -25 51 -12 22 -62 105 -140 267 -78 141 -146 275 -59 109 -3 6 -37 73 -180 340 -49 89 -434 838 -38 75 -186 367 -36 68 -213 427 -44 82 -150 302 -80 167 -197 400 -15 33 -187 391 -50 103 -186 396 -16 28 -1 5 -22 46 -175 377 -54 115 -188 411 -1 2 -196 438 -48 105 -146 330 -53 124 -179 413 -34 79 -154 360 -43 102 -173 417 -33 84 -147 355 -38 99 -332 846 -48 123 -310 836 -44 124 -123 346 -24 66 -143 420 -29 86 -117 349 -31 90 -16 49 -4 16c-985,3049 -1534,5904 -1332,8194zm22894 -23271c16270,-15701 34911,-31397 55965,-45882 -5152,-3807 -10507,-7616 -16721,-10534 -9240,6638 -16720,13016 -24241,20575 -8792,8376 -16721,17239 -23015,25960 2330,3498 4985,6798 8012,9881zm115692 -23786c-14229,473 -24283,-1343 -32747,-4748 -8461,-3409 -15331,-8541 -23180,-14465 -21052,14609 -39694,30472 -55759,46495 12430,9554 32153,13208 52653,8338 20716,-4921 42312,-17130 59033,-35620zm13570 -51988c-5680,488 -11444,1577 -17456,3642 -14512,5368 -31475,14973 -45334,24472 7195,5384 14085,10395 22482,13741 8446,3361 18398,5202 31848,4223 6498,-8211 10669,-16789 12139,-24744 1475,-7974 371,-15444 -3679,-21334zm42395 22189c-2576,-11930 -20235,-20176 -33768,-21954 2863,6325 3269,13702 1553,21372 -1717,7682 -5723,15789 -11651,23637 9772,-908 31081,-5791 40023,-13448 3485,-2987 4332,-5966 3843,-9607zm-125789 -7614c6132,3133 11526,6834 16759,10677 17905,-12381 43008,-26485 61814,-30128 -17906,-13111 -50980,-348 -78573,19451zm-4864 -2230c18679,-13506 41165,-25433 60422,-28333 14143,-1668 26121,2124 32826,10296 16023,598 33930,8012 41246,19723 2821,4532 4457,9970 2087,15098 -2699,5784 -9403,9484 -16640,12272 -11404,4968 -26654,8865 -38060,10025 -17537,20558 -41265,34776 -64427,41006 -22881,6151 -45213,2519 -59359,-8449 -7769,7322 -14879,14631 -21256,21955 -2046,2352 -5847,1156 -6257,-1415 -368,-2177 -368,-4514 -123,-6980 491,508 941,978 1349,1414 35,-364 51,-741 45,-1130 722,-1091 352,-5296 -155,-6992l-6 -19c2249,-8719 6925,-18084 11810,-24795 -4293,-7290 -9772,-17243 -11081,-26919 -1308,-9683 1914,-17966 13615,-24581 20220,-11441 39901,-8450 53964,-2176z"/>
  <path fill="#A6792C" d="M535530 325161c4875,-8894 12574,-10672 20475,-9502 7934,1173 16037,5338 21573,8291 -7735,5901 -15071,12533 -22454,19929 -7462,7481 -14883,15848 -21993,25435 -5609,-12859 -8927,-27007 2399,-44153zm80502 -12454c-3125,2994 -8204,7464 -12721,11645l-19 21 -276 257 -194 175 -99 95 -72 67 -221 208c-1261,1178 -2461,2321 -3542,3388l-13 14 -240 238 -6 6 -464 463 -51 52 -178 182 -85 84 -141 145 -27 26 -185 191 -38 39 -74 81 -362 373 -122 -122 -123 -124 -126 -117 -127 -124 -126 -119c-2332,-2189 -5071,-4026 -7636,-5866l-139 -98 -141 -100 -138 -104 -137 -97 281 -184 95 -57 288 -179 23 -17c4805,-3007 12257,-7040 18815,-9115l128 -37c3049,-956 5897,-1488 8193,-1290zm-23535 22642c-15890,16093 -31762,34529 -46408,55349 -3847,-5093 -7716,-10387 -10685,-16534 6725,-9135 13177,-16537 20839,-23973 8450,-8698 17413,-16538 26249,-22763 3536,2302 6872,4929 10005,7921zm-24050 114422c479,-14071 -1347,-24062 -4799,-32424 -3457,-8376 -8632,-15166 -14645,-22886 14771,-20825 30810,-39259 47012,-55150 9662,12294 13402,31765 8470,52037 -4985,20489 -17339,41889 -36038,58423zm-52584 13424c497,-5625 1596,-11320 3684,-17268 5427,-14351 15122,-31129 24745,-44837 5444,7077 10531,13893 13914,22200 3397,8349 5240,18232 4269,31535 -8303,6387 -16974,10511 -25037,11968 -8047,1452 -15618,404 -21575,-3598zm22436 41928c-12078,-2551 -20399,-20018 -22216,-33397 6436,2790 13878,3192 21649,1494 7769,-1696 15947,-5618 23900,-11483 -935,9664 -5866,30729 -13620,39584 -3010,3438 -6009,4286 -9713,3802zm-7717 -124409c3171,6067 6910,11404 10815,16577 -12537,17709 -26779,42534 -30483,61135 -13232,-17712 -365,-50420 19668,-77712zm-2252 -4813c-13658,18481 -25734,40716 -28632,59759 -1703,13988 2127,25835 10411,32467 604,15848 8101,33556 19961,40795 4562,2787 10063,4447 15249,2061 5846,-2667 9603,-9300 12428,-16455 5022,-11281 8960,-26360 10118,-37641 20802,-17345 35195,-40855 41494,-63763 6224,-22625 2513,-44675 -8578,-58665 7424,-7681 14793,-14715 22196,-21026 2403,-2017 1175,-5779 -1444,-6183 -2166,-362 -4512,-362 -6949,-122 493,447 970,932 1428,1336 -395,35 -806,51 -1232,42 -1098,718 -5353,351 -7069,-153 -8823,2226 -18294,6846 -25093,11673 -7369,-4283 -17430,-9701 -27218,-10997 -9769,-1294 -18163,1893 -24872,13505 -11565,19999 -8561,39463 -2198,53367z"/>
  <path fill="#A6792C" d="M535549 297222c4876,8895 12575,10633 20475,9465 7901,-1175 16017,-5339 21554,-8251 -7753,-5943 -15084,-12580 -22453,-19973 -7460,-7484 -14882,-15807 -21977,-25388 -5608,12853 -8924,27005 2401,44147zm80463 12454c-383,-370 -794,-761 -1231,-1170l-218 -202 -18 -19 -241 -225 -247 -224 -22 -23 -227 -210 -45 -41 -210 -192 -67 -64 -190 -173 -91 -88 -170 -153 -117 -107 -149 -137 -140 -127 -128 -118 -169 -154 -103 -97 -194 -175 -81 -76 -220 -197 -58 -57 -249 -221 -32 -34 -275 -246 -10 -10 -286 -258 -16 -12 -272 -253 -42 -36 -249 -224 -67 -64 -226 -204 -93 -84 -202 -185 -122 -106 -173 -163 -148 -131 -149 -135 -176 -159 -126 -116 -201 -178 -99 -93 -228 -204 -73 -68 -257 -234 -47 -41 -284 -256 -21 -21 -303 -276 -5 -4 -300 -270 -32 -31 -275 -247 -56 -53 -247 -225 -85 -80 -220 -197 -114 -103 -191 -176 -139 -127 -166 -153 -164 -149 -140 -126 -191 -177 -114 -103 -216 -200 -331 -299 -57 -55 -266 -251 -33 -24 -293 -272 -6 -7 -298 -274 -21 -21 -275 -253 -45 -42 -80 -74 -240 -226 -220 -202 -267 -252 -23 -23 -125 -112 -164 -156 -147 -140 -138 -132 -6 -4 -535 -504 -22 -24 -214 -205 -5 -3 -244 -236 -50 -45 -40 -37 -256 -243 -14 -18 -268 -257 -10 -7 -253 -249 -33 -31 -62 -62 -218 -211 -12 -13 -240 -238 -27 -23 -178 -175 -28 -31 -184 -180 -62 -64 -177 -176 -40 -38 -135 -136 -34 -35 -168 -170 -90 -89 -181 -184 -50 -50 -164 -168 -69 -74 -38 -39 -74 -75 -359 -378c-2623,2628 -5865,4731 -8818,6876l281 177 94 62 290 179 24 14 304 189 44 29 289 179 40 23 51 32 250 153 62 38 46 27 266 163 91 54 310 186 38 20 44 28 289 172 91 56 282 166 65 35 9 7 265 154 60 34 143 83 317 182 25 16 16 7 380 218 45 26 353 198 40 24 47 27 354 198 66 36 304 169 144 80 23 13 301 165 56 25 43 28 343 183 95 50 332 178 51 32 24 11 108 59 268 142 143 70 279 148 109 58 6 5 72 34 344 179 91 46 847 431 76 39 370 183 72 36 430 211 82 40 308 151 167 81 407 194 32 14 393 185 107 49 399 184 28 15 6 1 45 23 379 174 120 53 414 184 4 4 443 195 104 42 336 146 119 52 420 178 80 34 365 153 103 42 426 171 81 34 361 143 97 39 856 327 125 46 847 312 124 40 348 122 67 23 424 146 89 25 355 117 89 28 51 17 16 2c3082,977 5969,1519 8285,1320zm-23534 -22641c-15872,-16093 -31744,-34531 -46389,-55351 -3848,5094 -7699,10389 -10651,16537 6708,9136 13161,16536 20805,23978 8468,8687 17432,16537 26248,22760 3537,-2306 6872,-4933 9987,-7924zm-24047 -114423c477,14074 -1356,24017 -4800,32384 -3447,8370 -8635,15166 -14628,22927 14772,20823 30809,39261 47012,55149 9663,-12293 13355,-31801 8433,-52074 -4977,-20490 -17323,-41845 -36017,-58386zm-52566 -13421c495,5621 1596,11320 3683,17263 5427,14354 15138,31132 24744,44838 5444,-7115 10512,-13929 13894,-22236 3399,-8350 5260,-18194 4268,-31498 -8299,-6424 -16970,-10554 -25017,-12007 -8063,-1454 -15615,-365 -21572,3640zm22434 -41928c-12061,2547 -20398,20014 -22196,33395 6397,-2828 13856,-3232 21609,-1537 7771,1703 15966,5663 23901,11526 -915,-9665 -5859,-30738 -13601,-39585 -3018,-3446 -6029,-4283 -9713,-3799zm-7698 124407c3170,-6064 6909,-11398 10795,-16575 -12518,-17712 -26779,-42534 -30463,-61133 -13251,17711 -349,50421 19668,77708zm-2256 4814c-13654,-18478 -25714,-40716 -28645,-59761 -1688,-13987 2143,-25834 10408,-32465 605,-15851 8103,-33557 19943,-40793 4581,-2792 10081,-4407 15268,-2062 5846,2667 9585,9298 12408,16452 5022,11282 8962,26364 10138,37642 20783,17344 35159,40816 41459,63722 6221,22627 2547,44718 -8542,58705 7404,7682 14791,14718 22195,21022 2384,2023 1174,5784 -1427,6188 -2202,364 -4567,364 -7058,124 514,-489 989,-930 1427,-1336 -366,-34 -746,-48 -1140,-44 -1103,-715 -5354,-347 -7068,156l-18 6c-8819,-2224 -18287,-6853 -25076,-11681 -7368,4244 -17430,9665 -27217,10958 -9789,1292 -18163,-1895 -24854,-13467 -11566,-19998 -8541,-39458 -2201,-53366z"/>
  <path fill="#A6792C" d="M399024 342911l0 -5249 5771 0 509 -1463 -6280 0 0 -5334 7106 0 507 -1484 -9262 0 0 15016 8755 0 507 -1486 -7613 0zm-21123 376l0 -2111c-170,209 -1777,2050 -4565,2050 -3470,0 -6218,-2865 -6218,-6318 0,-3427 2748,-6313 6218,-6313 2958,0 4587,2070 4587,2070l0 -2113c-2221,-1567 -4587,-1463 -4587,-1463 -4357,0 -7911,3514 -7911,7819 0,4310 3554,7822 7911,7822 0,0 2366,107 4565,-1443zm-32310 1110l1650 0 -6469 -15181 -6470 15181 1651 0 1416 -3327 6807 0 1415 3327zm-2028 -4810l-5560 0 2769 -6524 2791 6524zm-35839 -8658l2793 0c2050,0 3720,584 3720,2696 0,2093 -1670,2699 -3720,2699l-2793 0 0 -5395zm2793 -1485l-4463 0 0 14953 1670 0 0 -6588 2793 0 358 0 4609 6818 1269 -1027 -4122 -5979c1901,-398 3297,-1464 3297,-3996 0,-3406 -2536,-4181 -5411,-4181zm-32310 1485l2792 0c2051,0 3721,584 3721,2696 0,2093 -1670,2699 -3721,2699l-2792 0 0 -5395zm2792 -1485l-4462 0 0 14953 1670 0 0 -6588 2792 0 359 0 4609 6818 1269 -1027 -4123 -5979c1903,-398 3298,-1464 3298,-3996 0,-3406 -2538,-4181 -5412,-4181zm-30680 13467l0 -5249 5772 0 507 -1463 -6279 0 0 -5334 7104 0 507 -1484 -9260 0 0 15016 8753 0 507 -1486 -7611 0zm-48793 -6740l7361 0 -520 1475 -7359 0 518 -1475zm214372 0l7362 0 -518 1475 -7361 0 517 -1475zm40852 -21031c-10275,0 -18417,-8484 -18417,-18706 0,-10160 8142,-18708 18417,-18708 10271,0 18416,8548 18416,18708 0,10222 -8145,18706 -18416,18706zm-55902 -8484l-17102 -32895 -9081 44850 4886 0 6013 -31655 15284 30232 15347 -30232 5886 31655 4885 0 -8955 -44974 -17163 33019zm-56912 7558l0 -15550 17100 0 1504 -4338 -18604 0 0 -15796 21048 0 1502 -4398 -27436 0 0 44479 25934 0 1502 -4397 -22550 0zm-33215 -39897l-13217 0 0 44294 4947 0 0 -16199 0 -23695 8270 0c6076,0 11023,1733 11023,7990 0,6196 -4949,7992 -11023,7992l-2990 0 -1079 4398 4069 0 1065 0 13199 19526 5843 0 -13843 -20083c5638,-1176 9772,-4336 9772,-11833 0,-10098 -7519,-12390 -16036,-12390zm-44673 44978l0 -45412 -4887 1487 0 32400 -32947 -34133 0 44974 4887 0 0 -33204 32947 33888zm-51490 -684l4887 0 -19168 -44974 -19167 44974 4885 0 14282 -33576c4785,11184 9515,22387 14281,33576zm-65144 -33328c0,-5267 3322,-7435 9145,-7435 6139,0 10714,2602 12778,4894l0 -5267c-2064,-2042 -6261,-4273 -12778,-4273 -7078,0 -14343,3222 -14343,12081 0,7558 8457,10716 13529,12452 5512,1858 11903,3841 11903,8611 0,4894 -3134,8364 -11277,8364 -4760,0 -11462,-3345 -14280,-5762l0 5450c2818,2478 7704,4897 14280,4897 11087,0 16476,-4462 16476,-12949 0,-8177 -8959,-11027 -14660,-13009 -5073,-1797 -10773,-3718 -10773,-8054zm140792 9002l-13860 0 -1504 4336 13820 0 1544 -4336zm166544 25318c12841,0 23427,-10408 23427,-23169 0,-12762 -10586,-23169 -23427,-23169 -12905,0 -23429,10407 -23429,23169 0,12761 10524,23169 23429,23169zm-227617 11326l507 -1485 -11501 0 -507 1485 5180 0 0 13468 1647 0 0 -13468 4674 0z"/>
 </g>
</svg>
