<?xml version="1.0" encoding="UTF-8"?>
<!DOCTYPE svg PUBLIC "-//W3C//DTD SVG 1.1//EN" "http://www.w3.org/Graphics/SVG/1.1/DTD/svg11.dtd">
<!-- Creator: CorelDRAW X7 -->
<svg xmlns="http://www.w3.org/2000/svg" xml:space="preserve" width="400mm" height="196.685mm" version="1.1" style="shape-rendering:geometricPrecision; text-rendering:geometricPrecision; image-rendering:optimizeQuality; fill-rule:evenodd; clip-rule:evenodd"
viewBox="0 0 38734 19046"
 xmlns:xlink="http://www.w3.org/1999/xlink">
 <defs>
  <style type="text/css">
   <![CDATA[
    .str0 {stroke:white;stroke-width:168.573;stroke-linejoin:bevel}
    .fil0 {fill:none}
    .fil3 {fill:none;fill-rule:nonzero}
    .fil2 {fill:#AEA03C;fill-rule:nonzero}
    .fil1 {fill:#C85C31;fill-rule:nonzero}
    .fil4 {fill:#FEFEFE;fill-rule:nonzero}
    .fil5 {fill:#FFF383;fill-opacity:0.501961}
    .fil8 {fill:url(#id0);fill-rule:nonzero}
    .fil35 {fill:url(#id1);fill-rule:nonzero}
    .fil19 {fill:url(#id2);fill-rule:nonzero}
    .fil29 {fill:url(#id3);fill-rule:nonzero}
    .fil12 {fill:url(#id4);fill-rule:nonzero}
    .fil32 {fill:url(#id5);fill-rule:nonzero}
    .fil7 {fill:url(#id6);fill-rule:nonzero}
    .fil26 {fill:url(#id7);fill-rule:nonzero}
    .fil31 {fill:url(#id8);fill-rule:nonzero}
    .fil23 {fill:url(#id9);fill-rule:nonzero}
    .fil13 {fill:url(#id10);fill-rule:nonzero}
    .fil20 {fill:url(#id11);fill-rule:nonzero}
    .fil15 {fill:url(#id12);fill-rule:nonzero}
    .fil22 {fill:url(#id13);fill-rule:nonzero}
    .fil9 {fill:url(#id14);fill-rule:nonzero}
    .fil10 {fill:url(#id15);fill-rule:nonzero}
    .fil21 {fill:url(#id16);fill-rule:nonzero}
    .fil17 {fill:url(#id17);fill-rule:nonzero}
    .fil11 {fill:url(#id18);fill-rule:nonzero}
    .fil16 {fill:url(#id19);fill-rule:nonzero}
    .fil28 {fill:url(#id20);fill-rule:nonzero}
    .fil30 {fill:url(#id21);fill-rule:nonzero}
    .fil34 {fill:url(#id22);fill-rule:nonzero}
    .fil33 {fill:url(#id23);fill-rule:nonzero}
    .fil18 {fill:url(#id24);fill-rule:nonzero}
    .fil6 {fill:url(#id25);fill-rule:nonzero}
    .fil27 {fill:url(#id26);fill-rule:nonzero}
    .fil14 {fill:url(#id27);fill-rule:nonzero}
    .fil25 {fill:url(#id28);fill-rule:nonzero}
    .fil24 {fill:url(#id29);fill-rule:nonzero}
   ]]>
  </style>
  <radialGradient id="id0" gradientUnits="userSpaceOnUse" gradientTransform="matrix(1.62718 1.27069 -1.38299 1.39195 5947 -34743)" cx="22823" cy="14650.6" r="545.142" fx="22823" fy="14650.6">
   <stop offset="0" style="stop-opacity:1; stop-color:#F8B361"/>
   <stop offset="0.411765" style="stop-opacity:1; stop-color:#B96132"/>
   <stop offset="1" style="stop-opacity:1; stop-color:#7A1004"/>
  </radialGradient>
  <radialGradient id="id1" gradientUnits="userSpaceOnUse" gradientTransform="matrix(1.58327 1.22591 -1.3457 1.34292 11719 -24550)" xlink:href="#id0" cx="15687.9" cy="15507.9" r="358.696" fx="15687.9" fy="15507.9">
  </radialGradient>
  <radialGradient id="id2" gradientUnits="userSpaceOnUse" gradientTransform="matrix(1.70313 0.594866 -1.44755 0.651634 4631 -7618)" xlink:href="#id0" cx="20516.8" cy="13165.1" r="910.902" fx="20516.8" fy="13165.1">
  </radialGradient>
  <radialGradient id="id3" gradientUnits="userSpaceOnUse" gradientTransform="matrix(1.78553 1.58997 -1.51755 1.74164 9758 -37575)" xlink:href="#id0" cx="16620.3" cy="15033.3" r="499.484" fx="16620.3" fy="15033.3">
  </radialGradient>
  <radialGradient id="id4" gradientUnits="userSpaceOnUse" gradientTransform="matrix(1.40766 1.64268 -1.19647 1.7995 8275 -50997)" xlink:href="#id0" cx="23741.8" cy="15005.9" r="519.128" fx="23741.8" fy="15005.9">
  </radialGradient>
  <radialGradient id="id5" gradientUnits="userSpaceOnUse" gradientTransform="matrix(1.17608 1.56844 -0.999603 1.71813 12151 -40372)" xlink:href="#id0" cx="18668.4" cy="15444.8" r="434.539" fx="18668.4" fy="15444.8">
  </radialGradient>
  <radialGradient id="id6" gradientUnits="userSpaceOnUse" gradientTransform="matrix(1.55393 1.2075 -1.32079 1.32279 10083 -32442)" xlink:href="#id0" cx="22323.3" cy="16996.1" r="572.344" fx="22323.3" fy="16996.1">
  </radialGradient>
  <radialGradient id="id7" gradientUnits="userSpaceOnUse" gradientTransform="matrix(1.67401 1.51133 -1.42283 1.65558 11178 -36284)" xlink:href="#id0" cx="17088.7" cy="15951.2" r="577.659" fx="17088.7" fy="15951.2">
  </radialGradient>
  <radialGradient id="id8" gradientUnits="userSpaceOnUse" gradientTransform="matrix(1.45062 1.26612 -1.23296 1.38698 10190 -30491)" xlink:href="#id0" cx="19390.3" cy="15351.5" r="411.89" fx="19390.3" fy="15351.5">
  </radialGradient>
  <radialGradient id="id9" gradientUnits="userSpaceOnUse" gradientTransform="matrix(1.4453 1.35985 -1.22847 1.48968 11159 -28077)" xlink:href="#id0" cx="15369.8" cy="14654.8" r="567.141" fx="15369.8" fy="14654.8">
  </radialGradient>
  <radialGradient id="id10" gradientUnits="userSpaceOnUse" gradientTransform="matrix(1.92654 1.32537 -1.63737 1.4518 1377 -37258)" xlink:href="#id0" cx="23325.4" cy="14039.9" r="469.725" fx="23325.4" fy="14039.9">
  </radialGradient>
  <radialGradient id="id11" gradientUnits="userSpaceOnUse" gradientTransform="matrix(1.74116 1.65054 -1.47983 1.808 778 -42707)" xlink:href="#id0" cx="20572.9" cy="10829.5" r="796.196" fx="20572.9" fy="10829.5">
  </radialGradient>
  <radialGradient id="id12" gradientUnits="userSpaceOnUse" gradientTransform="matrix(1.61345 1.27761 -1.37142 1.39961 12406 -33860)" xlink:href="#id0" cx="20767.9" cy="18335.8" r="447.569" fx="20767.9" fy="18335.8">
  </radialGradient>
  <radialGradient id="id13" gradientUnits="userSpaceOnUse" gradientTransform="matrix(1.80717 1.1494 -1.53597 1.25908 9395 -24384)" xlink:href="#id0" cx="17735.1" cy="15437" r="592.751" fx="17735.1" fy="15437">
  </radialGradient>
  <radialGradient id="id14" gradientUnits="userSpaceOnUse" gradientTransform="matrix(1.43898 1.56401 -1.22306 1.7133 13248 -43973)" xlink:href="#id0" cx="19915.1" cy="17979.7" r="501.457" fx="19915.1" fy="17979.7">
  </radialGradient>
  <radialGradient id="id15" gradientUnits="userSpaceOnUse" gradientTransform="matrix(1.83063 1.24254 -1.55582 1.36103 9980 -31964)" xlink:href="#id0" cx="20656.5" cy="17442.7" r="469.389" fx="20656.5" fy="17442.7">
  </radialGradient>
  <radialGradient id="id16" gradientUnits="userSpaceOnUse" gradientTransform="matrix(1.74432 1.19642 -1.48254 1.31058 2794 -28619)" xlink:href="#id0" cx="20729.5" cy="12292" r="574.273" fx="20729.5" fy="12292">
  </radialGradient>
  <radialGradient id="id17" gradientUnits="userSpaceOnUse" gradientTransform="matrix(1.83681 1.24668 -1.56111 1.3656 9816 -33329)" xlink:href="#id0" cx="21509.1" cy="17817.5" r="369.707" fx="21509.1" fy="17817.5">
  </radialGradient>
  <radialGradient id="id18" gradientUnits="userSpaceOnUse" gradientTransform="matrix(1.57938 1.66773 -1.34235 1.82686 7740 -52765)" xlink:href="#id0" cx="23706.5" cy="15998.4" r="479.413" fx="23706.5" fy="15998.4">
  </radialGradient>
  <radialGradient id="id19" gradientUnits="userSpaceOnUse" gradientTransform="matrix(1.27593 1.37097 -1.08438 1.50171 12843 -40392)" xlink:href="#id0" cx="22987.8" cy="17693" r="480.422" fx="22987.8" fy="17693">
  </radialGradient>
  <radialGradient id="id20" gradientUnits="userSpaceOnUse" gradientTransform="matrix(1.73849 1.52955 -1.47753 1.67545 7575 -38483)" xlink:href="#id0" cx="18756" cy="14501.4" r="474.345" fx="18756" fy="14501.4">
  </radialGradient>
  <radialGradient id="id21" gradientUnits="userSpaceOnUse" gradientTransform="matrix(1.77464 1.19169 -1.50827 1.30536 -736 -28035)" xlink:href="#id0" cx="20899.8" cy="10246" r="468.2" fx="20899.8" fy="10246">
  </radialGradient>
  <radialGradient id="id22" gradientUnits="userSpaceOnUse" gradientTransform="matrix(1.54515 1.21534 -1.31326 1.33131 2952 -29481)" xlink:href="#id0" cx="21241" cy="11065.4" r="460.239" fx="21241" fy="11065.4">
  </radialGradient>
  <radialGradient id="id23" gradientUnits="userSpaceOnUse" gradientTransform="matrix(0.882475 1.61585 -0.750025 1.77 11541 -44105)" xlink:href="#id0" cx="21573.3" cy="12007.2" r="470.981" fx="21573.3" fy="12007.2">
  </radialGradient>
  <radialGradient id="id24" gradientUnits="userSpaceOnUse" gradientTransform="matrix(1.8999 1.01565 -1.61475 1.11255 6356 -25166)" xlink:href="#id0" cx="22926.2" cy="16713.1" r="511.952" fx="22926.2" fy="16713.1">
  </radialGradient>
  <radialGradient id="id25" gradientUnits="userSpaceOnUse" gradientTransform="matrix(1.665 1.48112 -1.4151 1.62242 7023 -43540)" xlink:href="#id0" cx="22807.1" cy="15680.8" r="569.003" fx="22807.1" fy="15680.8">
  </radialGradient>
  <radialGradient id="id26" gradientUnits="userSpaceOnUse" gradientTransform="matrix(1.47108 1.56191 -1.25031 1.71095 11585 -33136)" xlink:href="#id0" cx="14509.2" cy="14732.4" r="542.518" fx="14509.2" fy="14732.4">
  </radialGradient>
  <radialGradient id="id27" gradientUnits="userSpaceOnUse" gradientTransform="matrix(1.72662 1.10436 -1.46747 1.20971 10345 -28351)" xlink:href="#id0" cx="22242.1" cy="18062.6" r="478.987" fx="22242.1" fy="18062.6">
  </radialGradient>
  <radialGradient id="id28" gradientUnits="userSpaceOnUse" gradientTransform="matrix(1.70229 0.861842 -1.44683 0.944085 10674 -14906)" xlink:href="#id0" cx="18351.7" cy="16285.1" r="772.627" fx="18351.7" fy="16285.1">
  </radialGradient>
  <radialGradient id="id29" gradientUnits="userSpaceOnUse" gradientTransform="matrix(1.75378 1.3069 -1.49056 1.43157 6439 -32087)" xlink:href="#id0" cx="19815.9" cy="14341" r="524.421" fx="19815.9" fy="14341">
  </radialGradient>
 </defs>
 <g id="Слой_x0020_1">
  <metadata id="CorelCorpID_0Corel-Layer"/>
  <path class="fil0 str0" d="M35900 15992c-4,-5 -8,-9 -12,-14 18,-5 34,-24 44,1 -10,4 -21,9 -32,13l0 0 0 0z"/>
  <path class="fil1" d="M5685 676c-451,-186 -912,-366 -1385,-481 -436,-106 -893,-127 -1341,-178 -358,-41 -704,-29 -973,265 -435,476 -659,1065 -795,1670 -125,558 -168,1139 -201,1713 -85,1445 303,2822 665,4200 66,249 105,600 333,762 247,176 752,128 590,-286 -595,-1516 -1147,-2989 -1128,-4667 6,-497 63,-983 199,-1451 84,-287 171,-656 359,-927 285,-413 436,-236 904,-342 346,-78 683,-231 1032,-261 521,-44 994,142 1406,478 166,136 383,116 475,-17 130,-190 100,-379 -140,-478l0 0z"/>
  <path class="fil1" d="M4843 6552c16,-130 98,-378 61,-606 -56,-341 160,-572 256,-848 126,-363 429,-548 794,-656 461,-136 915,-211 1396,-95 380,92 591,347 715,675 106,282 134,593 229,881 146,445 8,841 -169,1232 -155,339 -292,694 -499,1000 -455,674 -1234,932 -1979,285 -507,-440 -688,-929 -804,-1868l0 0 0 0zm1682 1801l0 0c119,-66 248,-118 356,-200 399,-304 496,-769 649,-1213 179,-518 -77,-898 -371,-1243 -225,-264 -590,-281 -926,-325 -280,-36 -491,91 -624,288 -166,246 -332,519 -265,846 74,361 130,730 248,1077 136,404 610,753 933,770l0 0 0 0 0 0z"/>
  <path class="fil1" d="M24134 7199c99,-296 192,-555 272,-819 182,-603 502,-1121 922,-1585 80,-88 124,-213 170,-327 134,-326 674,-524 921,-305 176,156 359,356 425,571 115,375 207,778 194,1166 -28,808 -114,1615 -213,2418 -35,283 -177,553 -275,827 -11,30 -52,49 -120,110 -21,-114 -75,-221 -44,-258 243,-291 199,-651 241,-983 100,-775 174,-1553 -23,-2327 -16,-60 -31,-121 -53,-179 -123,-324 -426,-413 -685,-171 -568,532 -982,1164 -1172,1929 -100,402 -190,802 -153,1221 17,180 -104,278 -269,295 -200,19 -296,-121 -344,-288 -74,-255 -133,-513 -201,-769 -212,-801 -176,-1611 -57,-2415 48,-325 179,-639 290,-951 73,-205 335,-259 502,-121 108,89 73,178 15,288 -431,811 -578,1669 -402,2576 4,19 21,36 59,97l0 0 0 0 0 0z"/>
  <path class="fil1" d="M19625 6270c233,-61 449,-110 662,-173 669,-200 1226,82 1740,477 390,300 425,1317 -167,1723 -524,360 -1079,498 -1689,314 -141,-43 -225,-17 -337,97 -76,78 -254,105 -364,71 -104,-32 -243,-165 -253,-266 -75,-731 -127,-1464 -171,-2198 -12,-199 41,-402 48,-604 9,-275 -31,-557 12,-825 34,-209 142,-417 261,-593 40,-58 219,-34 328,-12 198,40 389,148 586,156 686,27 1368,75 2020,314 102,38 202,225 213,352 16,178 -149,207 -286,179 -140,-28 -278,-76 -412,-127 -483,-186 -983,-229 -1475,-111 -497,119 -774,621 -716,1226l0 0 0 0 0 0zm2185 939l0 0c-54,-129 -75,-299 -166,-381 -319,-288 -686,-532 -1124,-427 -301,73 -579,250 -865,388 -35,16 -76,75 -74,112 12,301 -49,607 128,892 234,375 599,426 962,475 585,78 1107,-425 1139,-1059l0 0 0 0 0 0z"/>
  <path class="fil1" d="M10146 6394c-122,621 35,1780 285,2214 -188,244 -629,249 -785,3 -25,-38 -19,-105 -7,-154 131,-565 43,-1132 34,-1700 -7,-382 -94,-766 19,-1152 49,-166 28,-355 24,-534 -12,-453 420,-924 879,-931 498,-8 998,-23 1494,11 646,44 1141,636 1067,1244 -57,475 -329,815 -768,979 -330,124 -683,222 -1032,249 -275,22 -560,-76 -839,-129 -121,-23 -237,-64 -371,-101l0 0 0 0 0 1zm1128 -1892l0 0c-2,-23 -5,-46 -7,-69 -214,70 -494,79 -628,223 -219,236 -402,527 -422,887 -10,159 28,247 161,319 362,197 749,207 1136,130 356,-70 587,-355 652,-682 49,-246 -134,-335 -240,-496 -166,-251 -336,-398 -652,-312l0 0 0 0 0 0z"/>
  <path class="fil1" d="M14154 6818c39,-368 171,-957 -78,-1072 -45,-21 -60,-211 -29,-300 318,-903 851,-1232 1763,-1076 271,46 549,119 797,240 550,268 757,758 762,1382 7,707 -192,1351 -494,1965 -212,432 -973,949 -1540,815 -127,-30 -275,-82 -359,-177 -374,-422 -742,-977 -828,-1560 -8,-54 -4,-129 6,-217l0 0 0 0zm2300 -404l0 0c37,-487 -292,-1116 -875,-1238 -320,-68 -705,82 -816,371 -288,751 -308,1500 108,2213 215,370 620,559 929,458 584,-192 834,-728 864,-1278 3,-43 -29,-89 -47,-132 -54,-132 -109,-263 -163,-394l0 0 0 0 0 0z"/>
  <path class="fil1" d="M31159 5292c-43,-104 -68,-190 -112,-265 -59,-100 -142,-187 -199,-288 -80,-140 -188,-292 4,-430 156,-112 411,-81 533,71 53,65 92,147 115,227 160,564 255,1137 259,1726 5,733 34,1466 41,2199 1,87 -56,236 -110,248 -98,22 -230,-14 -319,-72 -60,-40 -104,-160 -97,-239 29,-315 110,-628 116,-944 7,-420 -37,-841 -64,-1262 -4,-68 -34,-134 -51,-201 -253,98 -494,195 -738,285 -429,158 -842,88 -1254,-81 -201,-83 -414,-139 -622,-207 -125,-41 -193,-22 -232,130 -143,550 -186,1104 -97,1665 18,108 77,215 137,310 82,132 106,468 6,577 -44,49 -148,96 -196,75 -83,-35 -195,-117 -205,-190 -105,-861 -203,-1729 24,-2583 143,-540 340,-1066 522,-1596 55,-163 179,-257 362,-228 221,34 279,184 149,364 -55,76 -108,154 -158,233 -109,175 -237,323 35,508 148,101 187,348 306,506 151,199 384,222 617,206 109,-8 217,-26 326,-34 158,-11 251,-56 263,-250 18,-315 176,-424 639,-460l0 0 0 0 0 0z"/>
  <path class="fil1" d="M33092 7893c30,-354 64,-711 89,-1068 6,-79 6,-195 -41,-234 -134,-111 -96,-226 -34,-333 245,-424 486,-851 757,-1258 150,-226 345,-425 540,-615 219,-216 395,-180 556,79 23,36 61,75 99,86 473,126 688,508 888,900 84,166 139,346 207,521 5,14 4,33 13,44 267,331 215,680 89,1051 -119,352 -161,732 -303,1073 -117,279 -315,531 -507,771 -129,161 -306,91 -428,-36 -33,-34 -5,-204 30,-217 448,-163 577,-570 735,-948 65,-156 83,-332 118,-500 89,-432 -127,-767 -423,-1012 -164,-135 -447,-161 -679,-171 -269,-12 -543,34 -811,79 -220,37 -385,148 -410,408 -44,473 -124,943 -146,1417 -7,158 122,320 180,483 37,104 72,212 78,320 2,31 -120,109 -153,94 -104,-47 -245,-109 -276,-199 -83,-232 -114,-482 -168,-735l0 0 0 0zm798 -2244l0 0c593,-322 1133,55 1682,-34 -40,-372 -282,-642 -599,-678 -531,-61 -890,151 -1083,712z"/>
  <path class="fil2" d="M10430 15762c1551,-99 3231,195 4300,1413 18,17 60,23 85,15 257,-83 508,-25 743,62 356,137 702,324 1031,509 346,196 676,468 985,718 415,336 205,455 -296,502 -776,74 -1604,-322 -2150,-852 -209,-239 -389,-492 -453,-811 -6,-29 -32,-73 -53,-76 -258,-32 -387,-263 -550,-407 -987,-779 -2323,-979 -3541,-834 -126,22 -186,-10 -122,-201 -330,421 -645,697 -1051,1008 -603,445 -1174,939 -1849,1278 -75,37 -170,51 -253,45 -48,-3 -110,-61 -130,-110 -11,-26 53,-83 84,-126 142,-201 394,-216 583,-342 371,-249 759,-473 1130,-722 976,-674 1804,-1550 2390,-2580 -90,-23 -196,-85 -258,-56 -62,29 -77,152 -115,232 -115,238 -202,255 -369,50 -428,-527 -663,-1116 -559,-1810 18,-233 -16,-462 160,-655 155,-92 148,-209 75,-353 -20,-40 7,-104 13,-157 58,12 133,5 170,39 195,180 392,361 564,562 280,573 146,1210 116,1825 104,-10 250,-273 326,38 270,-242 322,-582 434,-891 16,-43 -16,-110 -39,-160 -292,-562 78,-1128 237,-1672 100,-348 141,-738 493,-932 108,-32 487,-521 499,-257 -65,346 175,646 129,983 -60,627 -296,1219 -539,1794 -137,304 -367,542 -685,681 -49,21 -96,80 -115,131 -266,847 -921,1413 -1420,2119l0 0 0 0 0 0zm651 -1663l0 0c28,-12 33,-28 24,-56 -21,19 -53,26 -24,56z"/>
  <path class="fil2" d="M2931 17015c42,-23 102,-34 123,-69 203,-341 582,-397 897,-548 837,-336 1669,-694 2510,-1022 -274,-544 -860,-1290 -1227,-1490 22,76 26,168 71,226 103,133 65,241 -38,333 -100,88 -239,133 -342,198 -304,193 -573,83 -858,11 -21,-6 -64,-2 -67,7 -51,172 -191,117 -299,109 -448,-6 -875,-85 -1252,-341 -40,-21 -57,-87 -84,-133 51,-18 104,-57 153,-52 457,56 897,207 1340,329 5,-16 9,-32 14,-49 -230,-80 -494,-91 -684,-253 336,-201 745,-287 1121,-389 250,-38 533,13 789,52 4,-13 8,-26 12,-40 -87,-36 -168,-77 -228,-152 47,-18 93,-45 141,-49 25,-3 54,33 105,31 -552,-608 -1269,-1043 -1971,-1461 -84,-61 -209,-78 -318,-87 -589,-24 -1045,-401 -1596,-548 -555,-175 -849,-578 -980,-1121 -26,-111 -35,-211 -163,-266 -51,-22 -68,-122 -100,-187 572,-130 1253,-30 1792,215 615,336 1492,910 1449,1705 -9,55 70,154 133,189 1671,954 3633,2816 3890,4802 31,239 -10,488 -33,731 -81,255 -535,205 -337,-99 161,-284 115,-596 80,-888 -42,-341 -112,-688 -322,-983 -65,-91 -80,-93 -171,-8 -431,372 -1042,410 -1520,715 -725,322 -1498,561 -2137,1054 -187,108 -389,373 -617,319 -155,-103 -279,-11 -346,80 -78,105 -234,201 -166,381 5,14 -44,64 -76,74 -259,84 -488,216 -665,425 -162,208 -552,304 -710,74 11,-272 373,-373 547,-540 387,-292 737,-638 1195,-810 206,-110 354,-429 601,-420 79,13 155,47 239,35 -225,-117 -269,-174 -153,-412 279,-621 632,-1198 1033,-1746 66,-110 298,-131 373,-73 76,97 -49,143 -104,211 -353,444 -739,881 -834,1458 -33,202 -127,333 -217,490 3,-6 5,-12 7,-18l0 0 0 0 0 0z"/>
  <path class="fil2" d="M33292 15242c-129,74 -225,-30 -325,-70 -854,-329 -1685,-729 -2546,-1036 -962,-239 -1937,-443 -2901,-681 -780,-155 -1561,-365 -2363,-285 -143,5 -264,-7 -333,-165 -116,200 -14,371 68,506 294,476 594,957 1042,1309 5,-51 22,-91 8,-112 -139,-210 -55,-404 51,-586 197,-379 608,-742 1063,-610 18,84 25,188 -11,261 -211,474 -626,786 -985,1142 -12,13 13,88 40,113 854,836 1800,1557 2912,2014 108,50 262,34 387,9 299,-60 586,-43 864,81 530,205 1047,465 1349,976 130,190 710,554 287,708 -347,24 -709,132 -1039,-12 -337,-147 -684,-302 -939,-585 -275,-356 -536,-732 -948,-945 -1056,-555 -2112,-1134 -2954,-1996 -597,-616 -1257,-1245 -1558,-2065 -64,-165 -122,-177 -294,-118 -98,34 -221,28 -327,8 -588,-112 -1179,-186 -1779,-142 -215,-30 -744,215 -668,-169 94,81 183,115 260,-24 15,-28 52,-44 79,-66 447,-14 895,-32 1343,-39 644,41 1297,-85 1922,103 1122,77 2237,323 3342,529 175,-28 343,-43 458,134 6,9 40,0 61,0l-3 -3c20,127 100,161 222,169 526,35 1027,180 1517,368 658,239 1302,516 1936,814 258,147 604,199 758,468l4 -3 0 0 0 0 0 0z"/>
  <path class="fil2" d="M19568 13847c18,75 -14,141 -42,209 -239,-116 -382,-365 -575,-544 -92,-69 -230,-65 -340,-104 4,93 -8,190 16,277 40,162 173,300 133,477 -57,-10 -141,-1 -164,-33 -104,-167 -199,-354 -214,-554 -21,-281 -244,-388 -439,-517 -387,-234 -756,-496 -1119,-760 -95,-57 -221,-63 -333,-88 -120,-27 -159,37 -131,140 165,572 514,1623 1141,1797l-3 -2c156,157 341,292 490,452 23,30 -16,107 -27,163 -158,51 -697,-563 -647,-216 35,159 74,334 8,489 -63,90 -180,97 -207,-36 -64,-338 65,-732 -213,-994 -365,-378 -554,-853 -720,-1339 -96,-493 -434,-878 -957,-928 -141,-18 -273,-101 -419,-60 12,44 11,103 40,129 502,460 648,1059 674,1705 9,214 97,262 306,274 271,16 540,72 806,130 51,12 84,111 125,170 -303,110 -611,-57 -928,-92 117,291 322,567 267,895 0,19 -37,37 -57,56 -231,-327 -214,-745 -577,-1000 -94,123 -183,250 -286,365 -47,-83 -112,-177 -60,-273 177,-331 233,-682 132,-1042 -142,-503 -358,-959 -880,-1185 -56,-24 -113,-66 -147,-116 -182,-263 -452,-357 -748,-410 -176,-31 -221,-107 -182,-262 22,-87 62,-137 160,-122 575,117 1096,-228 1674,-253 639,-104 1285,-81 1896,106 672,146 1347,133 1991,380 274,158 639,-15 825,250 -525,231 -1053,-179 -1575,-250 -126,-14 -797,-126 -600,150 159,175 270,460 529,495 354,12 733,115 1066,-47 258,-85 503,-405 742,-130 -113,180 -318,200 -506,260 -2,23 -5,45 -7,67 132,80 259,170 398,235 70,33 181,33 136,132 -27,57 -147,113 -214,101 -88,-14 -168,-91 -246,-148 -316,-214 -694,-229 -1059,-192 380,243 655,663 1178,665 56,0 159,59 159,91 -21,216 -332,68 -492,75 410,655 -267,260 -76,569 105,128 201,263 300,395l-2 -2 0 0 0 0 0 0zm-570 -952l0 0c58,317 -334,137 -506,132 209,191 442,155 686,55 -145,-176 -251,-403 -416,-552 -345,-268 -689,-564 -1186,-350 -181,78 -221,128 -78,255 181,161 389,293 592,427 76,51 180,258 248,-14 201,-40 447,41 660,47l0 0 0 0 0 0zm-3184 -2038l0 0c-2,-15 -4,-29 -7,-44 -412,67 -826,130 -1237,204 -64,12 -118,77 -177,118 255,183 590,184 877,299 442,153 881,314 1315,487 415,193 807,38 1200,-121 -211,-277 -374,-600 -714,-748 -408,-151 -824,-217 -1257,-195l0 0 0 0 0 0z"/>
  <path class="fil2" d="M33845 15702c-194,-144 -433,-242 -553,-460l-4 3c632,222 1097,710 1647,1069 334,217 632,470 925,736 98,89 267,109 408,139 668,143 1258,395 1536,1084 40,99 88,116 186,109 427,-31 455,93 572,305 16,29 -16,123 -36,126 -956,327 -1878,-240 -2464,-969 -53,-62 -91,-146 -109,-226 -70,-360 -403,-502 -639,-736 -13,8 -26,17 -39,26 184,414 410,810 301,1284 -36,180 120,314 299,349 172,34 333,123 496,195 18,8 28,92 15,101 -450,399 -1066,11 -1454,-272 -326,-243 -372,-630 -279,-1012 74,-304 134,-618 339,-875 22,-27 24,-106 3,-123 -290,-206 -608,-631 -964,-618 44,95 74,201 135,284 296,403 459,822 243,1324 -38,89 13,217 21,327 34,796 -497,74 -693,-188 -276,-357 -393,-757 -273,-1203 63,-234 147,-462 233,-689 22,-36 121,-87 175,-63 -9,-9 -18,-18 -27,-26l0 -1 0 0 0 0zm133 119l0 0c-15,-2 -30,-5 -46,-8 16,26 41,39 68,49 -7,-14 -14,-27 -22,-41l0 0 0 0 0 0z"/>
  <path class="fil2" d="M38546 11708c-138,-19 -203,-96 -282,-191 -222,-309 -610,-357 -942,-487 -460,-7 -935,8 -1380,145 -168,-11 -347,111 -456,250 78,86 157,153 280,140 659,40 1306,142 1941,338 270,83 562,96 847,120 56,5 120,-83 180,-128 -62,-66 -118,-177 -188,-187l0 0z"/>
  <path class="fil2" d="M37464 10136c-974,-349 -1434,-96 -2188,532 -167,143 -297,330 -434,505 -26,32 -27,120 -2,145 31,31 123,49 149,27 124,-105 277,-80 413,-120 260,-76 431,-262 694,-325 201,-48 371,-75 576,-78 107,-2 572,37 642,-33 115,-116 160,-277 245,-413 73,-125 33,-205 -95,-240l0 0z"/>
  <path class="fil2" d="M26723 12019c-706,-130 -1401,-364 -2113,-436 -579,1 -1160,-1 -1736,43 -302,23 -598,135 -894,214 -128,35 -188,-9 -203,-138 -23,-360 -210,-756 -25,-1097 136,-232 304,-440 602,-481 82,-11 160,-52 242,-67 70,-12 182,-34 206,-1 203,271 -50,580 -94,864 -60,253 -226,391 -455,477 -84,20 -144,64 -179,144 315,68 656,-65 981,-67 419,-75 909,45 1282,-182 610,-543 2085,-780 2483,85 -43,194 -13,322 183,400 31,12 54,97 46,142 -57,97 -218,75 -321,76l-5 24 0 0 0 0 0 0z"/>
  <path class="fil2" d="M20282 14737c347,19 624,166 989,105 257,-16 518,4 775,22 47,4 88,76 132,116 -45,46 -83,107 -138,134 -229,14 -481,-8 -721,1 29,233 146,313 351,334 156,15 308,87 455,150 46,20 68,94 100,144 -184,101 -379,20 -575,4 -27,-3 -57,24 -86,38 91,139 285,108 415,188 55,28 79,115 117,175 -148,75 -282,46 -427,-22 -10,12 -20,24 -30,36 89,187 265,382 280,588 -14,76 -84,142 -130,212 -199,-269 -289,-599 -443,-894 -210,-136 -518,-123 -757,-209 -146,-38 -148,36 -110,130 163,554 1308,514 1103,1232 -72,140 -167,9 -276,9 58,124 82,207 15,324 -45,-21 -123,-33 -132,-64 -119,-427 -507,-663 -726,-1021 -127,-145 -455,-188 -662,-205 6,95 -10,198 22,282 82,211 124,449 350,574 76,42 160,105 85,198 -81,100 -145,0 -208,-48 -22,-17 -42,-35 -82,-68 -35,197 -10,374 -145,519 -38,-44 -107,-88 -109,-134 81,-543 -87,-1061 -229,-1581 82,-57 165,-114 247,-171 180,105 361,211 541,317 21,-21 42,-41 63,-62 -109,-211 -194,-441 -337,-627 -99,-128 -131,-232 -83,-374 120,-34 222,129 305,202 217,275 501,416 841,458 102,13 157,9 139,-142 -80,-495 -702,-539 -1083,-700 54,-57 109,-113 164,-170l0 0 0 0 0 0zm1166 2311l0 0c-137,-201 -316,-313 -542,-354 131,186 272,356 542,354z"/>
  <path class="fil2" d="M28858 13429c-24,-194 137,-195 248,-212 431,-64 830,-223 1230,-382l-3 3c877,-441 1804,-748 2731,-1062 34,-12 60,-73 73,-116 186,-604 429,-1172 985,-1541 339,-225 720,-190 1096,-170 43,2 83,63 124,96 -40,32 -76,77 -122,93 -224,76 -376,220 -417,456 -56,331 -292,473 -571,584 -307,159 -656,292 -908,532 555,-187 1183,-180 1760,-313 51,-9 111,-27 152,-8 82,83 6,198 -101,214 -870,140 -1761,199 -2584,532 -642,236 -1269,514 -1902,774 -279,115 -559,227 -835,347 -302,130 -635,408 -959,169l3 3 0 1 0 0z"/>
  <path class="fil2" d="M13283 14742c307,-14 337,-37 331,295 1,76 -15,171 23,225 115,166 20,233 -114,278 -353,95 -694,258 -1057,298 -80,-267 114,-454 228,-683 -258,33 -502,95 -745,86 -195,-6 -392,-85 -578,-156 -120,-46 -112,-136 -17,-229 576,-695 1452,-1267 2389,-962l-3 -4c26,75 209,210 191,229 -246,279 -533,540 -850,737 15,18 30,37 45,55 52,-56 104,-113 157,-169l0 0 0 0 0 0z"/>
  <path class="fil2" d="M1833 13260c-322,-154 -682,-244 -959,-475 308,-205 719,-210 1078,-252 649,-11 1324,41 1927,305 468,268 -345,528 -563,559 -905,97 -2915,279 -3181,-869 223,43 393,212 590,316 423,291 922,353 1395,517 5,-17 9,-35 14,-52 -100,-16 -201,-32 -301,-49l0 0 0 0z"/>
  <path class="fil2" d="M38062 16778c-371,47 -774,315 -1131,113 -471,-269 -979,-396 -1517,-427 -74,-5 -143,-71 -215,-108 98,-207 510,-661 759,-461 20,14 64,8 93,-2 624,-220 1210,-110 1769,207 191,147 338,365 519,531 172,185 -156,182 -269,180l-8 -33 0 0 0 0 0 0zm-2162 -786l0 0c11,-4 22,-9 32,-13 -10,-24 -26,-6 -44,-1 4,5 8,9 12,14l0 0z"/>
  <path class="fil2" d="M4626 11686c68,290 -81,555 -171,830 -161,190 -617,-229 -696,-400 -261,-512 -577,-1104 -388,-1690 33,-93 70,-164 29,-273 -36,-96 18,-154 143,-118 670,241 1143,926 1083,1651l0 0z"/>
  <path class="fil2" d="M35729 14495c303,-43 568,69 827,199 89,45 188,89 144,219 -38,116 -130,184 -243,154 -162,-43 -232,37 -332,143 -231,211 -570,299 -868,385 -47,12 -137,-13 -155,-48 -57,-112 -98,-67 -149,-4 -276,363 -713,38 -1033,-92 -51,-24 -99,-77 -119,-129 -8,-19 62,-82 107,-106 582,-321 1138,-697 1814,-766 2,15 5,30 7,45l0 0 0 0z"/>
  <path class="fil2" d="M9821 15178c-55,278 -104,558 -168,834 -144,443 -437,-83 -518,-284 -149,-284 -321,-560 -437,-857 -214,-502 60,-978 173,-1467 708,328 931,1042 904,1764 15,3 31,7 46,10l0 0z"/>
  <path class="fil2" d="M27541 16978c0,-109 59,-227 83,-335 355,261 889,352 1059,804 115,321 274,627 263,986 9,163 148,323 148,499 -978,143 -1657,-1179 -1553,-1954l0 0 0 0z"/>
  <path class="fil2" d="M28982 15602c644,-22 1022,152 1356,436 37,32 78,106 64,138 -200,212 -588,262 -853,392 -362,134 -722,260 -1100,34 -139,-77 -333,-65 -473,-148 -203,-140 -204,-219 -24,-377 352,-307 770,-444 1030,-475l0 0 0 0 0 0z"/>
  <path class="fil2" d="M6314 12415c45,535 -102,1103 -500,1468 -443,-544 -573,-1320 -309,-1977 89,-219 202,-429 276,-652 19,-122 -95,-284 -84,-424 610,274 537,1023 659,1583 -14,0 -28,1 -42,2l0 0 0 0 0 0z"/>
  <path class="fil2" d="M26892 16787c-112,505 -369,952 -529,1436 -29,172 -103,197 -218,67 -664,-655 -655,-1732 208,-2363 99,-74 213,-45 216,73 8,329 228,483 323,787l0 0 0 0 0 0z"/>
  <path class="fil2" d="M14202 17923c-14,260 64,579 -212,739 -55,29 -103,119 -106,184 -112,569 -818,-226 -786,-515 -88,-599 486,-1035 409,-1642 -5,-39 35,-84 55,-126 486,278 689,879 640,1360l0 0 0 0 0 0z"/>
  <path class="fil2" d="M12051 16340c210,127 484,226 518,504 6,37 -89,112 -151,137 -340,135 -678,342 -1061,208 -445,-155 -930,-222 -1298,-562 -75,-70 -96,-115 -3,-174 613,-435 1328,-246 1998,-111l-3 -2 0 0 0 0z"/>
  <path class="fil2" d="M11760 11145c-1115,-38 -2391,21 -3393,630 -653,62 -1181,453 -1704,807 -60,37 -176,79 -206,52 -88,-80 -89,-202 14,-275 684,-510 1495,-816 2288,-1110 350,-114 721,-163 1033,-382 44,-30 122,-11 185,-14 497,-21 994,-45 1491,-62 169,1 473,-37 534,153 -34,87 -51,215 -242,201l0 0 0 0z"/>
  <path class="fil2" d="M3808 18752c-328,-22 -2481,-218 -1851,-823 105,-101 209,-73 272,14 848,881 3377,485 4388,-15 197,-101 376,-33 412,135 23,107 9,188 -128,214 -1033,178 -2037,469 -3093,475l0 0z"/>
  <path class="fil2" d="M27578 15583c-227,-6 -454,-4 -679,-25 -33,-3 -96,-136 -76,-171 376,-663 775,-1113 1670,-1077 167,6 324,69 463,159 -147,109 -257,261 -345,420 -148,292 -761,731 -1033,694l0 0 0 0 0 0z"/>
  <path id="КриваЯ_x0020_" class="fil2" d="M22743 11398c333,-818 893,-1353 1792,-1384 171,-3 421,89 292,300 -332,874 -723,539 -1354,939 -216,139 -470,249 -731,145l1 0 0 0z"/>
  <path class="fil2" d="M15989 16012c-199,305 -455,629 -854,621 -391,-1 -780,-25 -1137,-215 -225,-119 -243,-168 -95,-363 167,-217 392,-334 661,-346 260,-12 520,-3 780,-4 162,212 424,217 645,307l0 0 0 0z"/>
  <path class="fil2" d="M31941 16389c21,-460 157,-855 474,-1174 140,-140 274,-102 315,88 61,292 126,584 172,878 90,403 -314,693 -496,1017 -201,254 -362,-190 -415,-347 -40,-153 -37,-319 -50,-462l0 0 0 0z"/>
  <path class="fil2" d="M7622 13416c-50,573 -156,1130 -651,1516 -65,50 -180,111 -231,85 -333,-275 -5,-1253 191,-1582 117,-205 292,-387 270,-658 -9,-104 68,-123 155,-50 148,126 262,409 266,689l0 0 0 0z"/>
  <path class="fil2" d="M34148 13636c134,56 269,112 403,168 -112,353 -250,712 -694,720 -228,17 -449,174 -662,290 -119,64 -221,114 -350,38 -106,-63 -137,-153 -68,-246 154,-213 305,-433 489,-617 232,-233 536,-316 882,-353l0 0z"/>
  <path class="fil2" d="M31943 11480c114,-552 210,-1100 780,-1377 135,-84 434,-154 340,111 -153,403 -71,913 -415,1219 -347,271 -613,870 -705,47l0 0 0 0z"/>
  <path class="fil2" d="M4991 15670c-311,43 -747,-74 -914,-403 57,-34 123,-106 170,-95 388,89 703,-137 1050,-224 278,-68 553,-102 786,125 464,447 -806,640 -1092,597l0 0 0 0 0 0z"/>
  <path class="fil2" d="M25563 15099c153,61 228,87 104,267 -246,475 -627,833 -1041,1163 -92,77 -197,2 -231,-149 -100,-434 102,-752 395,-1036 208,-202 485,-184 773,-245l0 0 0 0z"/>
  <path class="fil2" d="M14799 13444c-476,71 -955,128 -1427,219 -515,77 -1013,293 -1532,319 38,-104 49,-266 121,-302 157,-77 344,-97 520,-128 781,-159 1584,-231 2347,-454 140,-34 329,135 302,274 -49,123 -216,104 -327,99 -1,-9 -2,-18 -4,-27l0 0 0 0z"/>
  <path class="fil2" d="M30919 15832c55,-458 157,-836 501,-1098 261,-162 201,226 237,376 48,276 75,537 -180,749 -117,123 -150,341 -284,468 -183,-90 -220,-351 -274,-495l0 0z"/>
  <path class="fil2" d="M32827 13136c125,24 196,47 150,158 -65,155 -123,313 -194,465 -149,368 -518,450 -855,570 -150,46 -241,-17 -198,-171 196,-392 405,-774 870,-913 90,-27 171,-82 227,-109l0 0z"/>
  <path class="fil2" d="M31425 11665c8,315 -151,491 -341,642 -30,24 -126,10 -160,-21 -424,-389 -355,-1042 33,-1391 24,-21 127,-5 141,21 112,232 284,502 327,749l0 0 0 0z"/>
  <path class="fil2" d="M31425 11665c3,125 -20,228 -61,316 -30,-2 -62,-4 -97,-5 -154,-6 -175,-285 -132,-401 92,-250 17,-478 -113,-688 34,3 69,15 76,29 112,232 284,502 327,749l0 0 0 0z"/>
  <path class="fil2" d="M8960 17420c6,-173 74,-248 237,-218 320,59 610,175 713,528 51,138 67,588 -200,404 -53,-38 -132,-42 -201,-52 -374,-58 -561,-282 -549,-662l0 0 0 0z"/>
  <path class="fil2" d="M12365 17139c89,-16 204,144 172,251 -67,233 -150,461 -223,693 -119,392 -702,-374 -665,-583 -8,-68 40,-191 89,-208 204,-68 417,-104 627,-152l0 0 0 -1 0 0z"/>
  <path class="fil2" d="M8596 14845c10,185 -108,224 -211,260 -446,138 -896,272 -1332,443 -209,86 -267,-203 -152,-290 516,-174 1036,-335 1556,-498 110,-35 135,33 139,85l0 0 0 0z"/>
  <path class="fil2" d="M8714 16597c-71,584 -619,228 -753,-114 -64,-125 -67,-283 -88,-428 -11,-404 613,145 741,234 70,60 69,203 100,308l0 0z"/>
  <path class="fil2" d="M30336 12835c-338,-24 -832,-523 -569,-858 8,-10 125,32 172,53 506,243 531,296 394,808l3 -3 0 0 0 0z"/>
  <path class="fil3" d="M29704 12104l0 0 0 -1 0 -1 1 -1 0 0 0 -1 0 0 0 -1 0 0 0 -1m1 -1l0 0 0 -1 0 -1 0 -1 1 0 0 -1 0 -1 0 0m0 -1l1 -1 0 0 0 -1 0 -1 1 0 0 -3 1 -2 1 -2 1 -3 0 -2 1 -2 1 -2 1 -3 1 -2 1 -2 1 -2 0 -3 2 -4 1 -2 1 -3 1 -2 1 -2 1 -2 1 -3m2 -2l1 -2 1 -2 1 -2 1 -3 1 -2 1 -2m2 -2l1 -2 1 -3 5 -8 2 -3 0 0 1 -2 1 -1 0 -1 1 0 4 -6 0 0 2 -4 1 -1 1 -1 0 -1 1 -1 1 -2 2 -2 0 0 1 -1 1 -1 3 -5 1 -1 0 0 1 -1 1 -1c8,-11 124,32 171,53l23 11 8 4m16 8l15 7 6 3 8 4 13 6 2 1 14 7 5 3 8 4 12 6 2 1 13 7 4 2 9 4 9 5 3 2 12 6 3 2 9 5 9 4 3 2 11 6m22 13l11 6 1 1 9 5 6 4 4 2 10 6 0 1 9 5 5 4 4 2 9 6 0 0 9 6 4 3 4 3 8 6 0 0 8 6 3 3 4 3 7 5 0 1 7 6m11 10l2 1 1 1 6 6m6 6l1 1 5 6 5 6 2 1 4 5 3 5 2 1 5 7m4 6l1 2 0 0 3 4 1 1 4 6m4 7l0 0 3 6 0 0 4 7 0 1 0 0 1 1 0 1 0 0 1 1 0 0 0 1 0 1 1 0 0 0 0 1 0 0 0 0 1 1 0 0 0 1 0 0 0 1 1 0 0 1 0 0 0 0 0 1 1 1 0 0 0 0 0 1 0 0 0 0 1 1 0 1 0 0 0 1 1 0 0 1 0 1 0 0 1 1 0 1 0 1 3 7 1 3 0 1 0 0 3 8 0 2 0 0 2 8 1 3 1 4 2 8 0 0 1 8 1 3 0 5 1 7 0 1 1 9m1 14l0 1 0 2 0 9m0 9l-5 3 -6 2 -5 3 -6 3 -6 2 -6 3m-6 2l-1 0m-19 6l-6 2m-7 2l-6 2 -7 2 -7 1m-7 2l-7 1m-14 3l-7 1m-7 1l-7 1m-7 1l-8 1m-7 1l-7 1m-7 1l-7 1 -8 1m-7 0l-7 1 -4 0 -3 0 -7 1m-7 0l-8 1m-7 0l-14 1m-6 0l-7 0 -4 1 -3 0 -7 0m-6 0l-7 0m-13 0l-6 0m-6 0l-6 0 -4 0 -2 0 -6 0 -2 0 -4 0 -6 0m-5 0l-5 0 -1 0 -5 0 -4 0 -1 0 -5 0 -3 0 -2 0 -4 0 -2 0 -3 0 -4 0 -1 0 -3 0 -4 0m-4 0l-1 0m-1 -1l-1 0m-1 0l-1 0 0 0 -1 -1m-2 0l-3 -2 -1 0 -1 0m-5 -3l-7 -4 0 0m-7 -6l-4 -3m-4 -3l-4 -3 -2 -2 0 0 0 0 0 0m-5 -5l-1 -1m-5 -4l-4 -4 0 -1m-9 -9l-4 -5m-5 -5l-5 -6m-4 -5l-5 -6m-20 -25l-5 -7m-5 -6l-5 -7m-21 -30l-5 -7m-5 -8l-5 -8m-6 -8l-5 -8m-11 -17l-5 -8m-5 -9l-6 -8m-5 -9l-5 -9 -27 -44m-5 -10l-6 -9 -5 -9 -5 -9 -5 -10 -5 -9m-11 -19l-5 -9m-5 -10l-5 -9m6 -24l0 -1 0 -1 1 0 0 -1m0 -2l1 -1"/>
  <path class="fil2" d="M29700 12120l1 -3 0 -2 0 -1 1 -1 1 -5 0 -2 1 -2 0 0 0 -1 1 -2 0 0 0 -1 0 -1 0 0 0 -1 1 -1 0 -3 1 -2 1 -2 0 -1 0 -1 1 0 0 -3 1 -2 1 -2 1 -3 0 -2 1 -2 1 -2 1 -3 1 -2 1 -2 1 -2 0 -3 2 -4 1 -2 1 -3 1 -2 1 -2 2 -2 1 -3 1 -2 1 -2 1 -2 1 -2 1 -3 1 -2 2 -2 1 -2 1 -2 1 -3 4 -6 2 -2 1 -2 0 -1 1 -2 1 -1 1 -1 0 0 10 -15 0 0 1 -1 7 -9 0 -1 0 0 1 -1 1 -1c8,-10 125,32 171,53l23 11 8 4 16 8 15 7 6 3 8 4 13 6 2 1 14 7 5 3 9 4 11 6 2 1 13 7 4 2 9 4 10 5 2 2 13 6 3 2 9 5 8 4 3 2 12 6 11 7 10 6 11 6 1 1 9 5 6 4 4 2 10 6 0 1 9 5 5 4 4 2 9 6 0 0 9 6 4 3 4 3 8 6 0 0 8 6 3 3 4 3 7 5 1 1 7 6 10 10 2 1 1 1 6 6 6 6 1 1 5 6 5 6 2 1 4 5 4 5 1 1 5 7 4 6 2 2 3 5 4 6 4 7 3 7 4 6 0 1 1 1 0 0 0 1 0 0 2 3 0 1 0 0 1 2 0 0 0 1 1 0 0 1 0 0 0 1 0 0 1 1 0 0 0 0 0 1 0 0 1 0 0 1 0 1 0 0 0 1 1 0 0 1 0 1 0 0 1 1 0 1 0 1 3 7 1 3 0 1 0 0 3 8 1 2 0 0 2 8 0 3 1 4 2 8 0 0 1 8 1 3 1 5 0 7 1 1 0 9 1 14 0 1 1 2 0 9 0 9 -6 3 -5 2 -6 3 -6 3 -6 2 -6 3 -1 0 -5 2 -1 0 -12 4 -5 2 -1 0 -7 2 -4 1 -2 1 -7 2 -7 2 -6 1 -2 1 -5 1 -7 1 -1 0 -6 2 -6 1 -1 0 -7 1 -5 1 -3 0 -7 2 -3 0 -4 1 -7 1 -2 0 -5 1 -7 0 -1 1 -7 0 -21 2 -8 1 -3 0 -4 1 -7 0 -2 0 -5 1 -7 0 -1 0 -6 0 -14 1 -5 0 -2 0 -7 1 -3 0 -4 0 -6 0 -3 0 -4 0 -7 0 0 0 -6 0 -6 1 0 0 -7 0 -4 0 -2 0 -6 0 -3 0 -3 0 -6 0 -2 0 -4 0 -5 0 -1 0 -5 0 -5 0 0 0 -5 0 -4 0 -1 0 -5 -1 -3 0 -2 0 -5 0 -2 0 -2 0 -5 0 0 0 -4 0 -4 0 -4 0 0 0 -1 0 0 0 -1 0 0 -1 -2 0 -1 0 -1 0 0 0 0 -1 0 0 -1 0 -4 -1 -1 -1 0 0 -1 0 -4 -3 -1 0 -6 -4 0 0 -4 -3 -3 -2 -1 0 -4 -3 -2 -2 -2 -2 -4 -3 -1 -1 0 -1 0 0 -6 -5 -1 -1 -1 0 -3 -4 -4 -4 -1 -1 -4 -4 -3 -3 -1 -2 -5 -5 -2 -2 -3 -3 -4 -6 -2 -1 -3 -4 -5 -6 0 0 -5 -6 -4 -5 0 -1 -5 -6 -4 -5 -1 -2 -5 -7 -3 -3 -2 -3 -5 -7 -2 -2 -3 -5 -11 -15 -4 -6 -1 -1 -5 -8 -4 -5 -2 -3 -5 -8 -2 -3 -3 -5 -5 -8 -2 -1 -4 -7 -5 -8 0 0 -5 -9 -5 -6 -1 -2 -5 -9 -3 -5 -3 -4 -5 -8 -27 -45 -3 -7 -2 -3 -5 -9 -5 -9 -6 -9 -5 -10 -5 -9 -1 -1 -4 -8 -5 -10 -5 -9 -4 -7 -1 -3 -5 -9 -1 0z"/>
  <path class="fil2" d="M29700 12120l1 -3 0 -2c2,-9 5,-18 8,-27l0 -3 1 -2 1 -2 1 -3 2 -6 1 -3 1 -2 1 -2 0 -2 1 -3 2 -4 1 -2 1 -3 1 -2 1 -2 1 -2 1 -2 1 -1 1 -2 1 -2 1 -2 4 -9 1 -1 1 -1 1 -2 1 -3 7 -10 0 -1 1 -2c7,-10 14,-20 22,-30 8,-10 124,33 171,53l31 15 15 7 1 1 15 7 6 3 8 4 13 6 2 1 14 7 5 3 8 4 12 6 2 1 13 7 4 2 9 4 9 5 3 2 13 6 2 2 9 5 9 4 3 2 12 6 2 2 9 5 7 4 3 2 11 6 1 1 9 5 6 4 4 2 10 6 0 1 9 5 5 4 4 2 9 6 0 0 9 6 4 3 4 3 8 6 0 0 8 6 3 3 4 3 7 6 1 0 6 6 3 2 8 8 2 1 1 1 6 6 2 2 4 4 1 1 5 6 5 6 2 1 4 5 3 5 2 1 5 7 1 1 3 5 1 2 4 4 0 1 4 6 0 1 4 6 0 0 3 6 0 1 4 6 0 1c3,6 6,12 8,19l1 1 0 1 3 7 1 3 0 1 2 8 1 2 0 0 2 8 1 3 1 4 2 8 0 0 1 8 1 3 0 5 1 7 0 1 1 9 0 3 1 11 0 1 0 2 1 9 0 2 0 7 -6 3 -5 2 -6 3 -6 3 -6 2 -6 3 -1 0 -5 2 -1 0 -12 4 -5 2 -1 0 -7 2 -4 1 -2 1 -7 2 -7 2 -7 1 -1 1 -6 1 -7 1 0 0 -7 2 -6 1 -1 0 -7 1 -4 1 -3 0 -7 2 -3 0 -4 1 -7 1 -2 0 -5 1 -8 0 0 1 -7 0 -22 2 -7 1 -3 0 -4 1 -7 0 -2 0 -5 1 -7 0 -1 0 -6 0 -14 1 -5 0 -2 0 -7 1 -4 0 -3 0 -7 0 -2 0 -4 0 -7 0 -1 0 -5 0 -6 1 -1 0 -6 0 -5 0 -1 0 -6 0 -4 0 -2 0 -6 0 -2 0 -4 0 -5 0 -1 0 -5 0 -5 0 0 0 -6 0 -4 0 -1 0 -5 -1 -2 0 -2 0 -5 0 -2 0 -2 0 -5 0 -1 0 -3 0 -4 0c-3,0 -6,0 -10,-1l0 0 -2 -1 -3 -1 -1 -1 -1 0 -5 -3 0 0 -6 -4 -1 0 -3 -2 -3 -3 -1 0 -4 -3 -2 -2 -2 -2 -4 -3 -1 -1 0 0 -6 -6 -1 -1 -1 0 -4 -4 -3 -4 -1 -1 -4 -4 -3 -3 -2 -2 -4 -5 -2 -2 -3 -3 -4 -6 -2 -1 -3 -4 -5 -6 0 0 -5 -6 -4 -5 -1 -1 -5 -6 -3 -5 -2 -2 -5 -7 -2 -2 -3 -4 -5 -7 -1 -2 -4 -5 -10 -15 -4 -6 -1 -1 -6 -8 -3 -5 -2 -3 -5 -8 -2 -3 -3 -5 -6 -8 -1 -1 -4 -7 -5 -8 0 0 -6 -9 -4 -6 -1 -2 -5 -9 -3 -5 -3 -4 -5 -8 -27 -45 -4 -7 -1 -3 -5 -9 -6 -9 -5 -9 -5 -10 -5 -9 -1 -1 -4 -8 -6 -10 -5 -9 -3 -7 -2 -3 -5 -9 0 0z"/>
  <path class="fil2" d="M29700 12120c10,-50 32,-98 67,-143 8,-10 125,32 172,53 343,165 466,242 465,436 -115,62 -322,54 -404,54 -58,0 -193,-199 -300,-400l0 0z"/>
  <path class="fil2" d="M31394 13013c46,85 89,135 99,191 8,51 -37,111 -28,160 56,289 -101,459 -315,606 -144,100 -251,56 -272,-122 -13,-379 252,-589 516,-835l0 0 0 0 0 0z"/>
  <path class="fil2" d="M30763 14607c-97,253 -236,493 -455,659 -61,-95 -178,-193 -172,-283 -27,-252 565,-921 627,-376l0 0 0 0 0 0z"/>
  <path class="fil2" d="M13743 13894c-89,-158 -80,-203 79,-214 350,-22 700,-25 1051,-34 92,-2 145,87 210,139 -260,191 -599,43 -899,76 -151,5 -295,115 -444,29l3 4 0 0 0 0z"/>
  <path class="fil2" d="M17401 13214c-119,-71 -276,-215 -398,-57 -193,230 -342,-51 -330,-252 329,19 758,-123 993,182 -54,32 -108,68 -165,95 -31,18 -86,-15 -100,32l0 0 0 0z"/>
  <path class="fil2" d="M7338 17386c81,-255 357,-377 564,-525 39,-24 112,9 169,15 -123,267 -450,523 -681,711 -15,-58 -30,-115 -52,-201l0 0 0 0z"/>
  <path class="fil2" d="M17501 14147c-216,-291 592,31 705,42 31,10 69,113 52,140 -142,287 -537,-111 -760,-184 0,0 3,2 3,2l0 0 0 0z"/>
  <path class="fil2" d="M15964 12961c133,-10 190,79 220,230 -38,155 -294,144 -406,86 -76,-43 -119,-145 -176,-221 123,-57 217,-99 362,-95z"/>
  <path class="fil2" d="M10374 14467c-118,98 -276,128 -421,164 -104,7 -207,-128 -148,-230 117,-172 503,-149 569,66l0 0 0 0z"/>
  <path class="fil2" d="M8936 16508c-63,-50 -134,-79 -140,-119 -6,-40 41,-108 84,-133 91,-63 482,-193 352,45 -89,72 -187,133 -296,207l0 0z"/>
  <path class="fil2" d="M12054 16342c26,-432 463,-161 422,103 -105,78 -305,-80 -425,-105l3 2z"/>
  <path class="fil2" d="M22177 16380c91,68 96,234 16,306 -186,70 -209,-195 -286,-307 91,-8 184,-43 270,1z"/>
  <path class="fil4" d="M2931 17015c-2,6 -4,12 -7,17 3,-5 6,-10 9,-15l-2 -2 0 0 0 0 0 0z"/>
  <path class="fil4" d="M33978 15821c8,14 15,27 22,41 -14,-7 -29,-13 -43,-19 7,-7 14,-14 21,-22z"/>
  <path class="fil4" d="M33957 15843c-8,-10 -17,-20 -25,-30 16,3 31,6 46,8 -7,8 -14,15 -21,22l0 0z"/>
  <path class="fil4" d="M33845 15703c9,8 18,17 27,26 -14,-4 -28,-8 -43,-12l16 -14 0 0z"/>
  <path class="fil4" d="M33331 11695c-2,5 -4,10 -6,15 2,-4 5,-8 8,-13l-2 -2 0 0z"/>
  <path class="fil4" d="M1833 13260c100,17 201,33 301,49 -5,17 -9,35 -14,52 -95,-34 -190,-69 -285,-103l-2 2 0 0 0 0z"/>
  <path class="fil5" d="M12960 10503c17,163 -117,194 -216,401 -47,96 156,-72 153,30 -3,81 -358,505 -362,584 -4,76 283,-94 277,-19 -1,12 -502,818 -344,742 541,-263 91,151 -63,405 -119,196 -87,453 -141,687 167,-133 296,-304 386,-502 243,-575 479,-1167 539,-1794 46,-337 -194,-637 -129,-983 -12,-264 -154,368 -262,401 -20,11 179,36 162,48l0 0z"/>
  <path class="fil5" d="M15218 17160c170,199 358,523 526,685 770,744 1076,762 1957,751 -33,-36 -75,-75 -127,-117 -309,-250 -639,-522 -985,-718 -329,-185 -675,-372 -1031,-509 -110,-41 -224,-75 -340,-92l0 0z"/>
  <path class="fil5" d="M11912 14310c300,-18 789,-61 888,-100 24,-10 469,-92 331,140 -291,490 -1183,800 -1179,879 1,6 6,10 14,13 115,2 231,-10 348,-28l2 0 0 0c230,-40 491,-105 529,-135 1,-1 135,-106 256,-199l-20 -24c317,-197 604,-458 850,-737 17,-19 -158,-149 -190,-225 -215,-67 -479,-89 -663,-78 -44,4 -89,9 -133,16 -55,12 -105,22 -152,31 -317,80 -614,241 -881,447l0 0zm1371 432l0 0 0 0 0 0 0 0z"/>
  <path class="fil5" d="M1607 13162c124,24 232,36 301,36 394,0 460,-27 836,-72 309,-36 874,10 1227,-30l20 -3c57,-79 42,-167 -112,-255 -603,-264 -1278,-316 -1927,-305 -359,42 -770,47 -1078,252 214,178 476,272 733,377l0 0z"/>
  <path class="fil5" d="M232 10014c297,64 659,129 812,351 19,28 145,76 235,230 213,365 313,186 313,-158 0,-268 -9,-62 166,172 73,98 128,674 146,529 -54,28 335,-562 349,-567 -1,2 108,366 108,523 0,400 157,-1 214,28 106,55 630,931 681,1200l-99 -59c-21,-15 -44,-27 -69,-38 -7,-45 -23,-93 -57,-137 -38,-49 -267,-583 -438,-577 -320,13 -704,0 -1029,0 -16,-51 525,-90 148,-186 -205,-52 -414,-134 -632,-137 -125,-2 -658,-112 -31,-112 217,0 317,-46 94,-229 -292,-239 -314,-555 -768,-653 -24,-6 -244,-63 -370,-128l-5 -12c75,-17 153,-30 232,-40l0 0z"/>
  <path class="fil5" d="M31833 18822c-499,-195 -1000,-646 -904,-646 700,0 355,7 -240,-210 -701,-256 869,-198 -352,-329 -741,-80 472,-378 -502,-332 -15,1 -350,-33 -281,-167 17,-34 8,-72 -2,-111 244,-27 481,2 711,105 530,205 1047,465 1349,976 130,190 710,554 287,708 -22,2 -44,4 -66,6l0 0z"/>
  <path class="fil5" d="M29203 17419c133,-17 63,-81 212,-93 203,-17 152,323 275,323 -1,-84 103,-302 239,-27 19,38 341,634 260,345 -1,-1 -61,-416 -5,-202 74,281 250,332 413,530 25,-34 -81,-261 176,5 36,37 246,388 374,368 47,131 341,130 604,162 -301,36 -608,97 -891,-26 -337,-147 -684,-302 -939,-585 -220,-285 -432,-583 -718,-800l0 0z"/>
  <path class="fil5" d="M29766 11979c-11,151 349,580 447,613 153,51 270,-141 124,-318 -38,-69 -502,-315 -571,-295z"/>
  <path class="fil5" d="M30977 10887c124,228 193,471 78,724 -52,113 -51,393 102,409 68,8 126,17 173,25 62,-102 99,-224 95,-380l0 0c-43,-247 -215,-518 -327,-749 -11,-21 -82,-36 -121,-29l0 0z"/>
  <path class="fil5" d="M32457 10279c304,57 290,171 369,574 23,121 41,169 63,171 75,-261 78,-557 174,-810 94,-265 -205,-196 -340,-111 -104,51 -191,110 -266,176l0 0z"/>
  <path class="fil5" d="M33560 10691c101,-59 211,-116 213,-116 112,-49 151,-71 396,-73 135,-1 394,29 647,32 55,-200 199,-327 404,-396 46,-16 82,-61 122,-93 -41,-33 -81,-94 -124,-96 -376,-20 -757,-55 -1096,170 -238,159 -419,353 -562,572l0 0z"/>
  <path class="fil5" d="M35473 10507c80,-3 160,-7 247,-22 146,-27 507,24 690,-14 95,-20 633,-11 705,40 120,84 59,56 107,178 19,49 32,91 43,123 23,-6 40,-13 49,-23 115,-116 160,-277 245,-413 73,-125 33,-205 -95,-240 -887,-317 -1347,-137 -1991,371l0 0z"/>
  <path class="fil5" d="M22946 10985c36,-10 83,-28 146,-63 11,-6 552,-240 577,-250 50,-19 667,-439 651,-144 -3,56 -760,544 -555,579 466,-176 784,-62 1062,-793 129,-211 -121,-303 -292,-300 -737,26 -1246,390 -1589,971z"/>
  <path class="fil5" d="M21671 10965c173,-160 592,-415 609,-412 140,17 212,490 367,530 26,-49 47,-103 61,-163 44,-284 297,-593 94,-864 -24,-33 -136,-11 -206,1 -82,15 -160,56 -242,67 -298,41 -466,249 -602,481 -62,115 -82,236 -81,360l0 0zm2929 141c388,7 781,41 1089,159 72,27 538,382 549,421 13,43 120,179 255,288 77,16 153,31 230,45l0 0 0 0 5 -24c103,-1 264,21 321,-76 8,-45 -15,-130 -46,-142 -196,-78 -226,-206 -183,-400 -349,-758 -1524,-670 -2220,-271l0 0z"/>
  <path class="fil5" d="M25785 17757c192,-244 470,-574 472,-570 27,48 136,330 261,628 45,-109 92,-217 137,-325 -196,-252 -420,-478 -482,-790 -35,-178 -188,89 -493,352 -23,239 13,480 105,705z"/>
  <path class="fil5" d="M33850 15398c75,-16 252,-58 316,-109 202,-161 298,75 793,-502 39,-46 134,-135 243,-223 74,-24 149,-46 225,-64 -124,77 -255,169 -272,233 -3,11 -334,412 250,180 146,-58 801,-119 1301,-91 7,25 7,55 -6,91 -3,10 -6,19 -11,28 -110,-9 -223,-10 -334,17 -160,37 -1582,289 -1732,296 -61,2 -502,181 -709,194 -23,-12 -45,-30 -64,-50z"/>
  <path class="fil5" d="M36206 15845c195,29 479,136 615,139 135,4 786,164 895,215 28,14 195,80 350,140 -78,-87 -157,-171 -246,-239 -512,-291 -1048,-407 -1614,-255l0 0z"/>
  <path class="fil5" d="M33193 14065c152,-16 344,-42 447,-22 140,26 519,46 822,11 34,-80 62,-165 89,-250 -134,-56 -269,-112 -403,-168l0 0c-346,37 -650,120 -882,353 -25,24 -49,50 -73,76l0 0z"/>
  <path class="fil5" d="M8913 13425c63,164 178,408 177,595 0,5 54,297 61,302 23,-26 217,-314 219,-315 10,118 128,382 36,601 -220,528 262,-314 197,165 -81,598 -599,584 -92,572 81,-2 222,-295 101,296 -40,195 4,277 71,236 50,-232 92,-466 138,-699l0 0c-15,-3 -31,-7 -46,-10 26,-707 -187,-1408 -862,-1743z"/>
  <path class="fil5" d="M10024 12403c802,91 -84,-3 890,778 80,64 164,97 243,104 26,-406 20,-807 -163,-1182 -172,-201 -369,-382 -564,-562 -37,-34 -112,-27 -170,-39 -6,53 -33,117 -13,157 73,144 80,261 -75,353 -109,119 -138,252 -148,391z"/>
  <path class="fil6" d="M22192 16247c8,-31 2,-73 27,-93 -4,-11 -10,-21 -16,-31 -42,-276 131,-451 316,-597 140,-111 564,35 669,204 247,398 98,613 -238,809 -342,228 -525,-39 -758,-292l0 0 0 0z"/>
  <path class="fil7" d="M22278 16875c240,3 451,150 502,348 134,507 -799,932 -1069,455 -216,-371 160,-824 567,-802l0 0 0 -1 0 0z"/>
  <path class="fil8" d="M22278 14945c38,-384 310,-642 753,-428 389,169 538,1067 -87,908 -81,-29 -176,-51 -259,-40 -363,86 -339,-175 -407,-440l0 0z"/>
  <path class="fil9" d="M19887 18752c-654,-19 -778,-705 -240,-954 293,-174 369,161 545,317 150,169 55,342 -34,475 -62,95 -213,130 -271,162l0 0 0 0 0 0z"/>
  <path class="fil10" d="M20121 17637c-6,-548 900,-495 938,-26 43,727 -945,709 -938,26z"/>
  <path class="fil11" d="M23476 16785c-88,-45 -223,-71 -253,-141 -17,-170 148,-398 167,-583 21,-256 356,-72 491,-194 130,-93 161,-10 200,72 188,399 -127,832 -605,846l0 0z"/>
  <path class="fil12" d="M24053 15276c-1,240 -260,558 -498,589 -207,29 -300,-154 -277,-336 57,-139 179,-247 183,-445 1,-242 74,-302 304,-220 198,72 290,203 288,412l0 0 0 0 0 0z"/>
  <path class="fil13" d="M23711 14421c-23,202 -123,432 -337,257 -167,-147 -486,-292 -603,-458 54,-374 440,-422 725,-246 192,110 153,310 215,447l0 0 0 0z"/>
  <path class="fil14" d="M21777 18233c72,-46 155,-75 173,-166 53,-88 407,-147 524,-88 136,68 185,215 127,379 -135,362 -730,537 -905,124 -105,-141 119,-136 84,-252l-3 3 0 0 0 0z"/>
  <path class="fil15" d="M20662 18910c-252,14 -557,4 -395,-312 50,-112 42,-281 123,-340 81,-60 240,-28 363,-15 382,11 421,116 310,457 -73,202 -238,264 -401,210l0 0z"/>
  <path class="fil16" d="M23274 17865c-28,148 -94,317 -231,471 -113,128 -213,1 -313,33 -70,-136 -90,-331 -124,-490 -6,-43 57,-99 92,-146 40,-53 99,-97 123,-156 108,-346 486,6 453,288l0 0 0 0z"/>
  <path class="fil17" d="M21780 18230c-219,240 -691,109 -692,-214 35,-241 285,-519 516,-293 25,24 40,61 68,79 172,112 191,258 105,431l3 -3 0 0 0 0z"/>
  <path class="fil18" d="M23336 16946c-79,107 -137,226 -232,294 -37,26 -162,-54 -236,-102 -49,-33 -73,-105 -120,-143 -92,-71 -205,-135 -307,-178 -49,-60 -143,-150 -127,-184 56,-114 134,-11 208,9 277,94 645,24 814,304l0 0 0 0 0 0z"/>
  <path class="fil19" d="M19546 13783c-47,-257 -130,-487 142,-642 154,-108 315,-109 434,28 208,238 444,120 671,78 86,-15 169,-84 240,-143 98,-83 214,-60 262,64 184,556 -770,1222 -941,400 -84,193 -183,342 -390,389 -118,27 -204,33 -276,-86 -26,-43 -95,-61 -144,-90l2 2 0 0 0 0 0 0z"/>
  <path class="fil20" d="M19813 11320c-246,-172 -207,-563 68,-686 205,-95 680,-81 466,266 295,81 772,242 615,643 -66,162 17,204 128,259 240,97 159,289 4,318 -165,-28 -272,-175 -254,-340 -365,181 -609,127 -707,-17 -146,-215 -140,-583 94,-779 -12,-12 -23,-23 -34,-35 -126,125 -253,248 -380,371l0 0z"/>
  <path class="fil21" d="M21184 12549c44,678 -1108,973 -1135,90 -70,-758 1132,-807 1135,-90z"/>
  <path class="fil22" d="M18197 15703c8,342 -442,610 -744,441 -123,-69 -257,-135 -354,-233 -159,-163 -70,-338 31,-496 255,-425 1073,-226 1067,288l0 0 0 0z"/>
  <path class="fil23" d="M14869 15302c-359,-375 -60,-973 471,-843 662,87 684,1053 13,998 -168,-36 -350,-31 -488,-158l4 3 0 0 0 0z"/>
  <path class="fil24" d="M19956 15006c-218,49 -430,166 -627,-32 -142,-141 -163,-391 -44,-549 236,-414 1034,-453 967,161 9,172 -217,269 -296,420l0 0z"/>
  <path class="fil25" d="M17936 16428c-2,-124 15,-361 180,-272 280,180 519,-77 806,-13 26,414 -380,643 -724,452 -55,122 -89,262 -171,364 -114,178 -830,4 -606,-245 74,-83 180,-148 225,-243 81,-169 169,-151 290,-43l0 0z"/>
  <path class="fil26" d="M16834 16812c-610,-17 -651,-859 -84,-1000 49,-8 140,34 158,76 89,212 276,298 456,402 59,35 119,96 140,158 10,31 -61,101 -108,136 -246,183 -370,230 -562,228l0 0 0 0z"/>
  <path class="fil27" d="M14865 15299c34,187 -55,290 -235,279 -241,-16 -484,-7 -662,-225 -297,-326 96,-987 519,-838 105,49 211,115 146,290 -88,239 35,462 236,497l-4 -3 0 0z"/>
  <path class="fil28" d="M18226 14812c4,-360 435,-635 754,-470 148,128 109,398 142,580 28,209 -109,347 -321,315 -293,-62 -601,-25 -575,-425l0 0 0 0z"/>
  <path class="fil29" d="M16589 14915c232,1 415,115 411,295 -3,107 -92,211 -135,319 -95,235 -301,290 -516,296 -266,6 -424,-288 -311,-551 81,-190 342,-360 551,-359l0 0 0 0z"/>
  <path class="fil30" d="M21021 10804c-329,13 -577,48 -679,-324 -53,-421 435,-561 761,-290 149,124 204,299 153,467 -39,128 -92,224 -235,147l0 0z"/>
  <path class="fil31" d="M19707 15764c-206,162 -598,422 -713,34 -23,-69 -16,-153 -4,-227 14,-93 -89,-192 71,-284 446,-240 935,-80 646,477l0 0 0 0z"/>
  <path class="fil32" d="M18890 15614c-1,198 -169,493 -441,517 -404,18 -150,-494 -174,-730 5,-228 192,-106 338,-106 204,28 284,119 277,319l0 0 0 0z"/>
  <path class="fil33" d="M21703 12638c-27,22 -63,38 -79,66 -77,138 -165,105 -259,24 -60,-241 -196,-473 -32,-701 20,-57 34,-168 47,-168 468,-43 594,490 323,779l0 0z"/>
  <path class="fil34" d="M21570 11358c33,307 -462,651 -516,196 -2,-122 -29,-243 -36,-364 -6,-84 -15,-144 -125,-141 -29,0 -60,-64 -90,-98 253,-275 763,90 767,407l0 0 0 0 0 0z"/>
  <path class="fil35" d="M15973 15941c-221,-90 -482,-94 -644,-306 162,-67 322,-136 486,-197 11,-5 67,54 61,68 -59,167 327,235 97,435l0 0 0 0z"/>
 </g>
</svg>
