<?xml version="1.0" encoding="UTF-8"?>
<!DOCTYPE svg PUBLIC "-//W3C//DTD SVG 1.1//EN" "http://www.w3.org/Graphics/SVG/1.1/DTD/svg11.dtd">
<!-- Creator: CorelDRAW X7 -->
<svg xmlns="http://www.w3.org/2000/svg" xml:space="preserve" width="750px" height="294px" version="1.1" shape-rendering="geometricPrecision" text-rendering="geometricPrecision" image-rendering="optimizeQuality" fill-rule="evenodd" clip-rule="evenodd"
viewBox="0 0 1704010 668580"
 xmlns:xlink="http://www.w3.org/1999/xlink">
 <g id="Слой_x0020_1">
  <metadata id="CorelCorpID_0Corel-Layer"/>
  <polygon fill="" fill-rule="nonzero" points="939792,493366 944451,493366 944451,539898 939792,539898 "/>
  <polygon fill="#252525" fill-rule="nonzero" points="963988,493366 970268,493366 996562,531979 996562,493366 1001218,493366 1001218,539898 996562,539898 968631,499031 968631,539898 963988,539898 "/>
  <polygon fill="#252525" fill-rule="nonzero" points="1027051,497579 1016427,497579 1016427,493366 1042332,493366 1042332,497579 1031708,497579 1031708,539898 1027051,539898 "/>
  <polygon fill="#252525" fill-rule="nonzero" points="1057527,493366 1083057,493366 1083057,497579 1062183,497579 1062183,514368 1082367,514368 1082367,518582 1062183,518582 1062183,535687 1083057,535687 1083057,539898 1057527,539898 "/>
  <path fill="#252525" fill-rule="nonzero" d="M1101357 493366l13010 0c17492,0 18499,11387 18499,15224 0,7547 -5418,13384 -13714,13958l13083 17350 -5794 0 -15783 -21059 3709 0c2644,0 13843,-128 13843,-10694 0,-4976 -2832,-10566 -13843,-10566l-8367 0 0 42319 -4643 0 0 -46532z"/>
  <polygon fill="#252525" fill-rule="nonzero" points="1149641,493366 1155924,493366 1182216,531979 1182216,493366 1186875,493366 1186875,539898 1182216,539898 1154300,499031 1154300,539898 1149641,539898 "/>
  <polygon fill="#252525" fill-rule="nonzero" points="1206296,493366 1231826,493366 1231826,497579 1210939,497579 1210939,514368 1231136,514368 1231136,518582 1210939,518582 1210939,535687 1231826,535687 1231826,539898 1206296,539898 "/>
  <polygon fill="#252525" fill-rule="nonzero" points="1256537,497579 1245913,497579 1245913,493366 1271818,493366 1271818,497579 1261194,497579 1261194,539898 1256537,539898 "/>
  <path fill="#252525" fill-rule="nonzero" d="M1313133 526890c129,1882 948,9616 9616,9616 6167,0 9632,-4471 9632,-9430 0,-5663 -4211,-7676 -6224,-8424 -5982,-2327 -16231,-2773 -16231,-13470 0,-5217 3580,-12635 13212,-12635 8609,0 12635,6412 12764,12579l-4657 0c-128,-2963 -1639,-8368 -8681,-8368 -5722,0 -7979,4342 -7979,8497 0,5088 3392,6540 9170,8166 4973,1393 13284,3650 13284,13714 0,6295 -4543,13584 -14161,13584 -8108,0 -14404,-5721 -14404,-13829l4659 0z"/>
  <polygon fill="#252525" fill-rule="nonzero" points="1353182,493366 1357825,493366 1357825,513867 1382176,513867 1382176,493366 1386819,493366 1386819,539898 1382176,539898 1382176,518077 1357825,518077 1357825,539898 1353182,539898 "/>
  <path fill="#252525" fill-rule="nonzero" d="M1453548 516381c0,13958 -10823,24338 -24652,24338 -13713,0 -24655,-9991 -24655,-23965 0,-13958 10813,-24207 24655,-24207 13902,0 24652,10005 24652,23834zm-4656 0l0 0c0,-11572 -8741,-19623 -19939,-19623 -11385,0 -20066,8424 -20066,19996 0,11704 8869,19752 20066,19752 11327,0 19939,-8494 19939,-20125z"/>
  <path fill="#252525" fill-rule="nonzero" d="M1471030 493366l14706 0c13657,0 16043,8684 16043,13958 0,6916 -4269,13901 -16043,13901l-10063 0 0 18673 -4643 0 0 -46532zm4643 23648l0 0 10136 0c8292,0 11311,-4844 11311,-9690 0,-4973 -3019,-9745 -11311,-9745l-10136 0 0 19435z"/>
  <path fill="#252525" d="M905696 519690c0,7013 -5684,12697 -12697,12697 -7015,0 -12699,-5684 -12699,-12697 0,-7015 5684,-12699 12699,-12699 7013,0 12697,5684 12697,12699z"/>
  <path fill="#252525" d="M990044 156431c0,7013 -5687,12697 -12700,12697 -7012,0 -12696,-5684 -12696,-12697 0,-7012 5684,-12696 12696,-12696 7013,0 12700,5684 12700,12696z"/>
  <path fill="#252525" d="M1433644 156431c0,7013 -5684,12697 -12700,12697 -7012,0 -12696,-5684 -12696,-12697 0,-7012 5684,-12696 12696,-12696 7016,0 12700,5684 12700,12696z"/>
  <path fill="#252525" d="M1557232 519690c0,7013 -5684,12697 -12696,12697 -7013,0 -12700,-5684 -12700,-12697 0,-7015 5687,-12699 12700,-12699 7012,0 12696,5684 12696,12699z"/>
  <path fill="#252525" fill-rule="nonzero" d="M1020541 164002c172,3405 2759,5461 5821,5461 3537,0 5880,-2356 5880,-5461 0,-4428 -3766,-6068 -6355,-6959 -4815,-1637 -12176,-3996 -12176,-12764 0,-5708 4415,-12363 12938,-12363 8308,0 12307,6368 12608,12363l-8309 0c0,-2171 -1352,-4530 -4527,-4530 -3237,0 -4646,2231 -4646,4587 0,3422 3178,4527 5593,5305 4471,1409 12938,3822 12938,13886 0,7705 -5821,13772 -14116,13772 -6484,0 -14017,-4414 -14073,-13297l8424 0z"/>
  <polygon fill="#252525" fill-rule="nonzero" points="1053158,132691 1061223,132691 1061223,176234 1053158,176234 "/>
  <polygon fill="#252525" fill-rule="nonzero" points="1076533,132691 1084597,132691 1104016,162104 1104016,132691 1112081,132691 1112081,176234 1104016,176234 1084597,146808 1084597,176234 1076533,176234 "/>
  <path fill="#252525" fill-rule="nonzero" d="M1158715 145170c-2185,-2774 -5778,-5421 -10955,-5421 -8711,0 -14763,7059 -14763,14707 0,8180 6471,15007 14822,15007 3881,0 7778,-1522 10480,-5059l9358 0c-3593,7649 -10595,12895 -20069,12895 -15237,0 -22655,-12838 -22655,-22843 0,-9704 7361,-22540 22771,-22540 8998,0 16531,4887 20181,13254l-9170 0z"/>
  <polygon fill="#252525" fill-rule="nonzero" points="1180163,132691 1203538,132691 1203538,140512 1188227,140512 1188227,150575 1202891,150575 1202891,158409 1188227,158409 1188227,168414 1203538,168414 1203538,176234 1180163,176234 "/>
  <path fill="#252525" fill-rule="nonzero" d="M1237102 168816l15010 -13944c2472,-2300 5290,-4643 5290,-8939 0,-3307 -1884,-6600 -6240,-6600 -5002,0 -7002,4528 -6698,8425l-7834 0c-290,-7778 4066,-15842 14301,-15842 8124,0 14304,5418 14304,14132 0,5174 -2415,9586 -8883,15351l-8308 7417 17191 0 0 7418 -28133 0 0 -7418z"/>
  <path fill="#252525" fill-rule="nonzero" d="M1276550 147570c0,-9702 5649,-15654 14591,-15654 8939,0 14604,5952 14604,15654l0 14073c0,9704 -5665,15656 -14604,15656 -8942,0 -14591,-5952 -14591,-15656l0 -14073zm21362 0l0 0c0,-7590 -4646,-8237 -6771,-8237 -2115,0 -6771,647 -6771,8237l0 14073c0,7592 4656,8239 6771,8239 2125,0 6771,-647 6771,-8239l0 -14073z"/>
  <polygon fill="#252525" fill-rule="nonzero" points="1332770,143633 1323828,155347 1317647,150632 1331592,132691 1340590,132691 1340590,176234 1332770,176234 "/>
  <path fill="#252525" fill-rule="nonzero" d="M1380885 132691l-9717 14822c759,-115 1406,-171 2184,-171 6943,0 12823,5474 12823,14475 0,8652 -5880,15482 -15007,15482 -8886,0 -15125,-6599 -15125,-15541 0,-2702 705,-6296 3177,-10061l12420 -19006 9245 0zm-17006 29354l0 0c0,4487 2759,7837 7230,7837 4471,0 7246,-3350 7246,-7837 0,-4167 -2719,-7645 -7246,-7645 -4528,0 -7230,3478 -7230,7645z"/>
  <path fill="#252525" fill-rule="nonzero" d="M735436 415942l0 -163304 38712 0c13139,0 22755,3078 28865,9229 6108,6140 9170,15598 9170,28348l0 5807c0,16706 -5547,27674 -16630,32921 12763,4930 19132,16588 19132,34960l0 13327c0,12592 -3307,22194 -9903,28807 -6599,6599 -16287,9905 -29040,9905l-40306 0zm25615 -96803l0 0 10064 0c5118,0 8956,-1309 11556,-3926 2590,-2614 3897,-7042 3897,-13268l0 -9114c0,-5834 -1036,-10104 -3092,-12806 -2069,-2689 -5375,-4042 -9962,-4042l-12463 0 0 43156zm0 73458l0 0 14691 0c4471,0 7820,-1208 10021,-3637 2200,-2431 3306,-6569 3306,-12420l0 -14231c0,-7447 -1280,-12608 -3824,-15498 -2544,-2874 -6771,-4326 -12694,-4326l-11500 0 0 50112z"/>
  <path fill="#252525" fill-rule="nonzero" d="M851327 415942l25992 -163304 39589 0 25975 163304 -25615 0 -4458 -29614 -31423 0 -4428 29614 -25632 0zm33396 -51808l0 0 24725 0 -12394 -82212 -12331 82212z"/>
  <polygon fill="#252525" fill-rule="nonzero" points="980906,415942 980906,252638 1006524,252638 1006524,322676 1035677,322676 1035677,252638 1061292,252638 1061292,415942 1035677,415942 1035677,346022 1006524,346022 1006524,415942 "/>
  <polygon fill="#252525" fill-rule="nonzero" points="1100895,275983 1100895,252638 1180262,252638 1180262,275983 1153396,275983 1153396,415942 1127764,415942 1127764,275983 "/>
  <path fill="#252525" fill-rule="nonzero" d="M1203809 415942l25991 -163304 39590 0 25975 163304 -25616 0 -4457 -29614 -31424 0 -4428 29614 -25631 0zm33393 -51808l0 0 24727 0 -12393 -82212 -12334 82212z"/>
  <path fill="#252525" fill-rule="nonzero" d="M1333387 415942l0 -163304 38656 0c13109,0 22725,3078 28822,9229 6108,6140 9157,15598 9157,28348l0 12868c0,16789 -5593,27830 -16776,33149 6124,2573 10493,6754 13097,12519 2600,5781 3910,13169 3910,22210l0 25173c0,9025 789,15638 2385,19808l-25618 0c-617,-1897 -1020,-3322 -1250,-4270 -229,-950 -473,-2775 -746,-5464 -261,-2702 -403,-6137 -403,-10305l0 -25632c0,-7517 -1323,-12865 -3983,-16056 -2659,-3177 -6899,-4774 -12750,-4774l-8885 0 0 66501 -25616 0zm25616 -89731l0 0 10020 0c5089,0 8926,-1323 11500,-3937 2587,-2617 3881,-7074 3881,-13384l0 -16059c0,-5834 -1034,-10104 -3076,-12806 -2056,-2689 -5362,-4042 -9905,-4042l-12420 0 0 50228z"/>
  <polygon fill="#252525" fill-rule="nonzero" points="1454871,415942 1454871,252638 1490465,252638 1509425,368948 1527022,252638 1563965,252638 1563965,415942 1538334,415942 1538334,298870 1520624,415942 1496315,415942 1477183,300737 1477183,415942 "/>
  <path fill="#252525" fill-rule="nonzero" d="M1602420 415942l25991 -163304 39589 0 25976 163304 -25619 0 -4455 -29614 -31423 0 -4428 29614 -25631 0zm33393 -51808l0 0 24724 0 -12390 -82212 -12334 82212z"/>
  <polygon fill="#252525" points="1704010,204971 734615,204971 734615,219691 1704010,219691 "/>
  <polygon fill="#252525" points="1704010,448331 734615,448331 734615,463051 1704010,463051 "/>
  <path fill="#252525" d="M575784 66096c-11821,-5931 -23367,-13703 -34128,-22543 -11599,-9524 -22293,-20315 -31461,-31393l-10061 -12160 -14017 7310c-21676,11301 -48265,17710 -74783,18145 -25017,410 -49881,-4501 -70358,-15641l-9331 -5075 -9331 5075c-20479,11140 -45340,16051 -70360,15641 -26515,-435 -53105,-6844 -74778,-18145l-14014 -7310 -10061 12160c-9168,11078 -19865,21869 -31466,31393 -10759,8840 -22304,16612 -34129,22543l-17156 8609 8306 17286c2922,6086 5724,12321 8265,18780 140,354 255,717 392,1071 2842,-2034 6017,-3728 9503,-5045 -2552,-6479 -5467,-12952 -8561,-19398l-3786 -7874 7798 -3913c12581,-6312 24797,-14526 36133,-23836 12203,-10021 23388,-21298 32921,-32813l4578 -5534 6352 3312c23128,12060 51409,18895 79536,19357 26748,440 53456,-4879 75621,-16931l4237 -2308 4238 2308c22162,12052 48872,17371 75620,16931 28131,-462 56408,-7297 79539,-19357l6352 -3312 4576 5534c9532,11515 20720,22792 32923,32813 11336,9310 23555,17524 36133,23836l7796 3911 -3784 7876c-3110,6476 -6035,12981 -8601,19486 -2617,6648 -4925,13440 -6774,20423 -2249,8505 -3448,16878 -4108,25175 3797,1667 7149,3841 10120,6372 362,-9485 1720,-19095 4299,-28837 1723,-6513 3905,-12927 6398,-19247 2544,-6459 5340,-12694 8263,-18783l8306 -17283 -17157 -8609z"/>
  <path fill="#252525" d="M599626 492260c-9001,12847 -19663,24985 -31839,35435 -18107,15542 -39037,27505 -60852,33270 -27736,7326 -60007,15868 -90161,28452 -30564,12758 -58917,29660 -78229,53620l-6900 8561 -6902 -8561c-19312,-23960 -47662,-40862 -78224,-53620 -30153,-12584 -62425,-21126 -90158,-28452 -21815,-5765 -42748,-17728 -60855,-33270 -19212,-16488 -35196,-36948 -45665,-58270 -14347,-29217 -18904,-59398 -16110,-89130 3143,-33393 15573,-66298 33863,-96703 3623,-6025 7138,-12128 10503,-18303 -3147,-2002 -5933,-4375 -8359,-7042 -3604,6701 -7353,13343 -11285,19881 -19054,31675 -32019,66093 -35320,101203 -2973,31590 1881,63676 17146,94772 11113,22623 28012,44286 48298,61689 19266,16537 41635,29290 65068,35481 27387,7235 59251,15667 88784,27996 29113,12152 55998,28101 74011,50445l15205 18866 15206 -18866c18013,-22344 44898,-38293 74013,-50445 29531,-12326 61400,-20761 88784,-27996 23434,-6191 45805,-18944 65068,-35481 15426,-13241 28879,-28946 39335,-45660 -4353,1334 -9154,2093 -14425,2128z"/>
  <path fill="#252525" d="M538328 92938c-3483,8591 -6524,17350 -8907,26359 -2209,8346 -3521,16561 -4433,24714 8534,11 15828,1924 21965,5126 760,-7944 1984,-15960 4139,-24105 3835,-14486 9543,-28151 15949,-41487 -26904,-13496 -52530,-35529 -71896,-58930 -48510,25296 -116087,28138 -163500,2345 -47412,25793 -114990,22951 -163497,-2345 -19368,23401 -44992,45434 -71895,58930 3279,6825 6373,13735 9127,20796l-19 164c2815,-478 5751,-787 8891,-787 5746,0 10947,843 15608,2362 -1505,-4428 -3140,-8808 -4898,-13142 17820,-11400 34496,-25623 48959,-41001 48853,19816 109724,21440 157724,8 48000,21432 108877,19808 157728,-8 14465,15378 31136,29601 48955,41001z"/>
  <path fill="#252525" d="M577998 492671c-6078,0 -11523,-972 -16389,-2665 -17280,19067 -39488,34584 -62672,40709 -56687,14974 -122477,33258 -167292,74179 -44814,-40921 -110602,-59205 -167289,-74179 -36189,-9557 -70140,-41922 -86428,-75095 -25693,-52326 -12350,-107977 16473,-155886 5276,-8770 10297,-17635 14951,-26603l217 -1369c-2048,239 -4154,397 -6363,397 -6398,0 -12082,-1090 -17135,-2952 -3476,6395 -7120,12721 -10880,18971 -32754,54449 -46634,117757 -17385,177326 19615,39947 59132,75873 100823,86887 56322,14878 132694,35046 173016,85072 40322,-50026 116694,-70194 173022,-85072 32384,-8556 63412,-32170 84866,-61000 -3575,810 -7402,1280 -11535,1280z"/>
  <path fill="#252525" d="M636465 345657c-8462,-6929 -23780,-31056 -26343,-37628 -2560,-6570 5799,-22350 7291,-46937 1492,-24585 -7954,-31576 -27593,-49549 0,0 -824,-2037 -2297,-5104 15305,-1562 32212,-4026 39364,-7947 21386,-11719 27985,-25205 25645,-38540 -7093,-40459 -76587,-54698 -79813,-62618 -2836,-6964 8712,-8217 13226,-10195 18439,-8086 34281,-26928 61799,-29027 -41248,-4946 -60412,-864 -78148,29665 -18086,31134 61158,17256 74697,75820 1744,7546 -4423,16091 -12020,22821 -10424,9230 -30240,10268 -49535,11036 -3419,-5778 -7861,-11980 -12828,-15745 -11325,-8585 -32333,-20225 -61658,-24964 -29327,-4742 -53257,-765 -109300,3733 -25557,2048 -50268,451 -72137,-2512 0,0 -30782,-6690 -38508,-6889 -9385,-2050 -48744,-30323 -65584,-32327 -20468,-2437 -33280,6387 -53748,7361 -20471,974 -30704,2437 -34604,0 -3899,-2437 -9261,-11210 -16327,-13158 -6468,-1785 -27403,13367 -40252,26413 -1509,397 -2885,735 -3884,912 -4396,778 -5219,609 -7603,609 -14140,0 -28280,-10442 -35242,-18710 -6961,-8266 -10007,-18056 -10007,-18056 0,0 -435,6307 1087,13923 1524,7613 7834,20232 19145,28935 5301,4077 13451,7756 22790,9726 -166,204 -317,421 -483,625 -4458,880 -8888,1457 -12844,1457 -15839,0 -31678,-11695 -39477,-20956 -7796,-9259 -11210,-20225 -11210,-20225 0,0 -485,7067 1221,15595 1705,8529 8771,22664 21443,32411 8888,6838 19102,10066 30631,10802 -413,837 -797,1699 -1180,2560 -6981,13016 -13048,24982 -15525,28283 -5118,6822 -12429,7066 -13158,14377 -730,7310 244,7310 729,10721 489,3413 -485,6580 3170,9991 3655,3411 10233,3170 15839,7066 5603,3900 3655,6336 9991,3411 6336,-2922 14377,-5115 16083,-4871 1705,242 1463,8529 21201,13888 19736,5362 30216,2681 37526,5851l7914 3698c6151,6682 11707,13781 14951,20071 9001,17455 2182,17455 9817,31909 7638,14457 27274,30003 28911,33548 1637,3546 -14728,25364 -20455,36002 -5727,10635 -6816,21000 -2455,28637 4363,7638 16912,20455 18002,31638 1092,11183 -2727,24548 6819,33820 9546,9272 19636,11454 24000,18002 4364,6545 6274,11454 11183,15544 4908,4092 7090,6000 8727,5727 1637,-271 4364,-7364 4364,-17455 0,-10091 3000,-13636 -1908,-18273 -4909,-4638 -6546,-12546 -10638,-13910 -4090,-1363 -7091,-3545 -7091,-3545 0,0 -10090,-7909 -12272,-13091 -2182,-5182 -3000,-13364 -5730,-20728 -2726,-7364 548,-26182 548,-26182 0,0 16504,-8540 22908,-13910 6406,-5372 6475,-6314 8048,-7841 -3,-3 -5,-6 -5,-6 1331,-563 2643,-1170 3939,-1811 4791,-811 11465,-49 16518,472 19,8 32,16 48,24 1442,695 2915,1109 4386,1302 61,24 126,45 187,70 843,7001 -289,26987 2056,40791 2450,14455 7906,21548 8996,27275 1092,5726 -816,25908 -1908,34635 -1090,8727 -4361,17184 -8996,19910 -4637,2729 -7911,8456 -13912,12273 -5998,3818 -10907,10367 -8725,11456 2182,1092 5182,2182 5182,2182 0,0 -1637,2453 2998,3819 4638,1363 26998,-2182 29998,-3274 3001,-1090 9001,-9001 10093,-15273 1090,-6274 5727,-10091 7636,-13636 1910,-3548 -2182,-9275 -2456,-15820 -271,-6545 -2179,-31093 1092,-40910 3274,-9819 14183,-17183 19092,-44458 4911,-27271 5456,-24668 10909,-30669 518,-566 1202,-1070 2029,-1518 37,-84 67,-170 104,-253 2663,-467 5303,-1097 8006,-1986 193,-64 349,-158 537,-225 1468,-228 3011,-408 4581,-558l16153 -2692 -11 -72c18413,-798 28755,-14790 42783,-26314 11145,-9157 32754,-28326 46124,-29273 -155,-89 -284,-167 -402,-237 2587,266 5187,427 7825,492 1621,1226 5875,4248 14395,9175 11444,6615 27237,6588 31767,13279 4530,6690 -25691,16703 -40279,21246 -14589,4544 -16258,-493 -22248,623 -5990,1119 -10549,11207 -18582,21577 -8034,10370 -10203,36361 -8166,48754 1388,8440 35014,-19486 35374,-25387 356,-5902 -8599,-12861 -8599,-12861 0,0 14978,-10936 30119,-16434 15138,-5497 19191,-7225 26015,-5824 6825,1401 33321,-12291 38267,-12484 4949,-194 10133,-4321 8032,-10370 -2099,-6049 -24582,-34067 -24075,-42426 459,-7568 16118,-12984 19083,-13942 1165,985 2241,1997 2867,3186 276,413 566,799 866,1164 -45,38 -93,75 -142,110 5467,8148 17479,26319 31458,36458 13982,10136 34778,28761 41393,33605 6615,4841 12189,26896 11234,42633 -955,15734 -14205,30725 -20702,40201 -6497,9476 -18085,21786 -18472,28179 -389,6392 11304,504 16653,1816 5348,1313 11861,-268 23468,-4497 11610,-4233 12071,-3712 11044,-11175 -1028,-7466 -118,-14320 2206,-20104 2326,-5780 6081,-2592 6035,-9996 -43,-7407 -1175,-21295 703,-35988 1879,-14691 6752,-21800 9256,-30530 2504,-8732 -2576,-14470 -11040,-21399z"/>
  <polygon fill="#252525" points="581849,456919 309878,456919 309878,438509 594127,438509 "/>
  <polygon fill="#252525" points="249031,456919 216685,456919 216685,438509 249031,438509 "/>
  <polygon fill="#252525" points="148157,456919 69657,456919 69657,438509 148157,438509 "/>
 </g>
</svg>
