<?xml version="1.0" encoding="UTF-8"?>
<!DOCTYPE svg PUBLIC "-//W3C//DTD SVG 1.1//EN" "http://www.w3.org/Graphics/SVG/1.1/DTD/svg11.dtd">
<!-- Creator: CorelDRAW X7 -->
<svg xmlns="http://www.w3.org/2000/svg" xml:space="preserve" width="459px" height="168px" version="1.1" shape-rendering="geometricPrecision" text-rendering="geometricPrecision" image-rendering="optimizeQuality" fill-rule="evenodd" clip-rule="evenodd"
viewBox="0 0 692380 253684"
 xmlns:xlink="http://www.w3.org/1999/xlink">
 <defs>
   <linearGradient id="id0" gradientUnits="userSpaceOnUse" x1="21.3878" y1="126208" x2="329932" y2="126208">
    <stop offset="0" stop-opacity="1" stop-color="#E6462D"/>
    <stop offset="0.580392" stop-opacity="1" stop-color="#E87319"/>
    <stop offset="1" stop-opacity="1" stop-color="#EBA005"/>
   </linearGradient>
 </defs>
 <g id="Слой_x0020_1">
  <metadata id="CorelCorpID_0Corel-Layer"/>
  <path fill="url(#id0)" d="M126217 24286c28130,0 53617,11414 72073,29870 18452,18432 29870,43923 29870,72075 0,38539 -811,77390 -938,116109l14515 0 0 -65210c0,-16962 986,-34341 986,-50899 0,-32176 -13043,-61308 -34122,-82386 -21078,-21078 -50210,-34122 -82384,-34122 -32177,0 -61309,13044 -82386,34122 -21078,21078 -34123,50210 -34123,82386 0,32174 13045,61306 34123,82384 21077,21079 50209,34122 82386,34122 25004,0 48176,-7874 67150,-21272l0 -18539c-17932,15709 -41432,25248 -67150,25248 -28152,0 -53643,-11418 -72084,-29859 -18447,-18467 -29861,-43952 -29861,-72084 0,-28127 11408,-53609 29861,-72065 18475,-18472 43957,-29880 72084,-29880zm67150 228176l58084 0c0,-42079 980,-84152 980,-126231 0,-18768 7613,-35764 19909,-48060 17579,-17578 34404,-19681 57583,-20059l0 -58112c-43533,82 -78233,11418 -106618,45577 -2480,-2980 -5098,-5853 -7839,-8596 -22837,-22835 -54394,-36967 -89249,-36967 -34855,0 -66415,14132 -89250,36967 -22835,22835 -36967,54395 -36967,89250 0,34855 14132,66414 36967,89249 22835,22835 54395,36967 89250,36967 24669,0 47694,-7093 67150,-19345l0 19360zm126436 -203899l0 -14564c-31585,200 -60537,16375 -77367,42920 2613,6146 4753,12539 6370,19141 12034,-28521 39894,-47264 70997,-47497zm0 -24272l0 -14563c-35342,180 -68405,16239 -90424,43763 2999,4244 5737,8689 8204,13296 19081,-26496 49432,-42307 82220,-42496zm-102289 218049c126,-38730 937,-77506 937,-116109 0,-25468 -10330,-48536 -27016,-65229 -16674,-16690 -39738,-27006 -65218,-27006 -25482,0 -48545,10316 -65221,26995 -16698,16695 -27014,39758 -27014,65240 0,25480 10316,48545 26995,65218 16703,16686 39772,27017 65240,27017 26330,0 48840,-10389 67150,-28977l0 -24229c-3388,5810 -7503,11141 -12232,15870 -14084,14078 -33497,22772 -54918,22772 -21449,0 -40871,-8699 -54924,-22753 -14049,-14050 -22748,-33472 -22748,-54918 0,-21433 8699,-40851 22748,-54904 14073,-14068 33491,-22768 54924,-22768 21446,0 40868,8700 54918,22748 14054,14053 22753,33477 22753,54924 0,38539 -684,77404 -797,116109l14423 0zm-43244 -164169c-12291,-12291 -29287,-19904 -48053,-19904 -18774,0 -35773,7607 -48070,19895 -12287,12296 -19894,29296 -19894,48069 0,18768 7613,35762 19903,48055 12297,12296 29293,19906 48061,19906 18776,0 35772,-7601 48053,-19889 12306,-12299 19908,-29296 19908,-48072 0,-18768 -7610,-35764 -19908,-48060l0 0z"/>
  <path fill="#333333" fill-rule="nonzero" d="M392104 180258l-14976 0 -4547 -11414 -23160 0 -4548 11414 -14975 0 24273 -60889 13658 0 24275 60889zm-38309 -22623l14469 0 -7256 -19972 -7213 19972zm91697 -20915c13570,0 20363,7603 20363,22826l0 20712 -13542 0 0 -21942c0,-6562 -2274,-9835 -6821,-9835 -4534,0 -6794,3273 -6794,9835l0 21942 -14252 0 0 -21942c0,-6562 -2331,-9835 -6967,-9835 -4605,0 -6908,3273 -6908,9835l0 21942 -13804 0 0 -43626 13847 0 0 4882c2203,-3201 5258,-4794 9154,-4794 6345,0 10717,2085 13123,6241 3561,-4156 7762,-6241 12601,-6241zm42813 21551c175,6346 2983,9661 8444,9980 5519,-319 8356,-3622 8531,-9935 -175,-6142 -2998,-9430 -8488,-9879 -5489,449 -8312,3723 -8487,9834zm333 -38859l0 22362c3230,-3431 6402,-5142 9516,-5142 5939,0 11022,2145 15265,6417 4244,4215 6372,9300 6372,15267 0,5965 -2128,11079 -6372,15323 -4243,4215 -9326,6314 -15265,6314 -3114,0 -6286,-1709 -9516,-5126l0 5431 -13875 0 0 -60846 13875 0zm52156 25710c2201,-5577 5823,-8359 10863,-8359 1693,0 3561,333 5590,971l-43 11123 -1144 0c-10038,0 -15136,4679 -15266,14050l0 17351 -13804 0 0 -43408 13804 0 0 8272zm41482 2924c-5561,523 -8431,4012 -8561,10486 130,6707 3012,10225 8603,10558 5549,-333 8386,-3866 8532,-10601 -146,-6445 -2999,-9920 -8574,-10443zm-43 33356c-6244,0 -11617,-2215 -16121,-6662 -4433,-4491 -6662,-9877 -6662,-16121 0,-6315 2229,-11688 6662,-16119 4504,-4506 9877,-6752 16121,-6752 6315,0 11701,2246 16176,6752 4433,4431 6664,9804 6664,16119 0,6244 -2231,11630 -6664,16121 -4475,4447 -9861,6662 -16176,6662zm45666 -45827c5171,0 10443,1594 15817,4795l-6620 11123c-3591,-2158 -6953,-3229 -10095,-3229 -1130,0 -2201,173 -3229,506 -594,175 -884,522 -884,1059 0,85 14,187 42,303 161,869 1811,1680 4925,2418 8908,2057 13920,6083 15019,12051 161,928 246,1839 246,2709 0,4170 -2026,7676 -6111,10530 -3476,2432 -7256,3648 -11327,3648 -4865,0 -10166,-1708 -15902,-5140l6620 -11109c3837,2288 7270,3432 10268,3432 898,0 1754,-130 2534,-376 797,-262 1187,-666 1187,-1231l0 -218c-158,-1274 -1766,-2260 -4792,-2969 -8908,-2085 -13920,-6010 -15020,-11747 -160,-911 -246,-1795 -246,-2679 0,-4157 2027,-7662 6112,-10528 3128,-2232 6951,-3348 11456,-3348zm43783 11413c-4589,392 -7211,2652 -7892,6751l15613 0c-709,-4506 -3288,-6751 -7721,-6751zm20582 7633c73,797 116,1622 116,2463 0,1622 -144,3346 -463,5185l-28257 0c1041,4520 4258,6866 9631,7040 3708,0 6691,-1276 8950,-3824l6879 9979c-4097,3924 -9341,5894 -15700,5894 -7270,0 -13063,-2216 -17351,-6662 -4272,-4460 -6415,-9821 -6415,-16034 0,-6285 2143,-11644 6415,-16091 4288,-4461 9459,-6705 15485,-6705 6052,0 11209,2244 15481,6705 2912,3057 4664,7083 5229,12050z"/>
  <path fill="#333333" fill-rule="nonzero" d="M380820 191519l0 12977 -17436 0 0 47957 -14688 0 0 -47957 -17436 0 0 -12977 49560 0zm19814 48926c5461,-319 8272,-3621 8445,-9934 -173,-6114 -2998,-9388 -8487,-9835 -5490,447 -8301,3721 -8445,9835 144,6343 2969,9645 8487,9934zm21944 -31746l0 43754 -13832 0 0 -5431c-3230,3417 -6402,5126 -9516,5126 -5939,0 -11022,-2100 -15266,-6315 -4215,-4244 -6329,-9343 -6329,-15280 0,-5967 2114,-11050 6329,-15265 4244,-4246 9327,-6374 15266,-6374 3114,0 6286,1709 9516,5142l0 -5357 13832 0zm8907 -17006l13962 0 0 60760 -13962 0 0 -60760zm36673 25623c2201,-5577 5822,-8359 10863,-8359 1693,0 3563,333 5591,971l-45 11124 -1144 0c-10038,0 -15135,4678 -15265,14050l0 17351 -13804 0 0 -43409 13804 0 0 8272zm22057 -8648l13920 0 0 43785 -13920 0 0 -43785zm0 -16816l13920 0 0 12688 -13920 0 0 -12688zm38456 15918c5170,0 10442,1593 15816,4794l-6619 11124c-3592,-2159 -6953,-3230 -10096,-3230 -1130,0 -2201,173 -3229,506 -594,175 -884,523 -884,1059 0,86 14,187 43,303 160,870 1810,1681 4924,2419 8908,2057 13920,6083 15020,12050 160,929 246,1839 246,2709 0,4171 -2027,7677 -6112,10530 -3475,2433 -7256,3650 -11326,3650 -4866,0 -10167,-1709 -15904,-5142l6621 -11109c3838,2289 7270,3433 10268,3433 898,0 1754,-130 2535,-376 796,-262 1187,-667 1187,-1232l0 -217c-159,-1275 -1767,-2260 -4793,-2970 -8908,-2085 -13920,-6010 -15020,-11747 -160,-911 -246,-1795 -246,-2679 0,-4156 2027,-7660 6112,-10528 3128,-2231 6951,-3347 11457,-3347z"/>
 </g>
</svg>
