<?xml version="1.0" encoding="UTF-8"?>
<!DOCTYPE svg PUBLIC "-//W3C//DTD SVG 1.1//EN" "http://www.w3.org/Graphics/SVG/1.1/DTD/svg11.dtd">
<!-- Creator: CorelDRAW X7 -->
<svg xmlns="http://www.w3.org/2000/svg" xml:space="preserve" width="500px" height="140px" version="1.1" shape-rendering="geometricPrecision" text-rendering="geometricPrecision" image-rendering="optimizeQuality" fill-rule="evenodd" clip-rule="evenodd"
viewBox="0 0 494288 138205"
 xmlns:xlink="http://www.w3.org/1999/xlink">
 <g id="Слой_x0020_1">
  <metadata id="CorelCorpID_0Corel-Layer"/>
  <path fill="#2E4567" d="M69103 0c38163,0 69102,30939 69102,69103 0,38163 -30939,69102 -69102,69102 -38164,0 -69103,-30939 -69103,-69102 0,-38164 30939,-69103 69103,-69103zm0 1737c37205,0 67365,30161 67365,67366 0,37205 -30160,67365 -67365,67365 -37205,0 -67366,-30160 -67366,-67365 0,-37205 30161,-67366 67366,-67366zm0 1919c36145,0 65447,29302 65447,65448 0,36144 -29302,65446 -65447,65446 -36145,0 -65448,-29302 -65448,-65446 0,-36146 29302,-65448 65448,-65448zm5392 15883c14152,1522 26530,8965 34607,19803 1790,560 3574,1131 5358,1702 2520,807 3373,2496 2789,5036 -140,614 -387,1184 -664,1747 -415,844 -850,1677 -1283,2512 2355,5792 3656,12125 3656,18763 0,26039 -19964,47411 -45421,49655 -1165,3969 -3512,7418 -6607,10562 -723,735 -1549,1384 -2431,1918 -2004,1214 -4075,555 -4990,-1606 -393,-929 -661,-1932 -782,-2933 -361,-2967 -232,-5879 684,-8686 -2945,-580 -5796,-1417 -8530,-2491 -15,5 -30,9 -45,15 -2437,758 -4590,-67 -6255,-1909 -582,-644 -1096,-1320 -1549,-2025 -14268,-8770 -23783,-24524 -23783,-42499 0,-21837 14039,-40392 33584,-47137 469,-420 1095,-696 1697,-687 184,1 359,-4 525,-21 292,-86 586,-169 882,-250 290,-154 546,-387 772,-727 475,-715 1470,-1112 2312,-983 917,139 1499,-7 1969,-840 399,-708 1251,-1005 2002,-695 1283,528 2266,554 3194,-570 475,-576 1259,-747 1932,-419 1504,730 2895,763 4443,112 586,-246 1220,-139 1692,287 470,426 642,1045 457,1653 -72,237 -144,476 -215,713l0 0zm-623 2117c12610,1252 23774,7418 31553,16556 -1057,-318 -2118,-628 -3179,-929 -7440,-7746 -17570,-12890 -28888,-13929 176,-565 345,-1132 513,-1698l1 0zm39810 30498c100,260 197,522 292,785 -105,-207 -251,-383 -425,-520l133 -265zm451 1234c93,265 183,532 272,800 -43,-80 -82,-158 -112,-214 -57,-143 -108,-379 -160,-586zm1622 5816c675,3194 1032,6504 1032,9900 0,24662 -18724,44949 -42732,47428 100,-580 176,-1172 226,-1774 22937,-2574 40769,-22031 40769,-45654 0,-2895 -271,-5724 -782,-8469 304,-237 595,-487 873,-741 241,-222 445,-453 614,-689l0 -1zm-55461 56767c-2434,-454 -4801,-1094 -7089,-1903 399,-438 717,-944 962,-1502 1611,553 3262,1018 4948,1391 420,654 815,1325 1180,2012l-1 3 0 -1zm-19097 -8201c-11981,-8662 -19778,-22753 -19778,-38667 0,-17312 9225,-32468 23028,-40823 -120,207 -212,427 -265,650 -220,911 -597,1595 -1470,2006 -585,276 -1063,854 -1279,1485 -11102,8387 -18278,21696 -18278,36682 0,14533 6751,27490 17286,35909 201,942 449,1863 756,2757l0 1zm-25089 -29132l-1143 -651c500,-759 867,-1537 1103,-2334 233,-796 323,-1576 265,-2334 -71,-938 -326,-1685 -768,-2237 -443,-557 -976,-809 -1600,-763 -495,38 -887,279 -1175,724 -287,444 -434,1038 -442,1783 -5,179 -4,438 6,775 6,1677 -102,2825 -332,3455 -193,488 -457,870 -796,1141 -342,272 -734,425 -1182,459 -815,62 -1514,-251 -2099,-942 -581,-687 -917,-1613 -1005,-2777 -63,-845 11,-1690 228,-2535 217,-846 571,-1661 1061,-2442l1108 654c-456,665 -787,1349 -992,2058 -201,709 -276,1427 -221,2155 58,765 256,1382 591,1859 336,473 728,692 1176,658 175,-14 335,-67 477,-156 142,-89 272,-226 389,-399 278,-440 411,-1355 392,-2747 -12,-639 -11,-1137 6,-1488 38,-1038 306,-1877 806,-2520 500,-639 1145,-992 1941,-1052 947,-72 1758,280 2432,1058 674,778 1063,1836 1164,3172 77,1008 1,1961 -225,2847 -230,891 -615,1750 -1165,2579l0 0zm-9111 -14439l6517 938c1042,149 1770,55 2185,-286 411,-341 698,-1084 864,-2236 166,-1148 98,-1943 -200,-2382 -302,-440 -974,-734 -2017,-884l-6516 -937 181 -1251 6852 986c1238,177 2081,626 2527,1347 445,723 561,1822 349,3297 -213,1475 -632,2497 -1264,3064 -631,567 -1567,758 -2805,581l-6852 -986 180 -1251 -1 0zm4435 -15048l-996 2932 7411 2519 996 -2932c403,-1184 387,-2231 -45,-3135 -435,-909 -1219,-1553 -2354,-1940 -1115,-379 -2132,-339 -3045,124 -917,458 -1572,1272 -1967,2432l0 0zm-1107 -376c515,-1515 1377,-2583 2587,-3205 1211,-620 2533,-689 3970,-200 1447,492 2452,1342 3015,2549 561,1210 579,2584 54,4129l-1404 4128 -9625 -3273 1403 -4128 0 0zm9746 -6578l2260 -3863 -5020 -333 2760 4196zm1730 4811l-6259 -9434 530 -906 11320 784 -693 1185 -3058 -190 -2836 4850 1681 2542 -685 1169 0 0zm6437 -10472l-7292 -7110 881 -905 3633 3543 439 -7718 1157 -1186 -278 5468 8005 1196 -1066 1095 -6947 -1026 -240 3213 2591 2525 -882 905 -1 0zm9928 -10353c854,-611 1387,-1340 1596,-2188 211,-847 59,-1627 -451,-2341 -507,-708 -1196,-1100 -2071,-1178 -873,-75 -1735,189 -2583,796 -850,606 -1379,1333 -1585,2179 -207,844 -56,1624 454,2338 510,714 1199,1110 2065,1186 868,79 1726,-186 2575,-793l0 1zm669 935c-1138,814 -2307,1163 -3501,1042 -1193,-116 -2139,-662 -2836,-1636 -698,-977 -910,-2047 -634,-3207 280,-1160 991,-2148 2134,-2966 1154,-824 2324,-1182 3511,-1073 1186,113 2129,659 2831,1641 700,979 909,2051 634,3217 -276,1167 -988,2160 -2139,2982l0 0zm5412 -3920l-4182 -9267 7290 -3289 481 1066 -6138 2769 1226 2717 3714 -1676 480 1067 -3713 1675 1994 4419 -1152 520 0 -1zm8295 -3464l-2876 -9752 7671 -2262 331 1121 -6459 1905 844 2859 3908 -1154 330 1122 -3908 1154 1372 4649 -1212 358 -1 0zm35280 103809l1719 3899 -1320 583 -3736 -8469 7820 -3451 546 1240 -6499 2868 932 2112 4204 -1855 538 1219 -4205 1854 1 0zm9966 262l-3745 -8491 1341 -591 3745 8490 -1341 592 0 0zm4224 -3710l-196 -1388c763,-58 1516,-225 2254,-502 742,-277 1380,-626 1921,-1051 649,-509 1071,-1051 1263,-1629 191,-577 124,-1071 -201,-1484 -326,-416 -748,-579 -1273,-497 -522,85 -1181,425 -1986,1017 -1342,1024 -2374,1584 -3095,1684 -723,97 -1347,-190 -1872,-859 -491,-626 -615,-1342 -370,-2150 245,-809 828,-1571 1745,-2290 627,-491 1300,-879 2030,-1164 726,-287 1499,-470 2318,-553l167 1393c-694,51 -1369,198 -2025,440 -654,244 -1222,553 -1699,928 -553,432 -924,879 -1108,1333 -181,458 -155,840 90,1151 254,324 603,422 1048,294 445,-128 1086,-522 1921,-1177 1162,-911 2188,-1401 3088,-1472 899,-70 1653,280 2260,1054 538,687 687,1493 445,2421 -244,924 -843,1760 -1798,2509 -708,555 -1487,1001 -2343,1348 -853,344 -1714,559 -2584,643l0 1zm8831 -11709l3241 2837 -950 1086 -6967 -6096 950 -1086 2707 2368 4282 -4895 -2706 -2368 950 -1086 6967 6095 -950 1087 -3241 -2836 -4283 4895 0 -1zm10994 -7440l-8016 -4676 739 -1266 8015 4676 -738 1266 0 0zm3190 -5630l-8632 -3344 274 -707 8189 -3132 -6065 -2350 513 -1325 8632 3345 -274 707 -8169 3140 6045 2343 -514 1324 1 -1zm1623 -18980l-1321 -176 504 -3785 2769 369c714,637 1220,1405 1513,2314 294,905 367,1923 217,3049 -225,1690 -864,3012 -1920,3965 -1057,954 -2287,1338 -3688,1152 -1405,-187 -2492,-881 -3268,-2086 -777,-1204 -1052,-2645 -828,-4324 142,-1060 450,-1974 922,-2748 477,-773 1103,-1383 1883,-1832l645 1209c-558,322 -1028,793 -1405,1415 -379,625 -619,1336 -725,2131 -167,1255 30,2326 587,3218 560,891 1347,1404 2363,1539 1016,136 1909,-152 2683,-863 770,-711 1241,-1693 1409,-2955 105,-788 59,-1537 -138,-2246 -197,-706 -497,-1224 -906,-1547l-986 -132 -311 2333 1 0z"/>
  <path fill="#FEFEFE" d="M85644 67136c1715,1138 3294,2396 4520,4110 888,1242 1426,2780 890,4284 -552,1543 -1993,2394 -3506,2789 -4669,1215 -8709,-839 -11391,-4703 -511,-736 -931,-1519 -1393,-2284 -103,-172 -174,-354 -209,-539 -637,-242 -1254,-591 -1844,-1031 -169,-125 -640,-172 -843,-168 -1128,24 -2259,217 -3389,304 -621,1881 -1229,3765 -2023,5581 -822,1880 -2088,3347 -4324,3313 -1753,-26 -2895,-920 -3779,-2191 -40,75 -77,151 -109,227 -1356,3163 -1646,6261 280,9258 565,881 1415,1656 2251,2277 1228,914 2548,1079 4002,633 3318,-1022 6244,-2849 9029,-4881 1751,-1278 3443,-2634 5254,-3830 1139,-751 2557,-1321 3889,-695 1372,646 1828,2175 1968,3568 230,2269 -247,4454 -976,6591 -1476,4321 -3659,8249 -6808,11580 -1447,1531 -1911,3635 -2234,5648 -300,1882 -575,3806 -548,5715 95,6667 -2847,11982 -7421,16627 -723,735 -1549,1384 -2431,1918 -2004,1214 -4075,555 -4990,-1606 -393,-929 -661,-1932 -782,-2933 -422,-3462 -175,-6852 1211,-10086 97,-227 215,-398 335,-606 7,-13 15,-26 22,-38 -1259,-2368 -2859,-4524 -4681,-6520 -224,-245 -473,-429 -740,-565 -21,516 -54,1033 -126,1548 -339,2414 -1473,4345 -3912,5105 -2437,757 -4590,-68 -6255,-1909 -2454,-2714 -3688,-6006 -4325,-9560 -428,-2388 -564,-4737 -325,-7030 -304,-125 -563,-345 -748,-645 -1330,-2168 -2808,-4234 -3954,-6513 -6125,-12181 -6465,-24763 -1220,-37325 619,-1482 1449,-2842 2147,-4275 76,-186 123,-623 179,-844 212,-856 471,-1711 633,-2579 102,-552 77,-1186 126,-1753 51,-592 82,-1039 488,-1542 358,-445 537,-763 242,-1282 -422,-740 -192,-1679 526,-2139 674,-432 1130,-845 992,-1686 -115,-694 199,-1332 674,-1812 160,-161 339,-310 531,-429 500,-315 714,-675 769,-1263 79,-819 650,-1663 1397,-2014 872,-411 1250,-1096 1470,-2007 199,-829 918,-1622 1758,-1818 1180,-274 1810,-797 1992,-2027 117,-789 783,-1364 1582,-1364 286,0 573,-6 860,1 929,25 1484,-309 1938,-1117 423,-755 1346,-1338 2217,-1326 940,13 1642,-190 2179,-997 475,-715 1470,-1112 2312,-984 917,140 1499,-7 1969,-840 399,-708 1251,-1004 2002,-695 1283,529 2266,555 3194,-569 475,-576 1259,-747 1932,-420 1504,731 2895,763 4443,112 586,-246 1220,-138 1692,288 470,425 642,1045 457,1653 -665,2184 -1257,4389 -2018,6542 -515,1455 -1103,2880 -1695,4304 4950,116 9848,1052 14601,2430 2108,610 4359,770 6505,1269 1246,289 2469,783 3581,1413 1876,1063 3903,1752 5971,2331 4300,1205 8553,2568 12806,3929 2520,807 3372,2495 2788,5036 -140,613 -387,1184 -664,1746 -535,1088 -1102,2159 -1657,3236 -233,454 -634,751 -1119,840 -87,172 -173,344 -260,515 249,196 437,469 537,796 70,232 133,574 207,760 60,111 159,319 242,441 2099,1349 2544,3694 606,5478 -1066,982 -2351,1886 -3756,2288 -4220,1203 -8450,2400 -12764,3224 -3705,708 -7467,942 -11218,1273 -650,57 -1208,200 -1758,457l-1 2z"/>
  <path fill="#2E4567" fill-rule="nonzero" d="M43951 39899l0 0c16,-108 33,-216 51,-323 -1160,-180 -2319,-360 -3479,-541 -13,82 -25,163 -37,246 1155,206 2310,412 3465,618zm19352 30439l0 0c-84,-67 -167,-132 -251,-198 -944,1018 -1890,2036 -2834,3054 71,65 143,131 215,196 957,-1017 1913,-2035 2870,-3052zm-13305 -2225l0 0c1441,-409 2624,-1178 3442,-2454 -1147,818 -2294,1637 -3442,2454zm-8093 -32241l0 0c1768,544 3278,1011 4926,1517 -1463,-1130 -2993,-1580 -4926,-1517zm9133 33799l0 0c1359,-609 3129,-2447 3286,-3034 -875,807 -2060,1902 -3286,3034zm-6957 -36812l0 0c1587,666 3076,1292 4718,1982 -1427,-1261 -2881,-2006 -4718,-1982zm20520 37459l0 0c-88,-70 -175,-142 -264,-212 -1048,1595 -2098,3190 -3148,4785 84,56 168,112 252,168 1053,-1581 2106,-3161 3160,-4741zm-12496 35896l0 0c-538,1487 -671,2970 0,4737 0,-1775 0,-3256 0,-4737zm16273 -3196l0 0c1825,441 3396,393 4995,-627 -1702,213 -3243,407 -4995,627zm-10177 -72687l0 0c-329,-2307 -1231,-4377 -2824,-6127 940,2040 1881,4080 2824,6127zm-2256 35810l0 0c-1348,1731 -2649,3405 -4047,5202 1819,-1224 3590,-3516 4047,-5202zm-650 -34401l0 0c-1003,-2369 -2378,-4137 -4451,-5505 1490,1843 2898,3584 4451,5505zm10461 37995l0 0c-995,2018 -1989,4036 -2983,6054 1678,-1655 2479,-3743 2983,-6054zm-18520 -40277l0 0c1690,1381 3271,2674 4907,4012 -1134,-1963 -2715,-3265 -4907,-4012zm27104 36812l0 0c2041,530 4325,-133 5301,-1472 -1686,468 -3562,989 -5301,1472zm28634 -22842l0 0c2267,-420 4491,-831 6645,-1229 -2314,-484 -4525,1 -6645,1229zm-30803 20429l0 0c2091,738 4259,832 6107,-442 -1957,142 -4095,296 -6107,442zm-21955 41241l0 0c-638,2447 -766,4879 0,7344 0,-2491 0,-4918 0,-7344zm21902 4656l0 0c-934,-2231 -2596,-3569 -4807,-4492 1642,1535 3198,2988 4807,4492zm-2694 -9245l0 0c2431,131 4720,-648 6616,-2228 -2163,729 -4440,1496 -6616,2228zm-8208 -70276l0 0c-65,-2984 -761,-5677 -2244,-8134 735,2665 1474,5345 2244,8134zm-12926 73043l0 0c-748,3062 -741,6108 0,9281 0,-3189 0,-6235 0,-9281zm14623 -82583l0 0c238,1474 533,2942 701,4425 166,1470 203,2954 297,4432 584,-3073 363,-6056 -998,-8857zm15702 73087l0 0c-2868,1319 -5913,2720 -8710,4006 3200,-452 6216,-1953 8710,-4006zm-11947 -64188l0 0c974,-1675 1648,-7543 999,-9703 -337,3277 -677,6577 -999,9703zm-24099 73797l0 0c451,-3481 920,-7103 1391,-10750 -1390,3531 -1757,7165 -1391,10750zm2231 -5828l0 0c-949,3649 -1182,7107 -418,10697 139,-3565 274,-7026 418,-10697zm2125 -37774l0 0c-14,68 -26,137 -38,204 3847,0 7694,0 11542,0 -1,-67 -2,-136 -3,-204 -3834,0 -7668,0 -11501,0l0 0zm-5666 -7071l0 0c4825,1033 9650,2067 14475,3100 -4711,-1575 -9482,-2858 -14475,-3100zm-494 1703l0 0c-22,133 -44,267 -65,401 5166,815 10334,1630 15501,2445 19,-114 37,-230 55,-344 -5164,-835 -10328,-1668 -15492,-2502l1 0zm1974 2868l0 0c-11,170 -23,341 -34,511 4876,313 9752,624 14628,935 8,-128 17,-257 26,-387 -4873,-353 -9747,-706 -14620,-1059zm15395 3697l0 0c-3052,645 -6128,990 -9245,497 -3625,-573 -6810,-1988 -9067,-5011 -490,-656 -878,-1445 -1097,-2232 -434,-1564 235,-2488 1860,-2599 1061,-72 2151,-53 3202,98 4760,683 9279,2259 13819,3764 1072,356 1774,856 2052,2009 150,626 557,1216 948,1750 300,410 754,705 1035,957 -583,-1301 -1252,-2601 -1736,-3968 -197,-555 -443,-831 -951,-988 -3578,-1100 -7136,-2271 -10737,-3285 -2482,-699 -5028,-1139 -7636,-951 -2118,153 -2981,1265 -2601,3358 288,1586 1146,2836 2326,3888 1923,1714 4207,2710 6682,3293 3764,887 7487,770 11145,-580l1 0zm-11683 39576l0 0c-987,3321 -957,6787 -283,10275 94,2 189,4 283,6 0,-3463 0,-6925 0,-10281zm25447 15707l0 0c237,-2896 -2469,-6859 -5743,-8337 2552,2484 4897,4890 5743,8337zm-1705 -21452l0 0c3551,-1101 7107,-3276 9691,-6124 -3122,1973 -6633,4191 -9691,6124zm-1844 -2614l0 0c4257,-1434 7965,-3911 11478,-7160 -3987,2487 -7769,4846 -11478,7160zm1338 29309l0 0c1180,-3388 -1831,-9490 -5791,-11898 2984,3457 5588,6979 5791,11898zm18161 -60041l0 0c4905,639 10221,547 15697,-674 -5516,237 -10827,465 -15697,674zm3025 -19727l0 0c975,-108 1834,-259 2185,-1251 317,-892 -170,-1579 -832,-2076 -893,-671 -1916,-760 -2931,-271 -1302,627 -1439,2077 -237,2870 534,352 1206,492 1815,729l0 -1zm-29002 69941l0 0c2935,4426 5376,8972 4395,14631 2470,-3803 -211,-10323 -4395,-14631zm-3405 -47482l0 0c-1997,-755 -5809,-372 -7260,777 2209,-645 4258,-1007 6613,-267 -848,1473 -1551,2909 -2459,4202 -680,970 -1537,1867 -2471,2598 -1168,913 -2272,757 -3328,-300 -511,-511 -898,-1146 -1340,-1724 410,1338 1063,2505 2466,3014 1281,464 2296,-164 3173,-995 2135,-2026 3372,-4623 4606,-7305zm7131 29546l0 0c179,1288 526,2639 504,3984 -21,1310 -207,2703 -711,3896 -518,1223 -1384,2369 -2326,3323 -915,925 -2121,1563 -3190,2322 6742,-2188 8753,-7641 5723,-13524l0 -1zm-23774 -49460l0 0c6278,-6381 13632,-10797 22492,-12511 -9142,1206 -16540,5569 -22492,12511zm51833 7948l0 0c-258,34 -516,92 -774,98 -1527,35 -3058,125 -4579,42 -416,-24 -1031,-520 -1137,-912 -104,-383 217,-1018 546,-1349 508,-513 1139,-954 1794,-1263 2262,-1071 4558,-2074 6842,-3097 483,-216 976,-413 1463,-619 -33,-82 -67,-165 -100,-248 -2218,814 -4474,1536 -6639,2472 -1488,643 -2873,1544 -4256,2407 -668,417 -1141,1089 -941,1949 211,913 900,1369 1786,1545 2118,418 4061,-279 5996,-1024l-1 -1zm-13502 9750l0 0c-5832,-5257 -7092,-12410 -1989,-20413 -5813,6340 -6143,14420 1989,20413zm-16634 6069l0 0c2,-40 3,-79 5,-118 -1990,739 -4038,1350 -5960,2237 -12166,5620 -14046,18314 -11419,26033 867,2552 2652,5301 4133,6345 -530,-788 -1091,-1529 -1556,-2326 -5075,-8694 -4167,-21707 7413,-28628 2334,-1395 4916,-2373 7384,-3543l0 0zm18088 -2561l0 0c-804,518 -1561,1143 -2425,1534 -2230,1011 -4439,1354 -6350,-720 -107,-116 -284,-170 -432,-246 -898,-464 -1443,-1150 -1509,-2202 -17,-267 -174,-569 -355,-775 -1887,-2149 -3511,-4464 -4756,-7053 -397,-827 -1079,-1516 -1579,-2300 -164,-257 -316,-672 -222,-919 726,-1935 1514,-3847 2284,-5766 1932,-4815 4878,-8679 9923,-10575 115,-43 210,-139 314,-210 -886,177 -1745,440 -2526,851 -4252,2240 -6829,5908 -8563,10253 -765,1917 -1085,4011 -2360,5729 -158,212 -88,888 100,1014 1329,887 1968,2222 2613,3597 1032,2200 2328,4219 4315,5713 199,149 357,477 368,728 54,1238 638,2074 1756,2580 235,105 410,337 641,457 761,391 1500,938 2311,1100 2732,544 4769,-750 6453,-2790l-1 0zm25295 -9974l0 0c1681,263 1702,272 2301,-1248 1012,-2567 2234,-5005 4108,-7073 355,-392 622,-871 893,-1330 357,-605 505,-1202 -305,-1591 -1038,-496 -1602,-311 -1942,621 -52,139 -112,276 -253,620 -143,-478 -187,-770 -320,-1014 -93,-172 -295,-378 -469,-399 -1469,-177 -2489,507 -2937,1917 -49,158 -137,304 -280,616 -220,-660 -376,-1124 -559,-1672 -1221,581 -2786,544 -2984,2475 -309,-408 -481,-637 -707,-935 -1246,884 -3083,939 -3336,3037 -278,-362 -431,-562 -632,-825 -925,604 -1811,1183 -2888,1885 1037,953 1975,1814 2922,2685 531,-454 919,-786 1361,-1165 394,771 -510,1742 742,2226 949,366 1509,178 2116,-859 0,711 0,1068 0,1408 1761,795 2145,726 2900,-573 93,411 172,760 270,1193l-1 1zm-66358 40038c-1305,-2128 -2771,-4173 -3888,-6395 -5933,-11798 -6254,-23823 -1172,-35991 601,-1442 1426,-2789 2111,-4198 169,-348 194,-766 290,-1150 220,-891 485,-1772 653,-2672 116,-625 93,-1274 148,-1911 19,-230 10,-515 139,-676 759,-942 1036,-1935 386,-3076 1236,-792 1955,-1785 1706,-3294 -30,-182 263,-491 479,-627 920,-578 1407,-1379 1511,-2464 24,-259 255,-611 486,-720 1329,-627 2010,-1697 2342,-3078 61,-250 336,-581 567,-636 1780,-414 2925,-1422 3211,-3349 306,0 562,-6 818,1 1518,40 2627,-599 3375,-1934 140,-249 530,-513 801,-509 1482,20 2682,-433 3533,-1712 122,-184 505,-322 738,-287 1549,236 2787,-185 3604,-1637 1911,787 3628,674 5034,-1030 1850,899 3712,1010 5763,148 -658,2162 -1243,4348 -1996,6476 -756,2136 -1678,4215 -2557,6392 112,12 258,46 402,42 5510,-125 10846,838 16124,2368 2140,620 4409,785 6588,1291 1091,254 2178,694 3154,1248 2001,1133 4121,1861 6329,2479 4279,1199 8515,2557 12749,3912 1702,544 2119,1407 1718,3155 -111,482 -320,951 -541,1398 -535,1087 -1102,2159 -1643,3210 -16,-24 -137,-218 -385,-618 -902,1792 -1734,3442 -2628,5214 586,105 963,174 1384,250 204,-453 390,-866 677,-1500 149,490 193,805 336,1066 192,352 392,777 710,973 1318,806 1607,1942 457,3001 -887,817 -1976,1602 -3111,1926 -4175,1190 -8369,2378 -12627,3191 -3634,694 -7361,925 -11057,1251 -1144,101 -2091,417 -3066,1020 -1811,1123 -3684,2170 -5616,3064 -1707,787 -3368,467 -4912,-688 -475,-355 -1218,-498 -1833,-486 -1268,26 -2530,260 -3799,331 -624,35 -826,313 -1009,865 -627,1901 -1237,3817 -2037,5647 -516,1182 -1257,2379 -2835,2356 -1561,-24 -2349,-1148 -3002,-2346 -471,-864 -827,-1791 -1366,-2712 876,1699 -461,2772 -1013,4062 -1565,3649 -1823,7288 403,10753 668,1040 1642,1950 2643,2696 1609,1198 3439,1488 5426,877 3513,-1080 6569,-2978 9501,-5117 1731,-1263 3407,-2609 5192,-3787 2024,-1336 3139,-742 3386,1699 207,2042 -247,4004 -899,5913 -1401,4103 -3455,7824 -6456,10999 -1709,1808 -2274,4145 -2650,6494 -316,1978 -597,3994 -569,5990 89,6276 -2733,11188 -6962,15483 -628,638 -1355,1209 -2120,1672 -1182,716 -2152,407 -2688,-862 -334,-789 -565,-1652 -668,-2503 -385,-3168 -183,-6284 1093,-9263 63,-147 160,-280 249,-435 1690,2136 2032,5084 1395,11761 602,-706 1103,-2519 1154,-4167 71,-2317 -443,-4522 -1310,-6649 -1432,-3516 -3553,-6591 -6101,-9382 -930,-1017 -2133,-1399 -3460,-1430 -53,1154 -23,2225 -170,3271 -244,1743 -945,3221 -2804,3799 -1864,580 -3357,-88 -4593,-1454 -2256,-2495 -3357,-5533 -3937,-8771 -850,-4741 -495,-9336 1925,-13627 -1008,681 -1518,1601 -3210,5399l0 0zm35812 -25385c391,168 885,237 1155,519 1312,1378 2563,2812 3836,4227 78,-62 156,-124 234,-185 -1203,-1522 -2405,-3042 -3644,-4609 552,-448 1025,-374 1547,190 1488,1611 3016,3185 4528,4773 80,-70 161,-139 242,-210 -1536,-1767 -3072,-3534 -4606,-5302 606,-551 1108,-401 1717,212 1621,1635 3316,3198 4930,4739 -1286,-2111 -3125,-3874 -4951,-5636 590,-663 1083,-648 1693,-51 1647,1615 3344,3179 5068,4722 -1325,-2223 -3305,-3844 -5547,-5720 551,-38 931,-186 1137,-58 1934,1212 3817,2505 5168,4394 1527,2135 839,3928 -1718,4595 -3726,970 -7179,-471 -9675,-4067 -488,-704 -894,-1465 -1338,-2201 75,-110 149,-221 224,-332l0 0z"/>
  <path fill="white" fill-rule="nonzero" d="M106903 55519c-98,-433 -177,-782 -269,-1193 -756,1299 -1139,1368 -2900,573 0,-340 0,-697 0,-1408 -608,1037 -1168,1225 -2117,858 -1252,-484 -347,-1455 -741,-2225 -442,379 -831,711 -1361,1164 -947,-870 -1885,-1731 -2923,-2684 1077,-702 1964,-1281 2888,-1885 202,263 355,462 633,825 252,-2099 2090,-2155 3335,-3037 226,298 399,527 707,935 199,-1931 1764,-1894 2985,-2476 183,549 339,1013 559,1673 143,-312 230,-459 279,-616 448,-1410 1469,-2094 2937,-1917 175,21 377,227 470,399 133,244 177,536 320,1014 140,-344 201,-481 252,-620 340,-933 905,-1117 1942,-621 811,388 663,985 306,1591 -272,460 -538,938 -893,1330 -1875,2068 -3097,4505 -4108,7073 -599,1520 -620,1511 -2301,1247l0 0z"/>
  <path fill="white" fill-rule="nonzero" d="M81608 65493c-1684,2039 -3720,3333 -6452,2789 -812,-161 -1550,-709 -2312,-1100 -230,-119 -406,-351 -640,-456 -1119,-506 -1703,-1342 -1757,-2580 -11,-252 -169,-579 -368,-728 -1987,-1494 -3282,-3513 -4314,-5713 -646,-1376 -1284,-2710 -2614,-3597 -188,-126 -257,-802 -100,-1015 1276,-1718 1595,-3812 2361,-5728 1734,-4345 4310,-8013 8563,-10253 780,-411 1639,-675 2525,-851 -104,71 -199,167 -314,209 -5045,1897 -7991,5761 -9923,10576 -770,1918 -1558,3831 -2284,5765 -94,248 58,663 221,920 501,784 1183,1472 1581,2300 1244,2589 2868,4904 4756,7052 181,207 338,509 355,775 65,1052 611,1738 1509,2203 148,76 325,130 432,246 1911,2074 4119,1731 6350,719 862,-391 1620,-1015 2425,-1534l0 1z"/>
  <path fill="white" fill-rule="nonzero" d="M63520 68054c-2468,1171 -5050,2148 -7384,3543 -11580,6922 -12489,19934 -7413,28629 465,797 1026,1537 1556,2326 -1481,-1044 -3266,-3794 -4133,-6345 -2626,-7720 -747,-20414 11419,-26033 1922,-887 3970,-1499 5960,-2238 -2,39 -3,79 -5,119l0 -1z"/>
  <path fill="white" fill-rule="nonzero" d="M80153 61985c-8130,-5993 -7801,-14073 -1988,-20413 -5103,8003 -3842,15156 1988,20413z"/>
  <path fill="white" fill-rule="nonzero" d="M93656 52235c-1935,745 -3877,1443 -5996,1025 -885,-176 -1575,-633 -1786,-1546 -199,-861 273,-1532 941,-1948 1383,-864 2768,-1764 4256,-2407 2166,-936 4422,-1659 6639,-2472 33,83 67,165 100,248 -488,206 -979,402 -1462,619 -2285,1023 -4580,2026 -6844,3097 -654,309 -1284,750 -1792,1262 -329,332 -650,966 -547,1350 107,392 722,888 1137,912 1521,83 3052,-7 4579,-42 259,-6 517,-64 775,-98l0 0z"/>
  <path fill="white" fill-rule="nonzero" d="M41823 44287c5952,-6942 13350,-11305 22492,-12511 -8860,1714 -16214,6130 -22492,12511z"/>
  <path fill="#B2B3B3" fill-rule="nonzero" d="M65597 93747c3030,5884 1019,11337 -5723,13524 1069,-758 2275,-1396 3190,-2322 942,-953 1809,-2099 2326,-3323 504,-1192 690,-2585 711,-3895 21,-1345 -327,-2696 -504,-3984l0 0z"/>
  <path fill="white" fill-rule="nonzero" d="M58466 64201c-1235,2682 -2471,5279 -4606,7305 -877,831 -1892,1459 -3173,995 -1403,-509 -2056,-1676 -2466,-3014 443,578 829,1213 1340,1724 1056,1057 2160,1213 3328,300 934,-731 1790,-1628 2471,-2598 908,-1294 1611,-2729 2459,-4202 -2355,-740 -4404,-378 -6613,267 1451,-1149 5263,-1532 7260,-777z"/>
  <path fill="white" fill-rule="nonzero" d="M90873 41742c-609,-236 -1281,-377 -1814,-729 -1203,-792 -1065,-2242 236,-2869 1016,-489 2038,-400 2931,270 663,498 1149,1185 833,2077 -351,992 -1210,1143 -2185,1251l-1 0zm1357 -1752l0 0c10,-788 -657,-1413 -1454,-1435 -663,-18 -1342,601 -1344,1224 -3,681 708,1267 1539,1257 738,-7 1203,-335 1259,-1046z"/>
  <path fill="white" fill-rule="nonzero" d="M87848 61469c4870,-209 10181,-437 15697,-674 -5476,1221 -10792,1313 -15697,674z"/>
  <path fill="white" fill-rule="nonzero" d="M72171 63857c2012,-146 4150,-300 6107,-442 -1848,1274 -4016,1180 -6107,442z"/>
  <path fill="white" fill-rule="nonzero" d="M102974 43428c2120,-1228 4330,-1713 6645,-1229 -2154,398 -4378,809 -6645,1229z"/>
  <path fill="white" fill-rule="nonzero" d="M74339 66270c1740,-483 3616,-1004 5302,-1472 -976,1339 -3260,2002 -5302,1472z"/>
  <path fill="white" fill-rule="nonzero" d="M65756 69735c-503,2310 -1305,4398 -2983,6054 994,-2018 1988,-4036 2983,-6054z"/>
  <path fill="white" fill-rule="nonzero" d="M55945 66141c-457,1686 -2228,3978 -4047,5202 1398,-1797 2699,-3471 4047,-5202z"/>
  <path fill="white" fill-rule="nonzero" d="M64601 70318c-1054,1580 -2107,3160 -3160,4741 -84,-56 -168,-112 -252,-168 1050,-1595 2100,-3190 3148,-4785 89,70 176,142 264,212z"/>
  <path fill="white" fill-rule="nonzero" d="M51038 69671c1226,-1132 2411,-2227 3286,-3034 -157,587 -1927,2424 -3286,3034z"/>
  <path fill="white" fill-rule="nonzero" d="M49998 68113c1148,-818 2295,-1636 3441,-2454 -817,1276 -2000,2045 -3441,2454z"/>
  <path fill="white" fill-rule="nonzero" d="M63303 70338c-957,1017 -1913,2035 -2870,3052 -72,-65 -144,-131 -215,-196 944,-1019 1890,-2036 2834,-3054 84,66 167,132 251,198z"/>
  <path fill="#B2B3B3" fill-rule="nonzero" d="M92230 39990c-55,711 -521,1039 -1259,1046 -831,10 -1542,-576 -1539,-1257 2,-623 681,-1242 1344,-1224 797,22 1464,648 1454,1435zm713 -4149c2933,839 6879,3632 11934,4644 2170,434 3819,998 3819,998 0,0 -3212,-174 -4080,347 -2704,1623 -3648,1957 -6871,2383 0,0 709,-1602 -1243,-3164 -1953,-1562 -2214,-3862 -4557,-4296 -2343,-434 -3309,-185 -4556,44 -1248,227 -1216,194 -1216,194 3023,-1705 3074,-2206 6771,-1150l-1 0z"/>
  <path fill="#B2B3B3" fill-rule="nonzero" d="M43226 88842l1172 -478c-30,-1101 43,-2197 213,-3274 730,-4646 3241,-8959 6834,-12011l-900 -179c-4305,3055 -8010,6600 -7319,15942zm53077 -36752c0,0 3776,2734 6597,3557 1114,327 3636,895 6205,939 2203,38 4539,-470 4944,-25 1456,1597 -726,1981 -3384,2323 -4764,612 -13176,-1962 -17529,-3627 -2951,-1128 1323,-1649 1649,-2234 325,-587 1518,-933 1518,-933l0 0zm-15059 9980c-54,-1737 5946,-6770 7595,-7551 825,-390 2169,-1041 2559,-738 392,304 -390,738 218,1259 604,518 9241,4340 6118,5208 -233,65 -9088,825 -9547,825 0,0 -2343,455 -781,976 1562,521 6813,239 6380,1194 -434,954 -7291,433 -8463,1085 -1172,651 -1172,651 -1172,651 0,0 -216,-153 -1431,-1129 -1216,-976 -1476,-1779 -1476,-1779l0 -1zm7171 -24930c-3037,3976 -1202,5912 3385,5814 2039,-43 2387,-303 3906,-216 1518,86 2039,1475 2039,1475 0,0 -2863,998 -6639,2387 -908,334 -9914,4330 -5468,6552 1042,522 2691,999 2691,999 0,0 -5902,3774 -6552,5250 -652,1475 -1650,1736 -2821,87 -5663,-7970 -2129,-19224 6855,-22219l2604 -130 0 1zm-45715 13156c-721,-35 -1445,-30 -2169,22 -276,20 -535,55 -778,106 7662,-12218 22936,-18622 40934,-16623 -886,220 -1775,452 -2665,696l-3803 1776c-6333,2956 -7697,5708 -10242,12281 0,0 -1866,-174 -8462,3037 -752,366 -1472,760 -2163,1178 -1642,-510 -3288,-1009 -4943,-1475 -1862,-525 -3777,-905 -5709,-998l0 0zm-1592 39830c-2167,-9547 -1547,-20318 3440,-28551 -1682,-619 -3241,-1486 -4623,-2696l-91 -80c-1187,-1059 -2067,-2307 -2452,-3837 -3062,7138 -3853,15802 -1652,25620 1128,5034 4860,10328 4860,10328l518 -784zm14400 -19748l4 -2c3205,-1777 7129,-3464 9108,-4013 2821,-780 5077,-1431 5077,-1431 0,0 239,-999 -454,-1368 -695,-369 -2669,-2148 -3537,-3493 -868,-1346 -998,-2518 -998,-2518l-4252 4991c0,0 -1812,3780 -3255,5251 -211,213 -424,420 -642,621 -6,7 -12,13 -19,18l-1031 1943 -1 1z"/>
  <path fill="#B2B3B3" fill-rule="nonzero" d="M57026 72293c0,0 -4947,2864 -6726,5815 -6093,10104 -4549,23232 7746,27447 2297,788 5451,-2429 6260,-4160 1414,-3026 1968,-7393 -554,-8056 -5830,-1534 -10892,-6361 -9374,-13886 572,-2839 2648,-7160 2648,-7160l0 0zm6395 22346c1786,3010 -1267,9428 -3429,9720 -2459,332 -105,-2171 1237,-5059 1010,-2173 869,-4904 890,-4921 520,-478 1302,260 1302,260zm-3208 323c482,100 982,-93 1244,-509 398,365 521,952 261,1429 -266,488 -845,703 -1378,547 184,-423 89,-914 -221,-1258l10 -17c34,-63 61,-127 84,-192zm-2022 -993c482,100 982,-93 1244,-509 399,365 521,952 261,1429 -266,488 -845,703 -1378,547 186,-423 89,-914 -220,-1258l9 -17c34,-63 62,-126 84,-192zm-7585 2840c481,99 981,-93 1243,-510 400,365 521,952 262,1430 -267,488 -845,703 -1378,546 185,-423 88,-914 -222,-1258l11 -17c33,-62 62,-126 84,-191zm152 1692c481,100 981,-93 1243,-510 400,366 521,952 262,1430 -267,488 -845,703 -1378,546 185,-423 88,-914 -221,-1256l10 -18c33,-62 62,-126 84,-192l0 0zm1559 -658c483,101 984,-93 1244,-509 400,366 522,952 262,1430 -266,488 -844,703 -1379,546 186,-423 90,-913 -220,-1257l10 -17c34,-63 61,-127 83,-193l0 0zm-3649 -4332c304,1519 955,2951 2344,2690 2551,-479 7160,-3784 5034,-6336 -4111,-4933 -4333,-8030 -1866,-13669 -4503,1651 -6340,13168 -5512,17315z"/>
  <path fill="#B2B3B3" fill-rule="nonzero" d="M66736 48823c-1093,2956 -1224,3280 -1224,3280 0,0 -825,781 86,1996 1161,1548 5218,7613 5858,9026 -209,-292 2259,-214 2386,-211 2342,57 4064,-424 5165,211 1129,652 3211,2170 3211,2170l998 803 846 -565c0,0 -2778,-2256 -5619,-3862 -1993,-1125 -4253,-3250 -5233,-6018 -1122,-3165 -772,-7066 111,-9430 1345,-3602 3949,-5556 5642,-6813 1692,-1259 8548,-4340 8548,-4340 -9462,-783 -17499,4894 -20775,13753l0 0zm1988 -3189c-1627,3217 -2824,7438 -830,7163 1259,-174 4110,-977 3516,-868 -676,123 -861,-8972 7377,-13887 837,-499 824,-521 824,-521l1794 -1142c-5490,850 -10138,4223 -12681,9255l0 0zm3104 16610c0,0 1412,-173 3364,-108 1953,65 2994,195 3493,477 499,282 2256,1367 2256,1367 0,0 -2006,-1746 -3255,-2397 -1247,-652 -2418,-1486 -2972,-2224 -553,-738 -1595,194 -1985,1041 -391,847 -901,1844 -901,1844z"/>
  <path fill="#FEFEFE" d="M43135 67257c968,-1984 1925,-3701 2906,-5204 -872,-241 -1718,-537 -2530,-899 339,151 686,292 1037,421 -4952,8176 -5597,18853 -3484,28351 188,-1393 -427,-4676 -415,-6823 29,-5252 147,-11053 2486,-15846zm363 -6109c-47,-21 -96,-44 -144,-65 49,21 97,44 144,65zm-387 -179l-49 -24c16,7 32,16 49,24zm-2230 29502c19,-25 38,-53 55,-84l-55 84zm14638 -37025c1502,-758 3150,-1429 4988,-2079 2225,-786 2864,-824 2864,-824l606 -1989c0,0 -1866,-174 -8463,3037 -751,366 -1472,760 -2163,1178 -397,-123 -794,-246 -1190,-367l0 0c1121,342 2239,693 3357,1044l1 0zm-12836 35373c121,-7226 216,-12224 5511,-17315l-955 -2343c-3344,4442 -5203,10394 -4925,15973 44,869 369,3685 369,3685l0 0zm10629 -26298c0,0 5034,-651 6293,-1172 1258,-521 1823,-694 1823,-694l-2344 2820c0,0 -5229,-141 -6249,272 -1020,412 -1215,434 -1215,434l543 -1616 1149 -44zm-7827 -13009c445,-4333 20355,-8274 20658,-10311 1273,-8543 -23107,2072 -21461,9743 197,920 803,569 803,569l0 -1zm-7725 24626c336,-918 -5516,-1818 -2520,4925 6343,14272 2132,-3861 2520,-4925z"/>
  <path fill="#2B2B59" d="M93808 51570c0,0 -3558,521 -4469,434 -913,-88 -2040,-738 -1389,-1389 2855,-2856 17517,-8264 23389,-8028 1804,72 3493,563 3515,911 22,347 0,86 -3146,195 -2612,90 -7319,782 -11280,3027 -1644,933 -5225,2835 -5189,3960 22,672 -1431,889 -1431,889l0 1z"/>
  <path fill="#2E4567" d="M148775 83114l345512 0 0 28821 -345512 0 0 -28821zm246910 19878l1692 0 0 5602 -2161 0 0 -3462 -12944 0 0 -15104 2201 0 0 12964 9012 0 0 -12964 2200 0 0 12964zm7777 -10804l0 4321 9383 0 -123 2161 -9260 0 0 4322 10603 0 -186 2140 -12617 0 0 -15104 12803 0 -185 2160 -10418 0 0 0zm17480 4321l10160 0 0 -6481 2201 0 0 15104 -2201 0 0 -6462 -10160 0 0 6462 -2200 0 0 -15104 2200 0 0 6481zm22669 -4321l-6161 0 0 -2160 14354 0 -185 2160 -5828 0 0 12944 -2180 0 0 -12944 0 0zm14365 7749l0 5195 -2201 0 0 -15084 355 -20c405,-23 811,-45 1217,-65 1832,-92 3694,-177 5528,-177 3792,0 6697,706 6697,5146 0,4441 -2905,5148 -6697,5148 -1626,0 -3272,-65 -4899,-143l0 0zm0 -7848l0 5707c1613,77 3246,143 4859,143 1138,0 2881,-29 3777,-838 610,-551 759,-1381 759,-2169 0,-787 -149,-1617 -759,-2169 -896,-808 -2639,-837 -3777,-837 -757,0 -1516,25 -2271,52 -863,32 -1726,69 -2588,111zm-283379 7848l0 5195 -2201 0 0 -15084 354 -20c406,-23 812,-45 1217,-65 1832,-92 3695,-177 5529,-177 3792,0 6697,706 6697,5146 0,4441 -2905,5148 -6697,5148 -1626,0 -3272,-65 -4899,-143l0 0zm18084 1446l10228 -11355 1689 0 0 15104 -2180 0 0 -11335 -10207 11335 -1730 0 0 -15104 2200 0 0 11355 0 0zm18989 -9195l0 3457c1654,-82 3328,-162 4980,-162 3632,0 6616,645 6616,4945 0,4336 -3030,4946 -6676,4946 -1836,0 -3699,-86 -5532,-177 -411,-21 -823,-42 -1234,-65l-354 -20 0 -15084 12802 0 -184 2160 -10418 0zm28290 9622l-8861 0 -1692 3322 -2455 0 7754 -15104 1666 0 7754 15104 -2454 0 -1712 -3322zm9841 -730l463 -11052 11949 0 0 15104 -2201 0 0 -12944 -7640 0 -427 9284c-59,1276 -330,2831 -1593,3467 -488,246 -1039,315 -1580,315 -359,0 -731,-64 -1089,-104l-360 -40 158 -2094 400 61c198,30 389,56 588,56 236,0 524,-16 736,-132 472,-259 539,-1097 560,-1563l16 -358 19 0 1 0zm19424 -5435c1653,-82 3328,-162 4978,-162 3632,0 6617,645 6617,4945 0,4336 -3031,4946 -6677,4946 -1835,0 -3698,-86 -5531,-177 -411,-21 -822,-42 -1235,-65l-354 -20 0 -15084 2201 0 0 5617 1 0zm29336 9303c-1767,248 -3625,446 -5408,446 -1719,0 -3618,-141 -5137,-1021 -2432,-1407 -2990,-4199 -2990,-6803 0,-2606 558,-5397 2990,-6804 1519,-880 3418,-1021 5137,-1021 1783,0 3640,197 5408,447l352 50 -187 2160 -411 -80c-1621,-316 -3411,-436 -5061,-436 -1308,0 -2875,61 -4029,741 -1707,1006 -2017,3131 -2017,4943 0,1812 310,3936 2017,4943 1154,680 2721,741 4029,741 1650,0 3440,-119 5061,-436l411 -81 187 2161 -352 50 0 0zm7194 -9303c1653,-82 3328,-162 4979,-162 3632,0 6616,645 6616,4945 0,4336 -3031,4946 -6677,4946 -1835,0 -3698,-86 -5531,-177 -411,-21 -823,-42 -1234,-65l-355 -20 0 -15084 2201 0 0 5617 1 0zm18084 864l3061 0 5858 -6481 2212 0 237 475 -6347 7086 6256 6950 -96 575 -2041 262 -6060 -6706 -3081 0 0 6462 -2200 0 0 -15104 2200 0 0 6481 1 0zm17460 4874l10227 -11355 1690 0 0 15104 -2180 0 0 -11335 -10207 11335 -1730 0 0 -15104 2200 0 0 11355 0 0zm18990 0l10227 -11355 1691 0 0 15104 -2181 0 0 -11335 -10208 11335 -1730 0 0 -15104 2201 0 0 11355zm4858 -13952c371,0 1095,-20 1346,-357 128,-172 150,-431 150,-637l0 -376 2040 0 0 376c0,2245 -1491,2952 -3536,2952 -2046,0 -3536,-707 -3536,-2952l0 -376 2059 0 0 376c0,207 21,473 150,644 246,331 963,350 1327,350l0 0zm-190550 4658l0 5707c1613,77 3247,143 4858,143 1138,0 2882,-29 3777,-838 611,-551 759,-1381 759,-2169 0,-787 -148,-1617 -759,-2169 -895,-808 -2639,-837 -3777,-837 -756,0 -1515,25 -2271,52 -863,32 -1725,69 -2587,111zm37073 5697l0 5304c1614,78 3247,144 4859,144 1146,0 2984,-22 3869,-867 530,-505 667,-1233 667,-1939 0,-704 -137,-1433 -667,-1939 -885,-843 -2723,-866 -3869,-866 -756,0 -1516,26 -2271,52 -863,32 -1725,71 -2588,111l0 0zm23868 -4664l-3411 6669 6806 0 -3394 -6669 -1 0zm33687 4664l0 5304c1612,78 3246,144 4858,144 1145,0 2984,-22 3869,-867 530,-505 668,-1233 668,-1939 0,-704 -138,-1433 -668,-1939 -885,-843 -2723,-866 -3869,-866 -756,0 -1516,26 -2272,52 -862,32 -1724,71 -2586,111l0 0zm36530 0l0 5304c1613,78 3247,144 4858,144 1146,0 2984,-22 3868,-867 531,-505 668,-1233 668,-1939 0,-704 -137,-1433 -668,-1939 -884,-843 -2722,-866 -3868,-866 -756,0 -1515,26 -2271,52 -863,32 -1725,71 -2587,111l0 0zm-144680 -54905c2161,1590 8013,2058 10595,2215 2101,126 4227,266 6317,509 4064,472 8041,1748 11118,4544 2807,2551 4269,5750 4269,9547 0,4638 -2111,8296 -5794,11027 -4203,3116 -9388,4158 -14530,4158 -4190,0 -8358,-583 -12334,-1927 -3953,-1337 -7574,-3369 -10865,-5925l-1076 -834 4722 -6999 1227 948c2766,2138 5787,3917 9061,5156 2947,1116 6028,1756 9185,1756 3037,0 6246,-517 8802,-2258 1887,-1286 3065,-2935 3065,-5261 0,-1703 -738,-2972 -2084,-3997 -1833,-1395 -4324,-1935 -6576,-2126l-15 -1 -14 -2c-1049,-110 -2114,-169 -3167,-218l-18 -1 -18 -1c-2998,-215 -6042,-501 -9006,-1012 -1920,-331 -4088,-791 -5868,-1600l-18 -7 -18 -9c-2011,-978 -3828,-2324 -5098,-4188 -1213,-1781 -1799,-3767 -1799,-5920 0,-4096 1930,-7296 5213,-9675 3726,-2701 8287,-3607 12813,-3607 3767,0 7457,627 11026,1834 3706,1255 7148,3107 10295,5427l1139 840 -4793 6882 -1214 -978c-2392,-1926 -5020,-3511 -7905,-4580 -2725,-1008 -5551,-1521 -8455,-1521 -2473,0 -5081,392 -7234,1683 -1310,785 -2426,1854 -2426,3470 0,482 106,940 332,1365 265,497 708,938 1146,1286l0 0zm43755 -15708l0 29689c0,2281 219,6325 2022,7995 1874,1736 6471,1918 8840,1918 2351,0 6955,-182 8810,-1914 1788,-1669 1999,-5729 1999,-7999l0 -29689 8221 0 0 31143c0,4623 -968,9572 -4618,12682 -3774,3214 -9714,3833 -14439,3833 -4724,0 -10664,-619 -14437,-3833 -3651,-3110 -4619,-8059 -4619,-12682l0 -31143 8221 0 0 0zm54442 0c6506,0 12531,1866 17266,6650 4631,4681 6614,10622 6614,17303 0,6617 -1885,12606 -6515,17228 -4758,4749 -10895,6477 -17365,6477l-19784 0 0 -47658 19784 0zm-11562 8170l0 31318 11561 0c4215,0 8322,-1040 11406,-4189 3017,-3081 4094,-7097 4094,-11429 0,-4363 -1159,-8307 -4176,-11403 -3090,-3169 -7081,-4297 -11324,-4297l-11562 0 1 0zm92376 12154l22516 -20418 11359 0 -19172 17598 20778 30059 -10007 0 -16817 -24237 -8658 7576 0 16661 -8220 0 0 -47656 8220 0 0 20417 1 0zm-25255 15330l-21815 0 -5656 12004 -8934 0 22372 -47658 6223 0 22626 47658 -9015 0 -5801 -12004zm-17946 -8252l14123 0 -7091 -14829 -7032 14829zm97603 20161c-5652,0 -10941,-1493 -15248,-5267 -4025,-3526 -6070,-7999 -6070,-13354 0,-5345 2009,-9834 6047,-13342 4312,-3749 9623,-5199 15271,-5199 5659,0 11013,1432 15347,5183 4052,3508 6048,8005 6048,13358 0,5367 -2031,9849 -6071,13381 -4322,3780 -9649,5240 -15324,5240l0 0zm0 -7032c3699,0 7241,-875 10095,-3317 2551,-2182 3792,-4917 3792,-8271 0,-3356 -1270,-6076 -3818,-8258 -2850,-2440 -6371,-3331 -10069,-3331 -3685,0 -7193,879 -10029,3317 -2541,2184 -3781,4922 -3781,8272 0,3350 1240,6088 3781,8273 2836,2436 6344,3315 10029,3315l0 0zm32291 -33083l0 10960 17126 0 0 7543 -17126 0 0 21612 -7509 0 0 -47657 35816 0 0 7542 -28307 0zm39203 0l0 10960 17127 0 0 7543 -17127 0 0 21612 -7508 0 0 -47657 35814 0 0 7542 -28306 0 0 0z"/>
 </g>
</svg>
