<?xml version="1.0" encoding="UTF-8"?>
<!DOCTYPE svg PUBLIC "-//W3C//DTD SVG 1.1//EN" "http://www.w3.org/Graphics/SVG/1.1/DTD/svg11.dtd">
<!-- Creator: CorelDRAW X7 -->
<svg xmlns="http://www.w3.org/2000/svg" xml:space="preserve" width="300px" height="84px" version="1.1" shape-rendering="geometricPrecision" text-rendering="geometricPrecision" image-rendering="optimizeQuality" fill-rule="evenodd" clip-rule="evenodd"
viewBox="0 0 261597 72899"
 xmlns:xlink="http://www.w3.org/1999/xlink">
 <defs>
   <linearGradient id="id0" gradientUnits="userSpaceOnUse" x1="193572" y1="51315" x2="193572" y2="29257.2">
    <stop offset="0" stop-opacity="1" stop-color="#EFA31A"/>
    <stop offset="1" stop-opacity="1" stop-color="#F4DE28"/>
   </linearGradient>
   <linearGradient id="id1" gradientUnits="userSpaceOnUse" x1="98641.4" y1="51315.1" x2="98641.4" y2="29186.3">
    <stop offset="0" stop-opacity="1" stop-color="#727270"/>
    <stop offset="1" stop-opacity="1" stop-color="#F6F8F6"/>
   </linearGradient>
   <linearGradient id="id2" gradientUnits="userSpaceOnUse" x1="161028" y1="51281.6" x2="161028" y2="29186.9">
    <stop offset="0" stop-opacity="1" stop-color="#EFA31A"/>
    <stop offset="1" stop-opacity="1" stop-color="#F4DE28"/>
   </linearGradient>
   <linearGradient id="id3" gradientUnits="userSpaceOnUse" x1="225039" y1="51315" x2="225039" y2="29186.7">
    <stop offset="0" stop-opacity="1" stop-color="#EFA31A"/>
    <stop offset="1" stop-opacity="1" stop-color="#F4DE28"/>
   </linearGradient>
   <linearGradient id="id4" gradientUnits="userSpaceOnUse" x1="247583" y1="51315.1" x2="247583" y2="29186.9">
    <stop offset="0" stop-opacity="1" stop-color="#EFA31A"/>
    <stop offset="1" stop-opacity="1" stop-color="#F4DE28"/>
   </linearGradient>
   <linearGradient id="id5" gradientUnits="userSpaceOnUse" x1="128730" y1="51315.3" x2="128730" y2="29186.9">
    <stop offset="0" stop-opacity="1" stop-color="#727270"/>
    <stop offset="1" stop-opacity="1" stop-color="#F6F8F6"/>
   </linearGradient>
   <linearGradient id="id6" gradientUnits="userSpaceOnUse" x1="36449.6" y1="72899.2" x2="36449.6" y2="17924.6">
    <stop offset="0" stop-opacity="1" stop-color="#727270"/>
    <stop offset="1" stop-opacity="1" stop-color="#F6F8F6"/>
   </linearGradient>
   <linearGradient id="id7" gradientUnits="userSpaceOnUse" x1="35169.4" y1="0" x2="35169.4" y2="62050.9">
    <stop offset="0" stop-opacity="1" stop-color="#EFA31A"/>
    <stop offset="1" stop-opacity="1" stop-color="#F4DE28"/>
   </linearGradient>
 </defs>
 <g id="Слой_x0020_1">
  <metadata id="CorelCorpID_0Corel-Layer"/>
  <path id="ReVolt_x0020_Logo.cdr" fill="url(#id0)" d="M187877 29257l11390 0c6066,0 11029,4963 11029,11029 0,6067 -4963,11029 -11029,11029l-11390 0c-6067,0 -11030,-4962 -11030,-11029 0,-6066 4963,-11029 11030,-11029zm2660 5822l6070 0c3233,0 5877,2343 5877,5207 0,2864 -2644,5207 -5877,5207l-6070 0c-3233,0 -5878,-2343 -5878,-5207 0,-2864 2645,-5207 5878,-5207z"/>
  <path id="ReVolt_x0020_Logo.cdr_0" fill="url(#id1)" d="M82896 39628l18787 1c1459,0 2653,-1193 2653,-2653 0,-1459 -1194,-2652 -2653,-2652l-18787 0 4089 -5138 17535 0c4284,0 7790,3505 7790,7790 0,2449 -1156,4737 -3106,6213 -905,728 -910,918 -133,1566l5316 6560 -9542 0 -5160 -6549 -10183 0 0 6549 -6606 0 0 -11687 0 0z"/>
  <path id="ReVolt_x0020_Logo.cdr_1" fill="url(#id2)" d="M156687 49010l-14137 -19823 8752 98 9726 13637 9725 -13637 8753 -98c-4712,6607 -9424,13215 -14137,19822 -2991,3099 -5880,2960 -8682,1l0 0z"/>
  <polygon id="ReVolt_x0020_Logo.cdr_2" fill="url(#id3)" points="220046,44915 236851,44915 232762,51315 220046,51315 213227,51315 213227,44915 213227,29187 220046,29187 "/>
  <polygon id="ReVolt_x0020_Logo.cdr_3" fill="url(#id4)" points="250259,29187 250259,29257 256347,29257 256347,29257 261597,29257 258354,34333 250259,34333 250259,51315 243440,51315 243440,34333 238819,34333 238819,34333 233569,34333 236812,29257 243440,29257 243440,29187 "/>
  <polygon id="ReVolt_x0020_Logo.cdr_4" fill="url(#id5)" points="116501,29187 122927,29187 141352,29187 137263,34325 122927,34325 122927,37156 140094,37156 136004,42294 122927,42294 122927,44915 141352,44915 137262,51315 122927,51315 116501,51315 116108,51315 116108,29187 116501,29187 "/>
  <path id="ReVolt_x0020_Logo.cdr_5" fill="url(#id6)" d="M36450 72899c20131,0 36449,-16319 36449,-36449 0,-6764 -1844,-13096 -5054,-18525l-3659 8909c1044,3013 1613,6248 1613,9616 0,16209 -13140,29348 -29349,29348 -16210,0 -29350,-13139 -29350,-29348 0,-3375 570,-6618 1619,-9636l23097 0c1417,0 2576,1159 2576,2577 0,1417 -1159,2576 -2576,2576l-18252 0 0 13372 6417 0 0 -8381 9893 0 12862 19370c430,615 1282,1708 2087,259l6987 -14082 -6095 5322 -7664 -10948c-488,-665 -993,-1065 -477,-1521 1894,-1433 4564,-3589 4564,-5968 0,-4162 -3405,-7567 -7567,-7567l-23571 0 -6724 0 -1219 0c-1964,4477 -3057,9424 -3057,14627 0,20130 16319,36449 36450,36449z"/>
  <path id="ReVolt_x0020_Logo.cdr_6" fill="url(#id7)" d="M65605 14573c-6650,-8850 -17234,-14573 -29155,-14573 -13596,0 -25452,7444 -31717,18478l8514 0c5368,-6922 13764,-11378 23203,-11378 8691,0 16499,3779 21872,9782l-11441 26284 7402 -3073 -1166 1996 -9892 19962 21440 -27317 -7983 1570 5637 -13727 3286 -8004z"/>
 </g>
</svg>
