<?xml version="1.0" encoding="UTF-8"?>
<!DOCTYPE svg PUBLIC "-//W3C//DTD SVG 1.1//EN" "http://www.w3.org/Graphics/SVG/1.1/DTD/svg11.dtd">
<!-- Creator: CorelDRAW X7 -->
<svg xmlns="http://www.w3.org/2000/svg" xml:space="preserve" width="500mm" height="357.574mm" version="1.1" style="shape-rendering:geometricPrecision; text-rendering:geometricPrecision; image-rendering:optimizeQuality; fill-rule:evenodd; clip-rule:evenodd"
viewBox="0 0 50534 36140"
 xmlns:xlink="http://www.w3.org/1999/xlink">
 <defs>
  <style type="text/css">
   <![CDATA[
    .str0 {stroke:#40A629;stroke-width:1278.96}
    .fil0 {fill:none}
    .fil1 {fill:#40A629}
    .fil4 {fill:#938A3A}
    .fil6 {fill:#9F981B}
    .fil3 {fill:#FFDE7C}
    .fil2 {fill:white}
    .fil9 {fill:url(#id0)}
    .fil12 {fill:url(#id1)}
    .fil10 {fill:url(#id2)}
    .fil14 {fill:url(#id3)}
    .fil20 {fill:url(#id4)}
    .fil16 {fill:url(#id5)}
    .fil21 {fill:url(#id6)}
    .fil13 {fill:url(#id7)}
    .fil17 {fill:url(#id8)}
    .fil18 {fill:url(#id9)}
    .fil22 {fill:url(#id10)}
    .fil11 {fill:url(#id11)}
    .fil5 {fill:url(#id12)}
    .fil15 {fill:url(#id13)}
    .fil7 {fill:url(#id14)}
    .fil19 {fill:url(#id15)}
    .fil8 {fill:url(#id16)}
   ]]>
  </style>
  <linearGradient id="id0" gradientUnits="userSpaceOnUse" x1="-29591.5" y1="20431.1" x2="70485.8" y2="20431.1">
   <stop offset="0" style="stop-opacity:1; stop-color:#9F981B"/>
   <stop offset="0.501961" style="stop-opacity:1; stop-color:#EBE33A"/>
   <stop offset="1" style="stop-opacity:1; stop-color:#9F981B"/>
  </linearGradient>
  <linearGradient id="id1" gradientUnits="userSpaceOnUse" xlink:href="#id0" x1="-29591.5" y1="20431.1" x2="70485.8" y2="20431.1">
  </linearGradient>
  <linearGradient id="id2" gradientUnits="userSpaceOnUse" xlink:href="#id0" x1="-29591.5" y1="20431.1" x2="70485.8" y2="20431.1">
  </linearGradient>
  <linearGradient id="id3" gradientUnits="userSpaceOnUse" xlink:href="#id0" x1="-29591.5" y1="20111.4" x2="70485.8" y2="20111.4">
  </linearGradient>
  <linearGradient id="id4" gradientUnits="userSpaceOnUse" xlink:href="#id0" x1="-29591.5" y1="20431.1" x2="70485.8" y2="20431.1">
  </linearGradient>
  <linearGradient id="id5" gradientUnits="userSpaceOnUse" xlink:href="#id0" x1="-29591.5" y1="20591" x2="70485.8" y2="20591">
  </linearGradient>
  <linearGradient id="id6" gradientUnits="userSpaceOnUse" xlink:href="#id0" x1="-29591.5" y1="18992.3" x2="70485.8" y2="18992.3">
  </linearGradient>
  <linearGradient id="id7" gradientUnits="userSpaceOnUse" xlink:href="#id0" x1="-29591.5" y1="20591" x2="70485.8" y2="20591">
  </linearGradient>
  <linearGradient id="id8" gradientUnits="userSpaceOnUse" xlink:href="#id0" x1="-29591.5" y1="20431.1" x2="70485.8" y2="20431.1">
  </linearGradient>
  <linearGradient id="id9" gradientUnits="userSpaceOnUse" xlink:href="#id0" x1="-29591.5" y1="20431.1" x2="70485.8" y2="20431.1">
  </linearGradient>
  <linearGradient id="id10" gradientUnits="userSpaceOnUse" xlink:href="#id0" x1="-29591.5" y1="18832.4" x2="70485.8" y2="18832.4">
  </linearGradient>
  <linearGradient id="id11" gradientUnits="userSpaceOnUse" xlink:href="#id0" x1="-29592" y1="20591" x2="70486.3" y2="20591">
  </linearGradient>
  <linearGradient id="id12" gradientUnits="userSpaceOnUse" xlink:href="#id0" x1="5759.69" y1="9560.13" x2="41016.4" y2="9560.13">
  </linearGradient>
  <linearGradient id="id13" gradientUnits="userSpaceOnUse" xlink:href="#id0" x1="-29591.5" y1="20431.1" x2="70485.8" y2="20431.1">
  </linearGradient>
  <linearGradient id="id14" gradientUnits="userSpaceOnUse" xlink:href="#id0" x1="-29591.5" y1="20111.4" x2="70485.8" y2="20111.4">
  </linearGradient>
  <linearGradient id="id15" gradientUnits="userSpaceOnUse" xlink:href="#id0" x1="-23676.4" y1="20431.1" x2="67768.1" y2="20431.1">
  </linearGradient>
  <linearGradient id="id16" gradientUnits="userSpaceOnUse" xlink:href="#id0" x1="-29591.5" y1="20431.1" x2="70485.8" y2="20431.1">
  </linearGradient>
 </defs>
 <g id="Слой_x0020_1">
  <metadata id="CorelCorpID_0Corel-Layer"/>
  <path class="fil0 str0" d="M25259 35235l-13733 -13733 0 0c7578,-7578 19872,-7578 27450,0l0 0 -13717 13733z"/>
  <path class="fil1" d="M40223 29032l-29400 0c-1087,0 -1950,-879 -1950,-1950l0 -3118c0,-1087 879,-1950 1950,-1950l29400 0c1087,0 1950,879 1950,1950l0 3118c16,1087 -863,1950 -1950,1950z"/>
  <path class="fil2" d="M14948 25515l-448 256c-208,-288 -480,-432 -863,-432 -256,0 -464,80 -624,224 -160,144 -240,352 -240,607 0,240 80,448 240,608 160,160 368,224 608,224 367,0 655,-144 863,-432l448 256c-272,464 -704,687 -1295,687 -416,0 -768,-128 -1023,-367 -256,-240 -400,-576 -400,-976 0,-415 128,-735 400,-975 271,-240 607,-367 1023,-367 607,-1 1039,239 1311,687z"/>
  <path class="fil2" d="M16402 24891l944 0 1087 2558 -608 0 -160 -383 -1582 0 -160 383 -624 0 1103 -2558zm352 512l-479 1151 1135 0 -464 -1151 -192 0z"/>
  <polygon class="fil2" points="18960,24891 19536,24891 19536,25867 20975,25867 20975,24891 21550,24891 21550,27449 20975,27449 20975,26378 19536,26378 19536,27449 18960,27449 "/>
  <path class="fil2" d="M23213 24891l943 0 1087 2558 -607 0 -160 -383 -1583 0 -160 383 -623 0 1103 -2558zm368 512l-480 1151 1135 0 -464 -1151 -191 0z"/>
  <polygon class="fil2" points="25275,24891 27945,24891 27945,25403 26906,25403 26906,27465 26330,27465 26330,25419 25291,25419 25291,24891 "/>
  <path class="fil2" d="M30791 25211c287,256 415,576 415,975 0,400 -144,720 -415,976 -272,255 -624,367 -1024,367 -399,0 -735,-128 -1023,-367 -287,-256 -415,-576 -415,-976 0,-399 144,-719 415,-975 272,-256 624,-368 1023,-368 400,0 752,112 1024,368zm-1631 352c-160,160 -240,352 -240,623 0,272 80,464 240,624 160,160 368,224 607,224 240,0 448,-80 608,-224 160,-160 240,-352 240,-624 0,-271 -80,-463 -240,-623 -160,-160 -368,-224 -608,-224 -239,0 -447,64 -607,224z"/>
  <path class="fil2" d="M31798 24891l1519 0c303,0 559,96 751,288 192,192 304,432 304,720 0,287 -96,527 -304,719 -192,176 -448,272 -751,272l-928 0 0 575 -591 0 0 -2574zm591 528l0 943 912 0c143,0 271,-48 367,-128 96,-80 144,-191 144,-335 0,-144 -48,-256 -144,-352 -96,-80 -208,-128 -367,-128l-912 0z"/>
  <polygon class="fil2" points="34931,24891 35507,24891 35507,27449 34931,27449 "/>
  <path class="fil2" d="M36130 24891l576 0 0 1775 1518 -1775 560 0 0 2558 -576 0 0 -1774 -1518 1774 -560 0 0 -2558zm1807 -879l271 304c-127,128 -255,208 -367,256 -112,48 -256,64 -400,64 -144,0 -272,-16 -400,-64 -127,-48 -239,-128 -367,-256l272 -304c143,128 303,176 495,176 192,16 352,-48 496,-176z"/>
  <path class="fil3" d="M20159 3341c-48,0 -80,0 -128,-16l-1774 -735c-128,-48 -208,-176 -192,-320 16,-144 112,-256 240,-288l607 -144 -128 -607c-15,-112 16,-224 96,-304 64,-48 128,-80 208,-80 32,0 64,0 112,16l624 224 159 -400c48,-127 160,-207 304,-207 0,0 16,0 16,0 144,0 256,96 288,223l496 1695c32,96 16,208 -48,288 -64,80 -160,128 -256,128 -160,0 -304,176 -320,271 -16,96 -80,176 -160,224 -48,16 -96,32 -144,32z"/>
  <g>
   <path class="fil4" d="M20287 799l496 1695c-320,0 -592,304 -640,528l-1774 -736 911 -208 -176 -911 911 320 272 -688 0 0zm0 -639c-256,0 -495,160 -591,400l-48 127 -336 -111c-64,-32 -144,-32 -208,-32 -144,0 -304,48 -415,159 -176,144 -256,384 -208,608l64 304 -304 64c-272,64 -464,287 -496,575 -16,272 144,544 400,640l1775 735c80,32 159,48 239,48 112,0 208,-32 304,-80 160,-80 272,-240 320,-416 16,-16 16,-32 32,-32 192,0 368,-96 495,-255 128,-160 160,-368 96,-560l-511 -1727c-80,-255 -304,-447 -592,-463 0,16 -16,16 -16,16l0 0z"/>
  </g>
  <path class="fil5" d="M31494 18737l-15843 -48c-879,0 -1631,-592 -1822,-1423 -80,-320 -288,-1407 -48,-2254 80,-304 239,-576 463,-864 1103,-1423 4029,-3373 5436,-4300 208,-144 383,-256 511,-336 464,-320 976,-623 1455,-927 704,-432 1439,-879 2046,-1359 144,-112 320,-240 512,-368 831,-591 2078,-1486 2078,-2382l0 -511c0,-608 -319,-1231 -815,-1583 -256,-192 -592,-288 -927,-288 -368,0 -720,128 -975,352 -448,368 -944,991 -1439,1583 -832,1007 -1551,1870 -2222,1982 -16,0 -48,0 -64,0l0 0c-128,0 -240,-48 -320,-144 -80,-96 -112,-224 -96,-352 48,-287 192,-527 368,-815 112,-176 239,-384 351,-623 32,-80 32,-176 32,-304 -16,-224 -16,-528 224,-815 48,-48 96,-80 112,-112l16 -16c240,-224 480,-304 624,-352 32,-16 63,-16 95,-32 16,-16 32,-32 48,-48 208,-160 384,-400 576,-655 272,-352 559,-720 975,-976 400,-239 895,-383 1455,-383 320,0 655,48 991,128 608,159 1007,463 1535,991 399,399 735,1135 911,1950 144,704 256,1599 -224,2382 -847,1359 -3101,2814 -4444,3677 -224,144 -416,256 -560,368 -191,128 -623,415 -1183,767 -831,528 -2398,1535 -3453,2286 208,-96 400,-176 608,-271 223,-112 463,-208 687,-320 847,-400 1647,-784 2078,-911 208,-80 480,-176 752,-288 1103,-432 2462,-959 3789,-959 160,0 335,16 479,32 1535,175 2926,783 4509,1966 0,0 15,16 15,16 336,288 2574,1870 2958,2078 80,16 176,16 256,16 447,0 1167,-128 1998,-735 80,-64 176,-96 288,-96 160,0 320,80 400,224 96,128 112,303 48,447 -112,272 -288,512 -480,736 144,32 256,160 288,303 48,176 80,320 -752,1024 144,32 256,159 304,303 48,192 -32,384 -208,480 -112,64 -303,288 -463,496 -416,511 -991,1215 -1807,1279 -16,0 -16,0 -32,0l-2094 0 0 -16z"/>
  <g>
   <path class="fil4" d="M24316 799c304,0 607,48 895,112 528,144 879,416 1343,880 352,351 656,1023 799,1742 144,703 224,1455 -175,2094 -928,1519 -3853,3230 -4892,3917 -784,544 -5820,3581 -5820,4141 0,144 64,192 144,192 48,0 112,-16 160,-48 624,-272 1247,-528 1871,-816 1007,-463 2206,-1055 2717,-1215 1087,-383 2830,-1215 4413,-1215 144,0 287,0 447,16 1631,176 2990,895 4301,1887 0,0 0,0 0,0 320,271 2925,2126 3117,2158 112,16 240,32 368,32 671,0 1455,-240 2238,-815 16,-16 32,-16 48,-16 64,0 112,64 80,111 -480,1152 -2174,1759 -2846,1983 -32,16 -16,64 16,64 0,0 0,0 0,0 432,-48 1423,-208 2574,-768 16,0 16,-16 32,-16 128,0 -1071,1167 -2494,1887 -16,16 -32,16 -16,16 32,0 1343,-544 2046,-592 0,0 0,0 0,0 32,0 48,48 16,64 -495,288 -1119,1647 -2094,1711l-2110 0 -15843 -48c-671,0 -1279,-464 -1439,-1119 0,0 0,0 0,-16 -128,-592 -224,-1439 -48,-2030 64,-240 192,-480 384,-736 1231,-1583 4908,-3901 5851,-4556 1151,-783 2478,-1471 3533,-2302 832,-640 2750,-1743 2750,-3086l0 -447c0,-752 -400,-1487 -975,-1903 -336,-239 -752,-367 -1151,-367 -448,0 -896,143 -1231,447 -1167,975 -2574,3341 -3453,3485 0,0 0,0 0,0 -16,0 -32,-16 -32,-32 48,-351 399,-703 687,-1327 176,-383 -64,-719 192,-1023 32,-48 64,-64 96,-96 336,-303 607,-223 751,-415 560,-448 879,-1215 1503,-1615 368,-224 799,-320 1247,-320l0 0zm0 -799c-624,0 -1199,144 -1663,432 -479,287 -799,703 -1071,1071 -176,224 -336,447 -511,591 0,0 -16,0 -16,16 -176,48 -448,144 -768,432l0 0c-32,32 -96,80 -160,144 -367,399 -351,847 -335,1103 0,48 0,112 0,128 -96,224 -208,399 -320,575 -192,304 -368,592 -416,959 -32,240 32,480 192,672 160,192 384,288 624,288 48,0 96,0 128,-16 783,-128 1438,-896 2461,-2127 480,-575 976,-1183 1391,-1534 192,-160 448,-256 720,-256 256,0 495,80 687,224 384,272 640,783 640,1247l0 511c0,704 -1199,1551 -1919,2063 -192,144 -367,271 -527,383 -592,464 -1279,896 -2015,1327 -495,304 -991,608 -1470,927 -128,80 -288,192 -496,336 -1423,943 -4396,2910 -5531,4381 -256,319 -416,655 -528,1007 -272,927 -48,2110 32,2446l0 16c240,1023 1151,1742 2206,1742l15843 48 2110 0c16,0 32,0 64,0 991,-64 1631,-847 2095,-1423 127,-143 287,-351 367,-399 320,-192 480,-576 384,-928 -16,-63 -48,-127 -80,-191 480,-432 623,-720 528,-1119 -16,-96 -64,-192 -112,-272 112,-160 207,-336 287,-512 112,-272 80,-575 -80,-831 -159,-256 -447,-400 -735,-400 0,0 0,0 0,0 -192,0 -368,64 -528,176 -735,544 -1358,656 -1758,656 -48,0 -96,0 -144,0 -512,-304 -2526,-1727 -2814,-1983 0,0 -16,-16 -16,-16 0,0 -16,-16 -16,-16 -1614,-1215 -3101,-1854 -4700,-2046 -176,-16 -351,-32 -527,-32 -1359,0 -2782,543 -3853,943 368,-240 639,-416 799,-527 144,-96 336,-208 544,-352 1375,-879 3677,-2366 4572,-3805 560,-911 448,-1902 272,-2670 -192,-911 -560,-1694 -1023,-2142 -464,-464 -944,-895 -1711,-1103 -384,-96 -751,-144 -1103,-144l0 0z"/>
  </g>
  <path class="fil6" d="M3006 22957c-528,0 -928,-64 -1215,-176 -368,-144 -576,-447 -576,-815 0,-240 96,-448 288,-592 16,0 16,-16 32,-16 32,-32 80,-48 176,-80 0,-48 16,-96 16,-175 16,-160 32,-448 48,-816 0,-160 16,-320 16,-463 -144,111 -304,159 -480,159 -256,0 -480,-111 -640,-335 -127,-176 -191,-384 -191,-624 0,-192 32,-383 96,-607 63,-208 143,-400 255,-576 240,-383 512,-559 832,-559 80,0 160,16 255,32 96,16 160,32 192,32 48,0 96,16 160,16l1455 0c112,0 208,-16 288,-48 112,-32 208,-48 303,-48 336,0 640,224 864,655 176,336 272,688 272,1055 0,416 -160,656 -304,784 -160,144 -368,224 -592,224 -160,0 -319,-48 -463,-128l0 1215c0,111 0,175 16,207 143,80 255,160 335,256 112,128 160,304 160,480 0,352 -208,639 -559,799 -256,96 -592,144 -1039,144z"/>
  <g>
   <path class="fil4" d="M4316 17745c144,0 304,128 432,400 128,272 208,544 208,831 0,192 -48,336 -144,432 -80,64 -160,96 -272,96 -96,0 -192,-32 -256,-96 -79,-64 -143,-176 -207,-320 -64,-144 -112,-224 -144,-272 -32,-48 -80,-63 -128,-63 -64,0 -112,31 -144,95 -32,64 -48,176 -48,336l0 1871c0,191 16,335 48,415 32,80 96,160 192,208 96,48 176,96 208,144 32,48 48,112 48,192 0,160 -96,288 -272,351 -176,80 -464,112 -832,112 -463,0 -799,-48 -1023,-143 -191,-80 -287,-192 -287,-368 0,-96 32,-160 96,-208 15,-16 79,-32 191,-80 64,-32 112,-64 144,-144 32,-64 48,-208 64,-400 16,-175 32,-447 48,-847 16,-383 16,-719 16,-1007 0,-208 -16,-336 -32,-432 -32,-80 -64,-128 -128,-128 -80,0 -144,64 -208,192 -128,224 -223,384 -303,448 -96,80 -192,128 -272,128 -96,0 -176,-48 -256,-128 -64,-96 -96,-208 -96,-352 0,-144 32,-288 80,-463 48,-160 128,-320 208,-464 144,-224 288,-336 416,-336 32,0 79,0 127,16 96,32 176,48 240,48 64,16 144,16 224,16l1471 0c160,0 304,-32 432,-80 64,0 112,0 159,0l0 0zm0 -959c-143,0 -287,32 -431,80 0,0 -16,0 -16,0 -32,16 -96,16 -144,32l-1455 0c-48,0 -80,0 -96,0 -16,0 -48,-16 -144,-32 -128,-32 -255,-48 -367,-48 -336,0 -832,144 -1231,799 -128,208 -240,432 -304,672 -80,256 -128,511 -128,751 0,336 96,656 272,912 240,335 607,527 1007,527 -16,240 -16,400 -32,512 -16,16 -32,16 -48,32 -304,239 -480,591 -480,975 0,559 336,1039 880,1263 335,144 783,208 1391,208 511,0 911,-64 1215,-192 527,-224 847,-688 847,-1247 0,-384 -144,-640 -256,-784 -64,-80 -144,-159 -240,-223l0 -544c336,0 640,-128 895,-352 208,-192 464,-543 464,-1135 0,-447 -112,-863 -320,-1279 -399,-767 -911,-927 -1279,-927l0 0z"/>
  </g>
  <path class="fil6" d="M6730 22989c-335,0 -671,-80 -975,-256 -367,-208 -671,-511 -863,-911 -192,-368 -288,-783 -288,-1231 0,-512 128,-975 368,-1391 224,-368 543,-655 943,-831 256,-128 560,-176 879,-176 512,0 960,176 1327,527 240,224 448,528 592,880 144,351 208,703 208,1055 0,527 -144,991 -432,1407 -256,367 -592,623 -991,783 -256,96 -512,144 -768,144zm-32 -2638c16,80 32,160 48,240 16,48 16,96 32,128 -16,-48 -16,-112 -32,-160 -16,-80 -32,-144 -48,-208z"/>
  <g>
   <path class="fil4" d="M6778 18673c384,0 720,127 1008,399 191,176 351,416 479,704 112,287 176,575 176,863 0,432 -112,799 -352,1135 -192,288 -463,496 -783,608 -192,79 -400,111 -592,111 -255,0 -511,-64 -751,-191 -288,-160 -511,-400 -671,-704 -160,-304 -240,-639 -240,-1007 0,-432 96,-799 304,-1135 175,-288 415,-512 719,-640 224,-95 464,-143 703,-143l0 0zm144 3037c112,0 208,-48 272,-160 64,-96 112,-240 112,-399 0,-224 -32,-448 -80,-704 -64,-256 -128,-463 -224,-639 -64,-112 -128,-192 -192,-256 -80,-64 -143,-96 -223,-96 -128,0 -224,64 -304,208 -64,96 -80,224 -80,351 0,208 32,432 96,704 64,272 160,511 256,703 48,96 95,160 175,208 48,64 128,80 192,80l0 0zm-144 -3997c-383,0 -751,80 -1087,224 -479,208 -863,560 -1135,1007 -304,480 -447,1024 -447,1631 0,528 112,1007 335,1455 256,479 608,863 1071,1119 384,208 784,304 1199,304 320,0 624,-64 944,-176 495,-192 911,-512 1215,-959 351,-496 527,-1072 527,-1679 0,-416 -80,-831 -256,-1231 -175,-416 -415,-767 -703,-1039 -464,-432 -1039,-656 -1663,-656l0 0z"/>
  </g>
  <path class="fil6" d="M9416 22957c-335,0 -575,-32 -751,-80 -160,-48 -288,-144 -384,-272 -96,-128 -144,-271 -144,-431 0,-224 96,-432 272,-576 0,-16 0,-32 0,-48 16,-112 32,-367 32,-863 0,-592 -16,-879 -48,-1007 0,0 0,0 0,0 -192,-144 -288,-368 -288,-608 0,-208 80,-399 224,-543 112,-112 272,-192 480,-240 192,-48 415,-64 687,-64 320,0 544,48 736,128 32,16 48,32 80,48 32,-16 48,-32 80,-48 191,-80 447,-128 815,-128 288,0 495,32 655,80 336,112 544,384 544,735 0,144 -32,272 -112,400 -112,176 -256,272 -352,304 -80,32 -192,48 -351,48 0,0 -224,255 -224,255 0,0 863,1200 863,1200 48,79 80,111 96,127 0,0 16,16 16,16 144,80 272,176 336,288 80,128 128,288 128,464 0,383 -256,767 -816,767l-847 0c-224,0 -368,-96 -464,-176 -32,-32 -64,-64 -112,-128 -80,96 -192,176 -335,240 -160,80 -432,112 -816,112z"/>
  <g>
   <path class="fil4" d="M9512 18689c240,0 416,32 528,80 96,47 160,143 160,271 0,48 0,96 -16,128 -16,32 -64,80 -128,144 -16,32 -48,80 -64,176 -16,96 -32,192 -32,288 0,144 32,224 80,224 32,0 64,-16 96,-48 32,-32 96,-128 191,-272 112,-160 176,-288 176,-336 0,-32 -16,-80 -48,-144 -16,-48 -32,-80 -32,-128 0,-128 64,-224 176,-287 112,-64 320,-80 608,-80 224,0 399,16 511,48 144,47 208,143 208,287 0,64 -16,112 -48,160 -32,48 -64,80 -112,96 -32,16 -112,16 -224,16 -79,0 -143,16 -175,32 -32,16 -96,64 -160,144l-240 272c-96,96 -128,192 -128,271 0,48 16,96 32,128 16,48 64,112 112,176l847 1167c80,112 128,176 160,192 32,32 64,64 128,80 80,48 144,80 176,144 32,48 48,112 48,192 0,192 -112,288 -336,288l-847 0c-64,0 -112,-16 -144,-48 -32,-32 -80,-112 -160,-224 -112,-192 -272,-416 -464,-672 -79,-112 -143,-176 -175,-208 -32,-32 -64,-48 -96,-48 -80,0 -128,96 -128,288 0,160 32,272 80,336 16,16 32,32 80,64 80,64 128,144 128,240 0,112 -64,208 -192,256 -128,47 -352,79 -672,79 -271,0 -479,-16 -607,-63 -48,-16 -96,-48 -128,-96 -32,-48 -48,-96 -48,-160 0,-96 48,-176 128,-240 48,-32 64,-64 80,-112 16,-32 32,-96 48,-192 32,-208 48,-511 48,-943 0,-496 -16,-863 -48,-1071 -16,-80 -32,-144 -48,-192 -16,-32 -64,-80 -112,-112 -80,-64 -128,-144 -128,-240 0,-80 32,-160 80,-207 48,-48 144,-96 256,-112 160,-16 351,-32 575,-32l0 0zm0 -960c-304,0 -575,32 -799,80 -288,64 -528,192 -704,368 -239,224 -367,544 -367,895 0,320 112,608 319,832 16,143 16,383 16,783 0,352 -16,559 -16,687 -191,224 -287,512 -287,800 0,255 80,511 224,719 159,208 367,368 607,448 0,0 16,0 16,0 224,64 512,96 895,96 448,0 768,-48 1007,-144 48,-16 96,-48 144,-64 176,96 384,160 592,160l847 0c751,0 1295,-528 1295,-1247 0,-272 -80,-528 -208,-736 -112,-160 -256,-303 -447,-415 -16,-16 -16,-32 -32,-32l-544 -768c16,0 32,-16 32,-16 256,-96 464,-271 608,-511 111,-192 175,-416 175,-640 0,-559 -335,-1023 -863,-1199 -224,-64 -479,-96 -815,-96 -384,0 -656,32 -895,112 -208,-64 -464,-112 -800,-112l0 0z"/>
  </g>
  <path class="fil6" d="M15315 22973c-367,0 -655,-16 -847,-64 -176,-32 -320,-128 -432,-256 0,-16 -16,-16 -16,-32 -143,176 -431,336 -959,336 -304,0 -527,-32 -687,-80 -304,-112 -480,-368 -480,-703 0,-160 48,-304 128,-416 80,-96 176,-176 320,-240 16,0 16,-16 16,-16 0,0 0,0 0,0 0,0 48,-80 160,-367l319 -832c144,-352 192,-543 224,-639 32,-112 48,-224 48,-336 0,-192 16,-336 32,-432 32,-128 96,-255 192,-383 192,-224 448,-352 767,-352 192,0 496,64 784,352 160,160 415,527 943,1854 0,0 432,1087 432,1087 255,96 415,336 415,624 0,319 -176,591 -479,719 -224,128 -496,176 -880,176z"/>
  <g>
   <path class="fil4" d="M14084 18657c144,0 304,64 432,207 192,192 464,768 831,1695l432 1087c48,96 80,160 96,192 32,32 64,48 128,64 112,16 160,80 160,192 0,128 -64,224 -192,287 -128,64 -352,80 -656,80 -335,0 -591,-16 -751,-48 -80,-16 -128,-48 -176,-95 -48,-48 -64,-112 -64,-176 0,-48 16,-96 32,-128 16,-32 64,-64 128,-80 64,-32 112,-80 112,-144 0,-128 -64,-192 -176,-208 -128,-16 -320,-32 -543,-32 -192,0 -320,16 -352,48 -32,16 -48,48 -64,96 -16,48 -32,96 -32,128 0,32 0,64 16,80 16,16 48,32 128,64 96,32 144,96 144,192 0,207 -208,319 -640,319 -240,0 -415,-16 -527,-64 -112,-32 -160,-127 -160,-255 0,-48 16,-96 32,-128 16,-32 64,-64 128,-80 96,-48 176,-96 223,-176 48,-80 128,-240 208,-480l320 -831c112,-304 192,-528 240,-687 32,-144 64,-304 64,-448 0,-160 16,-256 16,-320 16,-64 48,-112 96,-176 80,-111 208,-175 367,-175l0 0zm-287 2254l447 0c80,0 128,-16 128,-64 0,-64 -64,-208 -176,-432 -48,-112 -96,-176 -112,-208 -32,-32 -48,-48 -80,-48 -47,0 -95,64 -127,176 0,16 -32,80 -64,192 -64,176 -96,288 -96,336 -32,16 0,48 80,48l0 0zm287 -3214c-447,0 -847,192 -1135,528 -144,176 -239,368 -287,575 -32,128 -48,288 -48,528 0,64 -16,144 -32,208 -16,64 -64,224 -208,591l-320 832c-32,80 -64,144 -80,191 -144,80 -256,192 -352,304 -111,144 -223,368 -223,704 0,527 303,975 799,1151 0,0 0,0 16,0 224,80 496,112 847,112 416,0 720,-80 959,-208 112,64 240,112 368,128 240,48 544,80 959,80 448,0 768,-48 1023,-160 480,-208 768,-640 768,-1167 0,-416 -192,-768 -512,-975l-367 -928c-544,-1391 -832,-1790 -1040,-2014 -415,-400 -847,-480 -1135,-480l0 0z"/>
  </g>
  <path class="fil6" d="M17154 22957c-1087,0 -1311,-448 -1311,-815 0,-208 80,-352 144,-432 48,-48 96,-96 160,-144 0,-80 0,-208 0,-415l0 -1407c0,-32 0,-48 0,-64 -256,-128 -400,-368 -400,-640 0,-240 96,-431 272,-575 144,-112 320,-160 543,-160 32,0 128,0 272,16l128 0c336,0 400,0 416,0 48,0 192,-16 431,-48 96,-16 192,-16 288,-16 336,0 640,80 911,256 336,208 720,623 720,1391 0,495 -176,911 -496,1231 -304,287 -671,431 -1087,447 272,208 304,448 304,576 0,144 -48,511 -512,703 -192,64 -447,96 -783,96z"/>
  <g>
   <path class="fil4" d="M18097 18721c240,0 464,63 656,175 335,208 495,544 495,992 0,367 -112,655 -352,879 -223,208 -479,304 -799,304 -80,0 -176,0 -288,-16 -64,0 -96,-16 -112,-16 -48,0 -63,32 -63,96l0 16 15 447c0,80 16,144 32,192 16,48 64,80 144,128 96,64 144,128 144,208 0,112 -80,208 -224,256 -143,63 -351,95 -607,95 -560,0 -831,-111 -831,-335 0,-48 16,-96 32,-128 16,-32 80,-64 175,-128 48,-32 80,-80 96,-144 16,-64 16,-256 16,-591l0 -1423c0,-176 -16,-304 -32,-352 -16,-48 -80,-96 -175,-128 -128,-48 -208,-128 -208,-240 0,-80 32,-144 80,-192 64,-48 144,-63 239,-63 32,0 128,0 272,15l128 0c256,0 400,0 432,0 48,0 192,-15 463,-47 128,0 208,0 272,0l0 0zm-240 1758c96,0 176,-32 256,-96 96,-96 144,-256 144,-479 0,-240 -64,-400 -176,-512 -80,-64 -160,-96 -256,-96 -112,0 -160,32 -160,112l0 911c0,64 16,112 32,128 32,16 96,32 160,32l0 0zm240 -2718c-112,0 -224,0 -352,16 -303,32 -383,48 -399,48 -16,0 -112,0 -384,0l-112 0c-192,0 -256,-16 -288,-16 -319,0 -607,80 -831,256 -288,224 -464,576 -464,943 0,352 144,672 400,896l0 1231c0,63 0,127 0,191 -16,16 -32,48 -64,64 -112,144 -256,384 -256,736 0,303 128,1295 1791,1295 400,0 719,-48 991,-176 496,-208 799,-640 799,-1151 0,-80 -16,-160 -32,-240 240,-96 464,-240 656,-416 432,-399 655,-959 655,-1582 0,-784 -335,-1423 -959,-1807 -336,-176 -719,-288 -1151,-288l0 0z"/>
  </g>
  <path class="fil6" d="M20159 22957c-1055,0 -1215,-512 -1215,-815 0,-128 32,-368 288,-576 16,-160 32,-479 32,-1183 0,-447 -16,-639 -32,-719 -96,-80 -176,-160 -224,-240 -64,-112 -112,-240 -112,-384 0,-224 96,-431 288,-575 112,-80 272,-160 512,-208 224,-48 447,-80 671,-80 208,0 400,16 592,64 415,96 671,384 671,783 0,160 -48,304 -128,416 -48,64 -112,112 -192,176 -16,64 -32,256 -32,735 0,672 16,975 32,1103 208,144 320,368 320,608 0,352 -224,639 -623,751 -224,112 -512,144 -848,144z"/>
  <g>
   <path class="fil4" d="M20367 18689c176,0 336,16 480,48 208,47 304,159 304,303 0,48 -16,96 -32,112 -16,32 -64,64 -160,112 -64,48 -112,128 -144,272 -16,144 -32,416 -32,815 0,688 16,1119 48,1279 16,48 32,96 48,128 16,32 64,64 112,96 96,48 144,128 144,240 0,144 -96,240 -272,304 -192,63 -448,79 -720,79 -495,0 -735,-111 -735,-335 0,-80 48,-160 144,-224 80,-48 112,-128 128,-224 32,-208 48,-639 48,-1311 0,-463 -16,-751 -64,-879 -16,-80 -64,-144 -144,-192 -64,-48 -96,-96 -128,-128 -16,-32 -32,-80 -32,-128 0,-80 32,-144 96,-192 64,-48 176,-79 336,-127 208,-16 383,-48 575,-48l0 0zm0 -960c-272,0 -527,32 -783,96 -288,64 -512,160 -688,288 -303,224 -479,576 -479,959 0,240 64,464 192,640 48,64 96,144 160,208 0,95 15,255 15,479 0,496 -15,799 -15,975 -256,288 -304,608 -304,784 0,224 80,1295 1694,1295 384,0 704,-48 992,-128 591,-176 959,-640 959,-1215 0,-320 -128,-624 -336,-848 0,-159 -16,-431 -16,-879 0,-240 0,-384 16,-495 32,-32 80,-80 112,-128 112,-144 240,-368 240,-704 0,-607 -416,-1087 -1039,-1247 -224,-48 -464,-80 -720,-80l0 0z"/>
  </g>
  <path class="fil6" d="M22541 21742c-64,0 -143,-16 -223,-32 -128,-32 -304,-48 -480,-48 -64,0 -144,0 -192,16 -80,16 -144,16 -192,16 -287,0 -591,-224 -591,-639 0,-112 32,-272 80,-480 48,-192 96,-352 160,-464 80,-175 159,-287 239,-367 128,-128 288,-192 480,-208 0,0 16,0 16,0 64,0 144,0 208,16 256,32 383,32 447,32 128,0 160,0 160,0 112,-16 176,-32 224,-32 288,0 560,224 560,639 0,128 -16,288 -64,480 -48,176 -96,336 -160,496 -64,159 -128,255 -192,335 -128,160 -304,240 -480,240z"/>
  <g>
   <path class="fil4" d="M21806 20031c48,0 96,0 144,16 224,32 400,48 511,48 128,0 208,0 256,-16 64,-16 112,-16 128,-16 64,0 80,48 80,160 0,96 -16,224 -48,368 -32,144 -80,288 -144,432 -48,112 -80,175 -112,207 -32,32 -64,64 -112,64 -31,0 -79,0 -143,-16 -160,-32 -352,-48 -576,-48 -96,0 -176,0 -256,16 -64,0 -112,16 -144,16 -80,0 -111,-48 -111,-159 0,-64 16,-192 63,-368 48,-176 80,-304 128,-384 48,-112 96,-176 128,-224 96,-80 144,-96 208,-96l0 0zm0 -959c-16,0 -16,0 -32,0 -304,16 -591,128 -799,352 -128,128 -224,272 -320,496 0,0 0,16 0,16 -64,143 -128,319 -176,543 -64,256 -96,448 -96,608 0,639 464,1119 1071,1119 64,0 144,0 240,-16 48,0 96,0 144,0 144,0 272,16 384,32 128,32 223,32 319,32 336,0 640,-144 848,-416 96,-112 160,-240 255,-448 0,0 0,0 0,-16 80,-175 144,-367 176,-575 48,-224 80,-416 80,-592 0,-719 -543,-1119 -1039,-1119 -96,0 -192,16 -288,32 -16,0 -48,0 -96,0 -32,0 -143,0 -399,-32 -96,-16 -176,-16 -272,-16l0 0z"/>
  </g>
  <path class="fil6" d="M23389 22925c-240,0 -464,-80 -624,-256 -160,-160 -240,-367 -240,-591 0,-160 48,-304 128,-416 32,-64 96,-128 208,-224 16,-64 32,-192 48,-527 32,-464 48,-1071 48,-1759 0,-176 0,-272 -16,-320 -272,-159 -416,-399 -416,-687 0,-240 96,-448 272,-607 160,-144 368,-208 592,-208 64,0 160,0 272,16 143,16 303,16 495,16 144,0 448,0 815,-16l32 0c128,0 224,0 336,0 304,0 544,32 752,96 223,80 431,191 591,367 272,272 400,640 400,1071 0,0 0,416 -16,528 0,32 -16,64 -16,80 -32,128 -96,224 -192,304 96,80 192,191 272,303 192,272 287,592 287,960 0,415 -127,815 -383,1167 -352,479 -879,719 -1535,719 -80,0 -256,0 -527,-16 -224,-16 -368,-16 -432,-16l-368 0c-256,0 -447,16 -543,16 -80,0 -176,0 -240,0zm1566 -1599z"/>
  <g>
   <path class="fil4" d="M25371 17825c240,0 448,32 592,80 159,48 287,128 399,240 176,192 272,432 272,735 0,48 0,416 -16,464 -32,112 -112,144 -208,144 -256,0 -671,-240 -1023,-240 -48,0 -80,0 -128,16 -16,-96 -32,-352 -64,-416 -64,-111 -160,-175 -287,-175 -64,0 -112,16 -144,63 -32,48 -32,128 -32,240l0 496c0,112 16,192 32,240 32,48 64,64 128,64 0,0 1023,0 1502,255 0,0 16,0 16,16 16,0 32,16 32,16 112,80 208,176 304,304 128,176 192,416 192,688 0,319 -96,607 -288,879 -256,352 -639,527 -1151,527 -64,0 -240,0 -512,-16 -239,-16 -399,-16 -447,-16l-368 0c-256,0 -448,16 -575,16 -112,16 -192,16 -240,16 -112,0 -208,-32 -272,-96 -64,-63 -96,-159 -96,-255 0,-64 16,-112 32,-144 16,-32 80,-96 176,-176 48,-48 96,-112 112,-208 16,-96 48,-304 64,-607 32,-480 48,-1087 48,-1791 0,-256 -16,-432 -48,-511 -32,-80 -96,-160 -208,-208 -128,-64 -176,-160 -176,-272 0,-96 32,-176 112,-240 80,-64 160,-96 288,-96 64,0 144,0 240,16 159,16 335,16 527,16 144,0 416,0 831,-16 160,-48 288,-48 384,-48l0 0zm-336 3917c288,0 432,-192 432,-591 0,-496 -160,-736 -480,-736 -80,0 -143,16 -175,64 -32,48 -48,112 -48,224l0 320c0,287 16,479 48,575 48,96 111,144 223,144l0 0zm336 -4876c-96,0 -224,0 -352,0l-32 0c-511,16 -735,16 -799,16 -176,0 -336,0 -480,-16 -111,0 -207,-16 -303,-16 -336,0 -656,112 -896,320 0,0 0,0 -16,16 -287,240 -447,591 -447,975 0,368 160,703 431,943 0,16 0,48 0,64 0,688 -16,1263 -48,1727 -15,144 -15,256 -31,319 -64,64 -112,128 -160,192 -128,192 -208,432 -208,688 0,335 128,655 352,895 0,0 16,16 16,16 239,256 591,400 959,400 80,0 176,0 319,-16 96,0 256,-16 496,-16l352 0c64,0 208,0 415,16 384,16 496,16 560,16 1023,0 1615,-496 1918,-912 320,-431 480,-927 480,-1454 0,-464 -128,-880 -368,-1231 -16,-32 -32,-48 -64,-80 16,-32 32,-64 32,-96 16,-48 32,-112 32,-176 16,-128 16,-512 16,-576 0,-703 -287,-1151 -543,-1406 -224,-224 -480,-400 -800,-496 -191,-80 -479,-112 -831,-112l0 0zm-879 4157c0,0 0,0 0,0l0 0 0 0z"/>
  </g>
  <path class="fil6" d="M29592 22973c-64,0 -128,-16 -224,-32 -48,-16 -144,-32 -304,-32l-1902 0c-256,0 -416,-112 -512,-192 -96,-96 -208,-256 -208,-511 0,-160 48,-304 128,-400 48,-64 112,-112 192,-176 32,-240 64,-559 64,-959 0,-608 -32,-895 -48,-1039 -224,-112 -352,-352 -352,-608 0,-144 48,-287 112,-415 96,-144 224,-240 368,-288 0,0 16,0 16,0 112,-32 240,-48 463,-48l1151 0c272,0 400,0 464,-16 64,0 144,-16 208,-48 96,-32 160,-48 240,-48 144,0 415,48 623,384 144,239 224,511 224,831 0,208 -48,384 -128,528 -112,191 -288,303 -496,319 0,80 16,176 16,256 0,64 0,128 0,176 32,0 64,-16 112,-16 224,0 432,112 560,320 96,144 128,319 128,495 0,160 -32,336 -96,544 -64,192 -128,368 -208,527 -64,112 -128,192 -176,256 -112,128 -256,192 -415,192z"/>
  <g>
   <path class="fil4" d="M29464 18641c80,0 144,48 208,143 95,160 143,368 143,592 0,112 -16,208 -64,272 -48,64 -95,96 -175,96 -48,0 -96,-16 -112,-32 -32,-32 -64,-80 -112,-160 -64,-128 -144,-208 -256,-240 -96,-48 -272,-64 -496,-64 -175,0 -271,32 -319,112 -16,32 -32,96 -32,160 0,64 0,240 0,511 0,112 16,176 48,208 32,32 112,32 239,32 64,0 112,-16 144,-48 32,-32 48,-80 48,-176 16,-111 16,-175 32,-207 16,-32 32,-80 64,-96 32,-32 64,-48 112,-48 64,0 112,32 160,112 32,48 64,144 80,271 16,128 32,272 32,416 0,288 -32,512 -112,703 -48,96 -96,144 -192,144 -48,0 -80,-16 -112,-48 -16,-32 -32,-96 -48,-191 -16,-208 -128,-304 -303,-304 -64,0 -112,32 -144,80 -32,48 -32,144 -32,288 0,79 0,191 16,319 16,128 16,224 32,272 16,48 48,96 112,112 63,16 159,32 303,32 224,0 400,-32 512,-96 112,-64 208,-192 272,-384 48,-112 80,-176 112,-208 31,-31 79,-47 127,-47 64,0 112,32 160,95 48,64 64,144 64,240 0,112 -16,240 -64,400 -48,160 -96,304 -176,432 -32,64 -64,95 -80,127 -16,16 -47,32 -79,32 -32,0 -64,0 -128,-16 -96,-15 -224,-32 -384,-47l-1902 -1c-80,0 -128,-15 -176,-63 -48,-48 -64,-96 -64,-176 0,-48 16,-96 32,-112 16,-16 64,-48 128,-96 48,-16 80,-48 96,-80 16,-32 32,-80 48,-144 48,-272 79,-639 79,-1103 0,-687 -31,-1135 -111,-1311 -16,-32 -32,-64 -48,-80 -16,-16 -48,-32 -112,-48 -80,-32 -128,-96 -128,-208 0,-64 16,-112 48,-160 32,-47 64,-79 112,-95 64,-16 176,-32 335,-32l1151 0c240,0 400,0 512,-16 112,-16 208,-32 320,-64 32,0 64,0 80,0l0 0zm0 -960c-128,0 -256,16 -384,64 0,0 0,0 0,0 -32,16 -64,16 -96,16 -32,0 -144,16 -416,16l-1151 0c-271,0 -447,16 -591,64 -16,0 -16,0 -32,16 -272,80 -480,256 -640,496 -127,208 -191,431 -191,671 0,352 143,656 367,880 16,143 16,399 16,767 0,320 -16,543 -32,703 -48,32 -80,80 -128,128 -96,128 -223,368 -223,704 0,335 127,639 351,863 224,208 512,336 848,336l1886 0c144,0 192,16 192,16 0,0 16,0 16,0 112,16 224,32 320,32 271,0 527,-96 735,-288 96,-96 192,-208 272,-368 0,0 0,-16 16,-16 96,-192 176,-399 240,-623 79,-256 111,-464 111,-672 0,-287 -64,-543 -207,-751 -96,-144 -208,-272 -352,-352 64,-64 128,-144 176,-224 128,-223 208,-479 208,-783 0,-416 -96,-783 -288,-1087 -224,-384 -608,-608 -1023,-608l0 0z"/>
  </g>
  <path class="fil6" d="M31014 22957c-1087,0 -1310,-448 -1310,-815 0,-208 79,-352 143,-432 48,-48 96,-96 160,-144 0,-80 0,-208 0,-415l0 -1407c0,-32 0,-48 0,-64 -256,-128 -399,-368 -399,-640 0,-240 95,-431 271,-575 144,-112 320,-160 544,-160 32,0 128,0 272,16l128 0c335,0 399,0 415,0 48,0 192,-16 432,-48 96,-16 192,-16 288,-16 335,0 639,80 911,256 336,208 719,623 719,1391 0,495 -176,911 -495,1231 -304,287 -672,431 -1087,447 271,208 303,448 303,576 0,144 -48,511 -511,703 -192,64 -448,96 -784,96z"/>
  <g>
   <path class="fil4" d="M31974 18721c239,0 463,63 655,175 336,208 496,544 496,992 0,367 -112,655 -352,879 -224,208 -480,304 -799,304 -80,0 -176,0 -288,-16 -64,0 -96,-16 -112,-16 -48,0 -64,32 -64,96l0 16 16 447c0,80 16,144 32,192 16,48 64,80 144,128 96,64 144,128 144,208 0,112 -80,208 -224,256 -144,63 -352,95 -608,95 -559,0 -831,-111 -831,-335 0,-48 16,-96 32,-128 16,-32 80,-64 176,-128 48,-32 80,-80 96,-144 16,-64 16,-256 16,-591l0 -1423c0,-176 -16,-304 -32,-352 -16,-48 -80,-96 -176,-128 -128,-48 -208,-128 -208,-240 0,-80 32,-144 80,-192 64,-48 144,-63 240,-63 32,0 128,0 272,15l128 0c255,0 399,0 431,0 48,0 192,-15 464,-47 112,0 192,0 272,0l0 0zm-256 1758c96,0 176,-32 256,-96 96,-96 144,-256 144,-479 0,-240 -64,-400 -176,-512 -80,-64 -160,-96 -256,-96 -112,0 -160,32 -160,112l0 911c0,64 16,112 32,128 48,16 96,32 160,32l0 0zm256 -2718c-112,0 -224,0 -352,16 -304,32 -384,48 -400,48 -16,0 -112,0 -383,0l-112 0c-192,0 -256,-16 -288,-16 -320,0 -592,80 -831,256 -304,224 -464,576 -464,943 0,352 144,672 400,896l0 1231c0,63 0,127 0,191 -16,16 -32,48 -64,64 -112,144 -256,384 -256,736 0,303 128,1295 1790,1295 400,0 720,-48 992,-176 495,-208 799,-640 799,-1151 0,-80 -16,-160 -32,-240 240,-96 464,-240 655,-416 432,-399 656,-959 656,-1582 0,-784 -336,-1423 -959,-1807 -336,-176 -736,-288 -1151,-288l0 0z"/>
  </g>
  <path class="fil6" d="M35922 22973c-64,0 -128,-16 -223,-32 -48,-16 -144,-32 -304,-32l-1903 0c-255,0 -415,-112 -511,-192 -96,-96 -208,-256 -208,-511 0,-160 48,-304 128,-400 48,-64 112,-112 192,-176 32,-240 64,-559 64,-959 0,-608 -32,-895 -48,-1039 -224,-112 -352,-352 -352,-608 0,-144 48,-287 112,-415 96,-144 224,-240 368,-288 0,0 16,0 16,0 111,-32 239,-48 463,-48l1151 0c272,0 400,0 464,-16 64,0 144,-16 208,-48 80,-32 160,-48 239,-48 144,0 416,48 624,384 144,239 224,527 224,847 0,208 -48,384 -128,528 -112,191 -288,303 -496,319 0,80 16,176 16,256 0,64 0,128 0,176 32,0 64,-16 112,-16 224,0 432,112 560,320 96,144 128,303 128,495 0,160 -32,336 -96,544 -64,192 -128,368 -208,527 -64,112 -128,192 -192,256 -96,112 -240,176 -400,176z"/>
  <g>
   <path class="fil4" d="M35794 18641c80,0 144,48 208,143 96,160 144,368 144,592 0,112 -16,208 -64,272 -48,64 -96,96 -176,96 -48,0 -96,-16 -112,-32 -32,-32 -63,-80 -111,-160 -64,-128 -144,-208 -256,-240 -96,-48 -272,-64 -496,-64 -176,0 -272,32 -320,112 -16,32 -32,96 -32,160 0,64 0,240 0,511 0,112 16,176 48,208 32,32 112,32 240,32 64,0 112,-16 144,-48 32,-32 48,-80 48,-176 16,-111 16,-175 32,-207 16,-32 32,-80 64,-96 32,-32 64,-48 112,-48 64,0 112,32 160,112 32,48 64,144 80,271 16,128 32,272 32,416 0,288 -32,512 -112,703 -48,96 -96,144 -192,144 -48,0 -80,-16 -112,-48 -16,-32 -32,-96 -48,-191 -16,-208 -128,-304 -304,-304 -64,0 -112,32 -144,80 -32,48 -32,144 -32,288 0,79 0,191 16,319 16,128 16,224 32,272 16,48 48,96 112,112 64,16 160,32 304,32 224,0 400,-32 512,-96 112,-64 207,-192 271,-384 48,-112 80,-176 112,-208 32,-31 80,-47 128,-47 64,0 112,32 160,95 48,64 64,144 64,240 0,112 -16,240 -64,400 -48,160 -96,304 -176,432 -32,64 -64,95 -80,127 -16,16 -48,32 -80,32 -32,0 -64,0 -128,-16 -96,-15 -223,-32 -383,-47l-1903 -1c-80,0 -128,-15 -175,-63 -48,-48 -64,-96 -64,-176 0,-48 16,-96 32,-112 16,-16 63,-48 127,-96 48,-16 80,-48 96,-80 16,-32 32,-80 48,-144 48,-272 80,-639 80,-1103 0,-687 -32,-1135 -112,-1311 -16,-32 -32,-64 -48,-80 -16,-16 -48,-32 -111,-48 -80,-32 -128,-96 -128,-208 0,-64 16,-112 48,-160 32,-47 64,-79 111,-95 64,-16 176,-32 336,-32l1151 0c240,0 400,0 512,-16 112,-16 208,-32 320,-64 47,0 64,0 79,0l0 0zm0 -960c-127,0 -255,16 -383,64 0,0 0,0 0,0 -32,16 -64,16 -96,16 -32,0 -144,16 -416,16l-1151 0c-272,0 -447,16 -591,64 -16,0 -16,0 -32,16 -272,80 -480,256 -640,496 -128,208 -192,431 -192,671 0,352 144,656 368,880 16,143 16,399 16,767 0,320 -16,543 -32,703 -48,32 -80,80 -128,128 -96,128 -224,368 -224,704 0,335 128,639 352,863 224,208 512,336 847,336l1887 0c144,0 192,16 192,16 0,0 16,0 16,0 112,16 223,32 319,32 272,0 528,-96 736,-288 96,-96 192,-208 272,-368 0,0 0,-16 16,-16 95,-192 175,-399 239,-623 80,-256 112,-464 112,-672 0,-287 -64,-543 -208,-751 -96,-144 -207,-272 -351,-352 64,-64 128,-144 176,-224 127,-223 207,-479 207,-783 0,-416 -96,-783 -287,-1087 -224,-384 -592,-608 -1024,-608l0 0z"/>
  </g>
  <path class="fil6" d="M42845 22957c-336,0 -576,-32 -752,-80 -160,-48 -287,-144 -383,-272 -96,-128 -144,-271 -144,-431 0,-224 96,-432 272,-576 0,-16 0,-32 0,-48 15,-112 31,-367 31,-863 0,-592 -15,-879 -47,-1007 0,0 0,0 0,0 -192,-144 -288,-368 -288,-608 0,-208 80,-399 224,-543 111,-112 271,-192 479,-240 192,-48 416,-64 688,-64 319,0 543,48 735,128 32,16 48,32 80,48 32,-16 48,-32 80,-48 192,-80 448,-128 815,-128 288,0 496,32 656,80 335,112 543,384 543,735 0,144 -32,272 -112,400 -112,192 -255,272 -351,304 -80,32 -192,48 -352,48 0,0 -224,255 -224,255 0,0 863,1200 863,1200 48,79 80,111 96,127 0,0 16,16 16,16 144,80 272,176 336,288 96,128 128,288 128,464 0,383 -256,767 -815,767l-832 0c-224,0 -367,-96 -463,-176 -32,-32 -64,-64 -112,-128 -80,96 -192,176 -336,240 -192,80 -464,112 -831,112z"/>
  <g>
   <path class="fil4" d="M42941 18689c239,0 415,32 527,80 96,47 160,143 160,271 0,48 0,96 -16,128 -16,32 -64,80 -128,144 -32,32 -48,80 -64,176 -16,96 -32,192 -32,288 0,144 32,224 80,224 32,0 64,-16 96,-48 32,-32 96,-128 192,-272 112,-160 176,-288 176,-336 0,-32 -16,-80 -48,-144 -16,-48 -32,-80 -32,-128 0,-128 64,-224 176,-287 112,-64 319,-80 607,-80 224,0 400,16 512,48 144,47 208,143 208,287 0,64 -16,112 -48,160 -32,48 -64,80 -112,96 -32,16 -112,16 -224,16 -80,0 -144,16 -176,32 -32,16 -96,64 -160,144l-240 272c-96,96 -128,192 -128,271 0,48 16,96 32,128 16,48 64,112 112,176l848 1167c80,112 128,176 159,192 32,32 64,64 128,80 80,48 144,80 176,144 32,64 48,112 48,192 0,192 -112,288 -336,288l-847 0c-64,0 -112,-16 -144,-48 -32,-32 -80,-112 -160,-224 -111,-192 -271,-416 -463,-672 -80,-112 -144,-176 -176,-208 -32,-32 -64,-48 -96,-48 -80,0 -128,96 -128,288 0,160 32,272 80,336 16,16 32,32 80,64 80,64 128,144 128,240 0,112 -64,208 -192,256 -128,47 -352,79 -671,79 -272,0 -480,-16 -608,-63 -48,-16 -96,-48 -128,-96 -32,-48 -48,-96 -48,-160 0,-96 48,-176 128,-240 48,-32 64,-64 80,-112 16,-32 32,-96 48,-192 32,-208 48,-511 48,-943 0,-496 -16,-863 -48,-1071 -16,-80 -32,-144 -48,-192 -16,-32 -64,-80 -112,-112 -80,-64 -128,-144 -128,-240 0,-80 32,-160 80,-207 48,-48 144,-96 256,-112 144,-16 336,-32 576,-32l0 0zm0 -960c-304,0 -576,32 -800,80 -288,64 -527,192 -703,368 -240,240 -368,544 -368,895 0,320 112,608 320,832 16,143 16,383 16,783 0,352 -16,559 -16,687 -192,224 -288,512 -288,800 0,255 80,511 224,719 160,208 368,368 607,448 0,0 16,0 16,0 224,64 512,96 896,96 447,0 767,-48 1007,-144 48,-16 96,-48 144,-64 176,96 383,160 591,160l848 0c751,0 1294,-528 1294,-1247 0,-272 -79,-528 -207,-736 -112,-160 -256,-303 -448,-415 -16,-16 -16,-32 -32,-32l-544 -752c16,0 32,-16 32,-16 256,-96 464,-271 608,-511 112,-192 176,-416 176,-640 0,-559 -336,-1023 -864,-1199 -223,-64 -479,-96 -815,-96 -384,0 -655,32 -895,112 -208,-80 -480,-128 -799,-128l0 0z"/>
  </g>
  <path class="fil6" d="M39040 22957c-304,0 -528,-32 -688,-80 -144,-48 -255,-144 -335,-256 -32,48 -64,80 -96,112 -80,80 -208,176 -416,176l-783 0c-512,0 -768,-384 -800,-767 -16,-176 16,-336 96,-464 64,-112 176,-224 304,-304 0,0 16,0 16,-16 16,-16 32,-48 80,-128 0,0 751,-1183 751,-1199 0,0 -223,-255 -223,-255 -160,0 -256,-16 -336,-48 -112,-32 -240,-128 -368,-304 -80,-128 -112,-256 -128,-400 -16,-351 160,-623 480,-735 160,-48 368,-80 655,-80 368,0 624,48 816,128 16,16 48,16 64,32 63,-32 127,-64 191,-80 160,-64 368,-80 608,-80l80 0 48 0c256,0 447,32 623,80 80,16 144,48 192,80 16,-16 48,-32 64,-32 192,-80 448,-128 815,-128 288,0 496,32 656,80 336,112 511,384 495,735 0,144 -48,272 -127,400 -112,192 -256,272 -352,304 -80,32 -176,48 -336,48 0,0 -224,255 -224,255 0,0 784,1199 784,1199 48,80 80,112 80,128 0,0 16,16 16,16 127,80 239,176 303,288 80,128 112,288 96,464 -16,383 -272,767 -783,767l-783 0c-208,0 -336,-96 -416,-176 -32,-32 -64,-64 -96,-112 -80,128 -192,208 -336,256 -176,64 -383,80 -687,80l0 0 0 16z"/>
  <g>
   <path class="fil4" d="M39088 18689c208,0 351,16 463,64 96,31 160,63 208,111 48,48 80,128 80,208 0,96 -48,176 -128,240 -48,32 -80,80 -112,112 -16,32 -32,96 -48,192 -16,80 -16,192 -32,335 16,32 32,48 64,48 32,0 64,-16 96,-48 32,-32 96,-127 192,-271 112,-160 160,-288 160,-336 0,-32 -16,-80 -48,-144 -16,-48 -32,-80 -32,-128 0,-128 64,-224 176,-288 112,-48 320,-80 607,-80 224,0 400,16 496,48 128,48 192,144 192,288 0,64 -16,112 -48,160 -32,48 -64,80 -112,96 -32,16 -96,16 -208,16 -80,0 -128,16 -176,32 -32,16 -96,64 -160,144l-239 272c-80,96 -128,191 -128,271 0,48 16,96 32,128 16,48 48,112 112,176l767 1167c64,112 112,176 144,192 32,32 64,64 112,80 80,48 128,80 160,144 32,48 48,112 32,192 0,191 -112,287 -320,287l-783 1c-48,0 -96,-16 -128,-48 -32,-32 -80,-112 -144,-224 -112,-192 -240,-416 -416,-672 -80,-112 -128,-176 -160,-208 -32,-32 -64,-48 -80,-48 -80,0 -128,96 -128,288 0,160 32,272 80,336 16,16 32,32 64,64 80,64 112,144 112,240 0,64 -16,112 -48,160 0,0 0,16 -16,16 -32,47 -64,79 -128,95 -112,32 -303,64 -559,64 -16,0 -16,0 -32,0 -16,0 -16,0 -32,0 -256,0 -448,-16 -560,-64 -48,-16 -96,-48 -128,-95 0,0 0,-16 -16,-16 -32,-48 -48,-96 -48,-160 0,-96 32,-176 112,-240 32,-32 64,-48 64,-64 48,-64 80,-176 80,-336 0,-192 -48,-288 -128,-288 -32,0 -48,16 -80,48 -32,32 -80,96 -159,208 -176,256 -304,464 -416,672 -64,128 -112,192 -144,224 -32,32 -64,48 -128,48l-783 0c-208,0 -320,-96 -336,-288 0,-80 0,-144 32,-192 32,-48 80,-96 144,-144 48,-32 96,-64 112,-80 32,-32 64,-96 128,-192l735 -1167c48,-80 80,-144 96,-176 16,-48 32,-96 32,-128 0,-79 -48,-175 -144,-271l-240 -272c-64,-64 -112,-112 -160,-144 -31,-16 -95,-32 -175,-32 -112,0 -176,-16 -208,-16 -48,-16 -80,-48 -112,-96 -32,-48 -48,-96 -48,-160 0,-144 48,-240 192,-287 112,-32 272,-48 495,-48 288,0 480,32 608,80 112,47 176,143 192,287 0,32 0,80 -32,128 -32,64 -32,112 -32,144 0,64 64,176 176,336 96,144 159,240 191,272 32,32 64,48 96,48 32,0 48,-16 64,-48 -16,-128 -16,-240 -32,-336 -16,-80 -32,-144 -48,-192 -16,-32 -64,-80 -112,-112 -79,-64 -127,-144 -127,-240 0,-80 16,-160 80,-208 47,-47 111,-79 207,-111 112,-48 272,-64 464,-64 16,0 48,0 64,0 80,0 112,0 128,0l0 0zm0 -960c-16,0 -48,0 -64,0 -16,0 -48,0 -64,0 -304,0 -544,32 -767,112 -16,0 -32,16 -48,16 -240,-80 -512,-128 -896,-128 -335,0 -591,32 -799,96 -528,176 -815,640 -783,1199 16,224 96,448 207,640 160,240 368,431 608,511 16,0 32,16 32,16l-480 752c-16,16 -16,32 -32,48 -176,112 -303,239 -383,415 -112,208 -160,464 -144,736 48,719 591,1247 1263,1247l767 0c176,0 352,-48 512,-144 64,32 128,64 191,96 0,0 16,0 16,0 208,64 464,96 800,96l32 0 32 0c351,0 607,-32 799,-96 0,0 16,0 16,0 64,-16 128,-48 192,-96 160,96 336,144 511,144l768 0c671,0 1199,-528 1247,-1247 16,-272 -32,-528 -160,-736 -96,-160 -224,-303 -400,-415 0,-16 -16,-32 -32,-32l-495 -752c16,0 32,-16 32,-16 240,-96 447,-271 607,-511 112,-192 192,-416 192,-640 32,-559 -272,-1023 -799,-1199 -208,-64 -464,-96 -816,-96 -383,0 -655,32 -895,128 -16,0 -32,-16 -48,-16 -176,-96 -431,-128 -719,-128l0 0z"/>
  </g>
  <path class="fil6" d="M48904 22973c-80,0 -160,0 -208,0 -112,0 -208,-16 -288,-32 -336,-80 -559,-320 -607,-623l-320 335c-128,128 -240,224 -368,272 -112,48 -240,64 -431,64 -240,0 -400,-16 -512,-32 -719,-128 -783,-639 -783,-799 0,-160 48,-304 127,-416 64,-80 144,-160 256,-240 16,-112 48,-383 48,-895 0,-400 -16,-719 -32,-927 -80,-64 -144,-128 -192,-192 -80,-112 -111,-256 -111,-400 0,-288 143,-543 415,-687 192,-112 416,-160 704,-160 1071,0 1151,655 1151,847 0,32 0,48 0,80l543 -591c112,-112 176,-192 256,-224 96,-64 192,-96 288,-112 32,0 64,0 96,0 80,0 160,16 224,48 143,48 367,208 463,591 32,144 48,352 64,640 0,32 0,96 0,144l0 559 0 880c0,223 16,367 16,447 224,144 304,336 320,480 16,48 16,112 16,160 0,335 -192,607 -512,735 -128,48 -288,64 -527,80 -32,-48 -64,-32 -96,-32z"/>
  <g>
   <path class="fil4" d="M48936 18689c16,0 32,0 48,16 80,32 128,111 159,255 32,112 48,304 48,544 0,48 0,96 0,144 0,240 0,415 0,559l0 880c0,335 16,559 64,671 16,32 32,64 48,80 16,16 48,32 96,64 80,48 144,112 160,192 0,16 0,48 0,64 0,144 -64,240 -208,287 -80,32 -208,48 -383,48 -32,0 -48,0 -80,0 -64,0 -128,0 -176,0 -80,0 -144,-16 -192,-16 -176,-48 -256,-143 -256,-287 0,-64 16,-112 32,-144 32,-32 64,-80 128,-112 80,-48 144,-911 96,-943 -16,0 -16,0 -32,0 -48,0 -128,48 -224,160l-1119 1183c-80,80 -144,128 -192,143 -48,16 -144,32 -256,32 -207,0 -351,0 -447,-16 -240,-47 -368,-159 -368,-319 0,-48 16,-96 48,-144 32,-32 80,-80 144,-112 64,-32 96,-64 128,-112 32,-32 48,-96 64,-176 48,-208 64,-543 64,-1023 0,-432 -16,-767 -32,-1007 -16,-128 -64,-224 -128,-272 -80,-48 -128,-96 -144,-128 -16,-32 -32,-80 -32,-144 0,-112 64,-207 176,-271 112,-64 272,-96 463,-96 448,0 672,128 672,367 0,96 -48,176 -144,240 -80,48 -128,112 -144,208 -16,96 -32,256 -32,512 0,303 48,463 144,463 64,0 144,-48 240,-144l975 -1039 368 -384c80,-79 128,-143 176,-159 16,-16 48,-32 80,-32 -48,-32 -48,-32 -32,-32l0 0zm0 -960c-80,0 -144,16 -176,16 -160,16 -320,80 -464,176 -16,0 -16,16 -32,16 -96,64 -192,160 -336,304l-16 16c-223,-272 -623,-512 -1326,-512 -368,0 -688,80 -944,224 -415,240 -655,640 -655,1103 0,256 64,480 192,672 32,48 80,112 128,160 16,159 16,383 16,703 0,304 -16,512 -16,639 -80,64 -144,144 -192,224 -144,192 -208,432 -208,688 0,479 304,1119 1151,1263 16,0 16,0 32,0 144,16 336,32 592,32 255,0 447,-32 623,-112 144,-64 272,-144 400,-256 160,144 351,240 575,304 112,32 224,48 384,48 80,0 160,0 240,0 32,0 80,0 128,0 287,0 479,-32 655,-96 0,0 16,0 16,0 512,-192 831,-640 831,-1183 0,-96 -16,-176 -32,-272 -48,-240 -159,-432 -335,-608 0,-48 0,-127 0,-207l0 -880c0,-64 0,-128 0,-191 0,-96 0,-224 0,-352 0,-64 0,-112 0,-160 0,-320 -32,-544 -64,-735 -144,-592 -528,-832 -736,-928 -144,-64 -271,-96 -431,-96l0 0zm-1024 2398c0,0 0,0 0,0 0,0 0,0 0,0l0 0z"/>
  </g>
  <path class="fil6" d="M49207 19967c-16,0 -32,0 -64,0 -239,-31 -415,-239 -415,-479 0,-256 -16,-368 -32,-416 -144,-112 -208,-288 -176,-463 48,-224 240,-384 464,-384 16,0 32,0 48,0 879,80 943,671 943,847 0,240 -112,464 -320,608 -80,176 -256,287 -448,287z"/>
  <g>
   <path class="fil4" d="M49000 18705c335,32 495,143 495,367 0,96 -48,176 -144,240 -64,48 -112,96 -144,192 0,-240 -16,-416 -48,-544 -32,-144 -79,-239 -159,-255l0 0zm0 -960c-448,0 -848,320 -944,768 -64,287 16,559 192,783 0,48 0,112 0,208 0,479 368,895 848,943 31,0 79,0 111,0 336,0 656,-176 816,-464 272,-239 431,-559 431,-911 0,-559 -367,-1231 -1375,-1327 -31,0 -63,0 -79,0l0 0z"/>
  </g>
  <path class="fil6" d="M48472 19760c-144,0 -272,-64 -368,-176 -48,-64 -96,-128 -112,-176 -48,-96 -64,-208 -64,-336 0,-256 112,-495 288,-639 160,-128 384,-208 624,-208 32,0 64,0 96,0 239,32 415,224 431,464 0,175 -80,335 -208,415 -16,16 -287,432 -287,432 -80,128 -224,208 -368,224 0,0 -16,0 -32,0z"/>
  <g>
   <path class="fil4" d="M48856 18689c16,0 32,0 48,0 -16,0 -32,16 -48,32 -16,16 -64,79 -112,159l-256 384c-32,-32 -48,-48 -48,-80 -16,-32 -16,-80 -16,-144 0,-112 32,-208 112,-272 64,-47 176,-79 320,-79l0 0zm0 -960c-448,0 -752,176 -928,304 -303,240 -479,608 -479,1023 0,208 32,384 112,544 48,96 112,192 192,288 175,223 447,335 735,335 16,0 32,0 64,0 304,-16 575,-176 751,-431l240 -368c224,-192 352,-464 336,-767 -16,-480 -384,-864 -863,-928 -80,0 -144,0 -160,0l0 0z"/>
  </g>
  <path class="fil7" d="M2270 17841l1471 0c160,0 304,-32 432,-80 48,-16 111,-32 143,-32 144,0 304,128 432,400 144,272 208,544 208,831 0,192 -48,336 -144,432 -80,64 -160,96 -272,96 -96,0 -192,-32 -256,-96 -80,-64 -143,-176 -207,-320 -64,-144 -112,-224 -144,-272 -32,-48 -80,-64 -128,-64 -64,0 -112,32 -144,96 -32,64 -48,176 -48,336l0 1871c0,191 16,335 48,415 32,80 96,160 192,208 96,48 176,96 208,144 32,48 48,112 48,192 0,160 -96,288 -272,351 -176,80 -464,112 -832,112 -463,0 -799,-48 -1023,-143 -192,-80 -287,-192 -287,-368 0,-96 32,-160 95,-208 16,-16 80,-32 192,-80 64,-32 112,-64 144,-144 32,-64 48,-208 64,-400 16,-175 32,-447 48,-847 16,-383 16,-719 16,-1007 0,-208 -16,-336 -32,-432 -32,-80 -64,-128 -128,-128 -80,0 -144,64 -208,192 -128,224 -223,384 -303,448 -96,80 -192,128 -272,128 -96,0 -176,-48 -256,-128 -64,-96 -96,-208 -96,-352 0,-144 32,-288 80,-463 48,-160 128,-320 208,-464 144,-224 288,-336 416,-336 31,0 79,0 127,16 96,32 176,48 240,48 80,48 144,48 240,48z"/>
  <path class="fil8" d="M6778 18673c384,0 720,127 1008,399 191,176 351,416 479,704 112,287 176,575 176,863 0,432 -112,799 -352,1135 -192,288 -463,496 -783,608 -192,79 -400,111 -592,111 -255,0 -511,-64 -751,-191 -288,-160 -511,-400 -671,-704 -160,-304 -240,-639 -240,-1007 0,-432 96,-799 304,-1135 175,-288 415,-512 719,-640 224,-95 464,-143 703,-143zm-207 767c-128,0 -224,64 -304,208 -64,96 -80,224 -80,351 0,208 32,432 96,704 64,272 160,511 256,703 48,96 96,160 175,208 64,48 144,80 208,80 112,0 208,-48 272,-160 64,-96 112,-240 112,-399 0,-224 -32,-448 -80,-704 -64,-256 -128,-464 -224,-639 -64,-112 -128,-192 -192,-256 -96,-48 -159,-80 -239,-96z"/>
  <path class="fil9" d="M11239 19488l-240 272c-96,96 -128,192 -128,271 0,48 16,96 32,128 16,48 64,112 112,176l847 1167c80,112 128,176 160,192 32,32 64,64 128,80 80,48 144,80 176,144 32,48 48,112 48,192 0,192 -112,288 -336,288l-847 0c-64,0 -112,-16 -144,-48 -32,-32 -80,-112 -160,-224 -112,-192 -272,-416 -464,-672 -80,-112 -143,-176 -175,-208 -32,-32 -64,-48 -96,-48 -80,0 -128,96 -128,288 0,160 32,272 80,336 16,16 32,32 80,64 80,64 128,144 128,240 0,112 -64,208 -192,256 -128,47 -352,79 -672,79 -272,0 -479,-16 -607,-63 -48,-16 -96,-48 -128,-96 -32,-48 -48,-96 -48,-160 0,-96 48,-176 128,-240 48,-32 64,-64 80,-112 16,-32 32,-96 48,-192 32,-208 48,-511 48,-943 0,-496 -16,-863 -48,-1071 -16,-80 -32,-144 -48,-192 -16,-32 -64,-80 -112,-112 -80,-64 -128,-144 -128,-240 0,-80 32,-160 80,-207 48,-48 144,-96 256,-112 160,-32 351,-48 575,-48 240,0 416,32 528,80 96,48 160,144 160,271 0,48 0,96 -16,128 -16,32 -64,80 -128,144 -16,32 -48,80 -64,176 -16,96 -32,192 -32,288 0,144 32,224 80,224 32,0 64,-16 96,-48 32,-32 96,-128 191,-272 112,-160 176,-288 176,-336 0,-32 -16,-80 -48,-144 -16,-48 -32,-80 -32,-128 0,-128 64,-223 176,-287 128,-48 320,-80 608,-80 224,0 399,16 511,48 144,48 208,144 208,287 0,64 -16,112 -48,160 -32,48 -64,80 -112,96 -32,16 -112,16 -224,16 -79,0 -143,16 -175,32 -48,32 -96,80 -160,160z"/>
  <path class="fil10" d="M15363 20559l432 1087c48,96 80,160 96,192 32,32 64,48 128,64 112,16 160,80 160,192 0,128 -64,224 -192,287 -128,64 -352,80 -656,80 -335,0 -591,-16 -751,-48 -80,-16 -128,-48 -176,-95 -48,-48 -64,-112 -64,-176 0,-48 16,-96 32,-128 16,-32 64,-64 128,-80 64,-32 112,-80 112,-144 0,-128 -64,-192 -176,-208 -128,-16 -320,-32 -543,-32 -192,0 -320,16 -352,48 -32,16 -48,48 -64,96 -16,48 -32,96 -32,128 0,32 0,64 16,80 16,16 48,32 128,64 96,32 144,96 144,192 0,207 -208,319 -640,319 -240,0 -415,-16 -527,-64 -112,-32 -160,-127 -160,-255 0,-48 16,-96 32,-128 16,-32 64,-64 128,-80 96,-48 176,-96 223,-176 48,-80 128,-240 208,-480l320 -831c112,-304 192,-528 240,-687 32,-144 64,-304 64,-448 0,-160 16,-256 16,-320 16,-64 48,-112 96,-176 96,-128 239,-191 399,-191 144,0 304,63 432,207 144,208 432,784 799,1711zm-1566 352l447 0c80,0 128,-16 128,-64 0,-64 -64,-208 -176,-432 -48,-112 -96,-176 -112,-208 -32,-32 -48,-48 -80,-48 -47,0 -95,64 -127,176 0,16 -32,80 -64,192 -64,176 -96,288 -96,336 -32,16 0,48 80,48z"/>
  <path class="fil11" d="M16642 21167l0 -1423c0,-176 -16,-304 -32,-352 -16,-48 -80,-96 -176,-128 -127,-48 -207,-128 -207,-240 0,-80 32,-144 80,-192 64,-48 143,-64 239,-64 32,0 128,0 272,16l128 0c256,0 400,0 432,0 48,0 192,-15 463,-47 80,-16 160,-16 240,-16 240,0 464,63 656,175 335,208 495,544 495,992 0,367 -112,655 -352,879 -223,208 -479,304 -799,304 -80,0 -176,0 -288,-16 -64,0 -96,-16 -112,-16 -48,0 -63,32 -63,96l0 16 15 447c0,80 16,144 32,192 16,48 64,80 144,128 96,64 144,128 144,208 0,112 -80,208 -224,256 -143,63 -351,95 -607,95 -560,0 -831,-111 -831,-335 0,-48 16,-96 32,-128 16,-32 80,-64 175,-128 48,-32 80,-80 96,-144 32,-48 32,-256 48,-575zm1007 -1775l0 911c0,64 16,112 32,128 48,32 96,32 160,32 96,0 176,-32 256,-96 96,-96 144,-256 144,-479 0,-240 -64,-400 -176,-512 -80,-64 -160,-96 -256,-96 -112,16 -160,48 -160,112z"/>
  <path class="fil12" d="M20367 18689c176,0 336,16 480,48 208,47 304,159 304,303 0,48 -16,96 -32,112 -16,32 -64,64 -160,112 -64,48 -112,128 -144,272 -16,144 -32,416 -32,815 0,688 16,1119 48,1279 16,48 32,96 48,128 16,32 64,64 112,96 96,48 144,128 144,240 0,144 -96,240 -272,304 -192,63 -448,79 -720,79 -495,0 -735,-111 -735,-335 0,-80 48,-160 144,-224 80,-48 112,-128 128,-224 32,-208 48,-639 48,-1311 0,-463 -16,-751 -64,-879 -16,-80 -64,-144 -144,-192 -64,-48 -96,-96 -128,-128 -16,-32 -32,-80 -32,-128 0,-80 32,-144 96,-192 64,-48 176,-79 336,-127 208,-16 383,-48 575,-48z"/>
  <path class="fil13" d="M21806 20031c48,0 96,0 144,16 224,32 400,48 511,48 128,0 208,0 256,-16 64,-16 112,-16 128,-16 64,0 80,48 80,160 0,96 -16,224 -48,368 -32,144 -80,288 -144,432 -48,112 -80,175 -112,207 -32,32 -64,64 -112,64 -31,0 -79,0 -143,-16 -160,-32 -352,-48 -576,-48 -96,0 -176,0 -256,16 -64,0 -112,16 -144,16 -80,0 -111,-48 -111,-159 0,-64 16,-192 63,-368 48,-176 80,-304 128,-384 48,-112 96,-176 128,-224 96,-80 144,-96 208,-96z"/>
  <path class="fil14" d="M26778 20367c-96,-128 -192,-240 -304,-304 -16,-16 -32,-16 -32,-16 0,0 -16,0 -16,-16 -479,-255 -1503,-255 -1503,-255 -63,0 -95,-16 -127,-64 -16,-48 -32,-128 -32,-240l0 -496c0,-112 16,-192 32,-239 32,-48 63,-64 143,-64 128,0 224,64 288,175 32,64 48,320 64,416 496,-96 1215,496 1343,80 0,-48 16,-416 16,-464 0,-303 -96,-559 -272,-735 -112,-112 -240,-192 -399,-240 -144,-48 -352,-80 -592,-80 -112,0 -224,0 -352,0 -415,16 -687,16 -831,16 -192,0 -368,0 -528,-16 -96,0 -175,-16 -239,-16 -112,0 -208,32 -288,96 -80,64 -112,144 -112,240 0,128 64,208 176,272 112,48 176,128 208,208 32,80 48,255 48,511 0,720 -16,1311 -48,1791 -32,319 -48,511 -64,607 -16,96 -64,160 -112,208 -96,80 -160,128 -176,176 -32,32 -32,80 -32,144 0,96 32,176 96,256 64,64 160,96 272,96 48,0 128,0 239,-16 128,-16 320,-16 576,-16l368 0c64,0 207,0 447,16 272,16 448,16 512,16 511,0 879,-176 1151,-528 192,-272 288,-560 288,-879 -16,-240 -80,-464 -208,-640zm-1743 1375c-112,0 -175,-48 -207,-144 -32,-96 -48,-288 -48,-575l0 -320c0,-112 16,-192 48,-224 32,-48 95,-64 175,-64 320,0 480,240 480,736 -32,399 -176,591 -448,591z"/>
  <path class="fil15" d="M27417 18753l1151 0c240,0 400,0 512,-16 112,-16 208,-32 320,-64 32,-16 64,-16 80,-16 80,0 144,48 208,143 95,160 143,368 143,592 0,112 -16,208 -64,272 -48,64 -95,96 -175,96 -48,0 -96,-16 -112,-32 -32,-32 -64,-80 -112,-160 -64,-128 -144,-208 -256,-240 -96,-48 -272,-64 -496,-64 -175,0 -271,32 -319,112 -16,32 -32,96 -32,160 0,64 0,240 0,511 0,112 16,176 48,208 32,32 112,32 239,32 64,0 112,-16 144,-48 32,-32 48,-80 48,-176 16,-111 16,-175 32,-207 16,-32 32,-80 64,-96 32,-32 64,-48 112,-48 64,0 112,32 160,112 32,48 64,144 80,271 16,128 32,272 32,416 0,288 -32,512 -112,703 -48,96 -96,144 -192,144 -48,0 -80,-16 -112,-48 -16,-32 -32,-96 -48,-191 -16,-208 -128,-304 -303,-304 -64,0 -112,32 -144,80 -32,48 -32,144 -32,288 0,79 0,191 16,319 16,128 16,224 32,272 16,48 48,96 112,112 63,16 159,32 303,32 224,0 400,-32 512,-96 112,-64 208,-192 272,-384 48,-112 80,-176 112,-207 32,-32 79,-48 127,-48 64,0 112,32 160,95 48,64 64,144 64,240 0,112 -16,240 -64,400 -48,160 -96,304 -176,432 -32,64 -64,95 -80,127 -16,16 -47,32 -79,32 -32,0 -64,0 -128,-16 -96,-15 -224,-31 -384,-47l-1902 -1c-80,0 -128,-16 -176,-63 -48,-48 -64,-96 -64,-176 0,-48 16,-96 32,-112 16,-16 64,-48 128,-96 48,-16 80,-48 96,-80 16,-32 32,-80 48,-144 48,-272 79,-639 79,-1103 0,-687 -31,-1135 -111,-1311 -16,-32 -32,-64 -48,-80 -16,-16 -48,-32 -112,-48 -80,-32 -128,-96 -128,-208 0,-64 16,-112 48,-160 32,-48 64,-79 112,-95 48,-16 160,-16 335,-16z"/>
  <path class="fil16" d="M30503 21167l0 -1423c0,-176 -16,-304 -32,-352 -16,-48 -80,-96 -176,-128 -128,-48 -208,-128 -208,-240 0,-80 32,-144 80,-192 64,-48 144,-64 240,-64 32,0 128,0 272,16l128 0c255,0 399,0 431,0 48,0 192,-15 464,-47 80,-16 160,-16 240,-16 239,0 463,63 655,175 336,208 496,544 496,992 0,367 -112,655 -352,879 -224,208 -480,304 -799,304 -80,0 -176,0 -288,-16 -64,0 -96,-16 -112,-16 -48,0 -64,32 -64,96l0 16 16 447c0,80 16,144 32,192 16,48 64,80 144,128 96,64 144,128 144,208 0,112 -80,208 -224,256 -144,63 -352,95 -608,95 -559,0 -831,-111 -831,-335 0,-48 16,-96 32,-128 16,-32 80,-64 176,-128 48,-32 80,-80 96,-144 32,-48 48,-256 48,-575zm1007 -1775l0 911c0,64 16,112 32,128 48,32 96,32 160,32 96,0 176,-32 256,-96 96,-96 144,-256 144,-479 0,-240 -64,-400 -176,-512 -80,-64 -160,-96 -256,-96 -96,16 -160,48 -160,112z"/>
  <path class="fil17" d="M33748 18753l1151 0c240,0 400,0 512,-16 112,-16 208,-32 320,-64 32,-16 63,-16 79,-16 80,0 144,48 208,143 96,160 144,368 144,592 0,112 -16,208 -64,272 -48,64 -96,96 -176,96 -48,0 -96,-16 -112,-32 -31,-32 -63,-80 -111,-160 -64,-128 -144,-208 -256,-240 -96,-48 -272,-64 -496,-64 -176,0 -272,32 -320,112 -16,32 -32,96 -32,160 0,64 0,240 0,511 0,112 16,176 48,208 32,32 112,32 240,32 64,0 112,-16 144,-48 32,-32 48,-80 48,-176 16,-111 16,-175 32,-207 16,-32 32,-80 64,-96 32,-32 64,-48 112,-48 64,0 112,32 160,112 32,48 64,144 80,271 16,128 32,272 32,416 0,288 -32,512 -112,703 -48,96 -96,144 -192,144 -48,0 -80,-16 -112,-48 -16,-32 -32,-96 -48,-191 -16,-208 -128,-304 -304,-304 -64,0 -112,32 -144,80 -32,48 -32,144 -32,288 0,79 0,191 16,319 16,128 16,224 32,272 16,48 48,96 112,112 64,16 160,32 304,32 224,0 400,-32 512,-96 112,-64 207,-192 271,-384 48,-112 80,-176 112,-207 32,-32 80,-48 128,-48 64,0 112,32 160,95 48,64 64,144 64,240 0,112 -16,240 -64,400 -48,160 -96,304 -176,432 -32,64 -64,95 -80,127 -16,16 -48,32 -80,32 -32,0 -64,0 -128,-16 -96,-15 -223,-31 -383,-47l-1903 -1c-80,0 -128,-16 -175,-63 -48,-48 -64,-96 -64,-176 0,-48 16,-96 32,-112 16,-16 63,-48 127,-96 48,-16 80,-48 96,-80 16,-32 32,-80 48,-144 48,-272 80,-639 80,-1103 0,-687 -32,-1135 -112,-1311 -16,-32 -32,-64 -48,-80 -16,-16 -48,-32 -111,-48 -80,-32 -128,-96 -128,-208 0,-64 16,-112 48,-160 32,-48 64,-79 111,-95 48,-16 160,-16 336,-16z"/>
  <path class="fil18" d="M44667 19488l-240 272c-96,96 -128,192 -128,271 0,48 16,96 32,128 16,48 64,112 112,176l848 1167c80,112 128,176 159,192 32,32 64,64 128,80 80,48 144,80 176,144 32,64 48,112 48,192 0,192 -112,288 -335,288l-880 0c-64,0 -112,-16 -144,-48 -32,-32 -80,-112 -160,-224 -111,-192 -271,-416 -463,-672 -80,-112 -144,-176 -176,-208 -32,-32 -64,-48 -96,-48 -80,0 -128,96 -128,288 0,160 32,272 80,336 16,16 32,32 80,64 80,64 128,144 128,240 0,112 -64,208 -192,256 -128,47 -352,79 -671,79 -272,0 -480,-16 -608,-63 -48,-16 -96,-48 -128,-96 -32,-48 -48,-96 -48,-160 0,-96 48,-176 128,-240 48,-32 64,-64 80,-112 16,-32 32,-96 48,-192 32,-208 48,-511 48,-943 0,-496 -16,-863 -48,-1071 -16,-80 -32,-144 -48,-192 -16,-32 -64,-80 -112,-112 -80,-64 -128,-144 -128,-240 0,-80 32,-160 80,-207 48,-48 144,-96 256,-112 160,-32 352,-48 576,-48 239,0 415,32 527,80 96,48 160,144 160,271 0,48 0,96 -16,128 -16,32 -64,80 -128,144 -32,32 -48,80 -64,176 -16,96 -32,192 -32,288 0,144 32,224 80,224 32,0 64,-16 96,-48 32,-32 96,-128 192,-272 112,-160 176,-288 176,-336 0,-32 -16,-80 -48,-144 -16,-48 -32,-80 -32,-128 0,-128 64,-223 176,-287 128,-48 319,-80 607,-80 224,0 400,16 512,48 144,48 208,144 208,287 0,64 -16,112 -48,160 -32,48 -64,80 -112,96 -32,16 -112,16 -224,16 -80,0 -144,16 -176,32 -16,32 -80,80 -128,160z"/>
  <path class="fil19" d="M41678 21950c-32,-48 -80,-96 -144,-144 -48,-32 -96,-64 -112,-80 -32,-32 -64,-96 -128,-192l-751 -1167c-48,-80 -80,-144 -112,-176 -16,-48 -32,-96 -32,-128 0,-80 48,-175 128,-271l239 -272c64,-64 112,-112 160,-144 32,-16 96,-32 176,-32 112,0 176,-16 208,-16 48,-16 80,-48 112,-96 32,-48 48,-96 48,-160 0,-144 -48,-240 -192,-288 -112,-31 -272,-47 -512,-47 -287,0 -495,32 -607,79 -128,48 -176,144 -176,288 0,32 16,80 32,128 32,64 48,112 32,144 0,64 -64,176 -176,336 -96,144 -160,240 -192,272 -32,31 -64,47 -96,47 -32,0 -48,-16 -64,-47 0,-128 16,-240 32,-336 16,-80 32,-144 48,-192 16,-32 64,-80 112,-112 80,-64 128,-144 128,-240 0,-80 -32,-160 -80,-208 -48,-48 -112,-80 -208,-111 -111,-48 -271,-64 -479,-64 -16,0 -48,0 -64,0 -16,0 -48,0 -64,0 -208,0 -368,16 -480,64 -96,32 -160,63 -207,111 -48,48 -80,128 -64,208 0,96 48,176 127,240 48,32 96,80 112,112 16,32 32,96 48,192 16,80 32,192 32,336 -16,31 -32,47 -64,47 -32,0 -64,-16 -96,-47 -32,-32 -95,-128 -191,-272 -112,-160 -176,-288 -176,-336 0,-32 16,-80 32,-144 16,-48 32,-80 32,-128 0,-128 -64,-224 -192,-288 -128,-47 -320,-79 -608,-79 -223,0 -399,16 -511,47 -128,48 -192,144 -176,288 0,64 16,112 48,160 32,48 64,80 112,96 32,16 96,16 208,16 80,0 144,16 176,32 47,16 95,64 159,144l256 272c96,96 144,191 144,271 0,48 0,96 -16,128 -16,48 -48,112 -96,176l-719 1167c-64,112 -112,176 -128,192 -32,32 -64,64 -112,80 -64,48 -128,80 -144,144 -32,48 -32,112 -32,192 16,192 128,287 336,287l767 0c48,0 96,-15 128,-47 32,-32 80,-112 128,-224 96,-192 224,-416 400,-672 79,-112 127,-176 159,-208 32,-32 64,-48 80,-48 80,0 128,96 128,288 0,160 -16,272 -64,336 -16,16 -32,32 -64,64 -80,64 -112,144 -112,240 0,64 16,112 48,160 0,0 0,16 16,16 32,47 80,79 128,95 112,32 304,64 544,64 16,0 16,0 32,0 16,0 16,0 32,0 256,0 431,-16 543,-64 48,-16 96,-48 128,-95 0,0 0,-16 16,-16 32,-48 48,-96 48,-160 0,-96 -32,-176 -112,-240 -32,-32 -64,-48 -64,-64 -48,-64 -80,-176 -80,-336 0,-192 48,-288 128,-288 32,0 48,16 80,48 32,32 80,96 160,208 176,256 304,464 416,672 64,128 112,192 144,224 32,32 64,47 128,47l767 0c208,0 320,-95 320,-287 -16,-80 -32,-144 -48,-192z"/>
  <path class="fil20" d="M46170 21774c-32,32 -64,80 -128,112 -64,48 -112,80 -144,112 -32,32 -48,80 -48,144 0,176 128,287 368,319 80,16 240,16 448,16 127,0 207,-16 255,-32 48,-16 128,-80 192,-143l1119 -1184c96,-111 176,-159 224,-159 16,0 16,0 32,0 64,32 -16,895 -96,943 -64,32 -96,64 -128,112 -16,32 -32,96 -32,144 0,143 80,239 256,287 48,16 112,16 192,16 48,0 112,0 176,0 32,0 64,0 80,0 176,0 303,-16 383,-48 144,-48 208,-143 208,-287 0,-32 0,-48 0,-64 -16,-80 -80,-144 -160,-192 -48,-16 -80,-48 -96,-64 -16,-16 -32,-48 -48,-80 -48,-112 -64,-336 -64,-671l0 -880c0,-128 0,-319 0,-559 0,-48 0,-96 0,-144 0,-240 -15,-416 -47,-544 -32,-144 -96,-224 -160,-256 -16,0 -32,-16 -48,-16 -16,0 -32,0 -48,0 -32,0 -64,16 -80,32 -32,16 -96,80 -176,160l-368 384 -975 1039c-96,96 -176,144 -240,144 -96,0 -144,-160 -144,-464 0,-255 16,-415 32,-511 32,-96 80,-160 144,-208 96,-64 144,-144 144,-240 0,-256 -224,-367 -671,-367 -208,0 -368,31 -464,95 -112,64 -176,160 -176,272 0,64 16,112 32,144 16,32 64,80 144,128 64,48 112,144 128,272 32,240 32,559 32,1007 0,464 -16,799 -64,1023 64,112 48,176 16,208z"/>
  <path class="fil21" d="M49000 18705c335,32 495,143 495,367 0,96 -48,176 -144,240 -64,48 -112,96 -144,192 0,-240 -16,-416 -48,-544 -32,-144 -79,-239 -159,-255z"/>
  <path class="fil22" d="M48408 19056c0,-112 32,-208 112,-272 80,-63 192,-95 336,-95 16,0 32,0 48,0 -16,0 -32,16 -48,32 -16,16 -64,79 -112,159l-256 384c-32,-32 -48,-48 -48,-80 -32,-16 -32,-64 -32,-128z"/>
 </g>
</svg>
