<?xml version="1.0" encoding="UTF-8"?>
<!DOCTYPE svg PUBLIC "-//W3C//DTD SVG 1.1//EN" "http://www.w3.org/Graphics/SVG/1.1/DTD/svg11.dtd">
<!-- Creator: CorelDRAW X7 -->
<svg xmlns="http://www.w3.org/2000/svg" xml:space="preserve" width="500px" height="270px" version="1.1" shape-rendering="geometricPrecision" text-rendering="geometricPrecision" image-rendering="optimizeQuality" fill-rule="evenodd" clip-rule="evenodd"
viewBox="0 0 413807 223165"
 xmlns:xlink="http://www.w3.org/1999/xlink">
 <g id="Слой_x0020_1">
  <metadata id="CorelCorpID_0Corel-Layer"/>
  <path fill="#840B55" fill-rule="nonzero" d="M130104 45985c16917,-10929 35074,-19726 53968,-26625 -3295,8991 -7577,17576 -12053,26044 -6996,1841 -14146,2965 -21355,3391 4592,3527 9728,6221 15037,8546 -2402,3624 -4844,7208 -7441,10677 -7887,1880 -15890,3120 -23990,3139 5019,3798 10522,6860 16317,9341 -1299,2383 -1900,5561 -4535,6879 -10793,4398 -22440,5891 -33834,7829 6530,5232 14282,8797 22614,10018 -5173,6589 -9979,14146 -17653,18079 -13274,2907 -26470,-5174 -39648,-1744 -11045,8779 -16684,22808 -20075,36160 -6802,4166 -13778,8003 -20754,11820 8023,-19591 16045,-39434 28098,-56990 16937,-26316 39299,-49162 65304,-66564z"/>
  <path fill="#840B55" fill-rule="nonzero" d="M155 43118c36315,174 72610,154 108924,19 -7751,7422 -14747,15638 -22905,22595 -20947,1065 -42030,58 -63017,465 136,38329 39,76659 58,114988 38136,-58 76272,-39 114408,0 329,-19067 -311,-38136 271,-57184 7073,-10425 15832,-19630 23312,-29784 77,36450 77,72880 0,109330 -53736,504 -107471,97 -161205,193 213,-53540 -97,-107081 154,-160622z"/>
  <polygon fill="#840B55" fill-rule="nonzero" points="413807,5814 235839,5814 235839,0 413807,0 "/>
  <polygon fill="#840B55" fill-rule="nonzero" points="413807,223165 235839,223165 235839,217351 413807,217351 "/>
  <path fill="#840B55" fill-rule="nonzero" d="M256988 67272l0 -43509c0,-1001 479,-1501 1436,-1501l15506 0c2040,0 3947,386 5718,1156 1772,772 3303,1813 4595,3127 1291,1312 2301,2855 3032,4625 730,1773 1093,3637 1093,5595 0,1918 -363,3751 -1093,5502 -731,1750 -1730,3282 -3002,4594 -1271,1313 -2781,2356 -4530,3127 -1753,771 -3626,1155 -5628,1155l-11751 0 0 16129c0,918 -459,1376 -1376,1376l-2624 0c-918,0 -1376,-458 -1376,-1376zm26006 -30569l0 0c0,-1209 -242,-2365 -719,-3469 -481,-1105 -1126,-2074 -1937,-2907 -814,-834 -1774,-1500 -2877,-2001 -1105,-500 -2282,-750 -3531,-750l-11566 0 0 18254 11566 0c1249,0 2414,-250 3501,-750 1082,-500 2040,-1166 2874,-2000 832,-835 1489,-1803 1970,-2908 477,-1104 719,-2260 719,-3469z"/>
  <path fill="#840B55" fill-rule="nonzero" d="M311251 67085l0 -2938c-918,1418 -2085,2626 -3501,3626 -1419,1000 -3398,1499 -5938,1499 -2169,0 -4169,-406 -6003,-1218 -1835,-812 -3417,-1938 -4750,-3376 -1336,-1438 -2367,-3126 -3096,-5063 -730,-1939 -1093,-4011 -1093,-6220 0,-2209 363,-4283 1093,-6221 729,-1938 1751,-3625 3062,-5064 1314,-1437 2888,-2572 4722,-3407 1834,-833 3855,-1250 6065,-1250 1291,0 2415,149 3374,444 960,295 1813,685 2564,1169 749,485 1406,1044 1968,1677 564,633 1073,1287 1533,1960l250 -3166c42,-506 166,-896 374,-1172 209,-274 583,-411 1125,-411l1813 0c458,0 844,135 1157,406 313,271 470,656 470,1157l0 27755c0,418 -157,752 -470,1002 -313,249 -699,374 -1157,374l-1999 0c-1044,0 -1563,-520 -1563,-1563zm-19193 -13659l0 0c0,1454 228,2825 688,4114 459,1289 1114,2420 1969,3397 854,977 1885,1746 3095,2306 1209,560 2541,842 4002,842 1499,0 2831,-270 4000,-810 1166,-540 2156,-1278 2968,-2214 813,-935 1428,-2046 1845,-3334 416,-1288 626,-2679 626,-4176 0,-1455 -210,-2837 -626,-4146 -417,-1308 -1020,-2451 -1813,-3428 -793,-976 -1771,-1755 -2939,-2337 -1166,-582 -2520,-873 -4061,-873 -1503,0 -2858,281 -4065,842 -1209,561 -2229,1329 -3062,2306 -836,976 -1480,2109 -1939,3397 -460,1289 -688,2661 -688,4114z"/>
  <path fill="#840B55" fill-rule="nonzero" d="M329880 39398l189 2812c500,-576 1147,-1153 1941,-1730 794,-576 1671,-1091 2633,-1544 961,-453 1964,-824 3010,-1113 1045,-287 2026,-432 2945,-432 1798,0 3427,343 4890,1031 1465,688 2706,1615 3732,2782 1022,1168 1805,2542 2350,4126 541,1584 814,3293 814,5127l0 16628c0,500 -148,885 -443,1156 -295,273 -653,407 -1075,407l-2593 0c-589,0 -968,-125 -1137,-377 -168,-249 -251,-625 -251,-1127l0 -16732c0,-1043 -178,-2037 -534,-2975 -354,-941 -865,-1755 -1531,-2446 -668,-688 -1468,-1241 -2405,-1659 -939,-418 -2014,-628 -3221,-628 -1043,0 -2104,189 -3189,566 -1084,375 -2063,875 -2938,1502 -875,627 -1594,1338 -2156,2131 -562,793 -844,1608 -844,2444l0 17924c0,918 -460,1377 -1375,1377l-2563 0c-959,0 -1438,-459 -1438,-1377l0 -27873c0,-460 134,-803 405,-1033 272,-228 594,-343 969,-343l2377 0c874,0 1354,459 1438,1376z"/>
  <path fill="#840B55" fill-rule="nonzero" d="M361198 48644l19882 0c375,0 696,115 969,347 269,233 405,580 405,1044l0 2655c0,380 -125,717 -375,1012 -250,295 -585,443 -999,443l-19882 0c-999,0 -1498,-484 -1498,-1455l0 -2655c0,-927 499,-1391 1498,-1391z"/>
  <path fill="#840B55" fill-rule="nonzero" d="M254051 131282l0 -43572c0,-1001 478,-1501 1436,-1501l14317 0c3291,0 6355,605 9189,1813 2834,1209 5292,2856 7377,4939 2083,2084 3721,4543 4907,7377 1189,2835 1781,5876 1781,9127 0,3168 -604,6157 -1813,8970 -1207,2814 -2865,5274 -4969,7378 -2105,2104 -4574,3761 -7407,4969 -2835,1209 -5855,1813 -9065,1813l-14317 0c-416,0 -760,-93 -1029,-282 -273,-187 -407,-530 -407,-1031zm5376 -4000l0 0 10752 0c2583,0 4949,-500 7096,-1501 2146,-1000 3990,-2345 5532,-4032 1542,-1688 2749,-3626 3626,-5814 876,-2188 1311,-4470 1311,-6845 0,-2666 -477,-5085 -1436,-7252 -960,-2167 -2262,-4011 -3908,-5533 -1647,-1521 -3554,-2697 -5719,-3531 -2169,-834 -4462,-1251 -6877,-1251l-10377 0 0 35759z"/>
  <path fill="#840B55" fill-rule="nonzero" d="M296434 117342c0,-2208 416,-4292 1251,-6252 834,-1958 1970,-3667 3408,-5126 1438,-1458 3134,-2604 5094,-3438 1959,-833 4042,-1251 6253,-1251 2206,0 4291,418 6250,1251 1959,834 3665,1980 5127,3438 1457,1459 2603,3168 3438,5126 833,1960 1251,4044 1251,6252 0,2209 -418,4292 -1251,6251 -835,1960 -1981,3657 -3438,5094 -1462,1438 -3168,2575 -5127,3409 -1959,833 -4044,1249 -6250,1249 -2211,0 -4294,-416 -6253,-1249 -1960,-834 -3656,-1971 -5094,-3409 -1438,-1437 -2574,-3134 -3408,-5094 -835,-1959 -1251,-4042 -1251,-6251zm5064 0l0 0c0,1499 291,2917 876,4251 583,1334 1364,2500 2345,3501 978,999 2134,1792 3468,2375 1335,585 2750,875 4253,875 1498,0 2916,-290 4250,-875 1332,-583 2502,-1376 3501,-2375 999,-1001 1790,-2167 2374,-3501 585,-1334 877,-2752 877,-4251 0,-1501 -292,-2917 -877,-4251 -584,-1333 -1375,-2511 -2374,-3532 -999,-1021 -2169,-1823 -3501,-2407 -1334,-584 -2752,-876 -4250,-876 -1503,0 -2918,292 -4253,876 -1334,584 -2490,1386 -3468,2407 -981,1021 -1762,2199 -2345,3532 -585,1334 -876,2750 -876,4251z"/>
  <path fill="#840B55" fill-rule="nonzero" d="M340068 103258l314 2282c542,-948 1374,-1874 2500,-2780 1126,-906 2646,-1359 4563,-1359 708,0 1408,102 2095,309 687,206 1311,443 1875,711 564,267 1022,545 1376,833 354,289 532,535 532,742 0,81 -42,247 -125,494l-1563 2912c-250,417 -523,625 -814,625 -209,0 -366,-41 -470,-125 -103,-83 -196,-146 -280,-188 -416,-250 -938,-469 -1563,-656 -624,-188 -1230,-301 -1813,-344 -918,0 -1771,251 -2562,752 -793,502 -1461,1140 -2002,1911 -541,774 -969,1651 -1281,2633 -312,982 -468,1953 -468,2913l0 16294c0,919 -459,1378 -1377,1378l-2562 0c-958,0 -1439,-457 -1439,-1375l0 -27944c0,-416 136,-750 407,-1000 271,-250 594,-375 969,-375l2250 0c458,0 803,133 1033,401 228,267 364,587 405,956z"/>
  <path fill="#840B55" fill-rule="nonzero" d="M376765 131032l0 -2938c-916,1417 -2085,2626 -3501,3626 -1417,1000 -3397,1500 -5938,1500 -2169,0 -4167,-406 -6002,-1219 -1834,-812 -3418,-1938 -4750,-3376 -1337,-1437 -2366,-3125 -3097,-5063 -728,-1939 -1093,-4011 -1093,-6220 0,-2208 365,-4283 1093,-6221 731,-1938 1753,-3625 3064,-5063 1314,-1438 2886,-2573 4722,-3408 1832,-832 3853,-1249 6063,-1249 1291,0 2417,148 3376,443 958,295 1813,685 2562,1169 750,485 1408,1045 1968,1677 564,633 1075,1287 1533,1961l250 -3167c42,-506 167,-896 374,-1172 209,-274 584,-411 1126,-411l1814 0c458,0 843,135 1156,406 314,271 469,656 469,1157l0 27756c0,418 -155,751 -469,1000 -313,250 -698,375 -1156,375l-2001 0c-1042,0 -1563,-520 -1563,-1563zm-19192 -13659l0 0c0,1455 229,2826 688,4114 458,1289 1113,2420 1969,3397 855,977 1885,1746 3095,2307 1208,560 2540,841 4001,841 1499,0 2833,-270 4000,-810 1166,-541 2158,-1278 2970,-2213 812,-935 1429,-2047 1845,-3334 416,-1289 624,-2680 624,-4177 0,-1454 -208,-2837 -624,-4145 -416,-1309 -1022,-2452 -1813,-3428 -793,-977 -1771,-1755 -2939,-2338 -1168,-582 -2522,-873 -4063,-873 -1500,0 -2855,281 -4065,843 -1207,560 -2229,1329 -3062,2305 -834,977 -1480,2109 -1938,3397 -459,1289 -688,2661 -688,4114z"/>
  <path fill="#840B55" fill-rule="nonzero" d="M244425 151532l0 20254c1332,41 2758,-375 4280,-1250 1521,-875 3010,-2376 4470,-4501l3625 -5188c1083,-1542 2095,-2969 3032,-4283 938,-1313 1937,-2447 3001,-3406 1063,-960 2252,-1709 3563,-2251 1313,-541 2865,-813 4657,-813 708,0 1064,375 1064,1125l0 2751c-42,335 -156,635 -345,906 -187,272 -469,407 -844,407 -1124,83 -2428,604 -3905,1563 -1480,959 -2971,2479 -4470,4562l-4252 5939c-460,584 -906,1187 -1344,1814 -437,625 -887,1209 -1345,1750 3501,4084 6992,8117 10472,12097 3478,3980 6886,8075 10221,12283 208,251 335,407 376,469 40,63 61,137 61,220 0,83 -61,198 -186,343 -124,147 -293,219 -501,219l-5376 0c-334,0 -648,-156 -939,-469 -292,-313 -604,-697 -937,-1156 -2875,-3376 -5720,-6752 -8532,-10128 -2814,-3376 -5637,-6752 -8470,-10127 -962,584 -2063,1085 -3315,1500 -1250,417 -2605,709 -4061,875l0 18129c0,918 -461,1376 -1379,1376l-2624 0c-918,0 -1376,-458 -1376,-1376l0 -43634c0,-917 458,-1375 1376,-1375l2624 0c918,0 1379,458 1379,1375z"/>
  <path fill="#840B55" fill-rule="nonzero" d="M301748 194979l0 -2938c-916,1417 -2084,2626 -3501,3626 -1416,1000 -3395,1500 -5939,1500 -2167,0 -4167,-406 -6000,-1219 -1834,-812 -3418,-1938 -4752,-3376 -1334,-1437 -2365,-3126 -3094,-5063 -729,-1939 -1094,-4011 -1094,-6220 0,-2209 365,-4283 1094,-6221 729,-1939 1750,-3626 3064,-5064 1313,-1437 2884,-2573 4719,-3407 1832,-832 3853,-1250 6063,-1250 1291,0 2419,149 3376,444 958,295 1813,685 2563,1169 751,485 1408,1044 1970,1677 562,633 1073,1287 1531,1961l249 -3168c42,-506 167,-896 377,-1171 208,-274 583,-411 1126,-411l1813 0c458,0 844,135 1154,406 314,271 470,656 470,1157l0 27755c0,419 -156,751 -470,1001 -310,250 -696,375 -1154,375l-2002 0c-1041,0 -1563,-520 -1563,-1563zm-19191 -13659l0 0c0,1454 229,2825 687,4114 458,1288 1114,2420 1970,3396 853,978 1885,1747 3094,2307 1207,560 2541,841 4000,841 1501,0 2835,-269 4001,-809 1168,-541 2157,-1278 2971,-2213 812,-935 1427,-2047 1843,-3335 416,-1289 625,-2680 625,-4176 0,-1455 -209,-2837 -625,-4145 -416,-1309 -1022,-2452 -1813,-3429 -791,-976 -1771,-1755 -2937,-2337 -1169,-583 -2522,-873 -4065,-873 -1498,0 -2853,281 -4063,842 -1209,561 -2231,1329 -3063,2306 -833,976 -1480,2109 -1938,3397 -458,1288 -687,2660 -687,4114z"/>
  <path fill="#840B55" fill-rule="nonzero" d="M338694 177537l0 -10564c0,-709 375,-1063 1126,-1063l3189 0c333,0 625,93 874,281 250,187 375,448 375,782l0 28507c0,708 -416,1062 -1249,1062l-3189 0c-751,0 -1126,-354 -1126,-1062l0 -12379 -16127 0 0 12379c0,708 -418,1062 -1252,1062l-3187 0c-749,0 -1124,-354 -1124,-1062l0 -28507c0,-334 102,-595 311,-782 207,-188 480,-281 813,-281l3251 0c791,0 1188,354 1188,1063l0 10564 16127 0z"/>
  <path fill="#840B55" fill-rule="nonzero" d="M379205 196542l-24253 0c-712,0 -1066,-354 -1066,-1062l0 -28507c0,-751 402,-1125 1200,-1125l3100 0c337,0 621,113 853,342 233,229 348,510 348,842l0 24009 15817 0 0 -24009c0,-332 104,-613 316,-842 210,-229 485,-342 821,-342l3163 0c800,0 1201,373 1201,1122l0 24195 2922 0c719,0 1079,359 1079,1075l0 9678c0,666 -360,1000 -1075,1000l-3414 0c-675,0 -1012,-355 -1012,-1062l0 -5314z"/>
 </g>
</svg>
