<?xml version="1.0" encoding="UTF-8"?>
<!DOCTYPE svg PUBLIC "-//W3C//DTD SVG 1.1//EN" "http://www.w3.org/Graphics/SVG/1.1/DTD/svg11.dtd">
<!-- Creator: CorelDRAW X7 -->
<svg xmlns="http://www.w3.org/2000/svg" xml:space="preserve" width="300px" height="80px" version="1.1" style="shape-rendering:geometricPrecision; text-rendering:geometricPrecision; image-rendering:optimizeQuality; fill-rule:evenodd; clip-rule:evenodd"
viewBox="0 0 186713 49763"
 xmlns:xlink="http://www.w3.org/1999/xlink">
 <defs>
  <style type="text/css">
   <![CDATA[
    .fil0 {fill:#2B2A29;fill-rule:nonzero}
    .fil2 {fill:url(#id0)}
    .fil5 {fill:url(#id1)}
    .fil3 {fill:url(#id2)}
    .fil4 {fill:url(#id3)}
    .fil6 {fill:url(#id4)}
    .fil1 {fill:url(#id5)}
    .fil7 {fill:url(#id6)}
   ]]>
  </style>
  <linearGradient id="id0" gradientUnits="userSpaceOnUse" x1="59014.7" y1="40257.9" x2="59014.7" y2="18589">
   <stop offset="0" style="stop-opacity:1; stop-color:#C72B27"/>
   <stop offset="1" style="stop-opacity:1; stop-color:#C22C28"/>
  </linearGradient>
  <linearGradient id="id1" gradientUnits="userSpaceOnUse" xlink:href="#id0" x1="10024.5" y1="48154.5" x2="10024.5" y2="41266.3">
  </linearGradient>
  <linearGradient id="id2" gradientUnits="userSpaceOnUse" xlink:href="#id0" x1="44229.7" y1="48154.5" x2="44229.7" y2="1331.17">
  </linearGradient>
  <linearGradient id="id3" gradientUnits="userSpaceOnUse" xlink:href="#id0" x1="14433.6" y1="33262.8" x2="14433.6" y2="15611.7">
  </linearGradient>
  <linearGradient id="id4" gradientUnits="userSpaceOnUse" xlink:href="#id0" x1="63173.8" y1="13091.5" x2="63173.8" y2="1331.17">
  </linearGradient>
  <linearGradient id="id5" gradientUnits="userSpaceOnUse" xlink:href="#id0" x1="129702" y1="4950.03" x2="136837" y2="4950.03">
  </linearGradient>
  <linearGradient id="id6" gradientUnits="userSpaceOnUse" xlink:href="#id0" x1="10686" y1="34029" x2="10686" y2="1331.17">
  </linearGradient>
 </defs>
 <g id="Слой_x0020_1">
  <metadata id="CorelCorpID_0Corel-Layer"/>
  <path class="fil0" d="M112540 11626l6493 0 0 2684c838,-1274 1762,-2201 2775,-2782 1013,-580 2247,-870 3705,-870l537 0 0 6912c-1685,0 -3129,467 -4334,1400 -916,742 -1485,1582 -1708,2520 -223,939 -333,2207 -333,3803l0 16037 -7135 0 0 -29704z"/>
  <polygon class="fil1" points="129702,8196 136837,8196 136837,1703 129702,1703 "/>
  <polygon class="fil0" points="129702,11626 136837,11626 136837,41330 129702,41330 "/>
  <path class="fil0" d="M142034 11626l6598 0 0 2729c907,-1193 2091,-2108 3553,-2743 1461,-636 3012,-954 4653,-954 1544,0 3071,327 4580,980 1510,653 2806,1559 3887,2717 358,358 607,641 747,850 725,1022 1257,2097 1594,3227 336,1131 548,2245 635,3340 87,1096 131,2482 131,4158l0 15400 -7134 0 0 -14002c0,-1642 -72,-3043 -216,-4205 -144,-1161 -486,-2174 -1027,-3038 -479,-760 -1151,-1360 -2014,-1801 -863,-441 -1761,-662 -2693,-662 -985,0 -1944,238 -2877,714 -933,476 -1635,1111 -2106,1906 -505,882 -828,1943 -967,3183 -139,1239 -209,2720 -209,4440l0 13465 -7135 0 0 -29704z"/>
  <polygon class="fil0" points="175285,17949 171803,17949 171803,11626 175285,11626 175285,0 182420,0 182420,11626 186713,11626 186713,17949 182420,17949 182420,41330 175285,41330 "/>
  <path class="fil0" d="M85539 22021c764,-1360 1813,-2432 3149,-3219 1335,-787 2818,-1180 4450,-1180 1571,0 3009,402 4313,1206 1306,804 2333,1882 3084,3232 750,1351 1126,2804 1126,4360 0,1634 -380,3132 -1139,4496 -759,1363 -1814,2441 -3162,3232 -1348,791 -2847,1187 -4496,1187 -978,0 -1977,-206 -2998,-617 -1021,-410 -1916,-957 -2684,-1638 -1859,-1661 -2788,-3864 -2788,-6608 0,-1608 382,-3092 1145,-4451zm-713 27742l0 -11645c2277,2787 5297,4181 9059,4181 2103,0 4075,-422 5917,-1264 1841,-842 3434,-2001 4778,-3477 1344,-1475 2383,-3175 3116,-5101 733,-1924 1099,-3921 1099,-5990 0,-4462 -1379,-8124 -4136,-10988 -1013,-1141 -2073,-2066 -3182,-2776 -1108,-710 -2288,-1228 -3541,-1555 -1252,-327 -2603,-490 -4051,-490 -4163,0 -7379,1607 -9648,4821l0 -3853 -6546 0 0 38137 7135 0z"/>
  <path class="fil2" d="M64719 26019l-5910 6235 -8949 8005 18309 0 0 -21670c-467,2572 -1615,5048 -3450,7430l0 0z"/>
  <path class="fil3" d="M28502 1331l0 31932 4964 0 0 8003 -4964 0 0 6888 9539 0 0 -7895 16209 -15062c1209,-1126 2204,-2133 2985,-3016l0 0c781,-884 1430,-1885 1946,-3002l0 0c518,-1117 776,-2326 776,-3629l0 0c0,-1303 -286,-2476 -860,-3521l0 0c-574,-1044 -1373,-1864 -2397,-2458l0 0c-1024,-595 -2182,-892 -3474,-892l0 0c-1531,0 -2846,377 -3948,1132l0 0c-1101,755 -1926,1807 -2473,3156l0 0c-549,1349 -823,2867 -823,4553l0 0 -8453 0 0 -1723c0,-2046 393,-4006 1179,-5878l0 0c786,-1871 1879,-3523 3281,-4956l0 0c1400,-1431 3021,-2546 4862,-3342l0 0c239,-104 481,-200 725,-290l0 0 -19074 0z"/>
  <polygon class="fil4" points="20049,33263 20049,15612 8818,33263 "/>
  <polygon class="fil5" points="0,48154 20049,48154 20049,41266 0,41266 "/>
  <path class="fil6" d="M68169 13092l0 -11761 -9991 0c855,299 1685,665 2485,1112l0 0c2404,1345 4297,3204 5677,5576l0 0c916,1575 1521,3267 1829,5073z"/>
  <polygon class="fil7" points="0,1331 0,34029 21372,1331 "/>
 </g>
</svg>
