<?xml version="1.0" encoding="UTF-8"?>
<!DOCTYPE svg PUBLIC "-//W3C//DTD SVG 1.1//EN" "http://www.w3.org/Graphics/SVG/1.1/DTD/svg11.dtd">
<!-- Creator: CorelDRAW X7 -->
<svg xmlns="http://www.w3.org/2000/svg" xml:space="preserve" width="240px" height="85px" version="1.1" style="shape-rendering:geometricPrecision; text-rendering:geometricPrecision; image-rendering:optimizeQuality; fill-rule:evenodd; clip-rule:evenodd"
viewBox="0 0 528014 187907"
 xmlns:xlink="http://www.w3.org/1999/xlink">
 <defs>
  <style type="text/css">
   <![CDATA[
    .fil1 {fill:#E50A7F}
    .fil3 {fill:#88898A}
    .fil0 {fill:#2A2928}
    .fil2 {fill:#201E21}
   ]]>
  </style>
 </defs>
 <g id="Слой_x0020_1">
  <metadata id="CorelCorpID_0Corel-Layer"/>
  <g id="_2888938819728">
   <path class="fil0" d="M0 81616l0 567c489,1008 938,4043 3555,5776 2461,1632 3198,1265 6790,-117 2115,-811 12090,-4753 13509,-4911 169,1520 39,12527 39,15040 0,4945 -475,9334 -904,14175 -1211,13660 -2253,27944 -4085,41438 -473,3495 -249,17386 -223,22511 13,2331 1078,3518 3074,4544 3362,1726 8252,2617 12498,2934 -158,-17233 -904,-34521 -995,-51738 -47,-8404 265,-17254 499,-25681 236,-8596 135,-17324 509,-25892 977,-361 10857,-1741 12767,-2037 12925,-2001 27814,-3121 40180,715 8162,2531 13294,6709 16771,12839 907,1600 1211,3820 1640,5761 1860,8424 -2921,22105 -7939,28518 -2240,2866 -4396,4615 -8154,6647 -3219,1741 -6543,3256 -10524,4285 -5415,1398 -14931,1606 -20637,577l-18356 -3911c-2476,44 -1946,3383 -1198,4875 2147,4277 9708,6891 14321,8047 4919,1232 7779,1508 12997,842 12772,-1626 25886,-9211 35049,-16921 660,-556 1231,-995 1954,-1666l5758 -5423c11249,-12389 22243,-31013 4415,-43626 -5226,-3698 -14458,-6813 -22420,-7395 -1091,-78 -2365,-34 -3440,-166 -5748,-702 -3901,-660 -10444,-660 -11282,0 -16861,535 -27874,1657 -4446,455 -9339,1172 -13772,1391 -361,-1736 -1759,-5078 -2931,-6239 -1478,-1466 -4552,-2243 -7179,-2009l-13 9716c-4628,322 -9378,836 -14012,1291 -2918,286 -6784,873 -9349,2159 -1871,939 -889,881 -1876,2087z"/>
   <path class="fil0" d="M528014 151937l0 -393 -499 -621c-3453,247 -4389,-21 -7928,-1837 -9986,-5132 -20429,-14328 -29114,-21604 -2284,-1912 -4401,-4002 -6527,-6067 -462,-450 -831,-767 -1299,-1222 -723,-706 -1985,-1845 -2547,-2679 14019,-52 31045,-3347 39692,-14538 2284,-2957 4875,-8900 3716,-13894 -1083,-4660 -4888,-7284 -8952,-9152 -2853,-1310 -12202,-1817 -15986,-2074 -4591,-312 -21414,-413 -26107,340 -2084,336 -5937,1162 -7896,1183 -829,-1793 -4974,-6166 -8357,-4563 -164,533 -484,1990 -481,2520 18,3851 2726,2656 -10885,4366 -1827,229 -3591,470 -5223,1096 -730,278 -1531,673 -2040,1110 -1569,1341 686,5163 3191,5168 889,3 11909,-4311 14424,-4838 -405,13005 -1270,26039 -1748,39074 -237,6371 -593,12935 -879,19389 -179,4067 -1013,5798 2178,7601 1881,1063 6122,2534 7876,730 208,-2136 -166,-6023 -250,-8325 -262,-7307 -44,-18619 200,-25824 377,-11187 570,-22498 1089,-33679 2336,-972 11683,-2432 14606,-2651 9529,-717 21342,328 29480,5083 4506,2632 6985,5519 6042,10711 -1557,8583 -10989,14060 -18764,16196 -9484,2604 -16581,320 -24174,447 -3056,50 -4516,1328 -6122,2612 595,1200 13697,12423 14752,13270 10485,8422 20796,16836 31928,24452l6179 4215c831,540 1354,1180 2551,759 1638,-577 4927,-3145 6245,-4314 834,-746 933,-1180 1629,-2047z"/>
   <path class="fil0" d="M235592 71560c-10,930 -200,1364 -111,2391l655 7857c142,1032 376,1297 400,2453l132 8355c81,7332 473,14943 325,22206l-450 33393c-31,1554 50,2760 1757,3896 1442,958 2731,839 4620,600l-772 -11267 10423 -4722c637,580 587,899 1912,2038 6512,5602 15267,11856 22412,16963 1929,1377 2958,2824 5437,1444 1078,-600 1403,-1109 2143,-1787 1276,-1170 2432,-2981 2432,-5447 -2232,151 -2686,353 -4864,-307 -3682,-1114 -8422,-5358 -11431,-8099 -2453,-2237 -9053,-7759 -10097,-9648 2307,-1442 4537,-2838 6917,-4259 5771,-3448 8398,-4755 12041,-10321 943,-1440 356,-2833 3,-4488 -400,-1889 -829,-2754 -2004,-3656 -551,333 -11880,12143 -13683,14037 -2926,3071 -6892,7070 -10600,9401 -2559,1609 -7543,4270 -11038,4974 359,-12439 1240,-25146 1868,-37574 317,-6255 624,-12512 938,-18746 219,-4337 492,-5529 -2206,-7616 -1325,-1026 -3292,-2055 -5062,-2341 -1330,-216 -1026,-68 -2097,270z"/>
   <path class="fil0" d="M404146 118881c8879,-769 18099,3017 19302,12486 707,5550 -1338,9066 -4085,11659 -3417,3228 -6470,4051 -11329,4594 -8438,944 -17881,-4524 -19318,-12542 -418,-2324 -202,-4938 718,-6868 917,-1931 1743,-3854 3037,-4997 3030,-2671 6471,-3880 11675,-4332zm3212 -5090c-7029,397 -12605,1998 -17257,5321 -9349,6684 -14824,23254 -4648,29782 5672,3638 11664,3310 19096,2991 10867,-468 23615,-7967 26718,-18377 920,-3087 1172,-6774 -44,-9765 -3150,-7751 -15895,-10402 -23865,-9952z"/>
   <path class="fil0" d="M313901 111943c-6229,528 -10797,2258 -15202,5054 -2359,1500 -3422,2887 -4661,5418 -1331,2718 -1661,5322 447,7367 1743,1691 3879,2528 6847,3235 2850,681 5852,1031 8887,1120 3300,93 6839,-198 10092,-3 2939,180 4792,2323 5501,4787 736,2544 535,6041 -1494,7951 -1419,1333 -5665,1933 -8105,1926 -7850,-21 -13392,-2308 -20052,-5099 -788,-330 -2809,-1535 -3467,-1065 -927,665 -1018,2853 -540,4129 636,1694 2523,2843 4059,3495 13338,5688 39988,761 39403,-14022 -374,-9526 -26122,-7982 -32299,-10721 -790,-351 -987,-382 -1232,-1299 -434,-1640 -912,-2448 50,-3937 1174,-1816 3692,-2861 6408,-3679 5667,-1708 11963,-712 17565,618 5491,1302 6195,3097 6853,3274 2128,572 875,-5121 -757,-6860 -1055,-1120 -2081,-948 -3884,-1128 -4010,-400 -10698,-875 -14419,-561z"/>
   <path class="fil0" d="M186600 140189c-140,-4168 3586,-21729 2277,-24951 -250,-616 -1752,-1975 -2313,-2261 -1122,-569 -2500,-790 -3890,-836 -1666,-58 -2949,-89 -2136,1660 582,1247 377,2783 377,4329l0 27879c-3,1775 -44,2521 1128,3459 865,691 2718,870 3804,348 844,-408 1112,-2037 1507,-3058 442,-1146 891,-2266 1385,-3345 3155,-6893 9152,-17966 15297,-21868 2256,-1435 4823,-1721 6925,-52 1723,1366 2368,3380 3350,5945 1663,4342 1060,2544 2008,7138l3134 15438c437,2177 16,4084 5621,2182 1026,-348 2359,-842 3237,-1335 962,-538 2277,-1305 1422,-2617 -762,-1169 -1466,-855 -2263,-2313 -302,-545 -497,-1010 -728,-1616 -1710,-4451 -3001,-11844 -4168,-16791 -993,-4220 -2739,-11330 -6010,-12582 -1801,-689 -6387,28 -8149,587 -6424,2037 -11171,7543 -14986,12889 -1624,2276 -3807,6044 -5171,8692 -449,870 -1076,2458 -1658,3079z"/>
   <path class="fil1" d="M135558 112133c3750,473 5026,-1702 6211,-2625 2323,-1806 3170,-5152 5048,-6413 208,7167 2014,14092 2170,21344 164,7645 -291,15591 70,23140 333,7042 1770,13629 3093,20286 480,2422 3497,18962 3934,19635 -193,-681 -333,-4382 -494,-5579 -1702,-12671 -5423,-25705 -5483,-38588 -39,-8204 694,-16402 -442,-24496 -382,-2729 -2182,-14697 -1834,-17090 182,-1237 1834,-3433 2513,-3732 -50,2089 -879,3147 -367,5569 1869,104 3048,-1832 3924,-2037 699,10944 -738,21460 -1271,32171 -356,7136 -504,25642 1783,31479 299,-3334 -946,-13694 -967,-18873 -52,-12751 2063,-24473 1726,-38115 -63,-2596 -847,-7161 530,-9022l4672 -5319c0,5304 -2923,31948 -3615,39591 -332,3697 -1140,10116 -813,13624l3157 -23852c1032,-8294 1710,-16628 2032,-25086 473,278 803,982 1793,728 2105,-538 5247,-7806 6504,-10049 824,-1463 899,-745 660,-1884 -1439,1383 -5192,9986 -7728,10571 -70,-1263 78,-2193 234,-3414 68,-515 127,-1094 130,-1643 0,-262 -8,-675 -60,-925 -72,-348 0,-114 -122,-371 -1177,-2432 -9760,8299 -11228,8975 -130,-1772 351,-3162 -587,-4514 -1557,-104 -2866,1957 -3862,3241 -2094,2689 -7603,11441 -10581,10854 -1717,-6980 11015,-24829 12408,-33121 946,-5618 -1231,-14658 -2401,-20058 -930,-4303 -2333,-10022 -2726,-14426 -93,-1035 -218,-3698 271,-4717 652,-1359 2814,70 3812,1097 2104,2164 5529,9040 8803,6483 998,-782 1575,-1866 2331,-3025 788,-1205 1710,-2504 3183,-922 936,1003 -52,3116 -449,4288 -2157,6335 -5813,14587 -6047,21172 -249,7011 2926,11821 9448,12444 -535,-779 -2260,-2159 -3032,-2853 -3838,-3440 -4366,-8086 -3693,-13442 892,-7099 3511,-12036 5426,-18213 891,-2874 1086,-8533 -3227,-6065 -3121,1788 -2633,6788 -6432,3903 -553,-421 -1060,-899 -1486,-1348 -2006,-2115 -5394,-6910 -7897,-6925 -1668,-11 -2692,1496 -3204,2837 -2149,5649 1266,13928 2885,19081 2237,7125 3331,12577 1600,20544 -1076,4968 -4537,11698 -6660,16947 -1543,3817 -5916,14570 -3643,18738z"/>
   <path class="fil0" d="M351085 91898c-117,1110 613,9461 712,11426 208,4087 211,8024 211,12130 -289,447 129,137 -520,319 -96,26 -673,81 -826,96 -2568,273 -1934,289 -4834,-265 -1681,-322 -4677,-1257 -6213,-938 -886,2960 567,5247 3238,5795 1330,275 6894,-112 9129,-109 31,3367 -902,15479 -1167,19782 -203,3285 -400,6546 -603,9812 -120,1972 780,2331 2583,2601 1499,226 3757,395 4781,-429l55 -31753c4350,-148 16326,171 17197,-3843 -4106,-881 -7814,171 -12478,163 -3090,-2 -3833,349 -3909,-1057 -324,-6031 2233,-14903 1191,-20146 -328,-1650 -2339,-2258 -3716,-3048 -1497,-863 -3030,-1980 -4831,-536z"/>
   <path class="fil2" d="M181149 84079c-785,-5394 4370,-12270 2954,-18069 -2203,254 -2653,1652 -4287,3905 -816,1125 -2684,3786 -2921,5335 1468,-1445 3864,-6117 5392,-6543 -647,2861 -1562,5519 -2201,8408 -494,2230 -1476,7643 270,9194 1112,512 2838,-556 3584,-1086 2876,-2043 10809,-13918 13933,-16935 860,-829 1715,-1774 2525,-2676 4044,-4501 20479,-13707 27183,-8939 517,367 1102,917 1609,1120 -1998,-4664 -11301,-3212 -15794,-1705 -6538,2191 -10007,4878 -14487,8355 -2611,2029 -6685,6766 -8442,9349 -1364,2001 -2653,4064 -4033,6049 -969,1401 -2227,3095 -3456,4101 -631,517 -1021,548 -1829,137z"/>
   <path class="fil2" d="M152199 0l-198 0c505,1346 2157,2087 2570,4797 725,4758 -2099,6629 8378,13829 3199,2198 6140,3869 8385,6418 2542,2885 3259,8765 4771,10111 73,-6057 -2861,-11535 -7133,-14996 -3586,-2905 -8642,-4384 -12205,-9843 -2305,-3537 -585,-6920 -2206,-8817 -273,-317 -605,-623 -1034,-857l-1328 -642z"/>
   <path class="fil3" d="M458101 173039c2739,-496 4948,1603 5320,3864 460,2801 -1482,5111 -3760,5485 -6130,998 -7775,-8229 -1560,-9349zm-3427 8830c1876,1751 3763,2694 6507,1564 5103,-2105 4919,-9414 15,-11389 -3734,-1502 -5781,1016 -6948,1787l-57 -6433c-1643,-159 -1390,98 -1396,800l16 12148c0,3526 -359,3430 1421,3201l18 -2008 424 330z"/>
   <path class="fil3" d="M405043 178771c-587,-2910 1351,-5215 3627,-5649 2895,-548 5143,1398 5509,3760 1016,6543 -8001,7525 -9136,1889zm9123 -4776c-1372,-1263 -2468,-2640 -5363,-2331 -2305,245 -3841,1741 -4651,3241 -2321,4287 1117,8944 5282,8944 2924,2 3797,-1606 4714,-2209l49 1938 1336 16 80 -16215 -1439 6 -8 6610z"/>
   <path class="fil3" d="M249811 173234c2903,-808 5216,1031 5808,3302 733,2815 -1102,5213 -3233,5818 -6057,1721 -8426,-7491 -2575,-9120zm-4700 14673l1418 0 13 -6249c458,231 94,-8 471,320 184,158 96,114 309,338 1458,1520 4220,1980 6265,1075 1915,-847 3674,-2907 3651,-5724 -23,-2788 -1910,-4891 -3880,-5652 -1242,-481 -2876,-504 -4105,-49 -1671,616 -2045,1548 -2703,1980l-52 -2024 -1418 26 31 15959z"/>
   <path class="fil3" d="M477640 176578l-8768 5c1097,-4830 7824,-4721 8768,-5zm1161 3713c-598,-179 -587,-322 -1180,-413 -826,1058 -849,1424 -2032,2056 -3069,1642 -6886,-102 -6888,-4059l10557 -42c-75,-7546 -10165,-8351 -11875,-1598 -865,3420 1281,6514 3742,7299 3454,1105 6951,-714 7676,-3243z"/>
   <path class="fil3" d="M200773 176573c410,-2071 2029,-3586 4420,-3552 2455,33 3840,1489 4350,3557l-8770 -5zm9944 3765l-1112 -512c-728,769 -1110,1544 -2069,2079 -2892,1616 -6911,125 -6937,-4072l10575 0c-402,-7959 -10375,-8084 -11903,-1523 -821,3521 1296,6346 3700,7209 3365,1205 6917,-676 7746,-3181z"/>
   <path class="fil3" d="M221231 176578c1140,-4924 7839,-4617 8769,5l-8769 -5zm8840 3261c-29,26 -68,65 -86,83l-847 1063c-2794,2968 -8128,1559 -8071,-3149l10555 -24c-107,-7652 -10391,-8294 -11925,-1379 -766,3450 1432,6340 3857,7125 3513,1133 6800,-814 7603,-3178l-1086 -541z"/>
   <path class="fil3" d="M261232 176581c499,-2095 1938,-3604 4430,-3563 2370,42 3940,1499 4340,3565l-8770 -2zm8837 3263c-759,723 -953,1453 -2071,2053 -3227,1733 -7018,-216 -6917,-4061l10547 -18c-137,-7598 -10334,-8212 -11901,-1513 -1754,7505 8557,10386 11418,4199 -296,-327 -543,-436 -1076,-660z"/>
   <path class="fil3" d="M340748 176581c1180,-4943 7882,-4600 8773,2l-8773 -2zm9160 3313c-741,80 -172,-341 -780,467 -1169,1560 -2770,2508 -4952,2108 -2069,-380 -3643,-2196 -3584,-4638l10550 -24c-78,-3903 -2663,-6322 -6743,-6156 -5233,863 -6574,6294 -4173,9716 2315,3300 7808,3817 10475,-920l-793 -553z"/>
   <path class="fil3" d="M361755 179603l1702 3757c15,23 64,125 75,101 10,-26 49,68 78,99 177,-164 67,-36 236,-286l2690 -5987c169,-384 319,-691 486,-1088 54,-130 179,-439 241,-543 203,-336 104,-190 284,-330 631,935 1395,3074 1912,4209 411,907 1445,3539 1902,4046 533,-553 3745,-8450 4623,-10389 626,-1382 587,-1177 226,-1273l-1063 -3c-764,1131 -3178,7861 -3814,8427l-3786 -8395c-268,192 -39,-32 -253,257 -64,88 -75,109 -124,200 -626,1120 -2944,7239 -3560,7876 -632,-748 -2882,-7219 -3672,-8365l-1361 37 3178 7650z"/>
   <path class="fil3" d="M486485 173226c5919,-1767 8393,7372 2567,9113 -5878,1759 -8627,-7302 -2567,-9113zm5748 759c-990,-759 -1071,-1437 -2747,-2045 -1299,-471 -2861,-395 -4103,101 -1925,767 -3804,2921 -3804,5636 0,2778 1788,5015 3796,5782 3817,1455 5621,-923 6897,-1819l85 1928 1372 21 0 -11686 -1426 55 -70 2027z"/>
   <path class="fil3" d="M426145 178298c-218,-2741 1585,-4914 3927,-5202 6207,-766 7205,8663 1260,9347 -2817,322 -4987,-1648 -5187,-4145zm3277 -6522c-2970,608 -5486,3641 -4638,7395 1741,7720 13636,5223 11898,-2757 -647,-2967 -3521,-5402 -7260,-4638z"/>
   <path class="fil3" d="M187606 183550c325,-3061 -1255,-10129 3750,-10563 5425,-470 2978,6787 3658,10602l1305 0c231,-1229 73,-4340 70,-5764 -5,-1756 -78,-3484 -1037,-4648 -831,-1009 -2159,-1817 -4152,-1474 -2069,354 -2963,1848 -3552,2217l-63 -6522c-1161,-102 -1387,-260 -1398,800l16 12148c0,824 -39,1730 -18,2539 26,953 363,797 1421,665z"/>
   <path class="fil3" d="M382849 173210c2809,-748 5091,1302 5592,3402 683,2874 -1115,5228 -3300,5735 -6208,1439 -8019,-7606 -2292,-9137zm-772 -1351c-384,276 -1229,593 -1746,956 -4332,3025 -2741,11109 3755,11039 5984,-65 8086,-7661 3461,-11072 -712,-528 -941,-517 -1647,-897 -1744,-340 -2102,-273 -3823,-26z"/>
   <path class="fil3" d="M332901 171680c-3615,-257 -4236,1551 -5254,2227 -99,-2095 75,-4545 -63,-6535l-1385 23 34 16155c1913,231 1401,-247 1398,-2102 -5,-3116 -494,-7359 3066,-8349 6125,-1700 3586,7476 4309,10490l1294 -8c223,-1026 119,-6494 -11,-7723 -262,-2505 -1343,-3490 -3388,-4178z"/>
   <path class="fil3" d="M300529 183560c392,-3097 -1302,-10139 3742,-10576 5368,-462 3058,6715 3664,10602l1291 -2c239,-972 93,-4517 91,-5759 -3,-1746 -83,-3505 -1042,-4661 -829,-1003 -2191,-1801 -4163,-1458 -2115,369 -2936,1819 -3529,2211l-59 -2001 -1391 42 26 11615 1370 -13z"/>
   <path class="fil3" d="M497068 171922c-291,1143 -98,7104 182,8336 1123,4874 8724,4877 9745,-149 257,-1260 358,-6906 148,-8195l-1385 31c-509,4009 1624,10607 -3729,10521 -5465,-88 -2853,-7065 -3672,-10555l-1289 11z"/>
   <path class="fil3" d="M519457 187907l1460 0c414,-1184 1180,-2767 1718,-3962 603,-1344 1164,-2708 1770,-4056 563,-1258 3318,-7214 3385,-8090l-1398 154c-738,1348 -1364,3061 -1990,4467l-1996 4323c-10,-26 -52,60 -57,76l-3942 -8910 -1473 36 3461 7829c1255,2820 1473,2479 759,4106 -478,1086 -1442,2949 -1697,4027z"/>
   <path class="fil3" d="M233290 171919l1933 2801c567,746 1625,2037 1944,2851 -257,223 -4155,5566 -4319,6005l1583 10c631,-774 1237,-1665 1858,-2536 478,-673 1219,-1829 1793,-2380 696,953 1460,1941 2193,2970 379,533 644,922 1052,1465 523,697 928,492 1934,481 -133,-507 -3742,-5337 -4337,-6072 288,-741 1452,-2142 1972,-2880 600,-857 1427,-1850 1858,-2710 -806,-28 -1429,-210 -1871,335 -707,879 -2224,3508 -3001,3893 -330,-733 -1326,-1952 -1858,-2705 -1268,-1788 -886,-1567 -2734,-1528z"/>
   <polygon class="fil3" points="175513,169255 179010,169307 179091,183599 180562,183545 180564,169266 184067,169258 184051,167777 175479,167816 "/>
   <path class="fil3" d="M441853 171909c0,-2828 -603,-3911 2632,-3176l-88 -1302c-943,-421 -2266,-470 -3084,63 -1188,769 -928,2710 -928,4417l-1476 -2 -60 1239 1505 55c234,2432 -359,8601 135,10394l1343 -42 83 -10391 2375 -65 -15 -1172 -2422 -18z"/>
   <path class="fil3" d="M509863 173153l2004 31c327,2682 -405,8219 135,10405l1362 -11 65 -10417 2317 -23 -85 -1224 -2295 -8 81 -4358 -1536 -8c0,1159 255,3423 -117,4363l-1866 6 -65 561 0 683z"/>
   <path class="fil3" d="M317941 173151l2064 7 62 10420 1291 8c533,-2123 -182,-7754 133,-10420l2346 -10 0 -1240 -2375 -23 -13 -4353 -1437 34 0 4335 -2032 13 -39 1229z"/>
   <path class="fil3" d="M282415 171849l-1001 169c-322,0 -647,-8 -969,-8l0 1011c681,0 1401,-96 2040,150l5 10335 1304 0 55 -10327c728,-322 1523,-60 2380,-236l-36 -1024 -2321 -8 0 -4355 -1460 73 3 4220z"/>
   <polygon class="fil3" points="399365,183654 400776,183581 400857,167385 399321,167379 "/>
   <path class="fil3" d="M393843 171922l-1463 5 -57 11623 1442 39c338,-1681 -36,-4950 164,-6956 190,-1879 1284,-4210 3422,-3446 369,-390 575,-613 738,-1190l-779 -353c-1923,-13 -2562,997 -3451,1896l-16 -1618z"/>
   <path class="fil3" d="M275427 173543l-72 -1611 -1411 -13 -47 11633 1437 34c392,-2996 -554,-7460 1044,-9531 715,-930 1227,-982 2669,-954 356,-519 439,-600 665,-1174 -2861,-905 -3147,777 -4285,1616z"/>
   <path class="fil3" d="M294557 183584l1292 5c218,-832 216,-10906 -8,-11678l-1354 5 70 11668z"/>
   <path class="fil3" d="M294776 167216c-1461,673 -640,2736 896,2221 1357,-454 637,-2923 -896,-2221z"/>
  </g>
 </g>
</svg>
