<?xml version="1.0" encoding="UTF-8"?>
<!DOCTYPE svg PUBLIC "-//W3C//DTD SVG 1.1//EN" "http://www.w3.org/Graphics/SVG/1.1/DTD/svg11.dtd">
<!-- Creator: CorelDRAW X7 -->
<svg xmlns="http://www.w3.org/2000/svg" xml:space="preserve" width="493px" height="159px" version="1.1" style="shape-rendering:geometricPrecision; text-rendering:geometricPrecision; image-rendering:optimizeQuality; fill-rule:evenodd; clip-rule:evenodd"
viewBox="0 0 113926 36682"
 xmlns:xlink="http://www.w3.org/1999/xlink">
 <defs>
  <style type="text/css">
   <![CDATA[
    .str0 {stroke:black;stroke-width:852.796}
    .fil0 {fill:black}
   ]]>
  </style>
 </defs>
 <g id="Слой_x0020_1">
  <metadata id="CorelCorpID_0Corel-Layer"/>
  <g id="_2542354563312">
   <polygon class="fil0 str0" points="428,23038 428,645 2927,645 2927,11467 8877,645 11391,645 5738,10858 11594,23038 9033,23038 4239,13310 2927,15527 2927,23038 "/>
   <polygon class="fil0 str0" points="13819,23038 13819,645 16317,645 16317,23038 "/>
   <polygon class="fil0 str0" points="19183,23038 19183,645 21681,645 21681,20774 28068,20774 28068,23038 "/>
   <path class="fil0 str0" d="M32526 17760c0,1041 221,1840 665,2397 444,557 1110,836 1997,836 1775,0 2663,-1078 2663,-3233l0 -11837c0,-1030 -219,-1827 -658,-2389 -439,-562 -1107,-843 -2005,-843 -887,0 -1553,281 -1997,843 -444,562 -665,1359 -665,2389l0 11837zm-2436 -125l0 -11571c0,-1759 431,-3139 1294,-4138 863,-1000 2131,-1499 3804,-1499 1689,0 2972,499 3848,1499 875,999 1313,2379 1313,4138l0 11571c0,1739 -438,3110 -1313,4115 -876,1005 -2159,1507 -3848,1507 -1663,0 -2928,-502 -3796,-1507 -868,-1005 -1302,-2376 -1302,-4115z"/>
   <path class="fil0" d="M42840 17635l0 -11571c0,-1749 416,-3126 1250,-4130 832,-1005 2077,-1507 3733,-1507 1675,0 2937,502 3785,1507 849,1004 1273,2381 1273,4130l0 1905 -2343 0 0 -2046c0,-2155 -884,-3232 -2653,-3232 -869,0 -1522,281 -1957,843 -435,562 -652,1359 -652,2389l0 11837c0,1031 217,1827 652,2389 435,562 1088,844 1957,844 1769,0 2653,-1078 2653,-3233l0 -4482 -2326 0 0 -2233 4669 0 0 6590c0,1749 -424,3123 -1273,4123 -848,999 -2110,1499 -3785,1499 -1656,0 -2901,-500 -3733,-1499 -834,-1000 -1250,-2374 -1250,-4123z"/>
   <path class="fil0 str0" d="M42840 17635l0 -11571c0,-1749 416,-3126 1250,-4130 832,-1005 2077,-1507 3733,-1507 1675,0 2937,502 3785,1507 849,1004 1273,2381 1273,4130l0 1905 -2343 0 0 -2046c0,-2155 -884,-3232 -2653,-3232 -869,0 -1522,281 -1957,843 -435,562 -652,1359 -652,2389l0 11837c0,1031 217,1827 652,2389 435,562 1088,844 1957,844 1769,0 2653,-1078 2653,-3233l0 -4482 -2326 0 0 -2233 4669 0 0 6590c0,1749 -424,3123 -1273,4123 -848,999 -2110,1499 -3785,1499 -1656,0 -2901,-500 -3733,-1499 -834,-1000 -1250,-2374 -1250,-4123z"/>
   <path class="fil0 str0" d="M58088 11201l1843 0c1062,0 1856,-220 2381,-663 526,-442 789,-1242 789,-2397l0 -2155c0,-1031 -206,-1798 -617,-2303 -411,-505 -1070,-758 -1975,-758l-2421 0 0 8276zm-2498 11837l0 -22393 4981 0c1728,0 2993,430 3795,1289 802,858 1202,2136 1202,3833l0 1827c0,2488 -927,4024 -2779,4607 989,291 1704,830 2147,1616 442,786 663,1804 663,3053l0 3482c0,1240 141,2135 422,2686l-2498 0c-281,-645 -422,-1551 -422,-2717l0 -3514c0,-1217 -271,-2076 -812,-2576 -541,-500 -1359,-750 -2452,-750l-1749 0 0 9557 -2498 0z"/>
   <path class="fil0 str0" d="M71444 16386l4864 0 -2462 -12828 -2402 12828zm-3589 6652l4276 -22393 3673 0 4279 22393 -2499 0 -865 -4513 -5676 0 -845 4513 -2343 0z"/>
   <polygon class="fil0 str0" points="82277,23038 82277,645 85740,645 89437,18585 92993,645 96456,645 96456,23038 94113,23038 94113,5033 90550,23007 88164,23007 84447,5204 84447,23038 "/>
   <polygon class="fil0 str0" points="99321,23038 99321,645 102784,645 106481,18585 110037,645 113500,645 113500,23038 111158,23038 111158,5033 107594,23007 105208,23007 101491,5204 101491,23038 "/>
   <path class="fil0" d="M56043 28841l-653 0 0 2471 602 0c258,0 448,-65 569,-194 121,-130 182,-338 182,-625l0 -816c0,-284 -55,-495 -167,-631 -111,-137 -288,-205 -533,-205z"/>
   <path class="fil0" d="M74381 28777c-243,0 -424,77 -546,230 -121,154 -182,372 -182,653l0 3236c0,284 61,503 182,655 122,152 303,228 546,228 485,0 728,-294 728,-883l0 -3236c0,-281 -60,-499 -180,-653 -120,-153 -303,-230 -548,-230z"/>
   <path class="fil0" d="M111068 28841l-1136 0 0 5497 -665 0 0 -5497 -1131 0 0 -623 2932 0 0 623zm-9126 1408l-640 0 0 -589c0,-589 -240,-883 -719,-883 -240,0 -419,77 -539,230 -120,154 -180,372 -180,653l0 3236c0,281 60,499 180,653 120,153 299,230 539,230 479,0 719,-294 719,-883l0 -794 640 0 0 759c0,478 -115,854 -346,1127 -231,274 -574,410 -1030,410 -455,0 -796,-136 -1025,-410 -229,-273 -343,-649 -343,-1127l0 -3163c0,-478 114,-854 343,-1128 229,-275 570,-412 1025,-412 456,0 799,137 1030,412 231,274 346,650 346,1128l0 551zm-9133 -1408l-1836 0 0 2087 1494 0 0 615 -1494 0 0 2176 1836 0 0 619 -2518 0 0 -6120 2518 0 0 623zm-9010 3986c0,993 -434,1500 -1302,1520 -233,0 -376,-3 -427,-9l0 -619c77,6 191,9 343,9 237,-14 416,-87 538,-218 121,-131 182,-344 182,-640l0 -4652 666 0 0 4609zm-8007 34c0,476 -120,851 -360,1125 -239,275 -589,412 -1051,412 -454,0 -800,-137 -1038,-412 -237,-274 -355,-649 -355,-1125l0 -3163c0,-480 117,-857 353,-1130 236,-274 583,-410 1040,-410 462,0 812,136 1051,410 240,273 360,650 360,1130l0 3163zm-9838 1477c-77,-176 -116,-424 -116,-742l0 -961c0,-333 -73,-567 -222,-704 -148,-136 -371,-205 -670,-205l-478 0 0 2612 -683 0 0 -6120 1362 0c472,0 818,117 1037,352 219,234 329,584 329,1048l0 499c0,680 -253,1100 -760,1259 270,80 466,227 587,442 121,215 182,493 182,834l0 952c0,339 38,584 115,734l-683 0zm-8528 -3888c0,985 -477,1477 -1432,1477l-604 0 0 2411 -683 0 0 -6120 1340 0c468,0 815,130 1041,390 225,261 338,630 338,1108l0 734zm-16394 3888l-683 0 0 -6120 683 0 0 6120zm-7192 0l-683 0 0 -2753 -1502 0 0 2753 -683 0 0 -6120 683 0 0 2757 1502 0 0 -2757 683 0 0 6120zm-9620 -348c-233,272 -578,408 -1033,408 -456,0 -799,-135 -1029,-406 -230,-270 -346,-644 -346,-1122l0 -350 641 0 0 384c0,584 239,875 717,875 478,0 717,-291 717,-875 0,-182 -38,-353 -113,-512 -76,-159 -173,-300 -293,-423 -119,-122 -252,-242 -399,-360 -147,-118 -292,-241 -437,-367 -146,-127 -278,-261 -397,-402 -120,-140 -217,-310 -293,-508 -75,-197 -113,-413 -113,-646 0,-484 113,-859 340,-1127 226,-268 564,-401 1013,-401 453,0 793,135 1020,405 228,271 342,645 342,1123l0 166 -645 0 0 -200c0,-584 -233,-875 -699,-875 -467,0 -700,289 -700,866 0,185 37,358 112,519 76,160 174,302 295,424 121,123 255,243 401,361 147,118 293,241 440,367 146,127 280,260 401,401 121,141 219,311 294,508 76,198 114,414 114,647 0,475 -117,849 -350,1120zm-8792 -1129c0,481 -115,859 -345,1134 -229,274 -573,411 -1032,411 -452,0 -791,-137 -1019,-411 -227,-275 -341,-653 -341,-1134l0 -4643 666 0 0 4678c0,589 240,883 719,883 474,0 711,-294 711,-883l0 -4678 641 0 0 4643zm-9463 1129c-234,272 -578,408 -1033,408 -455,0 -798,-135 -1029,-406 -230,-270 -345,-644 -345,-1122l0 -350 640 0 0 384c0,584 239,875 717,875 478,0 717,-291 717,-875 0,-182 -38,-353 -113,-512 -76,-159 -173,-300 -293,-423 -119,-122 -252,-242 -399,-360 -146,-118 -292,-241 -437,-367 -145,-127 -278,-261 -397,-402 -120,-140 -217,-310 -293,-508 -75,-197 -113,-413 -113,-646 0,-484 113,-859 340,-1127 226,-268 564,-401 1014,-401 452,0 792,135 1020,405 227,271 341,645 341,1123l0 166 -644 0 0 -200c0,-584 -234,-875 -700,-875 -467,0 -700,289 -700,866 0,185 37,358 113,519 75,160 173,302 294,424 121,123 255,243 401,361 147,118 293,241 440,367 147,127 280,260 401,401 121,141 219,311 295,508 75,198 113,414 113,647 0,475 -117,849 -350,1120zm-5965 -8394l0 11086 113915 0 0 -11086 -113915 0z"/>
   <path class="fil0" d="M65838 29677c0,-281 -56,-491 -168,-629 -112,-138 -292,-207 -540,-207l-662 0 0 2262 504 0c290,0 507,-60 651,-181 144,-122 215,-340 215,-656l0 -589z"/>
  </g>
 </g>
</svg>
