<?xml version="1.0" encoding="UTF-8"?>
<!DOCTYPE svg PUBLIC "-//W3C//DTD SVG 1.1//EN" "http://www.w3.org/Graphics/SVG/1.1/DTD/svg11.dtd">
<!-- Creator: CorelDRAW X7 -->
<svg xmlns="http://www.w3.org/2000/svg" xml:space="preserve" width="600px" height="370px" version="1.1" style="shape-rendering:geometricPrecision; text-rendering:geometricPrecision; image-rendering:optimizeQuality; fill-rule:evenodd; clip-rule:evenodd"
viewBox="0 0 600 370"
 xmlns:xlink="http://www.w3.org/1999/xlink">
 <defs>
  <style type="text/css">
   <![CDATA[
    .fil0 {fill:#2B2A29;fill-rule:nonzero}
   ]]>
  </style>
 </defs>
 <g id="Слой_x0020_1">
  <metadata id="CorelCorpID_0Corel-Layer"/>
  <path class="fil0" d="M591 203l0 9 -4 0 0 -9 -9 -15 5 0 6 11 7 -11 4 0 -9 15zm-269 -203l-1 0c-2,0 -4,1 -8,3 -20,9 -37,22 -49,39 -13,17 -21,37 -23,58 0,1 0,2 0,3 -5,-5 -11,-10 -18,-15 -19,-12 -40,-18 -65,-18 -12,-1 -23,1 -34,2l-1 0c-1,0 -1,1 -2,1 -3,0 -7,0 -11,4 0,1 -1,2 -1,3l1 6c1,5 1,10 2,15 0,1 0,4 3,5 1,1 2,2 4,1 2,0 4,-1 5,-2 0,-1 1,-3 1,-6 -1,0 -1,-1 -1,-1 0,0 0,0 0,-1 0,-4 -1,-8 -1,-12l0 0c11,-2 25,-3 40,-3 10,1 19,2 28,5 19,6 35,17 47,32 1,1 3,2 4,3 0,0 0,1 0,1 1,1 2,1 4,1 6,-1 7,-5 7,-7 0,-2 0,-4 0,-5 0,-18 5,-35 13,-51 8,-14 19,-26 33,-36 7,-5 14,-9 21,-12 0,1 0,1 0,1 17,20 24,44 21,74 -1,17 -7,34 -16,48l-1 1c-1,2 -3,5 -2,10 0,1 1,2 2,2 1,1 2,1 3,0 47,-18 88,-8 125,30 -9,12 -19,22 -30,29 -18,11 -36,16 -54,16 -12,1 -21,-1 -30,-4 -6,-1 -9,0 -11,5 -1,2 0,3 0,4 15,20 23,41 24,64 1,23 -5,43 -17,63 -18,-7 -32,-16 -45,-28 -19,-18 -29,-43 -30,-72 0,-2 -1,-3 -2,-4 -6,-3 -9,0 -11,2 -1,1 -1,2 -2,3 -1,0 -1,1 -1,1 -13,16 -29,28 -50,36 -14,6 -30,8 -48,6 -4,0 -9,-1 -14,-3 0,0 0,-1 0,-2 0,0 0,-1 0,-2 1,-8 2,-14 4,-21 1,-3 0,-5 0,-6 -2,-3 -6,-3 -7,-3 -1,0 -3,1 -4,3 -5,12 -6,25 -5,38 0,1 1,2 2,3 34,14 88,6 126,-34 12,69 71,92 89,97 1,0 1,0 1,0l0 0 0 0c2,0 3,0 3,-1 9,-11 20,-33 22,-56 4,-28 -1,-53 -15,-78 21,4 42,2 64,-7 23,-10 41,-26 56,-47 1,-2 0,-4 -1,-5 -37,-41 -78,-56 -124,-45 11,-25 15,-50 10,-76 -3,-19 -10,-34 -21,-48 -3,-5 -6,-7 -9,-7zm241 199l5 0c3,0 6,0 6,-4 0,-3 -3,-3 -5,-3l-6 0 0 7zm7 -11c4,0 8,2 8,7 0,3 -2,5 -4,6 3,1 3,3 3,5 1,3 1,5 2,6l-5 0c0,-1 0,-2 -1,-5 0,-3 -1,-5 -5,-5l-5 0 0 10 -5 0 0 -24 12 0zm-34 12c0,6 3,9 7,9 5,0 8,-3 8,-9 0,-5 -3,-9 -8,-9 -4,0 -7,4 -7,9zm19 0c0,8 -5,13 -12,13 -7,0 -11,-5 -11,-13 0,-7 4,-12 11,-12 7,0 12,5 12,12zm-25 -8l-7 0 0 20 -4 0 0 -20 -8 0 0 -4 19 0 0 4zm-25 3c-1,-3 -3,-4 -5,-4 -3,0 -5,2 -5,4 0,2 1,2 6,3 4,1 9,2 9,7 0,6 -5,8 -10,8 -5,0 -10,-3 -10,-9l4 0c0,4 3,5 6,5 4,0 6,-1 6,-3 0,-3 -3,-3 -6,-4 -5,-1 -9,-2 -9,-7 0,-4 3,-7 9,-7 5,0 8,2 9,7l-4 0zm62 -36l5 0c3,0 6,0 6,-4 0,-3 -2,-3 -5,-3l-6 0 0 7zm7 -11c4,0 8,2 8,7 0,3 -1,5 -4,6 3,0 3,3 4,5 0,3 0,5 1,6l-5 0c0,-1 0,-2 0,-5 -1,-3 -1,-5 -6,-5l-5 0 0 10 -4 0 0 -24 11 0zm-16 15c0,6 -3,10 -10,10 -6,0 -10,-4 -10,-10l0 -15 5 0 0 16c0,3 2,5 5,5 5,0 6,-3 6,-7l0 -14 4 0 0 15zm-42 -3c0,6 3,9 8,9 4,0 7,-3 7,-9 0,-5 -3,-9 -8,-9 -4,0 -7,4 -7,9zm19 0c0,8 -5,13 -12,13 -6,0 -11,-5 -11,-13 0,-7 4,-12 12,-12 6,0 11,5 11,12zm-33 3l0 9 -4 0 0 -9 -9 -15 5 0 6 11 6 -11 5 0 -9 15zm-232 -23l0 80c0,3 3,6 6,6l21 0c4,0 7,3 7,7 0,3 -3,6 -7,6l-36 0c-3,0 -6,-2 -6,-6l0 -93c0,-4 3,-7 7,-7l1 0c4,0 7,3 7,7zm-60 0l0 80c0,3 2,6 6,6l21 0c4,0 6,3 6,7 0,3 -2,6 -6,6l-36 0c-3,0 -6,-2 -6,-6l0 -93c0,-4 3,-7 6,-7l2 0c4,0 7,3 7,7zm-143 0l0 1c0,4 -3,7 -7,7l-19 0 0 84c0,4 -3,7 -7,7 -4,1 -7,-3 -7,-7 0,-22 0,-84 0,-84l-20 0c-3,0 -7,-3 -7,-7 0,-4 3,-8 7,-8l53 0c4,0 7,4 7,7zm21 33c4,-16 20,-26 33,-27 5,-1 11,0 16,1 10,3 18,9 23,19 1,2 2,5 3,8 1,2 -1,4 -3,4l-68 0c-4,0 -5,-1 -4,-5zm59 66c13,-5 21,-14 26,-24 3,-5 0,-10 -6,-10l-1 0c-3,0 -6,1 -7,4l0 0c-2,6 -6,11 -13,14 -9,4 -19,5 -29,3 -15,-2 -24,-11 -29,-25 -4,-11 -3,-10 9,-10l81 0c2,0 3,-1 3,-3 0,0 0,0 0,0 0,-15 -4,-28 -13,-40 -7,-7 -15,-12 -25,-15 -10,-3 -21,-3 -31,-1 -18,4 -31,15 -38,33 -4,11 -4,22 -2,34 4,19 14,33 33,40 3,1 10,2 14,3 9,1 19,0 28,-3z"/>
 </g>
</svg>
