<?xml version="1.0" encoding="UTF-8"?>
<!DOCTYPE svg PUBLIC "-//W3C//DTD SVG 1.1//EN" "http://www.w3.org/Graphics/SVG/1.1/DTD/svg11.dtd">
<!-- Creator: CorelDRAW X7 -->
<svg xmlns="http://www.w3.org/2000/svg" xml:space="preserve" width="500px" height="413px" version="1.1" style="shape-rendering:geometricPrecision; text-rendering:geometricPrecision; image-rendering:optimizeQuality; fill-rule:evenodd; clip-rule:evenodd"
viewBox="0 0 411 340"
 xmlns:xlink="http://www.w3.org/1999/xlink">
 <defs>
  <style type="text/css">
   <![CDATA[
    .fil0 {fill:url(#id0)}
   ]]>
  </style>
  <linearGradient id="id0" gradientUnits="userSpaceOnUse" x1="348.903" y1="296.299" x2="62.4775" y2="43.7847">
   <stop offset="0" style="stop-opacity:1; stop-color:#B68016"/>
   <stop offset="0.101961" style="stop-opacity:1; stop-color:#BD8D21"/>
   <stop offset="0.211765" style="stop-opacity:1; stop-color:#C7982E"/>
   <stop offset="0.560784" style="stop-opacity:1; stop-color:#FFF2A3"/>
   <stop offset="0.658824" style="stop-opacity:1; stop-color:#F0D968"/>
   <stop offset="0.839216" style="stop-opacity:1; stop-color:#E1BE56"/>
   <stop offset="0.94902" style="stop-opacity:1; stop-color:#B57F12"/>
   <stop offset="1" style="stop-opacity:1; stop-color:#C59B2D"/>
  </linearGradient>
 </defs>
 <g id="Слой_x0020_1">
  <metadata id="CorelCorpID_0Corel-Layer"/>
  <path class="fil0" d="M285 100c-26,-7 -52,-9 -79,-9l0 0c-27,0 -53,2 -79,9 4,31 2,63 -1,94 -3,27 7,48 27,66 14,12 34,23 53,27 18,-4 39,-15 53,-27 19,-18 30,-39 27,-66 -4,-31 -5,-63 -1,-94zm-78 57c2,0 3,0 5,1 -17,-12 -19,-21 -15,-41 18,12 21,21 17,41 4,1 7,2 11,3 -11,-16 -9,-23 1,-40 12,17 11,25 0,41 5,3 9,6 12,10 -7,-21 -4,-28 11,-41 7,19 4,28 -10,41 1,2 2,4 3,5 -2,-1 -4,-3 -6,-3 -7,-8 -17,-14 -29,-14 -11,0 -21,5 -27,12 -3,1 -5,2 -7,4 4,-6 10,-12 16,-15l-12 3c-15,2 -24,-5 -34,-14 20,-6 30,-4 47,11 3,-1 6,-2 10,-3 -8,-2 -16,-4 -22,-8 -10,-7 -12,-16 -15,-26 23,4 31,11 39,34 1,-1 3,-1 5,-1zm47 25c7,0 12,5 12,12 0,6 -5,12 -12,12 -1,0 -2,-1 -3,-1 1,2 2,5 2,7 0,7 -5,13 -12,13 -2,0 -4,0 -5,-1l0 0c-4,-2 -7,-5 -8,-8 0,1 -1,2 -2,2 0,0 0,0 0,1 3,2 5,6 5,10 0,8 -6,14 -13,14 -5,0 -9,-3 -12,-7 -2,4 -6,7 -11,7 -8,0 -14,-6 -14,-14 0,-3 1,-6 4,-9 0,-1 1,-2 3,-2 -1,-1 -2,-2 -3,-3 -1,5 -6,10 -12,10 -7,0 -13,-6 -13,-13 0,-3 1,-6 3,-8 -1,0 -2,0 -2,0 -7,0 -12,-5 -12,-12 0,-6 5,-12 12,-12 4,0 7,3 10,6 0,-7 6,-12 12,-12 6,0 11,4 12,9 2,-5 7,-9 13,-9 6,0 11,4 13,9 2,-4 6,-7 11,-7 6,0 11,5 12,11 2,-3 6,-5 10,-5zm-8 25c1,0 1,0 1,2 0,1 0,1 -1,1 -2,0 -2,0 -2,-1 0,-2 0,-2 2,-2zm-5 -7c1,0 2,0 3,1 -1,-2 -2,-4 -2,-6 -2,3 -6,6 -10,6 -1,0 -2,0 -3,-1 1,2 2,3 2,4 1,-1 3,-2 5,-3 1,-1 3,-1 5,-1zm-35 23c1,-2 3,-4 5,-5 -2,-1 -3,-3 -4,-5 -1,2 -3,4 -5,5 1,1 2,2 3,3 0,0 1,1 1,2zm15 -28c0,-1 -1,-2 -1,-3 0,1 -1,2 -1,3l0 0c1,0 1,0 2,0zm-13 5l0 0c-1,0 -2,0 -3,0 1,1 1,1 2,2 0,0 1,-1 1,-2zm15 3c1,0 2,1 2,2 0,1 -1,2 -2,2 -1,0 -2,-1 -2,-2 0,-1 1,-2 2,-2zm-26 -8c0,-1 -1,-3 -1,-4 -1,1 -1,3 -2,4 0,0 1,0 1,0 1,0 2,0 2,0zm-12 5c-1,0 -1,0 -2,0 -4,0 -8,-2 -11,-6 0,2 -1,4 -2,5 1,0 2,0 3,0 4,0 7,2 10,5 0,-1 1,-3 2,-4zm15 2c1,0 1,1 1,2 0,1 0,2 -1,2 -1,0 -2,-1 -2,-2 0,-1 1,-2 2,-2zm-23 5c1,0 2,1 2,2 0,1 -1,2 -2,2 -1,0 -2,-1 -2,-2 0,-1 1,-2 2,-2zm-12 -20c1,0 2,1 2,2 0,1 -1,2 -2,2 -1,0 -2,-1 -2,-2 0,-1 1,-2 2,-2zm23 -4c1,0 2,1 2,1 0,1 -1,2 -2,2 -1,0 -2,-1 -2,-2 0,0 1,-1 2,-1zm25 -1c1,0 2,1 2,2 0,1 -1,1 -2,1 -1,0 -2,0 -2,-1 0,-1 1,-2 2,-2zm23 2c0,0 1,0 1,1 0,1 -1,2 -1,2 -1,0 -2,-1 -2,-2 0,-1 1,-1 2,-1zm23 5c1,0 1,1 1,2 0,1 0,1 -1,1 -1,0 -2,0 -2,-1 0,-1 1,-2 2,-2zm-35 35c1,0 2,0 2,2 0,1 -1,2 -2,2 -1,0 -2,-1 -2,-2 0,-2 1,-2 2,-2zm-25 0c2,0 2,0 2,2 0,1 0,2 -2,2 -1,0 -2,-1 -2,-2 0,-2 1,-2 2,-2zm48 -43l-2 -4c0,-16 10,-20 25,-25 -1,16 -6,27 -23,29zm-71 -12c-15,10 -23,10 -38,2 14,-8 22,-9 38,-2zm-7 140c0,0 0,0 0,0 0,0 0,1 0,1 0,0 0,0 0,0 0,1 0,1 -1,2 0,0 0,0 0,0 0,1 0,1 0,1 0,0 0,0 -1,0 0,0 0,0 0,0 0,0 0,-1 0,-1 0,0 -1,0 -1,0 0,0 0,0 0,0 -1,-1 -1,-1 -1,0 -1,0 -1,0 -1,1 -1,2 -1,5 -2,7 0,1 0,2 0,2 0,1 0,1 0,1 0,0 0,1 0,1 1,0 1,0 1,1 0,0 -1,0 -1,0 0,0 0,0 0,0 -1,0 -1,0 -1,0 -1,-1 -1,-1 -1,-1 -1,0 -1,0 -1,0 0,0 -1,0 -1,0 0,0 0,0 0,-1 0,0 0,0 0,-1 1,-1 1,-1 1,-2 1,-3 2,-6 3,-10 0,-1 0,-1 0,-2 0,0 0,-1 0,-1 0,-1 0,-1 1,-1 0,0 0,0 0,0 1,0 1,1 1,1 0,0 1,0 2,0 0,0 1,0 1,0 1,0 1,1 2,1 0,0 0,0 0,0 1,0 1,0 0,1zm8 14c0,2 0,3 -1,4 -1,0 -2,1 -3,0 -1,0 -2,0 -3,-1 0,-1 0,-2 0,-4 0,-2 1,-5 1,-8 1,-2 1,-4 2,-4 1,-1 2,-1 3,-1 2,0 3,1 3,2 0,1 0,2 0,3 0,3 -1,6 -2,9zm-3 0c1,-3 1,-6 2,-9 0,0 0,0 0,0 0,-1 0,-1 -1,-1 0,0 0,0 0,0 0,1 -1,1 -1,1 0,3 -1,6 -1,9 0,0 0,0 0,1 0,0 0,0 0,0 1,0 1,0 1,0 0,0 0,-1 0,-1zm17 -5c0,2 -1,4 -2,5 -1,0 -2,1 -3,1 0,0 -1,0 -1,0 0,0 0,0 0,1 0,0 0,1 0,1 0,1 0,1 1,2 0,0 0,0 0,0 0,0 0,0 0,0 0,1 0,1 -1,1 0,0 0,0 -1,0 0,0 0,0 -1,-1 0,0 0,0 -1,0 0,0 0,0 0,0 -1,0 -1,0 -1,0 0,0 0,0 0,0 0,-1 0,-1 0,-1 1,-1 1,-3 1,-5 1,-2 1,-4 1,-7 1,-1 1,-2 1,-3 0,0 0,-1 0,-1 0,0 0,-1 0,-1 0,0 1,0 1,0 3,1 5,1 5,2 1,1 1,3 1,6zm-3 0c0,-1 0,-1 0,-2 0,0 -1,0 -1,-1 0,0 0,1 -1,1 0,1 0,1 0,2 0,0 0,0 0,0 0,1 0,2 0,2 0,1 0,1 0,1 1,0 1,0 1,-1 1,0 1,-1 1,-2zm13 8c0,1 0,2 -1,3 0,1 -1,1 -3,1 -1,0 -2,0 -2,-1 -1,-1 -1,-2 -1,-4 0,-2 0,-5 0,-8 0,-2 1,-4 1,-5 1,0 2,-1 4,-1 1,0 2,1 3,2 0,1 0,2 0,3 0,3 0,6 -1,10zm-3 -1c1,-3 1,-5 1,-8 0,-1 0,-1 0,-1 0,0 -1,-1 -1,-1 0,0 0,1 -1,1 0,0 0,0 0,1 0,3 0,5 0,8 0,1 0,1 0,1 0,0 0,0 0,1 1,0 1,-1 1,-1 0,0 0,0 0,-1zm16 1c0,2 0,2 -1,3 0,1 -1,1 -2,1 -1,0 -1,0 -2,0 0,0 0,0 -1,0 0,0 0,0 0,0 0,0 -1,0 -1,0 0,0 -1,0 -1,0 0,0 0,0 -1,0 0,0 1,-1 1,-1 0,0 0,0 0,-1 0,0 0,0 0,0 0,-1 0,-1 0,-2 0,-3 0,-7 0,-10 0,-1 0,-1 -1,-1 0,-1 0,-1 0,-2 0,0 0,0 0,0 0,-1 0,-1 0,-1 0,0 0,0 1,0 0,0 1,0 1,0 1,0 2,0 2,0 1,0 1,0 2,0 0,0 0,0 0,0 1,0 1,-1 1,-1 0,0 1,0 1,1 0,0 0,0 0,0 0,1 0,1 0,2 0,0 0,0 0,1 0,0 0,0 0,0 0,1 0,1 0,1 0,0 0,0 0,0 0,0 0,0 -1,0 0,1 0,0 0,0 0,0 0,0 0,0 -1,0 -1,-1 -1,-1 0,0 0,0 -1,0 0,0 -1,0 -1,1 0,0 0,0 0,1 0,1 0,1 0,1 0,0 0,1 0,1 0,0 0,0 0,0 0,0 0,0 0,0 0,0 0,0 0,0 1,0 1,-1 1,-1 0,0 1,0 1,0 1,0 2,0 2,1 1,1 1,1 1,2 0,2 0,4 0,5zm-3 0c0,-1 0,-2 0,-3 0,0 0,-1 0,-1 -1,0 -1,0 -1,0 -1,0 -1,0 -1,0 0,0 0,0 0,1 0,1 0,2 0,3 0,0 0,1 0,1 1,0 1,0 1,0 0,0 1,0 1,0 0,-1 0,-1 0,-1zm17 2c0,0 0,0 0,0 0,1 0,1 0,1 -1,0 -1,0 -1,0 -1,0 -1,0 -1,0 0,0 -1,0 -1,0 0,0 0,0 0,0 -1,0 -1,0 -1,0 0,0 0,0 0,-1 0,0 0,0 0,0 0,0 0,0 0,-1 0,0 0,0 0,-1 0,0 0,0 0,-1 0,-1 0,-3 0,-4 0,0 0,-1 0,-1 0,0 0,0 0,0 -1,0 -1,0 -1,1 0,0 0,1 -1,1 0,1 0,1 0,2 0,0 0,1 0,1 0,1 0,1 0,2 0,0 0,0 0,0 0,1 0,1 0,1 1,0 1,0 1,1 0,0 -1,0 -1,0 0,0 -1,0 -1,0 0,0 0,0 0,0 -1,0 -1,0 -1,0 0,0 -1,0 -1,0 0,0 -1,0 -1,0 0,0 0,0 0,0 0,-1 1,-1 1,-1 0,0 0,-1 0,-2 0,0 -1,-1 -1,-1 0,-4 0,-7 -1,-10 0,-1 0,-2 0,-2 0,-1 0,-1 -1,-1 0,-1 1,-1 1,-1 0,0 0,0 0,0 0,0 0,0 1,0 0,0 0,0 0,0 1,0 1,0 1,0 0,0 0,0 1,0 0,0 0,0 0,0 0,0 1,0 1,0 0,0 0,0 0,1 -1,0 -1,0 -1,0 0,0 0,1 0,1 0,0 0,1 0,1 0,1 1,2 1,3 0,0 0,0 0,0 0,0 0,0 1,-1 0,-1 0,-2 1,-2 0,-1 0,-1 0,-1 0,-1 0,-1 0,-1 -1,0 -1,0 -1,-1 0,0 0,0 0,0 0,0 0,0 1,0 0,0 0,0 0,0 0,0 1,0 1,0 0,0 0,0 1,-1 0,0 0,0 1,0 0,0 0,0 0,0 0,0 0,0 0,1 0,0 0,0 0,1 0,0 0,1 0,1 0,4 1,7 1,11 0,1 0,1 0,2 0,0 1,1 1,1 0,0 0,0 0,0 0,1 0,1 0,1zm13 -2c0,0 0,0 0,0 0,0 0,1 0,1 -1,0 -1,0 -1,0 0,0 0,0 -1,0 0,0 0,0 0,0 -1,0 -1,0 -1,0 0,0 -1,0 -1,0 0,-1 0,-1 0,-2 0,-1 0,-1 0,-2 0,-1 -1,-2 -1,-4 0,0 0,-1 0,-1 0,-1 -1,-1 -1,-1 -1,0 -1,1 -1,1 0,1 0,2 1,4 0,1 0,3 1,3 0,1 0,1 0,2 0,0 0,0 0,0 0,0 0,0 0,1 -1,0 -1,0 -1,0 0,0 -1,0 -1,0 0,0 0,0 -1,0 0,0 0,0 0,0 -1,0 -1,0 -1,0 0,0 0,-1 0,-1 0,0 0,0 0,-1 0,0 0,0 0,-1 0,0 0,0 0,-1 -1,-3 -1,-7 -2,-10 0,-1 0,-1 -1,-2 0,0 0,-1 0,-1 0,-1 0,-1 0,-1 0,0 1,0 1,0 0,0 1,0 1,0 1,0 1,-1 1,-1 1,0 1,0 1,0 0,1 0,1 0,1 0,0 0,0 0,0 0,1 0,1 0,1 0,0 0,0 0,0 0,1 0,1 0,1 0,0 0,1 0,1 0,0 1,0 1,0 0,0 0,0 1,-1 0,0 0,0 0,0 0,-1 -1,-1 -1,-1 0,0 0,0 0,-1 0,0 0,0 0,0 0,0 0,0 0,0 0,0 0,-1 0,-1 0,0 0,0 0,0 0,0 1,0 1,0 0,0 0,0 0,0 1,0 1,0 1,0 1,0 1,0 1,0 0,-1 0,0 1,0 0,0 0,0 0,0 0,1 0,1 0,2 0,1 0,2 0,3 1,3 1,5 2,7 0,1 0,2 0,2 0,1 0,1 1,1 0,1 0,1 0,1 0,1 0,1 0,1zm13 -3c0,0 0,1 0,1 -1,0 -1,0 -1,0 0,0 0,0 -1,0 0,0 0,0 0,0 0,0 0,0 -1,0 0,0 0,0 0,0 0,0 0,0 -1,0 0,0 0,0 0,0 0,0 0,0 0,-1 0,0 0,0 0,0 0,-1 0,-1 0,-1 0,0 -1,0 -1,0 -1,0 -1,0 -1,0 0,1 0,1 0,1 0,0 0,1 0,1 0,0 0,0 0,0 1,0 1,0 1,0 0,1 0,1 -1,1 0,0 0,0 0,0 -1,0 -1,0 -1,0 0,0 -1,0 -1,0 0,1 0,1 0,1 -1,0 -1,0 -1,-1 0,0 0,-2 0,-4 0,-2 -1,-5 -2,-8 0,-2 -1,-3 -1,-5 0,0 0,-1 1,-1 0,0 0,0 1,0 0,0 0,0 0,0 1,0 1,0 1,0 1,0 1,0 1,-1 1,0 2,1 2,1 0,1 1,3 2,7 1,2 1,3 1,4 1,0 1,1 2,3 0,0 0,1 1,1 0,0 0,0 0,1 0,0 0,0 0,0zm-5 -5c-1,-1 -1,-1 -1,-2 0,-1 -1,-2 -1,-3 0,-1 -1,-1 -1,-1 0,0 0,1 0,3 0,1 1,2 1,3 0,0 0,0 0,0 0,0 0,1 0,1 0,0 1,0 1,0 0,0 0,0 1,0 0,-1 0,-1 0,-1zm76 -106c0,0 0,0 0,1 0,0 0,0 -1,0l0 0 -1 0 -2 1c0,0 0,0 -1,0 0,0 0,0 0,0 0,0 0,-1 0,-1 1,0 1,-1 1,-1 0,0 0,-1 0,-1 0,-1 0,-1 0,-2l-2 -6c-1,0 -1,-1 -1,-1 0,-1 -1,-1 -1,-1 -1,0 -1,0 -1,0 -1,0 -1,0 -1,0l0 0c0,-1 0,-1 0,-1 0,0 0,0 0,0 1,-1 1,-1 1,-1 0,0 0,-1 0,-1 0,0 1,-1 1,-1 0,0 0,-1 0,-1l1 0c1,0 1,0 1,0 0,0 0,0 0,1 1,0 1,1 1,1 0,2 1,3 1,4l1 4c1,1 1,3 2,4 0,0 1,1 1,2zm8 -7c0,1 0,2 0,3 0,1 -1,2 -2,3 -1,0 -2,0 -3,-1 -1,0 -1,-1 -2,-3l0 -2c-1,-1 -1,-1 -1,-2 0,0 0,-1 1,-1 0,0 -1,0 -1,-1 0,0 0,0 -1,0 0,-1 0,-1 0,-1l-1 -2c0,-1 0,-2 0,-3 0,-1 1,-1 2,-2 1,0 2,0 3,0 0,1 1,2 1,3l1 2c0,0 0,0 0,1 0,0 0,0 0,0 0,1 0,1 0,1 0,0 0,0 0,0 0,0 0,1 0,1 1,0 1,1 2,2l1 2zm-5 -7c-1,0 -1,0 -1,0 0,-1 0,-1 0,-1 -1,1 -1,1 -1,1 0,0 0,1 0,1 0,0 1,1 1,1 0,0 0,0 0,0 1,0 1,0 1,-1 0,0 0,0 0,-1zm2 8l-1 -3c0,0 0,0 0,-1 0,0 -1,0 -1,0 0,0 0,0 0,1 0,0 0,0 0,1l1 2c0,1 0,1 0,1 1,0 1,1 1,0 0,0 0,0 0,0 0,-1 0,-1 0,-1zm12 -4c0,1 0,2 0,3 0,1 -1,2 -2,2 -1,1 -2,1 -3,0 0,0 -1,-1 -1,-2 0,0 0,0 0,-1 0,0 0,0 0,0 0,0 1,0 1,0 0,0 0,0 0,0 1,1 1,1 1,0 1,0 1,0 1,-1 0,0 0,0 0,-1l0 -1c0,0 -1,0 -1,0 0,0 0,0 0,0 0,0 0,0 0,0 0,0 0,1 -1,1 0,0 0,0 0,0 -1,0 -2,0 -2,-1 -1,0 -1,-1 -1,-2l-2 -4c0,-1 0,-2 0,-3 0,-1 1,-2 2,-2 1,0 2,0 3,1 1,0 1,1 1,2l4 9zm-5 -5l0 -2c-1,-1 -1,-1 -2,-1 0,0 0,1 0,1 0,0 0,1 0,1l1 1c0,1 0,1 0,1 0,0 1,1 1,0 0,0 0,0 0,0 0,0 0,-1 0,-1zm9 -8c1,1 1,3 2,4 0,2 1,5 1,7 0,1 0,2 0,3 1,0 0,1 0,1 0,0 -1,0 -1,0 0,0 0,0 -1,0 0,1 0,1 0,1 0,0 -1,0 -1,0 0,0 0,0 0,0 -1,0 0,-1 0,-2 0,0 0,-1 0,-2 0,-1 0,-3 0,-4 0,-2 -1,-3 -1,-4 0,-1 0,-1 0,-1 -1,0 -1,0 -2,0 0,0 0,0 0,0 0,0 -1,0 -1,1 0,0 0,0 0,0 0,0 0,0 0,1 0,0 0,0 0,0 0,0 -1,-1 -1,-1 0,0 0,0 0,0 0,-1 0,-2 0,-2 0,0 -1,0 -1,-1 0,0 0,-1 0,-1 0,0 0,0 0,0 0,-1 0,-1 0,-1 1,0 1,0 1,0 0,0 1,0 1,-1 1,0 1,0 1,0 1,0 1,0 1,0 1,-1 1,-1 1,0 1,0 1,1 1,2zm-283 -3c0,0 0,0 0,0 0,0 -1,1 -1,1 0,1 0,1 0,1 0,0 0,1 0,1 0,0 -1,0 -1,0 0,1 0,1 0,1 0,0 0,-1 0,-1 0,0 -1,0 -1,0 0,0 0,-1 0,-1 0,0 0,0 0,0 -1,0 -1,0 -2,0 0,1 0,2 -1,3l-1 2c0,1 -1,2 -1,3 0,1 0,1 1,2 0,0 0,0 1,0 0,0 0,0 0,0 0,-1 1,-1 1,-1 0,0 0,1 0,1 0,0 0,0 0,0l-1 1 0 1c0,1 0,1 -1,1 0,0 -1,0 -2,0 -1,-1 -2,-1 -2,-2 0,-2 0,-4 1,-6l2 -4c1,-2 2,-4 3,-5 1,-1 2,-1 3,0 1,0 1,0 2,1 0,0 0,0 0,1zm10 4c-1,2 -2,3 -3,5 0,2 -1,3 -2,4 0,2 -1,3 -2,4 -1,1 -2,2 -2,2 0,0 0,0 0,0 -1,-1 -1,-1 -1,-1l-1 0 -1 0c0,0 0,0 0,0 0,-1 0,-1 0,-1 0,0 0,0 1,0 0,-1 1,-1 1,-1 0,0 0,0 1,0 0,-1 0,-1 1,-1 0,0 0,-1 0,-1 0,0 -1,0 -1,0 0,0 0,-1 -1,-1 0,-1 0,-2 0,-4 1,0 1,-2 2,-5 0,0 0,-1 0,-2 0,0 0,-1 0,-1 0,0 0,0 0,0 0,-1 0,-1 0,-1 1,0 1,0 1,0 0,0 0,0 0,0 1,1 1,1 1,1 0,0 0,0 0,0 1,0 1,0 1,0 0,0 0,0 1,0 0,1 0,1 -1,1l-1 4c-1,2 -1,3 -1,3 0,1 0,2 1,2 0,0 0,-1 0,-1 1,-1 1,-1 1,-2 1,-1 1,-2 1,-3 0,0 0,-1 0,-1 0,-1 0,-1 0,-1 0,-1 0,-1 0,-1 0,0 1,0 1,0 0,0 0,0 1,0 0,0 0,0 0,0 1,0 1,0 1,0 0,1 0,1 0,1 1,0 1,0 1,0 0,0 0,0 0,1zm6 19c0,0 0,0 0,0 0,1 0,1 -1,1 0,0 0,0 0,0 0,0 0,0 -1,0 0,-1 0,-1 0,-1 0,0 -1,0 -1,0 0,0 0,0 0,0 -1,0 -1,0 -1,-1 0,0 1,0 1,-1 0,0 0,-1 1,-1l2 -7c0,0 0,0 0,0 0,0 0,0 0,0 0,0 -1,0 -1,1 -1,0 -1,1 -1,1 0,0 0,0 0,0 -1,0 -1,-1 -1,-1 0,0 0,0 0,-1 0,0 0,0 0,-1 0,0 0,0 0,0 0,0 0,0 0,0l-3 7c0,0 0,1 0,2 0,0 0,0 0,1 0,0 0,0 0,0 0,0 -1,0 -1,0 0,0 0,0 0,0 0,0 -1,-1 -1,-1 0,0 0,0 -1,0 0,0 0,0 0,0 0,0 -1,0 0,-1 0,0 0,0 0,0 0,0 0,-1 0,-1 0,-1 1,-1 1,-2 0,0 0,-1 1,-2l2 -7c0,0 0,-1 1,-1 0,-1 0,-1 0,-1 0,-1 0,-1 0,-1 0,0 0,-1 0,-1 0,0 0,0 0,0 1,0 1,0 1,0 0,0 0,0 0,0 1,0 1,0 1,0 0,1 0,1 1,1 0,0 0,0 0,0 0,0 0,0 0,0 0,1 0,1 0,2 0,1 0,1 0,1 0,1 0,1 1,1 0,0 0,0 0,0 0,0 1,-1 1,-1 0,-1 1,-1 1,-1 0,-1 1,-1 1,-1 0,0 0,0 0,0 0,0 1,0 1,0 0,1 0,1 0,1 0,0 1,0 1,0 0,0 0,0 0,0 0,0 0,0 0,0 0,1 0,1 0,1 0,0 0,0 0,0 -1,1 -1,1 -1,1 0,0 0,1 0,1l-3 9c-1,1 -1,2 -1,2 0,1 0,2 0,2zm11 5c-1,0 -1,0 -1,0 0,0 0,0 0,0 -1,0 -1,0 -1,-1 0,0 0,0 0,0 -1,0 -1,0 -1,0 0,0 0,0 -1,0 0,0 0,0 0,0 0,0 0,-1 0,-1 0,0 0,0 0,0 0,0 1,0 1,-1 0,0 0,0 0,0 0,-1 0,-1 1,-2l1 -3 0 -1c0,0 0,-1 0,-1 0,0 0,1 0,1 -1,0 -1,1 -2,1 0,0 0,1 -1,1 0,1 -1,1 -1,2 0,0 0,0 0,1 0,0 0,0 0,0 0,1 0,1 0,1 0,1 0,1 0,1 0,0 -1,0 -1,0 0,0 0,0 0,0 -1,0 -1,0 -1,0 -1,-1 -1,-1 -1,-1 0,0 0,0 -1,0 0,0 0,0 0,0 0,-1 0,-1 0,-1 0,0 1,0 1,0 0,-1 0,-1 0,-2 1,0 1,-1 1,-1l3 -10c1,-1 1,-1 1,-2 0,0 0,0 0,-1 0,0 0,0 0,0 0,0 0,0 1,0 0,0 0,0 0,0 0,1 1,1 1,1l0 0c1,0 1,0 1,0l0 0c1,0 1,0 1,1 0,0 0,0 -1,0 0,0 0,0 0,0 0,1 0,1 0,1 -1,0 -1,1 -1,1l-1 3c0,0 0,0 0,0 0,0 1,0 2,-1 0,-1 1,-1 1,-1 0,-1 1,-1 1,-1 0,-1 0,-1 0,-1 0,0 0,0 0,0 0,-1 0,-1 0,-1 0,0 0,0 1,0 0,0 0,0 0,0 0,0 0,0 1,0 0,1 0,1 0,1 0,0 1,0 1,0 0,0 0,0 0,0 1,0 1,0 1,0 -1,1 -1,1 -1,1 0,1 -1,1 -1,2l-3 9c-1,1 -1,2 -1,2 0,1 0,1 0,1 0,1 0,1 0,1 0,0 0,1 0,1zm205 -61c8,4 17,13 22,26 0,3 0,3 -2,2 -7,0 -14,-1 -19,-3 0,-8 -1,-17 -1,-25zm-89 -71l0 0c3,0 5,0 8,0 0,-1 -1,-1 -1,-2 -1,0 -2,-1 -3,-1 -5,-4 -4,-12 0,-16 5,-5 6,-9 6,-19 -6,0 -14,0 -20,0 0,10 1,14 5,19 4,4 5,12 0,16 0,0 -1,1 -2,1 -1,1 -1,1 -1,2 2,0 5,0 8,0zm14 0c5,0 9,0 14,1 -1,-1 -1,-1 -2,-2 0,0 -1,-1 -2,-1 -4,-3 -3,-9 1,-12 3,-4 4,-7 4,-14 -5,0 -11,0 -17,0 0,7 1,10 5,14 3,3 4,9 0,12 -1,0 -1,1 -2,1 -1,0 -1,1 -1,1zm42 4c10,2 19,4 29,6l4 1 -1 4c-4,32 -3,64 1,96 1,13 0,25 -4,37l0 0 -4 8 0 0c-5,11 -13,20 -22,28 -16,14 -38,26 -58,30 -1,0 -1,0 -1,1 -1,-1 -1,-1 -1,-1 -20,-4 -43,-16 -58,-30 -22,-19 -34,-44 -30,-73 3,-32 5,-64 0,-96l0 -4 4 -1c9,-2 19,-4 28,-6 0,0 0,0 0,-1 0,-2 2,-5 7,-7 -8,-15 -23,-27 -37,-33 -1,0 -1,0 0,-1 7,-3 21,-1 23,4 7,-7 13,-2 14,3 -3,1 -4,4 -3,6 0,3 3,5 6,4 3,-1 4,-5 4,-6 0,-2 0,-1 0,-1 0,0 1,0 2,0 2,-1 4,-4 3,-7 0,-2 -2,-3 -3,-4 -1,0 -2,0 -3,0l0 0c-1,1 -3,2 -3,3 -10,0 -8,-15 2,-14 -2,-5 -3,-10 -3,-15 0,0 0,-1 1,-1 5,3 9,6 12,10 4,-10 18,-5 14,3 -3,0 -5,3 -5,6 0,3 2,5 5,5 3,0 5,-2 5,-4l0 0c1,0 1,0 2,0 0,0 -1,0 1,0 2,0 5,-2 5,-5 0,-3 -3,-5 -5,-5 -2,0 -2,0 -3,0l0 0c-8,-5 1,-16 9,-10 1,-5 3,-11 7,-16 0,0 0,0 0,0 3,5 5,11 6,16 8,-6 17,5 9,10l0 0c0,0 0,0 -2,0 -2,0 -6,2 -6,5 0,3 4,5 6,5 1,0 0,0 1,0 0,0 1,0 1,0l0 0c1,2 3,4 6,4 2,0 5,-2 5,-5 0,-3 -3,-6 -5,-6 -4,-8 9,-13 13,-3 3,-4 8,-7 13,-10 0,0 0,1 0,1 0,5 0,10 -2,15 10,-1 11,14 2,14 -1,-1 -2,-2 -4,-3l0 0c0,0 -1,0 -2,0 -2,1 -3,2 -4,4 -1,3 1,6 4,7 1,0 1,0 2,0 0,0 0,0 0,1 -1,3 1,5 3,6 3,1 6,-1 7,-4 1,-2 -1,-5 -3,-6 0,-5 6,-10 14,-3 2,-5 15,-7 22,-4 1,1 1,1 0,1 -13,6 -29,18 -37,33 5,1 8,5 7,7 0,1 0,1 0,1zm-84 -3c4,-1 9,-1 14,-1 -1,0 -1,-1 -2,-1 0,0 -1,-1 -1,-1 -5,-3 -4,-9 0,-12 3,-4 4,-7 4,-14 -5,0 -11,0 -17,0 1,7 1,10 5,14 3,3 4,9 0,12 -1,0 -1,1 -2,1 -1,1 -1,1 -1,2zm134 35c30,-17 30,-36 32,-57 0,-4 1,-4 -3,-1 -18,13 -34,26 -31,56 0,3 0,3 2,2zm-12 -31c-1,-15 -10,-19 -20,-23 -3,-1 -2,-2 -2,1 2,10 5,19 20,23 2,1 2,1 2,-1zm27 79c3,-5 8,-7 14,-9 1,-1 2,-2 1,0 -1,5 -2,10 -7,14 -3,2 -3,2 0,1 33,-15 36,-35 40,-58 1,-4 1,-3 -3,-1 -5,2 -9,4 -14,7 4,-11 4,-22 4,-34 1,-3 0,-2 -2,0 -21,13 -43,25 -41,62 0,3 0,3 3,2 3,-1 5,-2 8,-3 -4,8 -7,13 -7,24 -11,-27 -19,-53 -15,-81 21,-27 14,-44 9,-63 -1,-3 0,-2 -2,0 -11,19 -22,36 -9,63 -2,10 -2,22 0,33 1,4 0,3 -1,0 -2,-3 -6,-8 -10,-11 0,12 -1,23 -1,34 5,2 13,4 18,4 3,10 7,20 10,30l4 -1c-2,-5 -2,-8 1,-13zm14 71c13,37 -3,52 -19,54 9,-5 14,-21 15,-31 4,-18 -5,-22 -8,-30 -1,-3 0,-3 -2,1 -8,14 -2,21 3,28 4,4 5,5 3,10 -4,17 -25,25 -37,17 -12,-9 -12,-25 -2,-32 3,-2 11,-5 14,-2 1,1 2,2 2,3 0,2 -2,4 -4,4 -1,0 -3,0 -4,-1 0,-1 0,-1 0,0 0,6 5,10 11,10 11,0 14,-13 8,-20 -3,-3 -8,-6 -14,-6 -18,0 -31,22 -22,39 6,13 21,19 35,18 29,-1 39,-29 31,-52 11,-3 19,-7 25,-12 19,2 26,-7 34,-15 2,-3 1,-2 -2,-2 -7,-1 -13,0 -19,1 2,-4 4,-9 6,-14 2,-6 1,-4 -4,-2 -11,4 -22,8 -30,16 -3,2 -6,5 -8,10 -2,3 -3,6 -5,10 -2,-5 -4,-13 -7,-19l-5 2c2,5 4,10 5,15zm-52 4c16,-12 35,-17 51,-22 11,-4 23,-9 34,-14 5,-3 8,-5 10,-9 1,-1 2,-3 2,-4 1,-3 1,-3 0,-1 -2,3 -5,5 -8,8 -12,7 -36,15 -49,20 -13,5 -27,10 -37,16l-2 4 0 0c0,1 -1,1 -1,2 -1,1 -1,1 0,0zm-172 -88c-9,4 -18,13 -22,26 -1,3 -1,3 2,2 6,0 13,-1 18,-3 1,-8 1,-17 2,-25zm-18 -35c-29,-17 -30,-36 -32,-57 0,-4 0,-4 4,-1 18,13 33,26 31,56 0,3 0,3 -3,2zm13 -31c0,-15 9,-19 19,-23 3,-1 3,-2 2,1 -2,10 -4,19 -20,23 -1,1 -2,1 -1,-1zm-28 79c-3,-5 -8,-7 -13,-9 -2,-1 -2,-2 -2,0 1,5 3,10 7,14 3,2 3,2 0,1 -33,-15 -36,-35 -40,-58 0,-4 0,-3 3,-1 5,2 10,4 14,7 -4,-11 -4,-22 -4,-34 0,-3 0,-2 2,0 22,13 43,25 41,62 0,3 0,3 -3,2 -2,-1 -5,-2 -7,-3 3,8 7,13 7,24 11,-27 19,-53 15,-81 -22,-27 -15,-44 -10,-63 1,-3 1,-2 2,0 12,19 22,36 9,63 2,10 2,22 0,33 0,4 0,3 1,0 2,-3 6,-8 10,-11 1,12 1,23 1,34 -5,2 -13,4 -18,4 -3,10 -6,20 -10,30l-3 -1c2,-5 2,-8 -2,-13zm-14 71c-12,37 3,52 19,54 -9,-5 -14,-21 -15,-31 -4,-18 5,-22 8,-30 1,-3 1,-3 3,1 7,14 1,21 -4,28 -4,4 -4,5 -3,10 4,17 25,25 37,17 12,-9 12,-25 3,-32 -4,-2 -11,-5 -15,-2 -1,1 -1,2 -1,3 0,2 1,4 3,4 2,0 3,0 4,-1 0,-1 0,-1 0,0 0,6 -5,10 -10,10 -12,0 -15,-13 -8,-20 3,-3 8,-6 13,-6 19,0 31,22 22,39 -6,13 -20,19 -34,18 -29,-1 -39,-29 -32,-52 -11,-3 -19,-7 -24,-12 -20,2 -27,-7 -35,-15 -2,-3 -1,-2 2,-2 7,-1 14,0 20,1 -3,-4 -5,-9 -7,-14 -2,-6 0,-4 4,-2 12,4 22,8 30,16 4,2 6,5 9,10 1,3 3,6 4,10 2,-5 5,-13 7,-19l5 2c-1,5 -3,10 -5,15zm53 5c-17,-13 -36,-18 -52,-23 -11,-4 -23,-9 -33,-14 -6,-3 -9,-5 -11,-9 -1,-2 -2,-4 -2,-6 -1,-1 -1,-1 0,0 2,3 5,6 8,9 12,7 36,15 50,20 13,5 26,10 37,16l1 4 1 0c0,1 0,2 1,2 0,1 0,1 0,1zm27 45c-3,-1 -10,-4 -14,-8 -1,-2 -1,-3 0,-4 4,-2 6,-3 6,-5 1,-4 -2,-7 3,-1 5,5 6,10 5,18zm112 0c2,-1 10,-4 13,-8 2,-2 2,-3 1,-4 -5,-2 -6,-3 -7,-5 0,-4 3,-7 -3,-1 -4,5 -6,10 -4,18zm-56 53c0,0 0,0 0,0 0,0 0,0 0,0 0,0 0,0 0,0 -29,0 -67,-6 -87,-23 -6,-5 -7,-10 -5,-14 0,0 0,-1 1,-2 0,0 0,0 0,1 0,5 4,10 8,13 17,14 55,22 83,22 0,0 0,0 0,0 0,0 0,0 0,0 0,0 0,0 0,0 0,0 0,0 0,0 28,0 65,-8 83,-22 3,-3 7,-8 8,-13 0,-1 0,-1 0,0 0,0 1,1 1,1 2,4 1,9 -5,14 -21,17 -58,23 -87,23 0,0 0,0 0,0zm89 -41c-3,-3 -5,-6 -8,-8 -2,-2 -3,-4 -4,-5 -1,-3 0,-1 -2,0 -7,8 -25,14 -43,17 -22,4 -40,5 -63,0 -18,-3 -38,-8 -45,-17 -1,-1 -1,-3 -2,0 -1,1 -2,3 -3,5 -3,2 -6,5 -8,7 0,1 0,1 0,2 1,6 3,10 8,13 9,7 20,12 32,15 31,8 67,8 97,0 12,-3 24,-8 33,-15 4,-3 7,-8 8,-14 0,0 0,0 0,0zm-17 -27c-2,-1 -2,0 -1,1 3,2 2,7 -1,9 -7,5 -18,10 -31,13 -27,7 -53,7 -80,0 -12,-4 -23,-8 -29,-13 -3,-2 -4,-7 -2,-9 2,-1 1,-2 -1,-1 -3,3 -5,10 -1,13 8,8 26,13 44,16 25,5 36,4 61,0 17,-3 35,-8 42,-16 4,-3 3,-10 -1,-13zm-253 -92c2,-6 2,-13 1,-20 0,-2 0,-4 1,-5 0,-1 0,-1 0,0 2,5 6,8 11,12 12,7 25,12 38,17 13,4 25,9 37,15 -1,10 1,20 4,30 1,1 1,1 1,2l0 0 0 0c0,1 0,0 0,0 -14,-8 -35,-14 -54,-21 -9,-4 -27,-10 -35,-18 -3,-3 -4,-7 -4,-12zm6 -33c3,-2 5,-4 9,-5l1 1c-10,4 -11,9 -7,13 7,7 18,13 29,17 15,6 39,12 50,20 0,1 0,2 0,3 -20,-11 -44,-16 -65,-26 -8,-5 -19,-11 -19,-18 0,-3 1,-4 2,-5zm24 107c-22,8 -32,1 -43,-7 -3,-2 -2,-2 2,-3 14,-3 27,-6 41,7 2,2 2,2 0,3zm331 -76c-1,-6 -2,-11 -1,-18 0,-2 0,-4 0,-6 -1,0 0,0 -1,0 -1,6 -5,9 -11,13 -11,7 -25,12 -38,17 -12,4 -25,9 -36,15 0,10 -1,20 -5,30 0,1 0,1 0,1 -1,1 -1,2 0,1 14,-8 35,-14 53,-21 10,-4 30,-10 36,-19 3,-4 3,-8 3,-13zm-5 -31c-3,-2 -6,-4 -10,-5l0 1c9,4 11,9 7,13 -8,7 -19,13 -30,17 -15,6 -39,12 -50,20 0,1 0,2 0,3 20,-11 44,-16 65,-26 9,-5 20,-11 19,-20 0,-1 0,-2 -1,-3zm-24 107c21,8 31,1 42,-7 4,-2 2,-2 -1,-3 -14,-3 -27,-6 -41,7 -2,2 -3,2 0,3zm-151 -226l0 0 0 0 0 0 0 0 0 0c2,0 4,-2 4,-4 0,-2 -2,-4 -4,-4l0 0 0 0 0 0 0 0 0 0 0 0c-2,0 -4,2 -4,4 0,2 2,4 4,4l0 0zm-35 4c-2,0 -4,1 -4,4 0,2 2,3 4,3 2,0 3,-1 3,-3 0,-3 -1,-4 -3,-4zm70 0c2,0 4,1 4,4 0,2 -2,3 -4,3 -2,0 -4,-1 -4,-3 0,-3 2,-4 4,-4zm46 196l-4 8c-5,10 -12,19 -21,27 -15,13 -37,24 -56,29 -20,-5 -41,-16 -56,-29 -21,-18 -32,-41 -29,-69 4,-33 5,-65 1,-98 27,-7 55,-10 84,-10l0 0c28,0 56,3 84,10 -5,33 -3,65 0,98 2,12 0,24 -3,34z"/>
 </g>
</svg>
