<?xml version="1.0" encoding="UTF-8"?>
<!DOCTYPE svg PUBLIC "-//W3C//DTD SVG 1.1//EN" "http://www.w3.org/Graphics/SVG/1.1/DTD/svg11.dtd">
<!-- Creator: CorelDRAW X7 -->
<svg xmlns="http://www.w3.org/2000/svg" xml:space="preserve" width="600px" height="111px" version="1.1" style="shape-rendering:geometricPrecision; text-rendering:geometricPrecision; image-rendering:optimizeQuality; fill-rule:evenodd; clip-rule:evenodd"
viewBox="0 0 359665 66309"
 xmlns:xlink="http://www.w3.org/1999/xlink">
 <defs>
  <style type="text/css">
   <![CDATA[
    .fil2 {fill:#FEFEFE}
    .fil0 {fill:#BF1F27}
    .fil1 {fill:#32A4A2;fill-rule:nonzero}
   ]]>
  </style>
 </defs>
 <g id="Слой_x0020_1">
  <metadata id="CorelCorpID_0Corel-Layer"/>
  <path class="fil0" d="M27936 0l74855 0c-13518,21771 -19329,37761 -27936,66309l-74855 0c8608,-28548 14418,-44538 27936,-66309z"/>
  <path class="fil1" d="M345523 30983l2260 7c664,3 1297,-104 1903,-317 610,-216 1196,-541 1759,-974l1 1c531,-418 930,-926 1197,-1526 273,-612 410,-1325 413,-2139 2,-692 -105,-1331 -323,-1916l0 -2c-217,-585 -546,-1123 -985,-1619l-1 1c-425,-475 -967,-835 -1626,-1079 -680,-252 -1491,-381 -2432,-384 -1099,-4 -2204,208 -3313,633 -1123,432 -2256,1085 -3396,1958l-409 313 -324 -401 -2430 -3007 -328 -407 401 -333c1563,-1299 3178,-2272 4844,-2922 1674,-653 3396,-977 5162,-971 1464,5 2810,228 4042,670 1237,443 2353,1107 3352,1989 1008,890 1760,1911 2260,3062 500,1148 746,2418 741,3810 -6,1857 -426,3425 -1261,4705 -650,995 -1545,1804 -2684,2427 1605,836 2848,1904 3729,3205 1067,1575 1597,3474 1589,5699 -4,1405 -256,2743 -756,4015 -499,1265 -1242,2459 -2231,3579 -1008,1142 -2259,1995 -3751,2559 -1474,558 -3179,833 -5118,826 -2369,-7 -4508,-402 -6422,-1183 -1921,-785 -3607,-1955 -5059,-3511l-329 -352 319 -360 2735 -3086 398 -449 396 452c984,1120 2109,1961 3374,2522 1264,562 2677,844 4234,849 1037,4 1955,-129 2757,-400 787,-265 1466,-666 2040,-1203 568,-530 994,-1146 1279,-1845 288,-708 434,-1509 437,-2399 3,-871 -139,-1650 -425,-2338 -281,-682 -708,-1280 -1276,-1794 -578,-524 -1209,-917 -1890,-1180 -681,-262 -1417,-395 -2208,-398l-2661 -9 -531 -1 2 -531 13 -3717 1 -531 531 2zm-159650 -6148l-9094 21353 17690 58 -8596 -21411zm-14451 21336l12959 -29620 140 -321 346 1 2260 7 349 2 137 321 12660 29704 3706 12 531 2 -2 531 -26 7984 -1 531 -531 -2 -4172 -14 -531 -2 2 -530 12 -3768 -26788 -88 -13 3958 -2 531 -530 -2 -4267 -14 -531 -1 2 -531 27 -8175 2 -530 530 2 3731 12zm-11238 -16587c-243,-866 -527,-1656 -849,-2369 -401,-887 -862,-1658 -1380,-2311l-1 1c-528,-662 -1139,-1262 -1836,-1797 -696,-535 -1478,-1008 -2346,-1415 -876,-411 -1769,-719 -2680,-925 -909,-204 -1848,-308 -2819,-311 -1586,-5 -3060,245 -4416,749 -1358,504 -2606,1264 -3743,2277l0 2c-827,731 -1554,1649 -2181,2752 -539,948 -1008,2038 -1405,3270l23656 77zm908 9127l3637 1934 460 245 -237 463c-612,1198 -1271,2278 -1976,3241 -713,974 -1479,1835 -2296,2586l0 3c-815,743 -1677,1397 -2589,1960 -913,565 -1875,1039 -2884,1422 -1016,385 -2099,673 -3248,864 -1140,190 -2339,283 -3598,279 -2815,-9 -5326,-480 -7534,-1413 -2220,-939 -4127,-2343 -5724,-4213 -1581,-1853 -2765,-3826 -3552,-5921 -790,-2100 -1180,-4314 -1172,-6648 7,-2192 352,-4269 1033,-6228 680,-1956 1696,-3792 3049,-5503l0 1c1717,-2182 3727,-3822 6028,-4913 2300,-1092 4880,-1635 7738,-1625 2944,10 5596,582 7954,1713 2365,1135 4426,2827 6181,5074l0 0c1253,1590 2195,3375 2827,5355 629,1969 950,4130 963,6482l4 535 -534 -1 -29711 -98c76,1685 384,3227 922,4627 593,1546 1469,2922 2623,4129 1155,1204 2443,2108 3863,2711 1420,603 2982,908 4689,914 835,2 1652,-66 2449,-207 800,-141 1588,-354 2365,-640 782,-289 1510,-625 2181,-1009 657,-378 1255,-800 1792,-1267l2 -3c540,-466 1110,-1086 1707,-1858 604,-781 1234,-1714 1886,-2797l259 -429 443 235zm-45508 -22707l1236 4 379 2 121 361 11307 33706 235 702 -739 -3 -4509 -14 -380 -2 -122 -363 -7859 -23635 -12430 23645 -150 286 -319 -1 -803 -3 -319 -1 -149 -286 -12315 -23727 -7974 23584 -123 362 -380 -1 -4520 -15 -740 -2 241 -701 11590 -33632 124 -359 379 1 1172 4 323 0 147 289 13006 25467 13100 -25379 149 -290 322 1zm213486 18307c6,-1801 -300,-3470 -918,-5011 -619,-1542 -1551,-2959 -2797,-4253 -1247,-1296 -2606,-2268 -4076,-2916 -1465,-644 -3049,-970 -4752,-975 -1714,-6 -3308,309 -4782,944 -1480,638 -2848,1601 -4103,2889 -1254,1286 -2196,2697 -2825,4235 -628,1536 -945,3203 -951,5005 -6,1791 286,3449 879,4971 590,1516 1480,2904 2672,4159 1185,1254 2526,2194 4026,2822 1501,628 3167,944 4999,950 1797,6 3445,-300 4943,-920 1492,-617 2842,-1549 4045,-2794 1208,-1252 2116,-2636 2722,-4151 606,-1512 912,-3166 918,-4955zm-35666 17058l-4362 -14 -530 -1 1 -531 111 -33669 1 -531 531 2 4362 14 531 2 -2 531 -45 13611 4657 15c416,-2131 1110,-4072 2085,-5820 1039,-1861 2394,-3496 4070,-4901 1679,-1413 3496,-2474 5450,-3181 1953,-705 4036,-1055 6248,-1048 2561,9 4917,469 7069,1384 2151,913 4089,2278 5813,4095 1714,1807 3000,3787 3857,5940 857,2155 1283,4478 1274,6967 -7,2470 -446,4773 -1316,6904 -869,2129 -2165,4082 -3891,5856 -1725,1779 -3666,3112 -5818,3999 -2154,887 -4513,1327 -7075,1319 -2291,-8 -4441,-392 -6449,-1153 -2008,-761 -3864,-1894 -5568,-3403l1 -1c-1716,-1510 -3062,-3275 -4037,-5295 -911,-1886 -1499,-3995 -1764,-6324l-4623 -15 -48 14720 -2 530 -531 -2zm-27693 -30380c-1723,-5 -3323,308 -4800,939 -1480,633 -2842,1587 -4084,2863 -1245,1275 -2178,2683 -2802,4225 -623,1540 -937,3222 -943,5046 -4,1178 132,2313 411,3403 277,1084 698,2133 1263,3146l0 2c559,1015 1218,1912 1977,2694 754,777 1611,1441 2571,1997 958,551 1962,965 3011,1241 1049,276 2153,416 3311,420 1153,3 2255,-129 3307,-399 1053,-269 2062,-676 3028,-1221l0 1c955,-548 1816,-1207 2580,-1983 764,-775 1431,-1667 1997,-2679 568,-1011 996,-2063 1283,-3153 285,-1084 430,-2213 434,-3386 6,-1824 -301,-3508 -917,-5053 -618,-1545 -1547,-2959 -2788,-4243 -1242,-1286 -2598,-2250 -4068,-2892 -1465,-639 -3055,-962 -4771,-968zm17 -5306c2659,8 5094,501 7305,1479 2213,978 4193,2437 5942,4377l0 2c1588,1767 2774,3694 3562,5780 790,2092 1180,4342 1173,6747 -8,2413 -438,4682 -1288,6802 -849,2116 -2115,4077 -3797,5878 -1695,1808 -3631,3162 -5806,4063 -2171,898 -4574,1342 -7210,1334 -2646,-9 -5054,-469 -7225,-1381 -2174,-915 -4103,-2282 -5786,-4102 -1673,-1809 -2926,-3774 -3760,-5894 -837,-2128 -1251,-4402 -1242,-6819 7,-2394 412,-4633 1216,-6714 802,-2075 2001,-3992 3599,-5748l-1 0c1756,-1940 3748,-3395 5974,-4364 2224,-969 4674,-1450 7344,-1440zm-21848 8776l-3439 2123 -412 254 -291 -387c-1431,-1907 -3119,-3338 -5067,-4294 -1949,-956 -4167,-1440 -6658,-1447 -1986,-7 -3802,304 -5443,935 -1639,629 -3114,1576 -4423,2841 -1310,1266 -2292,2666 -2946,4200 -654,1534 -983,3211 -989,5030 -4,1185 142,2330 437,3440 296,1111 743,2190 1339,3241l-1 1c595,1040 1302,1965 2122,2775 816,807 1747,1499 2792,2077 1048,579 2159,1016 3331,1307 1172,292 2414,441 3727,445 2396,8 4569,-458 6521,-1401 1954,-943 3694,-2368 5218,-4274l301 -378 404 268 3425 2272 444 294 -297 442c-839,1245 -1816,2350 -2935,3314 -1116,961 -2374,1781 -3776,2463 -1401,681 -2893,1190 -4477,1526 -1583,336 -3257,501 -5024,495 -2726,-9 -5222,-451 -7488,-1327 -2270,-878 -4306,-2189 -6106,-3936 -1799,-1751 -3148,-3689 -4045,-5814 -899,-2128 -1344,-4438 -1337,-6932 6,-1680 222,-3302 650,-4864 428,-1556 1066,-3049 1916,-4479l2 0c847,-1438 1852,-2715 3014,-3834 1166,-1121 2488,-2082 3967,-2886l2 0c1477,-800 3043,-1401 4696,-1801 1648,-397 3377,-595 5186,-588 1135,3 2256,97 3364,277 1105,181 2187,447 3249,796l2 2c1063,356 2042,762 2938,1219 902,459 1726,972 2475,1538l2 3c750,573 1442,1220 2075,1942 635,724 1211,1523 1731,2401l265 449 -441 272z"/>
  <path class="fil2" d="M48042 7199c14332,47 25918,11708 25871,26040 -47,14332 -11709,25918 -26041,25871 -14331,-47 -25917,-11708 -25870,-26041 47,-14332 11708,-25917 26040,-25870zm-7 2151c13144,44 23769,10738 23726,23882 -43,13144 -10737,23769 -23882,23726 -13143,-43 -23769,-10737 -23726,-23882 43,-13144 10738,-23769 23882,-23726zm-5164 4610l10297 34 -45 14029 14028 45 -33 10298 -14029 -46 -46 14029 -10297 -34 45 -14029 -14028 -45 34 -10298 14028 46 46 -14029z"/>
 </g>
</svg>
