<?xml version="1.0" encoding="UTF-8"?>
<!DOCTYPE svg PUBLIC "-//W3C//DTD SVG 1.1//EN" "http://www.w3.org/Graphics/SVG/1.1/DTD/svg11.dtd">
<!-- Creator: CorelDRAW X7 -->
<svg xmlns="http://www.w3.org/2000/svg" xml:space="preserve" width="300px" height="87px" version="1.1" style="shape-rendering:geometricPrecision; text-rendering:geometricPrecision; image-rendering:optimizeQuality; fill-rule:evenodd; clip-rule:evenodd"
viewBox="0 0 297489 86252"
 xmlns:xlink="http://www.w3.org/1999/xlink">
 <defs>
  <style type="text/css">
   <![CDATA[
    .str0 {stroke:black;stroke-width:1473.57}
    .fil2 {fill:none;fill-rule:nonzero}
    .fil0 {fill:#FF0033}
    .fil1 {fill:black;fill-rule:nonzero}
   ]]>
  </style>
 </defs>
 <g id="Слой_x0020_1">
  <metadata id="CorelCorpID_0Corel-Layer"/>
  <g id="logo-rubik-new.cdr">
   <polygon class="fil0" points="0,9399 21368,9399 21368,30766 0,30766 "/>
   <rect class="fil0" x="67590" width="21368" height="21368"/>
   <rect class="fil0" x="27606" y="9399" width="21368" height="21368"/>
   <rect class="fil0" y="64610" width="21368" height="21368"/>
   <rect class="fil0" x="55212" y="64610" width="21368" height="21368"/>
   <rect class="fil0" x="27606" y="64610" width="21368" height="21368"/>
   <rect class="fil0" y="37004" width="21368" height="21368"/>
   <rect class="fil0" x="55212" y="37004" width="21368" height="21368"/>
   <rect class="fil0" x="27606" y="37005" width="21368" height="21368"/>
   <path class="fil1" d="M105911 61605c-477,0 -858,-153 -1144,-460 -286,-307 -430,-696 -430,-1168l0 -46240c0,-519 144,-932 430,-1239 286,-307 667,-460 1144,-460l17455 0c5437,0 9693,1263 12770,3788 3076,2526 4614,6196 4614,11011 0,3588 -907,6539 -2719,8852 -1812,2313 -4340,3918 -7583,4815l11017 18906c143,283 215,543 215,779 0,378 -143,708 -429,992 -287,283 -621,424 -1002,424l-3148 0c-715,0 -1275,-165 -1681,-495 -405,-331 -775,-803 -1109,-1417l-10515 -18127 -12734 0 0 18411c0,472 -167,861 -501,1168 -334,307 -739,460 -1216,460l-3434 0zm17169 -25846c7201,0 10802,-2997 10802,-8993 0,-5995 -3601,-8992 -10802,-8992l-12018 0 0 17985 12018 0z"/>
   <path id="1" class="fil1" d="M167414 62314c-4530,0 -8036,-1452 -10515,-4355 -2481,-2904 -3721,-6763 -3721,-11578l0 -19969c0,-472 155,-861 465,-1168 311,-307 704,-460 1181,-460l3291 0c476,0 870,153 1180,460 310,307 465,696 465,1168l0 19615c0,7176 3148,10763 9443,10763 3052,0 5472,-956 7261,-2868 1788,-1912 2682,-4543 2682,-7895l0 -19615c0,-472 155,-861 465,-1168 310,-307 704,-460 1181,-460l3291 0c476,0 870,153 1180,460 310,307 465,696 465,1168l0 33565c0,472 -155,861 -465,1168 -310,307 -704,460 -1180,460l-3077 0c-477,0 -870,-153 -1180,-460 -310,-307 -465,-696 -465,-1168l0 -3187c-1383,1841 -3005,3222 -4864,4143 -1860,920 -4221,1381 -7083,1381z"/>
   <path id="2" class="fil1" d="M217972 62314c-5150,0 -9085,-1794 -11803,-5382l0 3045c0,472 -155,861 -465,1168 -310,307 -704,460 -1181,460l-3004 0c-477,0 -870,-153 -1181,-460 -310,-307 -465,-696 -465,-1168l0 -47019c0,-519 155,-920 465,-1203 311,-284 704,-425 1181,-425l3219 0c477,0 870,153 1180,460 310,307 465,696 465,1168l0 16358c2671,-3494 6534,-5240 11589,-5240 5008,0 8763,1617 11267,4850 2504,3234 3827,7282 3971,12144 47,520 71,1228 71,2125 0,897 -24,1605 -71,2124 -144,4862 -1467,8910 -3971,12144 -2504,3234 -6259,4851 -11267,4851zm-1359 -5524c3434,0 5938,-1062 7511,-3186 1574,-2125 2433,-4910 2576,-8356 47,-472 71,-1156 71,-2053 0,-9064 -3386,-13596 -10158,-13596 -3243,0 -5735,1050 -7476,3151 -1740,2101 -2658,4591 -2754,7471 -47,519 -71,1439 -71,2761 0,1275 24,2172 71,2691 96,3021 990,5629 2683,7825 1693,2195 4209,3292 7547,3292z"/>
   <path id="3" class="fil1" d="M246712 17844c-478,0 -871,-153 -1181,-460 -310,-307 -465,-696 -465,-1168l0 -3682c0,-472 155,-874 465,-1204 310,-331 703,-496 1181,-496l4220 0c477,0 883,165 1216,496 334,330 501,732 501,1204l0 3682c0,472 -167,861 -501,1168 -333,307 -739,460 -1216,460l-4220 0zm572 43761c-477,0 -871,-153 -1181,-460 -310,-307 -465,-696 -465,-1168l0 -33565c0,-472 155,-861 465,-1168 310,-307 704,-460 1181,-460l3147 0c477,0 871,153 1181,460 310,307 465,696 465,1168l0 33565c0,472 -155,861 -465,1168 -310,307 -704,460 -1181,460l-3147 0z"/>
   <path id="4" class="fil1" d="M267868 61605c-477,0 -871,-153 -1181,-460 -310,-307 -464,-696 -464,-1168l0 -47019c0,-519 154,-920 464,-1203 310,-284 704,-425 1181,-425l3076 0c477,0 870,153 1180,460 310,307 465,696 465,1168l0 24713 14308 -11683c715,-520 1216,-850 1502,-992 286,-141 739,-212 1359,-212l3577 0c429,0 775,130 1037,389 262,260 394,626 394,1098 0,425 -263,873 -787,1345l-16740 13596 18528 17561c525,519 787,968 787,1345 0,425 -131,779 -393,1063 -263,283 -608,424 -1038,424l-3505 0c-715,0 -1228,-70 -1538,-212 -310,-142 -751,-472 -1324,-991l-16167 -15154 0 14729c0,472 -155,861 -465,1168 -310,307 -703,460 -1180,460l-3076 0z"/>
   <path id="5" class="fil2 str0" d="M105911 61605c-477,0 -858,-153 -1144,-460 -286,-307 -430,-696 -430,-1168l0 -46240c0,-519 144,-932 430,-1239 286,-307 667,-460 1144,-460l17455 0c5437,0 9693,1263 12770,3788 3076,2526 4614,6196 4614,11011 0,3588 -907,6539 -2719,8852 -1812,2313 -4340,3918 -7583,4815l11017 18906c143,283 215,543 215,779 0,378 -143,708 -429,992 -287,283 -621,424 -1002,424l-3148 0c-715,0 -1275,-165 -1681,-495 -405,-331 -775,-803 -1109,-1417l-10515 -18127 -12734 0 0 18411c0,472 -167,861 -501,1168 -334,307 -739,460 -1216,460l-3434 0zm17169 -25846c7201,0 10802,-2997 10802,-8993 0,-5995 -3601,-8992 -10802,-8992l-12018 0 0 17985 12018 0z"/>
   <path id="6" class="fil2 str0" d="M167414 62314c-4530,0 -8036,-1452 -10515,-4355 -2481,-2904 -3721,-6763 -3721,-11578l0 -19969c0,-472 155,-861 465,-1168 311,-307 704,-460 1181,-460l3291 0c476,0 870,153 1180,460 310,307 465,696 465,1168l0 19615c0,7176 3148,10763 9443,10763 3052,0 5472,-956 7261,-2868 1788,-1912 2682,-4543 2682,-7895l0 -19615c0,-472 155,-861 465,-1168 310,-307 704,-460 1181,-460l3291 0c476,0 870,153 1180,460 310,307 465,696 465,1168l0 33565c0,472 -155,861 -465,1168 -310,307 -704,460 -1180,460l-3077 0c-477,0 -870,-153 -1180,-460 -310,-307 -465,-696 -465,-1168l0 -3187c-1383,1841 -3005,3222 -4864,4143 -1860,920 -4221,1381 -7083,1381z"/>
   <path id="7" class="fil2 str0" d="M217972 62314c-5150,0 -9085,-1794 -11803,-5382l0 3045c0,472 -155,861 -465,1168 -310,307 -704,460 -1181,460l-3004 0c-477,0 -870,-153 -1181,-460 -310,-307 -465,-696 -465,-1168l0 -47019c0,-519 155,-920 465,-1203 311,-284 704,-425 1181,-425l3219 0c477,0 870,153 1180,460 310,307 465,696 465,1168l0 16358c2671,-3494 6534,-5240 11589,-5240 5008,0 8763,1617 11267,4850 2504,3234 3827,7282 3971,12144 47,520 71,1228 71,2125 0,897 -24,1605 -71,2124 -144,4862 -1467,8910 -3971,12144 -2504,3234 -6259,4851 -11267,4851zm-1359 -5524c3434,0 5938,-1062 7511,-3186 1574,-2125 2433,-4910 2576,-8356 47,-472 71,-1156 71,-2053 0,-9064 -3386,-13596 -10158,-13596 -3243,0 -5735,1050 -7476,3151 -1740,2101 -2658,4591 -2754,7471 -47,519 -71,1439 -71,2761 0,1275 24,2172 71,2691 96,3021 990,5629 2683,7825 1693,2195 4209,3292 7547,3292z"/>
   <path id="8" class="fil2 str0" d="M246712 17844c-478,0 -871,-153 -1181,-460 -310,-307 -465,-696 -465,-1168l0 -3682c0,-472 155,-874 465,-1204 310,-331 703,-496 1181,-496l4220 0c477,0 883,165 1216,496 334,330 501,732 501,1204l0 3682c0,472 -167,861 -501,1168 -333,307 -739,460 -1216,460l-4220 0zm572 43761c-477,0 -871,-153 -1181,-460 -310,-307 -465,-696 -465,-1168l0 -33565c0,-472 155,-861 465,-1168 310,-307 704,-460 1181,-460l3147 0c477,0 871,153 1181,460 310,307 465,696 465,1168l0 33565c0,472 -155,861 -465,1168 -310,307 -704,460 -1181,460l-3147 0z"/>
   <path id="9" class="fil2 str0" d="M267868 61605c-477,0 -871,-153 -1181,-460 -310,-307 -464,-696 -464,-1168l0 -47019c0,-519 154,-920 464,-1203 310,-284 704,-425 1181,-425l3076 0c477,0 870,153 1180,460 310,307 465,696 465,1168l0 24713 14308 -11683c715,-520 1216,-850 1502,-992 286,-141 739,-212 1359,-212l3577 0c429,0 775,130 1037,389 262,260 394,626 394,1098 0,425 -263,873 -787,1345l-16740 13596 18528 17561c525,519 787,968 787,1345 0,425 -131,779 -393,1063 -263,283 -608,424 -1038,424l-3505 0c-715,0 -1228,-70 -1538,-212 -310,-142 -751,-472 -1324,-991l-16167 -15154 0 14729c0,472 -155,861 -465,1168 -310,307 -703,460 -1180,460l-3076 0z"/>
   <path class="fil1" d="M108854 85987c-255,0 -452,-53 -589,-160 -138,-106 -256,-274 -355,-504l-4158 -12323 -60 -292c0,-141 60,-265 177,-372 118,-106 256,-159 413,-159l561 0c177,0 324,44 442,133 118,88 187,177 207,265l3628 11048 3864 -10915c39,-141 128,-265 265,-372 138,-106 315,-159 531,-159l590 0c216,0 394,53 531,159 138,107 226,231 266,372l3864 10915 3628 -11048c20,-88 88,-177 206,-265 118,-89 266,-133 443,-133l560 0c157,0 295,53 413,159 118,107 177,231 177,372l-59 292 -4159 12323c-98,230 -216,398 -354,504 -137,107 -334,160 -590,160l-501 0c-531,0 -866,-221 -1003,-664l-3717 -10464 -3716 10464c-138,443 -472,664 -1003,664l-502 0z"/>
   <path id="1" class="fil1" d="M137323 86252c-1868,0 -3372,-553 -4513,-1659 -1140,-1107 -1789,-2590 -1946,-4449l-30 -1062 30 -1062c157,-1842 801,-3320 1932,-4436 1130,-1115 2639,-1673 4527,-1673 2045,0 3643,611 4793,1833 1151,1222 1726,2895 1726,5019l0 399c0,177 -64,318 -192,424 -127,107 -290,160 -487,160l-10500 0 0 265c39,832 250,1607 634,2324 383,717 919,1293 1607,1726 689,434 1495,651 2419,651 1082,0 1962,-190 2640,-571 679,-381 1165,-766 1460,-1155 177,-213 310,-346 398,-399 89,-53 251,-79 487,-79l472 0c177,0 324,44 443,132 118,89 177,204 177,346 0,372 -261,819 -782,1341 -521,522 -1244,974 -2168,1354 -924,381 -1967,571 -3127,571zm4720 -7993l0 -107c0,-1363 -428,-2487 -1283,-3372 -856,-886 -2001,-1328 -3437,-1328 -1435,0 -2571,442 -3407,1328 -836,885 -1253,2009 -1253,3372l0 107 9380 0z"/>
   <path id="2" class="fil1" d="M158477 86252c-2163,0 -3815,-699 -4955,-2098l0 1248c0,177 -59,319 -177,425 -118,107 -276,160 -472,160l-502 0c-197,0 -354,-53 -472,-160 -118,-106 -177,-248 -177,-425l0 -17687c0,-177 59,-318 177,-425 118,-106 275,-159 472,-159l502 0c196,0 354,53 472,159 118,107 177,248 177,425l0 6294c1160,-1398 2812,-2098 4955,-2098 2124,0 3692,624 4705,1873 1012,1248 1548,2766 1607,4554 20,177 30,425 30,744 0,319 -10,566 -30,743 -59,1789 -595,3307 -1607,4555 -1013,1248 -2581,1872 -4705,1872zm-177 -1540c1593,0 2758,-456 3496,-1368 737,-912 1135,-2084 1194,-3519 20,-177 30,-424 30,-743 0,-1647 -354,-2997 -1062,-4050 -708,-1054 -1927,-1580 -3658,-1580 -1042,0 -1917,221 -2625,664 -708,442 -1239,1004 -1593,1686 -354,682 -541,1403 -560,2164l-30 1036 30 1036c59,1257 481,2350 1268,3280 787,929 1957,1394 3510,1394z"/>
   <path id="3" class="fil1" d="M204108 86252c-1278,0 -2355,-195 -3230,-584 -875,-389 -1534,-832 -1976,-1328 -442,-495 -664,-894 -664,-1195 0,-159 69,-288 207,-385 138,-97 285,-146 442,-146l443 0c137,0 251,22 339,66 88,45 192,138 310,279 432,549 958,978 1578,1288 619,310 1470,465 2551,465 1219,0 2203,-208 2950,-624 747,-416 1121,-1014 1121,-1793 0,-478 -153,-867 -458,-1168 -304,-301 -796,-562 -1474,-784 -679,-221 -1686,-473 -3024,-757 -1750,-354 -2944,-841 -3583,-1460 -640,-620 -959,-1408 -959,-2364 0,-655 201,-1275 605,-1859 403,-584 1002,-1062 1799,-1434 796,-372 1755,-558 2876,-558 1180,0 2178,182 2994,545 816,363 1425,783 1828,1261 404,478 605,868 605,1169 0,159 -64,288 -192,385 -127,97 -280,146 -457,146l-442 0c-276,0 -492,-115 -649,-345 -394,-531 -841,-934 -1342,-1209 -502,-274 -1283,-411 -2345,-411 -1141,0 -2006,212 -2596,637 -590,425 -885,983 -885,1673 0,425 118,779 354,1062 236,284 678,545 1327,784 649,239 1593,482 2832,730 1829,372 3117,868 3864,1487 747,620 1121,1443 1121,2470 0,726 -226,1390 -678,1992 -453,602 -1121,1080 -2006,1434 -885,354 -1947,531 -3186,531z"/>
   <path id="4" class="fil1" d="M222873 85987c-1455,0 -2488,-394 -3097,-1182 -610,-788 -915,-1872 -915,-3253l0 -7835 -2300 0c-197,0 -355,-53 -472,-159 -118,-106 -177,-248 -177,-425l0 -372c0,-177 59,-318 177,-425 117,-106 275,-159 472,-159l2300 0 0 -4462c0,-177 59,-318 177,-425 118,-106 275,-159 472,-159l501 0c197,0 355,53 472,159 118,107 177,248 177,425l0 4462 3658 0c197,0 354,53 472,159 118,107 177,248 177,425l0 372c0,177 -59,319 -177,425 -118,106 -275,159 -472,159l-3658 0 0 7728c0,992 183,1740 546,2245 364,504 969,756 1814,756l1593 0c197,0 354,54 472,160 118,106 177,248 177,425l0 371c0,177 -59,319 -177,425 -118,107 -275,160 -472,160l-1740 0z"/>
   <path id="5" class="fil1" d="M238009 86252c-1927,0 -3392,-549 -4395,-1646 -1003,-1098 -1504,-2532 -1504,-4302l0 -7543c0,-177 59,-318 177,-425 118,-106 275,-159 472,-159l501 0c197,0 354,53 472,159 118,107 177,248 177,425l0 7410c0,3027 1465,4541 4395,4541 1416,0 2542,-403 3378,-1208 835,-806 1253,-1917 1253,-3333l0 -7410c0,-177 59,-318 177,-425 118,-106 275,-159 472,-159l501 0c197,0 354,53 472,159 118,107 177,248 177,425l0 12641c0,177 -59,319 -177,425 -118,107 -275,160 -472,160l-501 0c-197,0 -354,-53 -472,-160 -118,-106 -177,-248 -177,-425l0 -1248c-590,691 -1263,1213 -2020,1567 -758,354 -1726,531 -2906,531z"/>
   <path id="6" class="fil1" d="M259015 86252c-2123,0 -3692,-624 -4704,-1872 -1013,-1248 -1549,-2766 -1608,-4555l-29 -743 29 -744c59,-1788 595,-3306 1608,-4554 1012,-1249 2581,-1873 4704,-1873 2144,0 3796,700 4956,2098l0 -6294c0,-177 59,-318 177,-425 118,-106 275,-159 472,-159l501 0c197,0 354,53 472,159 118,107 177,248 177,425l0 17687c0,177 -59,319 -177,425 -118,107 -275,160 -472,160l-501 0c-197,0 -354,-53 -472,-160 -118,-106 -177,-248 -177,-425l0 -1248c-1141,1399 -2793,2098 -4956,2098zm177 -1540c1554,0 2724,-465 3511,-1394 786,-930 1209,-2023 1268,-3280 19,-177 29,-522 29,-1036 0,-513 -10,-859 -29,-1036 -20,-761 -207,-1482 -560,-2164 -354,-682 -885,-1244 -1593,-1686 -708,-443 -1583,-664 -2626,-664 -1592,0 -2758,456 -3495,1367 -737,912 -1136,2085 -1195,3519l-29 744c0,1646 354,2996 1062,4050 708,1053 1927,1580 3657,1580z"/>
   <path id="7" class="fil1" d="M274860 69335c-197,0 -354,-53 -472,-159 -118,-106 -177,-248 -177,-425l0 -1009c0,-177 59,-323 177,-438 118,-115 275,-173 472,-173l1121 0c196,0 358,58 486,173 128,115 192,261 192,438l0 1009c0,177 -64,319 -192,425 -128,106 -290,159 -486,159l-1121 0zm324 16652c-196,0 -354,-53 -472,-160 -118,-106 -177,-248 -177,-425l0 -12641c0,-177 59,-318 177,-425 118,-106 276,-159 472,-159l502 0c196,0 354,53 472,159 118,107 177,248 177,425l0 12641c0,177 -59,319 -177,425 -118,107 -276,160 -472,160l-502 0z"/>
   <path id="8" class="fil1" d="M290911 86252c-2045,0 -3633,-562 -4764,-1686 -1131,-1124 -1725,-2581 -1785,-4369l-29 -1115 29 -1116c60,-1788 654,-3244 1785,-4368 1131,-1124 2719,-1687 4764,-1687 2045,0 3633,563 4764,1687 1130,1124 1725,2580 1784,4368 20,177 29,549 29,1116 0,566 -9,938 -29,1115 -59,1788 -654,3245 -1784,4369 -1131,1124 -2719,1686 -4764,1686zm0 -1540c1396,0 2522,-403 3377,-1208 856,-806 1313,-1952 1372,-3440 19,-177 29,-504 29,-982 0,-478 -10,-806 -29,-983 -59,-1487 -516,-2633 -1372,-3439 -855,-806 -1981,-1208 -3377,-1208 -1397,0 -2522,402 -3378,1208 -855,806 -1312,1952 -1371,3439l-30 983 30 982c59,1488 516,2634 1371,3440 856,805 1981,1208 3378,1208z"/>
  </g>
 </g>
</svg>
