<?xml version="1.0" encoding="UTF-8"?>
<!DOCTYPE svg PUBLIC "-//W3C//DTD SVG 1.1//EN" "http://www.w3.org/Graphics/SVG/1.1/DTD/svg11.dtd">
<!-- Creator: CorelDRAW X6 -->
<svg xmlns="http://www.w3.org/2000/svg" xml:space="preserve" width="66.4734mm" height="21.1667mm" version="1.1" style="shape-rendering:geometricPrecision; text-rendering:geometricPrecision; image-rendering:optimizeQuality; fill-rule:evenodd; clip-rule:evenodd"
viewBox="0 0 5799 1847"
 xmlns:xlink="http://www.w3.org/1999/xlink">
 <defs>
  <style type="text/css">
   <![CDATA[
    .fil0 {fill:#13BFB3;fill-rule:nonzero}
    .fil1 {fill:#2B2B2B;fill-rule:nonzero}
   ]]>
  </style>
 </defs>
 <g id="Слой_x0020_1">
  <metadata id="CorelCorpID_0Corel-Layer"/>
  <g id="_709658128">
   <path class="fil0" d="M923 0c255,0 486,103 653,270 167,168 271,398 271,653 0,255 -104,486 -271,653 -167,167 -398,271 -653,271 -255,0 -485,-104 -653,-271 -167,-167 -270,-398 -270,-653 0,-255 103,-485 270,-653 168,-167 398,-270 653,-270zm51 1695c72,-123 116,-258 131,-394 22,-186 -9,-374 -90,-538 -23,45 -44,91 -63,139 -5,14 -10,28 -15,42 81,237 98,503 37,751zm27 -960c-23,-42 -49,-81 -78,-119 -29,38 -55,77 -77,119 28,50 52,103 73,158l4 11 5 -11c21,-55 45,-108 73,-158zm-114 -162c-33,-38 -70,-72 -110,-103 -95,-73 -210,-128 -344,-159 155,82 284,212 380,368 22,-37 47,-73 74,-106zm-504 -329c169,29 312,93 428,182 41,32 78,66 112,104 33,-36 70,-70 109,-101 116,-91 260,-156 432,-185 -149,-118 -336,-189 -541,-189 -204,0 -392,71 -540,189zm577 329c27,33 51,69 73,106 97,-156 226,-286 381,-368 -136,31 -252,87 -348,162 -39,30 -74,64 -106,100zm88 132c99,181 137,393 113,602 -20,169 -80,336 -182,483 218,-14 413,-108 558,-253 157,-157 255,-374 255,-614 0,-239 -98,-457 -255,-614 -6,-6 -12,-12 -18,-17 -197,75 -358,225 -471,413zm-175 990c-61,-248 -44,-514 36,-751 -4,-14 -10,-28 -15,-42 -18,-48 -39,-94 -63,-139 -81,164 -111,353 -90,538 16,136 60,271 132,394zm50 -709c-78,253 -84,535 0,790 84,-255 78,-537 0,-790zm-124 -281c-114,-188 -274,-338 -471,-413 -6,5 -13,11 -19,17 -157,157 -254,375 -254,614 0,240 97,457 254,614 145,145 341,239 558,253 -102,-147 -162,-314 -181,-483 -24,-209 14,-421 113,-602zm124 -556c32,0 60,13 80,33l1 1c20,21 32,49 32,79 0,32 -12,60 -33,80 -20,21 -48,33 -80,33 -31,0 -59,-12 -80,-33l0 0c-20,-20 -33,-48 -33,-80 0,-31 13,-59 33,-80l0 0 0 0 0 0c21,-20 49,-33 80,-33zm62 52c-16,-16 -38,-25 -62,-25 -24,0 -45,9 -61,25l0 0c-16,16 -25,37 -25,61 0,24 9,46 25,62l0 0 0 0c16,15 37,25 61,25 24,0 46,-10 62,-25 15,-16 25,-38 25,-62 0,-23 -9,-45 -25,-60l0 -1z"/>
   <g>
    <path class="fil1" d="M4604 699c-59,-21 -121,-32 -184,-32 -151,0 -226,79 -226,237 0,179 75,268 226,268 63,0 125,-8 184,-23l0 -450zm1192 430l0 -324c0,-127 -79,-190 -237,-190 -67,0 -134,10 -200,29l0 52c66,-19 133,-29 200,-29 117,0 176,47 176,141l0 75c-64,-8 -126,-12 -183,-12 -161,0 -242,61 -242,183 0,115 71,173 213,173 68,0 139,-19 212,-56l0 19c0,20 17,37 37,37l24 0 0 -98 0 0zm-273 45c-101,0 -152,-41 -152,-122 0,-86 60,-128 181,-128 57,0 119,4 183,11l0 63 0 117c-67,39 -138,59 -212,59zm-2501 -781l0 797c0,20 16,37 37,37l24 0 0 -797c0,-20 -17,-37 -37,-37l-24 0zm2014 220l0 577c0,20 -17,37 -37,37l-25 0 0 -577c0,-20 17,-37 37,-37l25 0zm-1397 0c168,0 252,93 252,279 0,13 0,27 -1,41l-299 0 0 -18c0,-20 17,-37 37,-37l204 0c-2,-142 -66,-214 -193,-214 -118,0 -188,54 -209,162 -9,47 -9,111 -2,158 17,127 100,190 251,190 70,0 132,-10 186,-29l0 52c-54,20 -116,30 -186,30 -211,0 -316,-105 -316,-314 0,-200 92,-300 276,-300zm-1149 0c168,0 252,93 252,279 0,13 0,27 -1,41l-299 0 0 -18c0,-20 17,-37 37,-37l204 0c-2,-142 -66,-214 -193,-214 -118,0 -188,54 -209,162 -9,47 -9,111 -2,158 17,127 101,190 251,190 70,0 132,-10 186,-29l0 52c-54,20 -116,30 -186,30 -210,0 -316,-105 -316,-314 0,-200 92,-300 276,-300zm2175 -220l0 55 0 688 0 54c-66,24 -150,37 -251,37 -190,0 -285,-106 -285,-319 0,-195 97,-293 290,-293 61,0 122,10 185,29l0 -214c0,-20 16,-37 37,-37l24 0z"/>
    <path class="fil1" d="M2211 1628l37 0 0 96 18 0 0 -96 37 0 0 -16 -92 0 0 16zm215 96l0 -16 -65 0 0 -36 51 0 0 -16 -51 0 0 -28 63 0 0 -16 -80 0 0 112 82 0zm95 2c13,0 23,-3 33,-9l0 -18c-9,7 -20,10 -32,10 -12,0 -22,-4 -30,-11 -8,-8 -12,-18 -12,-30 0,-12 4,-22 12,-30 8,-8 17,-12 29,-12 11,0 21,3 30,9l0 -18c-8,-5 -19,-7 -30,-7 -17,0 -31,5 -42,16 -11,11 -17,25 -17,42 0,17 6,30 17,41 11,11 25,17 42,17zm94 -2l0 -52 58 0 0 52 18 0 0 -112 -18 0 0 44 -58 0 0 -44 -18 0 0 112 18 0zm143 0l0 -82 64 82 14 0 0 -112 -17 0 0 81 -63 -81 -15 0 0 112 17 0zm153 -27c-7,-8 -11,-17 -11,-29 0,-12 4,-22 11,-30 8,-8 17,-12 28,-12 11,0 21,4 28,12 8,8 11,18 11,30 0,12 -3,21 -11,29 -7,8 -17,12 -28,12 -11,0 -20,-4 -28,-12zm69 12c11,-11 17,-25 17,-41 0,-17 -6,-31 -17,-42 -11,-11 -24,-16 -41,-16 -16,0 -30,5 -41,16 -10,11 -16,25 -16,42 0,16 6,30 16,41 11,11 25,17 41,17 17,0 30,-6 41,-17zm140 15l0 -16 -60 0 0 -96 -18 0 0 112 78 0zm58 -27c-8,-8 -12,-17 -12,-29 0,-12 4,-22 12,-30 7,-8 16,-12 27,-12 11,0 21,4 28,12 8,8 12,18 12,30 0,12 -4,21 -12,29 -7,8 -17,12 -28,12 -11,0 -20,-4 -27,-12zm68 12c11,-11 17,-25 17,-41 0,-17 -6,-31 -17,-42 -11,-11 -24,-16 -41,-16 -16,0 -30,5 -41,16 -10,11 -16,25 -16,42 0,16 6,30 16,41 11,11 25,17 41,17 17,0 30,-6 41,-17zm117 17c18,0 35,-8 44,-19l0 -48 -17 0 0 41c-7,6 -16,9 -27,9 -12,0 -21,-4 -29,-11 -8,-8 -11,-18 -11,-30 0,-12 4,-22 11,-30 8,-8 18,-12 30,-12 12,0 24,4 34,11l0 -18c-10,-6 -21,-9 -35,-9 -16,0 -31,5 -42,16 -11,11 -17,25 -17,42 0,17 6,30 17,41 11,11 25,17 42,17zm110 -2l0 -112 -18 0 0 112 18 0zm105 2c13,0 24,-3 33,-9l0 -18c-9,7 -19,10 -32,10 -12,0 -22,-4 -30,-11 -8,-8 -12,-18 -12,-30 0,-12 4,-22 12,-30 8,-8 18,-12 29,-12 11,0 22,3 31,9l0 -18c-9,-5 -19,-7 -31,-7 -17,0 -31,5 -42,16 -11,11 -17,25 -17,42 0,17 6,30 17,41 11,11 25,17 42,17zm85 -2l12 -28 53 0 12 28 19 0 -49 -113 -17 0 -49 113 19 0zm38 -91l21 47 -41 0 20 -47zm175 91l0 -16 -60 0 0 -96 -18 0 0 112 78 0zm141 0l0 -85 31 42 10 0 32 -42 0 85 17 0 0 -112 -17 0 -36 50 -37 -50 -18 0 0 112 18 0zm222 0l0 -16 -64 0 0 -36 50 0 0 -16 -50 0 0 -28 62 0 0 -16 -80 0 0 112 82 0zm82 0c18,0 33,-5 44,-16 11,-10 17,-24 17,-40 0,-17 -6,-30 -17,-41 -11,-10 -26,-15 -44,-15l-40 0 0 112 40 0zm-22 -96l20 0c14,0 25,3 33,11 8,7 12,16 12,29 0,12 -4,22 -12,29 -8,7 -19,11 -33,11l-20 0 0 -80zm147 96l0 -112 -17 0 0 112 17 0zm106 2c13,0 23,-3 33,-9l0 -18c-9,7 -20,10 -32,10 -12,0 -22,-4 -30,-11 -8,-8 -12,-18 -12,-30 0,-12 4,-22 12,-30 7,-8 17,-12 29,-12 11,0 21,3 30,9l0 -18c-8,-5 -19,-7 -30,-7 -17,0 -31,5 -42,16 -12,11 -17,25 -17,42 0,17 5,30 17,41 11,11 25,17 42,17zm95 -2l0 -112 -18 0 0 112 18 0zm68 0l0 -82 63 82 15 0 0 -112 -17 0 0 81 -63 -81 -16 0 0 112 18 0zm210 0l0 -16 -65 0 0 -36 51 0 0 -16 -51 0 0 -28 63 0 0 -16 -80 0 0 112 82 0zm181 2c12,0 23,-3 32,-9l0 -18c-8,7 -19,10 -32,10 -12,0 -22,-4 -30,-11 -7,-8 -11,-18 -11,-30 0,-12 3,-22 11,-30 8,-8 18,-12 30,-12 11,0 21,3 30,9l0 -18c-9,-5 -19,-7 -30,-7 -17,0 -32,5 -43,16 -11,11 -17,25 -17,42 0,17 6,30 17,41 12,11 26,17 43,17zm158 -2l0 -16 -65 0 0 -36 51 0 0 -16 -51 0 0 -28 62 0 0 -16 -79 0 0 112 82 0zm60 0l0 -82 63 82 15 0 0 -112 -17 0 0 81 -63 -81 -16 0 0 112 18 0zm119 -96l37 0 0 96 18 0 0 -96 37 0 0 -16 -92 0 0 16zm215 96l0 -16 -64 0 0 -36 50 0 0 -16 -50 0 0 -28 62 0 0 -16 -80 0 0 112 82 0zm60 0l0 -48 26 0 34 48 21 0 -35 -50c15,-3 24,-15 24,-30 0,-10 -3,-18 -10,-23 -6,-6 -15,-9 -27,-9l-51 0 0 112 18 0zm0 -96l32 0c13,0 21,6 21,16 0,11 -8,17 -21,17l-32 0 0 -33z"/>
   </g>
  </g>
 </g>
</svg>
