<?xml version="1.0" encoding="UTF-8"?>
<!DOCTYPE svg PUBLIC "-//W3C//DTD SVG 1.1//EN" "http://www.w3.org/Graphics/SVG/1.1/DTD/svg11.dtd">
<!-- Creator: CorelDRAW X7 -->
<svg xmlns="http://www.w3.org/2000/svg" xml:space="preserve" width="300px" height="70px" version="1.1" shape-rendering="geometricPrecision" text-rendering="geometricPrecision" image-rendering="optimizeQuality" fill-rule="evenodd" clip-rule="evenodd"
viewBox="0 0 267381 62734"
 xmlns:xlink="http://www.w3.org/1999/xlink">
 <g id="Слой_x0020_1">
  <metadata id="CorelCorpID_0Corel-Layer"/>
  <path fill="#000" fill-rule="nonzero" d="M0 59432l1071 -1428c1368,-1785 2334,-3659 2899,-5622 566,-1963 849,-4581 849,-7852l0 -25612c0,-3153 -283,-5726 -849,-7719 -565,-1993 -1531,-3882 -2899,-5667l-1071 -1516 1071 -1250 23826 0c2439,0 4372,-134 5800,-402 1428,-268 2558,-699 3391,-1293l1428 -1071 1338 1071 0 14367 -2766 982 -446 -1964c-475,-2022 -1027,-3525 -1651,-4506 -625,-982 -1487,-1680 -2588,-2098 -1101,-416 -2632,-624 -4596,-624l-6960 0c-2082,0 -3451,417 -4105,1249 -654,833 -981,2499 -981,4997l0 36588c0,2499 327,4208 981,5131 654,922 2023,1710 4105,2365l1964 446 -983 2766 -17757 0 -1071 -1338z"/>
  <path id="1" fill="#000" fill-rule="nonzero" d="M106289 61931c-416,-417 -876,-715 -1382,-893 -506,-178 -1176,-268 -2008,-268l-34089 0 -981 -2587 1784 -447c1964,-595 3272,-1353 3926,-2276 655,-922 982,-2543 982,-4863l0 -31679c0,-3213 -267,-5800 -803,-7764 -535,-1963 -1457,-3837 -2766,-5622l-1071 -1516 1071 -1250 24719 0c4699,0 7734,-565 9102,-1695l1606 -1071 1159 1071 0 14367 -2765 982 -447 -1964c-714,-2915 -1636,-4848 -2766,-5801 -1131,-951 -3093,-1427 -5889,-1427l-7943 0c-2082,0 -3465,417 -4150,1249 -684,833 -1025,2499 -1025,4997l0 15528 10261 0c1369,0 2529,-267 3481,-803 952,-535 1934,-1488 2944,-2856l625 -892 1607 892 0 13832 -2677 982 -536 -2053c-594,-1844 -1487,-3063 -2677,-3659 -1190,-594 -3272,-892 -6247,-892l-6781 0 0 16509c0,1725 134,3019 401,3882 268,862 758,1443 1473,1740 713,297 1814,446 3301,446l8656 0c1964,0 3480,-193 4551,-580 1071,-387 1918,-1086 2543,-2098 625,-1010 1205,-2497 1741,-4461l535 -1784 2677 803 0 13921 -1517 803 -625 -803z"/>
  <path id="2" fill="#000" fill-rule="nonzero" d="M141459 58004l1963 -446c2023,-536 3376,-1295 4060,-2276 684,-981 1027,-2721 1027,-5220l0 -39979c0,-713 -149,-1204 -447,-1472 -297,-268 -743,-402 -1339,-402l-4639 0 -983 -3034c2321,-892 5385,-1710 9192,-2454 3808,-743 7466,-1115 10976,-1115 7912,0 13802,1785 17669,5354 3867,3569 5801,8180 5801,13832 0,3510 -700,6693 -2097,9549 -1399,2855 -3541,5131 -6425,6826 -2886,1695 -6471,2544 -10754,2544 -1904,0 -3569,-253 -4997,-759 -1428,-506 -2142,-1205 -2142,-2098 0,-535 105,-996 312,-1382 209,-387 521,-580 937,-580 179,0 625,103 1339,312 714,208 1577,312 2588,312 4046,0 7214,-1309 9504,-3926 2290,-2618 3435,-6098 3435,-10441 0,-4402 -1205,-8016 -3614,-10842 -2409,-2826 -5815,-4239 -10217,-4239 -4045,0 -6068,1279 -6068,3837l0 34625c0,3331 268,5963 803,7897 535,1933 1487,3792 2855,5577l1071 1428 -1071 1338 -17758 0 -981 -2766z"/>
  <path id="3" fill="#000" fill-rule="nonzero" d="M209824 58004l1874 -446c2200,-655 3777,-1443 4729,-2365 952,-923 1844,-2632 2677,-5131l12672 -36588c596,-1903 893,-3212 893,-3926 0,-1011 -283,-1799 -849,-2365 -565,-565 -1472,-967 -2721,-1205l-1874 -446 981 -2766 15527 0 16332 46760c891,2558 1828,4462 2811,5712 981,1249 2483,2646 4505,4194l-1070 1338 -18294 0 -892 -2766 1963 -446c1250,-297 2157,-729 2722,-1295 565,-564 847,-1353 847,-2364 0,-595 -133,-1294 -401,-2097 -268,-803 -461,-1383 -580,-1740l-3837 -11334 -18650 0 -1964 5890c-1190,3689 -1784,6515 -1784,8478 0,1963 386,3600 1159,4908l625 1428 -1517 1338 -14813 0 -1071 -2766zm21149 -24362l15259 0 -7763 -22666 -7496 22666z"/>
 </g>
</svg>
