<?xml version="1.0" encoding="UTF-8"?>
<!DOCTYPE svg PUBLIC "-//W3C//DTD SVG 1.1//EN" "http://www.w3.org/Graphics/SVG/1.1/DTD/svg11.dtd">
<!-- Creator: CorelDRAW X7 -->
<svg xmlns="http://www.w3.org/2000/svg" xml:space="preserve" width="400px" height="123px" version="1.1" shape-rendering="geometricPrecision" text-rendering="geometricPrecision" image-rendering="optimizeQuality" fill-rule="evenodd" clip-rule="evenodd"
viewBox="0 0 442324 135850"
 xmlns:xlink="http://www.w3.org/1999/xlink">
 <g id="Слой_x0020_1">
  <metadata id="CorelCorpID_0Corel-Layer"/>
  <path fill="#000" fill-rule="nonzero" d="M29663 48837l-26470 0 0 -6386 37478 0 -28907 48485 1345 252c1904,392 4061,953 6470,1681 4202,1289 7311,1933 9328,1933 1904,0 3767,-407 5588,-1219 1820,-812 3459,-1946 4915,-3403l4538 4454c-4314,4313 -9327,6470 -15041,6470 -1961,0 -3810,-196 -5547,-588 -1736,-392 -4033,-1037 -6890,-1933 -3249,-1064 -5910,-1820 -7983,-2269l-3109 5210 -5378 -3193 29663 -49494z"/>
  <path id="1" fill="#000" fill-rule="nonzero" d="M56048 100684c-2184,0 -3949,-546 -5294,-1639 -1344,-1092 -2212,-2507 -2604,-4243l4957 -2689c168,728 462,1302 883,1722 420,420 910,631 1470,631 560,0 1037,-211 1429,-631 392,-420 756,-1022 1092,-1806l21008 -49914 2857 0 24621 57897 -7311 0 -7731 -18571 -21848 0 -5966 14285c-616,1513 -1652,2717 -3109,3613 -1457,897 -2941,1345 -4454,1345zm32520 -25461l-8067 -21344 -168 -1261 -84 1261 -8151 21344 16470 0z"/>
  <path id="2" fill="#000" fill-rule="nonzero" d="M118735 47913c-1456,0 -2465,252 -3025,756 -616,504 -980,1428 -1092,2773l-6303 -84c0,-3361 1037,-5938 3110,-7731 1680,-1512 4145,-2269 7394,-2269l18907 0c3249,0 6204,672 8865,2017 2661,1344 4748,3193 6261,5546 1512,2353 2268,5042 2268,8067 0,2689 -588,5014 -1764,6974 -1177,1961 -2829,3446 -4958,4454 -672,336 -1653,644 -2941,924 728,0 1694,197 2899,589 1204,392 2423,924 3655,1596 1681,896 3039,2409 4076,4538 1036,2129 1554,4818 1554,8067 0,5546 -2045,9705 -6134,12478 -4089,2773 -9523,4160 -16302,4160l-2773 0c-2969,0 -5798,-140 -8487,-420l-5210 -589 0 -51846zm16806 46469c4930,0 8726,-813 11386,-2437 2661,-1625 3992,-4258 3992,-7899 0,-3530 -1205,-6316 -3613,-8361 -2409,-2045 -5434,-3067 -9076,-3067l-7899 0 84 -6219 7227 -84c3249,0 5854,-840 7815,-2521 1904,-1680 2857,-3949 2857,-6806 0,-2857 -868,-5112 -2605,-6765 -1737,-1652 -4033,-2478 -6891,-2478l-13192 0 0 46216c3865,281 7170,421 9915,421z"/>
  <polygon id="3" fill="#000" fill-rule="nonzero" points="170414,42283 177304,42283 177304,100012 170414,100012 "/>
  <path id="4" fill="#000" fill-rule="nonzero" d="M195875 49425c-616,-840 -1204,-1260 -1764,-1260 -281,0 -589,84 -925,252 -336,280 -588,560 -756,840l-5294 -2773c672,-1625 1821,-2913 3445,-3865 1345,-841 2745,-1261 4202,-1261 1344,0 2633,392 3865,1177 1233,784 2241,1932 3025,3445l11681 21596 13865 -25377 7898 0 -18234 32687 84 25126 -6807 0 -252 -24957 -14033 -25630z"/>
  <path id="5" fill="#000" fill-rule="nonzero" d="M240411 100684c-2184,0 -3949,-546 -5294,-1639 -1344,-1092 -2212,-2507 -2604,-4243l4957 -2689c168,728 463,1302 883,1722 420,420 910,631 1470,631 560,0 1037,-211 1429,-631 392,-420 756,-1022 1092,-1806l21008 -49914 2857 0 24621 57897 -7311 0 -7731 -18571 -21848 0 -5966 14285c-616,1513 -1652,2717 -3109,3613 -1457,897 -2941,1345 -4454,1345zm32520 -25461l-8067 -21344 -168 -1261 -84 1261 -8151 21344 16470 0z"/>
  <path id="6" fill="#000" fill-rule="nonzero" d="M300913 50602c0,-841 -224,-1583 -672,-2227 -448,-644 -1148,-967 -2101,-967 -1344,0 -2324,477 -2941,1429l-4621 -3445c560,-1121 1498,-2115 2815,-2983 1316,-869 2983,-1303 5000,-1303 2969,0 5280,882 6932,2647 1653,1765 2479,4047 2479,6849l0 17142 2521 -84c1961,-56 3585,-392 4874,-1009 1008,-448 1806,-882 2394,-1302 589,-420 1135,-938 1639,-1555 1400,-1736 3221,-4537 5462,-8403 1793,-3025 4034,-7394 6723,-13108l7562 0c-4874,9131 -7927,14789 -9159,16974 -1793,3137 -3249,5490 -4370,7058 -840,1233 -1610,2199 -2310,2899 -701,701 -1275,1247 -1723,1639l15293 21680c449,616 841,1022 1177,1218 336,196 784,294 1344,294 617,0 1121,-336 1513,-1008l5210 3697c-785,1233 -1821,2185 -3109,2857 -1289,673 -2493,1009 -3614,1009 -1456,0 -2843,-322 -4159,-967 -1317,-644 -2339,-1498 -3067,-2562l-16470 -23361c-1233,336 -2353,560 -3361,672 -1009,112 -2409,140 -4202,84l0 25462 -7059 0 0 -49326z"/>
  <path id="7" fill="#000" fill-rule="nonzero" d="M356962 100684c-2185,0 -3950,-546 -5294,-1639 -1345,-1092 -2213,-2507 -2605,-4243l4958 -2689c168,728 462,1302 882,1722 420,420 910,631 1471,631 560,0 1036,-211 1428,-631 392,-420 756,-1022 1093,-1806l21007 -49914 2857 0 24621 57897 -7311 0 -7730 -18571 -21848 0 -5966 14285c-617,1513 -1653,2717 -3110,3613 -1456,897 -2941,1345 -4453,1345zm32520 -25461l-8067 -21344 -168 -1261 -84 1261 -8151 21344 16470 0z"/>
  <path fill="#000" fill-rule="nonzero" d="M9060 129687l-6834 -16929 -103 0c69,1036 103,2102 103,3184l0 13745 -1228 0 0 -18332 1977 0 6500 16124 73 0 6496 -16124 1930 0 0 18332 -1288 0 0 -13895c0,-967 47,-1973 150,-3008l-103 0 -6860 16903 -813 0z"/>
  <path id="1" fill="#000" fill-rule="nonzero" d="M35319 129687l-313 -2156 -103 0c-684,881 -1390,1502 -2114,1865 -723,364 -1579,548 -2563,548 -1339,0 -2379,-342 -3124,-1027 -744,-689 -1117,-1635 -1117,-2850 0,-1331 557,-2362 1665,-3098 1108,-736 2709,-1126 4810,-1164l2593 -77 0 -903c0,-1297 -261,-2272 -787,-2936 -526,-659 -1378,-988 -2546,-988 -1263,0 -2572,350 -3929,1052l-462 -1078c1498,-702 2974,-1053 4438,-1053 1498,0 2614,390 3355,1164 740,779 1112,1990 1112,3638l0 9063 -915 0zm-5020 -873c1455,0 2606,-415 3445,-1249 839,-830 1262,-1986 1262,-3466l0 -1344 -2383 98c-1917,94 -3282,394 -4096,899 -817,505 -1224,1296 -1224,2366 0,852 261,1515 784,1986 522,475 1262,710 2212,710z"/>
  <polygon id="2" fill="#000" fill-rule="nonzero" points="52861,117132 46086,117132 46086,129687 44845,129687 44845,116053 52861,116053 "/>
  <path id="3" fill="#000" fill-rule="nonzero" d="M68134 129687l-312 -2156 -103 0c-684,881 -1391,1502 -2114,1865 -723,364 -1579,548 -2563,548 -1340,0 -2380,-342 -3124,-1027 -745,-689 -1117,-1635 -1117,-2850 0,-1331 556,-2362 1665,-3098 1108,-736 2708,-1126 4810,-1164l2593 -77 0 -903c0,-1297 -261,-2272 -787,-2936 -527,-659 -1378,-988 -2547,-988 -1262,0 -2572,350 -3928,1052l-462 -1078c1497,-702 2974,-1053 4437,-1053 1498,0 2615,390 3355,1164 741,779 1113,1990 1113,3638l0 9063 -916 0zm-5019 -873c1455,0 2606,-415 3444,-1249 839,-830 1263,-1986 1263,-3466l0 -1344 -2384 98c-1917,94 -3282,394 -4095,899 -818,505 -1224,1296 -1224,2366 0,852 261,1515 783,1986 522,475 1262,710 2213,710z"/>
  <path id="4" fill="#000" fill-rule="nonzero" d="M80229 121933c2464,0 3697,-852 3697,-2555 0,-813 -283,-1433 -852,-1861 -569,-428 -1378,-642 -2430,-642 -668,0 -1293,77 -1866,231 -578,154 -1198,381 -1857,672l-462 -1027c1455,-638 2867,-955 4236,-955 1485,0 2615,309 3385,929 766,616 1151,1472 1151,2568 0,1575 -809,2580 -2430,3017l0 77c1009,248 1745,667 2203,1245 462,582 689,1327 689,2230 0,1266 -462,2263 -1382,2991 -924,727 -2204,1091 -3843,1091 -886,0 -1694,-86 -2426,-257 -728,-171 -1335,-402 -1810,-685l0 -1240c860,410 1604,689 2229,834 629,145 1297,218 2007,218 1237,0 2200,-261 2889,-783 689,-526 1035,-1271 1035,-2242 0,-946 -329,-1648 -992,-2101 -660,-450 -1648,-677 -2971,-677l-1891 0 0 -1078 1691 0z"/>
  <polygon id="5" fill="#000" fill-rule="nonzero" points="94655,116053 94655,125913 94578,128485 102662,116053 104318,116053 104318,129687 103128,129687 103128,119892 103175,117256 95091,129687 93474,129687 93474,116053 "/>
  <polygon id="6" fill="#000" fill-rule="nonzero" points="114328,116053 114328,122036 122985,122036 122985,116053 124213,116053 124213,129687 122985,129687 122985,123114 114328,123114 114328,129687 113087,129687 113087,116053 "/>
  <path id="7" fill="#000" fill-rule="nonzero" d="M159907 134309l-1228 0 0 -4622 -10433 0 0 4622 -1228 0 0 -5803 903 0c1138,-1596 2015,-3449 2636,-5554 616,-2110 941,-4408 976,-6899l6560 0 0 12453 1814 0 0 5803zm-3060 -5803l0 -11297 -4236 0c-201,4523 -1297,8289 -3287,11297l7523 0z"/>
  <path id="8" fill="#000" fill-rule="nonzero" d="M172511 129944c-1982,0 -3527,-612 -4635,-1831 -1108,-1220 -1660,-2932 -1660,-5131 0,-2174 535,-3916 1605,-5221 1069,-1310 2512,-1965 4326,-1965 1605,0 2871,557 3800,1674 929,1112 1391,2627 1391,4544l0 997 -9821 0c17,1884 453,3321 1314,4314 855,993 2084,1489 3680,1489 779,0 1459,-55 2050,-162 590,-107 1335,-343 2238,-702l0 1130c-771,333 -1481,560 -2132,680 -650,124 -1369,184 -2156,184zm-364 -13069c-1314,0 -2367,432 -3163,1301 -791,868 -1258,2122 -1390,3757l8426 0c0,-1587 -343,-2824 -1027,-3719 -685,-894 -1635,-1339 -2846,-1339z"/>
  <polygon id="9" fill="#000" fill-rule="nonzero" points="193955,117132 189415,117132 189415,129687 188187,129687 188187,117132 183531,117132 183531,116053 193955,116053 "/>
  <path id="10" fill="#000" fill-rule="nonzero" d="M206136 129944c-1947,0 -3471,-616 -4575,-1844 -1104,-1228 -1652,-2944 -1652,-5140 0,-2259 569,-4018 1716,-5276 1143,-1258 2713,-1888 4699,-1888 1181,0 2306,206 3385,617l-338 1104c-1177,-394 -2204,-591 -3073,-591 -1669,0 -2935,518 -3796,1549 -860,1032 -1292,2517 -1292,4459 0,1836 432,3279 1292,4318 861,1040 2063,1562 3612,1562 1237,0 2384,-222 3445,-663l0 1151c-869,428 -2011,642 -3423,642z"/>
  <polygon id="11" fill="#000" fill-rule="nonzero" points="224499,116053 226040,116053 219933,122652 226480,129687 224812,129687 218367,122776 218367,129687 217100,129687 217100,116053 218367,116053 218367,122678 "/>
  <polygon id="12" fill="#000" fill-rule="nonzero" points="234270,116053 234270,125913 234192,128485 242276,116053 243932,116053 243932,129687 242742,129687 242742,119892 242789,117256 234706,129687 233088,129687 233088,116053 "/>
  <polygon id="13" fill="#000" fill-rule="nonzero" points="256048,122678 251298,116053 252727,116053 256788,121796 260811,116053 262180,116053 257503,122678 262518,129687 261076,129687 256788,123602 252475,129687 251110,129687 "/>
  <polygon id="14" fill="#000" fill-rule="nonzero" points="294160,117132 289619,117132 289619,129687 288391,129687 288391,117132 283735,117132 283735,116053 294160,116053 "/>
  <path id="15" fill="#000" fill-rule="nonzero" d="M312173 122857c0,2226 -540,3963 -1618,5213 -1078,1249 -2563,1874 -4463,1874 -1194,0 -2247,-287 -3159,-864 -911,-578 -1609,-1404 -2092,-2487 -488,-1078 -728,-2323 -728,-3736 0,-2225 539,-3958 1618,-5199 1078,-1241 2555,-1862 4438,-1862 1869,0 3342,630 4407,1888 1066,1258 1597,2983 1597,5173zm-10759 0c0,1875 415,3334 1237,4382 821,1049 1986,1575 3492,1575 1506,0 2670,-526 3492,-1575 822,-1048 1236,-2507 1236,-4382 0,-1878 -419,-3337 -1249,-4377 -830,-1036 -1998,-1554 -3505,-1554 -1502,0 -2661,518 -3479,1549 -813,1032 -1224,2495 -1224,4382z"/>
  <path id="16" fill="#000" fill-rule="nonzero" d="M330609 119349c0,864 -214,1540 -638,2028 -428,492 -1121,834 -2084,1027l0 85c1096,124 1887,441 2375,946 492,505 736,1228 736,2174 0,1310 -432,2315 -1297,3021 -868,706 -2131,1057 -3795,1057l-5756 0 0 -13634 5781 0c1554,0 2722,283 3505,843 783,561 1173,1378 1173,2453zm-929 6234c0,-1664 -1284,-2494 -3847,-2494l-4442 0 0 5417 4617 0c2448,0 3672,-975 3672,-2923zm-389 -6136c0,-796 -283,-1365 -852,-1703 -569,-338 -1421,-509 -2559,-509l-4489 0 0 4672 4339 0c1271,0 2183,-196 2735,-590 552,-394 826,-1019 826,-1870z"/>
  <path id="17" fill="#000" fill-rule="nonzero" d="M347166 129687l-312 -2156 -103 0c-684,881 -1391,1502 -2114,1865 -723,364 -1579,548 -2563,548 -1340,0 -2379,-342 -3124,-1027 -745,-689 -1117,-1635 -1117,-2850 0,-1331 556,-2362 1665,-3098 1108,-736 2708,-1126 4810,-1164l2593 -77 0 -903c0,-1297 -261,-2272 -787,-2936 -527,-659 -1378,-988 -2546,-988 -1263,0 -2573,350 -3929,1052l-462 -1078c1497,-702 2974,-1053 4438,-1053 1497,0 2614,390 3354,1164 741,779 1113,1990 1113,3638l0 9063 -916 0zm-5019 -873c1455,0 2606,-415 3445,-1249 838,-830 1262,-1986 1262,-3466l0 -1344 -2384 98c-1917,94 -3282,394 -4095,899 -817,505 -1224,1296 -1224,2366 0,852 261,1515 783,1986 522,475 1262,710 2213,710z"/>
  <path id="18" fill="#000" fill-rule="nonzero" d="M362521 129944c-2096,0 -3624,-787 -4587,-2358l-86 0 34 1053c35,616 52,1292 52,2028l0 5183 -1241 0 0 -19797 1053 0 239 1952 73 0c937,-1472 2431,-2209 4489,-2209 1836,0 3240,604 4202,1815 967,1207 1451,2966 1451,5272 0,2242 -509,3980 -1523,5212 -1019,1233 -2401,1849 -4156,1849zm-25 -1079c1395,0 2473,-517 3239,-1557 766,-1040 1147,-2495 1147,-4361 0,-4014 -1446,-6021 -4335,-6021 -1587,0 -2756,437 -3496,1314 -745,873 -1117,2302 -1117,4280l0 402c0,2135 355,3658 1070,4574 715,912 1878,1369 3492,1369z"/>
  <path id="19" fill="#000" fill-rule="nonzero" d="M387449 122857c0,2226 -539,3963 -1617,5213 -1079,1249 -2564,1874 -4464,1874 -1194,0 -2246,-287 -3158,-864 -911,-578 -1609,-1404 -2093,-2487 -487,-1078 -727,-2323 -727,-3736 0,-2225 539,-3958 1618,-5199 1078,-1241 2554,-1862 4437,-1862 1870,0 3342,630 4408,1888 1066,1258 1596,2983 1596,5173zm-10758 0c0,1875 415,3334 1237,4382 821,1049 1985,1575 3492,1575 1506,0 2670,-526 3492,-1575 821,-1048 1236,-2507 1236,-4382 0,-1878 -419,-3337 -1249,-4377 -830,-1036 -1999,-1554 -3505,-1554 -1502,0 -2662,518 -3479,1549 -813,1032 -1224,2495 -1224,4382z"/>
  <path id="20" fill="#000" fill-rule="nonzero" d="M405885 119349c0,864 -214,1540 -637,2028 -428,492 -1121,834 -2084,1027l0 85c1095,124 1887,441 2375,946 492,505 736,1228 736,2174 0,1310 -432,2315 -1297,3021 -868,706 -2131,1057 -3796,1057l-5755 0 0 -13634 5781 0c1553,0 2722,283 3505,843 783,561 1172,1378 1172,2453zm-928 6234c0,-1664 -1284,-2494 -3847,-2494l-4442 0 0 5417 4617 0c2448,0 3672,-975 3672,-2923zm-390 -6136c0,-796 -282,-1365 -851,-1703 -569,-338 -1421,-509 -2559,-509l-4489 0 0 4672 4339 0c1271,0 2183,-196 2734,-590 552,-394 826,-1019 826,-1870z"/>
  <g id="_2185848771808">
   <path fill="#000" d="M417778 37842l-3386 0c-3267,0 -5925,-2659 -5925,-5925l-1693 0c0,4200 3418,7618 7618,7618l3386 0c4200,0 7618,-3418 7618,-7618l-1693 0c0,3266 -2658,5925 -5925,5925zm0 0z"/>
   <path fill="#000" d="M410160 24299c933,0 1693,759 1693,1693l1692 0c0,-1868 -1518,-3386 -3385,-3386 -1867,0 -3386,1518 -3386,3386l1693 0c0,-934 759,-1693 1693,-1693l0 0zm0 0z"/>
   <path fill="#000" d="M422856 22606c-1867,0 -3385,1518 -3385,3386l1692 0c0,-934 760,-1693 1693,-1693 934,0 1693,759 1693,1693l1693 0c0,-1868 -1518,-3386 -3386,-3386l0 0zm0 0z"/>
   <path fill="#000" d="M435553 18374l-911 0c-3472,-6320 -10078,-10681 -17711,-10983l0 -867c0,-772 -300,-1498 -846,-2044l-495 -496c-227,-227 -352,-526 -352,-846 0,-320 125,-620 351,-847l1094 -1094 -1197 -1197 -1094 1094c-546,546 -847,1272 -847,2044 0,771 301,1497 847,2043l495 496c227,227 351,527 351,847l0 867c-7633,302 -14238,4663 -17710,10983l-911 0c-3734,0 -6772,3037 -6772,6771l0 3386c0,3534 2722,6440 6178,6741 1140,3403 3138,6485 5861,8948 -1196,891 -1882,2265 -1882,3779 0,1516 688,2893 1888,3785 10,7 18,14 28,20 1149,841 2507,1275 3879,1275 790,0 1587,-144 2350,-437l4138 -1590c901,1078 2269,1768 3800,1768 1530,0 2898,-690 3799,-1768l4139 1590c764,293 1559,437 2350,437 1372,0 2729,-434 3879,-1275 10,-7 18,-14 27,-20 1201,-891 1888,-2269 1888,-3785 0,-1514 -686,-2888 -1882,-3779 2723,-2463 4720,-5545 5861,-8948 3457,-301 6178,-3207 6178,-6741l0 -3386c0,-3734 -3037,-6771 -6771,-6771zm-44015 10157l0 -3386c0,-2801 2278,-5079 5079,-5079l79 0c-1136,2595 -1772,5456 -1772,8465 0,1690 204,3350 587,4954 -2270,-506 -3973,-2533 -3973,-4954zm16002 22530c-1539,592 -3257,365 -4599,-608 -8,-5 -16,-12 -24,-17 -777,-567 -1222,-1456 -1222,-2437 0,-981 445,-1870 1221,-2438 8,-6 16,-12 24,-17 1342,-972 3060,-1200 4599,-608l3911 1502c-176,493 -274,1021 -274,1572 0,543 96,1064 266,1551l-3902 1500zm8545 66c-1774,0 -3216,-1398 -3216,-3117 0,-1719 1442,-3117 3216,-3117 1773,0 3216,1398 3216,3117 0,1719 -1443,3117 -3216,3117zm13169 -690c-8,6 -16,11 -24,17 -1343,972 -3061,1200 -4599,608l-3904 -1500c171,-487 267,-1008 267,-1551 0,-551 -100,-1079 -274,-1572l3911 -1503c1539,-591 3256,-364 4599,609 8,5 16,11 24,17 775,567 1220,1456 1220,2437 0,981 -445,1870 -1220,2438l0 0zm-559 -7083c-1489,-568 -3143,-584 -4673,2l-4152 1596c-901,-1068 -2263,-1751 -3785,-1751 -1522,0 -2884,683 -3785,1751l-4154 -1596c-1528,-588 -3183,-571 -4672,-2 -4361,-3712 -6857,-9083 -6857,-14823 0,-10736 8733,-19468 19468,-19468 10734,0 19468,8732 19468,19468 0,5740 -2497,11111 -6858,14823zm11936 -14823c0,2421 -1703,4448 -3973,4954 384,-1604 588,-3264 588,-4954 0,-3009 -636,-5870 -1773,-8465l80 0c2801,0 5078,2278 5078,5079l0 3386zm0 0z"/>
  </g>
 </g>
</svg>
