<?xml version="1.0" encoding="UTF-8"?>
<!DOCTYPE svg PUBLIC "-//W3C//DTD SVG 1.1//EN" "http://www.w3.org/Graphics/SVG/1.1/DTD/svg11.dtd">
<!-- Creator: CorelDRAW X7 -->
<svg xmlns="http://www.w3.org/2000/svg" xml:space="preserve" width="765px" height="325px" version="1.1" shape-rendering="geometricPrecision" text-rendering="geometricPrecision" image-rendering="optimizeQuality" fill-rule="evenodd" clip-rule="evenodd"
viewBox="0 0 2588371 1100322"
 xmlns:xlink="http://www.w3.org/1999/xlink">
 <g id="Слой_x0020_1">
  <metadata id="CorelCorpID_0Corel-Layer"/>
  <polygon fill="#000" fill-rule="nonzero" points="837905,614143 1166406,422301 1170661,560507 1079550,614962 1074163,1095822 958843,1095822 964234,681725 841781,753603 "/>
  <polygon fill="#000" fill-rule="nonzero" points="1243435,387243 1348445,325296 1348445,1095822 1240410,1095822 "/>
  <path fill="#FFD108" fill-rule="nonzero" d="M1450441 328992c148840,29152 329204,183022 376910,324820 24772,73621 1191,153387 -137758,151860l154737 289239 -123887 0 -147960 -276659 -11477 0 0 277135 -112830 0 2265 -766395zm110565 378924l35949 0c36500,0 61528,-4704 75355,-14243 13690,-9542 20604,-25303 20604,-47426 0,-48620 -87999,-134816 -134653,-142373l2745 204042z"/>
  <polygon fill="#FFD108" points="1940964,697542 2156435,697542 2156435,788949 2022713,788949 2022713,843232 2156435,843232 2156435,933596 2022713,933596 2022713,1002597 2156435,1002597 2156435,1094004 1930259,1094004 1930259,697542 "/>
  <polygon fill="#FFD108" fill-rule="nonzero" points="2242467,698161 2329159,698161 2402136,809561 2475193,698161 2581785,698161 2455336,890874 2588371,1094004 2481882,1094004 2402040,972095 2322114,1094004 2215521,1094004 2348840,890862 2222674,698161 "/>
  <path fill="#FFD108" d="M786119 631985l-2369 188981 -4 274712c-66631,-15349 -160308,-47945 -229277,-51741 40916,-3972 104638,-3821 167653,19665 0,0 -93298,-50923 -197264,-32581 -39050,6894 -71775,23505 -96083,30503 -129722,29463 -298402,76341 -374080,-13623 -120703,-143481 -59938,-305743 368190,-333072 96925,-6186 90632,-576 143492,-14966 -20911,77417 -404762,95571 -377213,201416 2546,9787 6586,17627 11809,23901 8847,17347 69952,109602 307181,-57979 0,0 -208250,121066 -277578,75143 133734,29087 523611,-295565 555543,-310359z"/>
  <path fill="#FFD108" d="M2109109 31901c2757,-3956 12600,-21347 49100,-28225 30782,-5798 61736,-4040 76330,488 5063,1570 11501,15505 13151,15377 2857,-232 48868,-7449 102472,-9711 38946,-1646 88454,-5942 118581,5431 6662,2514 12864,5571 18474,9187 7449,4800 13863,10618 18922,17615 50243,69508 11057,113470 11057,113470 -30662,48612 -26578,39481 -54915,39058 -8124,-120 -18753,903 -33615,1462 -57448,2162 -114740,16744 -131956,-16747 0,0 -73568,65664 -183393,6905 0,0 85497,74751 173167,18114 -11576,23813 -39761,39654 -17247,77397 -22738,-10142 -60213,-5399 -60213,-5399 35853,580 88054,32189 115499,52269 84059,61497 124823,17751 124823,17751 0,0 9647,51542 -1750,65305 -64506,77880 -183126,-32553 -232734,3233 -20848,15041 -74707,811 -103895,135 -24188,-6785 -58092,-29763 -77273,-102084 0,0 -6278,92178 63371,119507 -9447,17352 -27718,51039 -80254,67167 -42759,13131 -61497,19585 -76846,30159 2042,-54751 -27189,-77225 -27189,-77225 26874,69604 -7745,158837 -29452,225065 -483,-138605 -172084,-329140 -405717,-395971 72625,-16000 152951,-28364 227583,-23345 23125,843 39825,2006 62007,2629 13239,7349 63327,34702 76278,47486 0,0 -28308,-33012 -49919,-49268 26718,-6921 47581,-22598 118672,-112075 71095,-89477 146486,-102508 180956,-106265 -5071,26890 -2194,69457 -2194,69457 3085,-21999 13923,-64334 18119,-78352zm131979 26015c-21854,-18966 -57711,-22874 -68333,-19142 -46135,16217 20,96375 53616,36581 -31398,26006 -65353,8543 -60413,-13623 4967,-22306 49264,-11621 75130,-3816zm-55857 15313c5722,8432 20512,7189 24987,-2973 824,-1879 -11249,-2969 -12316,-4964 -579,-1090 12017,-6142 11214,-7121 -12165,-14813 -34223,-179 -23885,15058zm244490 14046c0,0 -18762,-17515 -9243,-25295 9519,-7781 26206,6733 24288,20100 -10577,-22234 -27089,-16256 -15045,5195zm-182127 -67506c0,0 58659,25691 82660,15537 24000,-10154 123408,1950 129506,40073 6102,38123 -53412,33959 -55466,53663 0,0 8483,-4203 42335,-15924 33851,-11721 28460,-39945 28460,-39945 0,0 -5471,-34714 -67906,-46615 -62431,-11904 -97633,10790 -120179,1643 -22542,-9152 -39410,-8432 -39410,-8432z"/>
  <path fill="#FFD108" d="M2278396 241297c-7481,19765 -3768,31733 1954,41180 6638,10962 17216,18466 35769,29795 49944,30491 108667,59383 133235,34079 -23317,-26238 -185008,-17711 -170958,-105054z"/>
  <path fill="#FFD108" d="M2502434 169523c0,0 -31197,50243 -43074,59602 -11876,9363 -6565,-23949 -11041,-24260 -4476,-312 -8496,21855 -12888,17175 -4391,-4679 324,-18390 -7077,-17663 -7400,724 -7808,5083 -10901,10582 -3093,5495 -9175,-15953 -12752,-12868 -9622,8312 -18242,2406 -21683,2446 -3440,40 -5754,10266 -11001,10694 -5251,427 -7928,-10466 -15157,-10378 -24888,299 -8028,1287 -34339,-1491 -6194,-651 -5031,3573 -9163,3984 -4128,416 -14098,-31921 -14106,-36292 -4,-4368 121386,1230 121386,1230l81796 -2761z"/>
  <path fill="#FFD108" d="M2308363 304915c4228,-10042 11493,2090 14870,-3876 3372,-5970 9738,14626 13315,11541 9622,-8308 17111,1938 20548,1898 3440,-40 9059,-4032 12420,-5027 3360,-995 4679,13651 9207,10002 17447,-14074 9730,7213 29051,10270 6150,975 16552,-15093 20684,-15505 4128,-415 13535,25036 13539,29400 8,14170 -137862,-28664 -133634,-38703z"/>
 </g>
</svg>
