<?xml version="1.0" encoding="UTF-8"?>
<!DOCTYPE svg PUBLIC "-//W3C//DTD SVG 1.1//EN" "http://www.w3.org/Graphics/SVG/1.1/DTD/svg11.dtd">
<!-- Creator: CorelDRAW X7 -->
<svg xmlns="http://www.w3.org/2000/svg" xml:space="preserve" width="200px" height="200px" version="1.1" shape-rendering="geometricPrecision" text-rendering="geometricPrecision" image-rendering="optimizeQuality" fill-rule="evenodd" clip-rule="evenodd"
viewBox="0 0 117056 117056"
 xmlns:xlink="http://www.w3.org/1999/xlink"
 enable-background="new 0 0 64 64">
 <g id="Слой_x0020_1">
  <metadata id="CorelCorpID_0Corel-Layer"/>
  <g id="_1666572631344">
   <path fill="black" stroke="white" stroke-width="1122.9" d="M64138 82837l-16829 0 0 -11219c0,-4126 -3355,-7480 -7480,-7480l-1870 0c-1032,0 -1870,836 -1870,1870l0 10445 -6383 6384 -12316 0 0 -78536 67317 0 0 13090c0,1034 838,1869 1870,1869l13089 0 0 39268 3740 0 0 -41138c0,-517 -210,-985 -550,-1323l-14955 -14956c-339,-340 -806,-550 -1324,-550l-71056 0c-1033,0 -1870,836 -1870,1870l0 80406 -13090 0 0 3740 22439 0 0 22438 -22439 0 0 3740 29478 0 7085 3544c258,129 546,196 835,196l22439 0c3093,0 5610,-2517 5610,-5610l0 -3739 0 -7480 0 -7480 0 -7479c0,-1034 -838,-1870 -1870,-1870l0 0zm24309 -75892l8575 8576 -8575 0 0 -8576zm-26179 103940c0,1032 -840,1870 -1870,1870l-21997 0 -7085 -3543c-258,-129 -546,-197 -836,-197l-3740 0 0 -22438 3740 0c495,0 972,-197 1322,-548l7479 -7480c352,-349 548,-825 548,-1322l0 -9349c2063,0 3740,1677 3740,3739l0 13090c0,1034 838,1870 1870,1870l16829 0 0 3739 -14959 0 0 3740 14959 0 0 3740 -14959 0 0 3740 14959 0 0 3740 -14959 0 0 3739 14959 0 0 1870z"/>
   <path fill="black" stroke="white" stroke-width="1122.9" d="M110885 97796l-1870 0 0 -1870c0,-3093 -2517,-5610 -5609,-5610l-3740 0 0 -3274c0,-4908 1161,-9824 3356,-14217l187 -372c129,-258 197,-546 197,-836l0 -1869c0,-5156 -4194,-9350 -9350,-9350 -5155,0 -9349,4194 -9349,9350l0 1869c0,290 67,578 196,836l187 372c2196,4393 3357,9309 3357,14217l0 3274 -3740 0c-3093,0 -5610,2517 -5610,5610l0 1870 -1870 0c-3093,0 -5609,2517 -5609,5610l0 3739c0,1035 837,1870 1869,1870l1870 0 0 5610c0,1034 838,1870 1870,1870l33658 0c1032,0 1870,-836 1870,-1870l0 -5610 1870 0c1032,0 1870,-835 1870,-1870l0 -3739c0,-3093 -2517,-5610 -5610,-5610zm-22438 -26620l0 -1428c0,-3093 2516,-5610 5609,-5610 3093,0 5610,2517 5610,5610l0 1428c-2448,4903 -3740,10389 -3740,15866l0 3274 -3740 0 0 -3274c0,-5479 -1292,-10963 -3739,-15866zm-5610 24750c0,-1032 839,-1870 1870,-1870l18699 0c1030,0 1870,838 1870,1870l0 1870 -22439 0 0 -1870zm26178 16829l-29918 0 0 -3740 29918 0 0 3740zm3740 -7479l-37398 0 0 -1870c0,-1032 840,-1870 1870,-1870l33658 0c1031,0 1870,838 1870,1870l0 1870z"/>
   <polygon fill="black" stroke="white" stroke-width="1122.9" points="21130,8041 80967,8041 80967,11781 21130,11781 "/>
   <polygon fill="black" stroke="white" stroke-width="1122.9" points="21130,15521 80967,15521 80967,19260 21130,19260 "/>
   <polygon fill="black" stroke="white" stroke-width="1122.9" points="21130,23000 80967,23000 80967,26740 21130,26740 "/>
   <path fill="black" stroke="white" stroke-width="1122.9" d="M86577 51049c0,-11341 -9228,-20569 -20569,-20569 -11341,0 -20569,9228 -20569,20569 0,11341 9228,20568 20569,20568 11341,0 20569,-9227 20569,-20568zm-20569 16829c-9279,0 -16829,-7549 -16829,-16829 0,-9281 7550,-16829 16829,-16829 9278,0 16829,7548 16829,16829 0,9280 -7551,16829 -16829,16829z"/>
   <path fill="black" stroke="white" stroke-width="1122.9" d="M65325 57072l-5475 -5476 -2644 2645 7480 7479c353,354 830,548 1322,548 125,0 250,-13 376,-39 615,-125 1127,-554 1361,-1137l7480 -18699 -3473 -1388 -6427 16067z"/>
  </g>
 </g>
</svg>
