<?xml version="1.0" encoding="UTF-8"?>
<!DOCTYPE svg PUBLIC "-//W3C//DTD SVG 1.1//EN" "http://www.w3.org/Graphics/SVG/1.1/DTD/svg11.dtd">
<!-- Creator: CorelDRAW X7 -->
<svg xmlns="http://www.w3.org/2000/svg" xml:space="preserve" width="200px" height="200px" version="1.1" shape-rendering="geometricPrecision" text-rendering="geometricPrecision" image-rendering="optimizeQuality" fill-rule="evenodd" clip-rule="evenodd"
viewBox="0 0 268249 268160"
 xmlns:xlink="http://www.w3.org/1999/xlink">
 <g id="Слой_x0020_1">
  <metadata id="CorelCorpID_0Corel-Layer"/>
  <g id="_1666586416496">
   <g>
    <g>
     <path fill="black" stroke="white" stroke-width="1872.17" d="M111980 18694c-51473,0 -93200,41727 -93200,93200 0,51473 41727,93199 93200,93199 51473,0 93200,-41726 93200,-93199 -56,-51450 -41750,-93144 -93200,-93200zm0 8876c27414,22 53104,13383 68861,35816l-11095 11095c-2700,-1634 -5791,-2508 -8947,-2530 -9804,0 -17752,7948 -17752,17752 15,3160 885,6256 2516,8961l-29060 29060c-5503,-3355 -12419,-3355 -17921,0l-20185 -20184c1632,-2705 2501,-5801 2517,-8961 12,-9784 -7910,-17726 -17695,-17738 -8092,-11 -15162,5463 -17180,13300l-16465 0c8403,-38803 42703,-66512 82406,-66571zm57695 62133c0,4903 -3973,8876 -8876,8876 -4902,0 -8876,-3973 -8876,-8876 0,-4902 3974,-8876 8876,-8876 4903,0 8876,3974 8876,8876zm-53257 53257c0,4903 -3973,8876 -8876,8876 -4902,0 -8876,-3973 -8876,-8876 0,-4902 3974,-8876 8876,-8876 4903,0 8876,3974 8876,8876zm-44380 -44381c0,4903 -3974,8877 -8877,8877 -4902,0 -8876,-3974 -8876,-8877 0,-4902 3974,-8876 8876,-8876 4903,0 8877,3974 8877,8876zm80913 87045c-12533,6959 -26635,10605 -40971,10592 -46538,32 -84291,-37669 -84323,-84208 -2,-3003 156,-6005 475,-8991l17907 0c2018,7814 9052,13284 17122,13314 3160,-15 6256,-884 8961,-2516l20184 20184c-1631,2705 -2501,5801 -2516,8961 0,9804 7948,17752 17752,17752 9804,0 17752,-7948 17752,-17752 -15,-3160 -884,-6256 -2516,-8961l29060 -29061c2706,1632 5802,2501 8961,2517 9805,0 17752,-7948 17752,-17752 -15,-3160 -884,-6256 -2516,-8961l9675 -9670c22587,40679 7920,91966 -32759,114552z"/>
    </g>
   </g>
   <g>
    <g>
     <path fill="black" stroke="white" stroke-width="1872.17" d="M222932 45323c8070,-31 15104,-5500 17122,-13315l27259 0 0 -8876 -27259 0c-2018,-7814 -9052,-13284 -17122,-13314 -9804,0 -17752,7948 -17752,17752 15,3160 885,6256 2516,8961l-7797 7797c-37311,-48608 -106962,-57767 -155571,-20457 -48608,37310 -57767,106962 -20457,155571 35218,45882 99776,57012 148325,25571l13394 13395 6275 6275 35727 35727c9086,9086 23818,9086 32904,0 9086,-9087 9086,-23818 0,-32904l-35726 -35727 -6276 -6275 -13394 -13394c23776,-36623 23776,-83808 0,-120432l8876 -8876c2704,1632 5799,2503 8956,2521zm0 -26629c4903,0 8876,3974 8876,8876 0,4903 -3973,8876 -8876,8876 -4902,0 -8876,-3973 -8876,-8876 0,-4902 3974,-8876 8876,-8876zm31289 215087c5684,5557 5787,14669 231,20353 -5557,5684 -14669,5788 -20353,232 -78,-76 -155,-154 -231,-232l-35727 -35726 20353 -20354 35727 35727zm-42002 -42002l-20354 20353 -12284 -12284c626,-480 1212,-1008 1828,-1501 617,-493 1332,-1083 1993,-1638 972,-816 1931,-1641 2872,-2489 483,-444 945,-888 1420,-1332 1819,-1704 3581,-3466 5285,-5285 444,-475 888,-937 1332,-1420 848,-941 1673,-1900 2490,-2872 556,-657 1102,-1321 1637,-1993 488,-612 1017,-1198 1496,-1823l12285 12284zm-17211 -20615c-1398,1953 -2841,3866 -4363,5708 -444,537 -919,1056 -1376,1584 -1358,1580 -2760,3113 -4207,4598 -630,651 -1271,1291 -1922,1921 -1479,1447 -3012,2850 -4598,4208 -528,444 -1047,927 -1584,1376 -1842,1522 -3754,2964 -5707,4362 -45943,32823 -109796,22186 -142618,-23757 -32822,-45943 -22186,-109795 23757,-142618 45943,-32822 109795,-22186 142618,23758 25397,35550 25397,83310 0,118860z"/>
    </g>
   </g>
   <g>
   </g>
   <g>
   </g>
   <g>
   </g>
   <g>
   </g>
   <g>
   </g>
   <g>
   </g>
   <g>
   </g>
   <g>
   </g>
   <g>
   </g>
   <g>
   </g>
   <g>
   </g>
   <g>
   </g>
   <g>
   </g>
   <g>
   </g>
   <g>
   </g>
  </g>
 </g>
</svg>
