<?xml version="1.0" encoding="UTF-8"?>
<!DOCTYPE svg PUBLIC "-//W3C//DTD SVG 1.1//EN" "http://www.w3.org/Graphics/SVG/1.1/DTD/svg11.dtd">
<!-- Creator: CorelDRAW X7 -->
<svg xmlns="http://www.w3.org/2000/svg" xml:space="preserve" width="502px" height="110px" version="1.1" style="shape-rendering:geometricPrecision; text-rendering:geometricPrecision; image-rendering:optimizeQuality; fill-rule:evenodd; clip-rule:evenodd"
viewBox="0 0 404 88"
 xmlns:xlink="http://www.w3.org/1999/xlink">
 <defs>
  <style type="text/css">
   <![CDATA[
    .fil1 {fill:none;fill-rule:nonzero}
    .fil3 {fill:#231F1F;fill-rule:nonzero}
    .fil0 {fill:#C30000;fill-rule:nonzero}
    .fil2 {fill:white;fill-rule:nonzero}
   ]]>
  </style>
 </defs>
 <g id="Слой_x0020_1">
  <metadata id="CorelCorpID_0Corel-Layer"/>
  <g id="_1459775972608">
   <path class="fil0" d="M244 45c0,24 -19,43 -43,43 -24,0 -43,-19 -43,-43 0,-24 19,-43 43,-43 24,0 43,19 43,43z"/>
   <path class="fil1" d="M244 45c0,24 -19,43 -43,43 -24,0 -43,-19 -43,-43 0,-24 19,-43 43,-43 24,0 43,19 43,43z"/>
   <path class="fil2" d="M243 45c0,20 -15,38 -35,42 -20,3 -40,-9 -47,-28 -7,-19 1,-41 19,-51 18,-11 41,-6 54,10 6,8 9,17 9,27 0,1 2,1 2,0 0,-19 -13,-36 -31,-42 -18,-6 -38,1 -49,17 -11,15 -10,37 1,51 12,16 33,21 51,15 16,-7 28,-23 28,-41 0,-1 -2,-1 -2,0l0 0z"/>
   <path class="fil1" d="M202 2c2,1 3,2 4,4 1,1 1,2 1,3 1,7 -10,8 -12,14 -1,4 2,6 6,8l1 -29z"/>
   <path class="fil2" d="M201 4c3,1 5,5 3,8 -2,2 -5,4 -7,5 -2,2 -4,5 -4,8 0,4 4,6 7,8 2,1 4,-2 2,-4 -3,-1 -7,-4 -4,-7 1,-2 4,-4 7,-5 2,-2 4,-4 4,-7 0,-4 -3,-8 -6,-10 -2,-1 -4,2 -2,4l0 0z"/>
   <path class="fil1" d="M183 39c0,2 0,3 0,5 0,0 0,0 0,0 0,1 0,1 -1,2 0,4 0,8 1,13 0,1 1,3 1,4 1,1 1,3 2,4 1,4 4,7 8,10 7,5 19,5 23,-4 0,-1 1,-2 1,-3 0,-1 0,-2 1,-3 1,-11 2,-24 -6,-33 -1,0 -2,-1 -3,-1 -1,0 -2,-1 -4,-1 -1,0 -2,0 -3,0 -3,0 -5,0 -8,0 -1,1 -2,1 -3,1 -1,0 -1,1 -1,1 -1,0 -1,0 -1,0 -3,1 -5,3 -7,5 0,0 0,0 0,0l0 0z"/>
   <path class="fil2" d="M180 40c0,6 -1,13 0,19 1,6 3,12 8,16 6,7 16,10 25,5 9,-5 9,-18 9,-27 0,-6 -1,-11 -4,-16 -1,-2 -2,-5 -5,-6 -2,-1 -5,-1 -8,-2 -5,0 -10,1 -14,2 -2,1 -4,2 -6,3 -1,1 -3,3 -4,4 -2,4 3,5 4,2 1,-2 4,-3 6,-4 3,-1 6,-2 9,-2 2,0 5,0 8,1 3,1 4,3 6,6 2,4 3,10 3,15 0,5 0,12 -3,17 -3,8 -15,5 -20,1 -4,-4 -7,-10 -8,-15 -1,-7 -1,-13 0,-20 0,-3 -6,-2 -6,1l0 0z"/>
   <path class="fil1" d="M183 48c8,2 16,2 24,1 1,0 2,-1 4,-1 1,0 2,-1 3,-1 2,-1 3,-1 4,-2l-35 3z"/>
   <path class="fil2" d="M182 50c6,1 12,2 18,1 6,0 12,-1 18,-4 1,0 1,-2 1,-3 1,0 1,-1 0,-1 -5,3 -11,3 -16,4 -6,0 -12,0 -18,-2 -2,0 -4,5 -3,5l0 0z"/>
   <path class="fil1" d="M199 33c3,5 3,10 3,16l-3 -16z"/>
   <path class="fil2" d="M198 35c2,5 2,11 3,16 0,1 1,0 1,0 1,-1 2,-3 2,-4 -1,-6 -1,-12 -3,-17 -1,-1 -2,1 -2,2 -1,0 -2,2 -1,3l0 0z"/>
   <path class="fil3" d="M28 62c-4,5 -11,6 -17,6 -3,0 -7,0 -11,-2l2 -8c2,2 5,2 8,2 4,0 7,-1 7,-5 0,-4 -5,-6 -9,-9 -4,-2 -8,-6 -8,-12 0,-11 9,-14 18,-14 4,0 8,1 11,2l-1 9c-3,-2 -5,-3 -8,-3 -3,0 -7,1 -7,5 0,4 6,6 11,9 4,3 7,6 7,12 0,3 -1,6 -3,8l0 0z"/>
   <path class="fil3" d="M56 68c-15,0 -19,-7 -19,-21l0 -26 14 0 0 28c0,4 0,11 6,11 7,0 7,-7 7,-11l0 -28 11 0 0 27c0,14 -4,20 -19,20z"/>
   <polygon class="fil3" points="123,32 114,67 104,67 95,32 93,67 82,67 86,21 103,21 111,50 118,21 135,21 138,67 125,67 "/>
   <path class="fil3" d="M289 29c-9,0 -13,6 -13,15 0,8 4,15 13,15 3,0 5,0 8,-1l1 9c-4,1 -8,1 -12,1 -15,0 -24,-9 -24,-24 0,-15 10,-24 25,-24 4,0 7,1 11,2l-2 9c-2,-1 -4,-2 -7,-2l0 0z"/>
   <path class="fil3" d="M321 68c-15,0 -22,-10 -22,-24 0,-15 8,-24 23,-24 15,0 21,11 21,25 0,14 -7,23 -22,23l0 0zm0 -39l0 0c-7,0 -8,10 -8,15 0,5 1,16 8,16 8,0 8,-11 8,-16 0,-5 0,-15 -8,-15z"/>
   <polygon class="fil3" points="389,32 381,67 370,67 361,32 359,67 348,67 352,21 369,21 377,50 384,21 401,21 404,67 392,67 "/>
  </g>
 </g>
</svg>
