<?xml version="1.0" encoding="UTF-8"?>
<!DOCTYPE svg PUBLIC "-//W3C//DTD SVG 1.1//EN" "http://www.w3.org/Graphics/SVG/1.1/DTD/svg11.dtd">
<!-- Creator: CorelDRAW X6 -->
<svg xmlns="http://www.w3.org/2000/svg" xml:space="preserve" width="65.342mm" height="41.1199mm" version="1.1" style="shape-rendering:geometricPrecision; text-rendering:geometricPrecision; image-rendering:optimizeQuality; fill-rule:evenodd; clip-rule:evenodd"
viewBox="0 0 6534 4112"
 xmlns:xlink="http://www.w3.org/1999/xlink">
 <defs>
  <style type="text/css">
   <![CDATA[
    .fil2 {fill:#AF955C}
    .fil0 {fill:#465C26;fill-rule:nonzero}
    .fil1 {fill:#AF955C;fill-rule:nonzero}
   ]]>
  </style>
 </defs>
 <g id="Слой_x0020_1">
  <metadata id="CorelCorpID_0Corel-Layer"/>
  <g id="_952580320">
   <path class="fil0" d="M3303 3126c-2,154 -108,187 -237,190 -12,0 -22,10 -22,23l0 181c0,6 2,11 7,16 4,4 10,7 16,7 307,-6 533,-122 533,-467l0 -88c0,-42 -34,-76 -75,-76l-403 0c-41,0 -75,34 -75,76l0 62c0,41 34,76 75,76l181 0zm-429 190c-174,-7 -233,-98 -233,-355 0,-240 52,-335 234,-352 12,-1 21,-11 21,-23l0 -182c0,-6 -2,-12 -7,-16 -5,-5 -11,-7 -17,-7 -352,19 -533,203 -533,580 0,367 168,573 533,582 7,0 12,-3 17,-7 5,-5 7,-10 7,-17l0 -180c0,-13 -10,-23 -22,-23zm193 -710l18 0c98,0 174,27 203,83 28,52 63,75 109,75l95 0c21,0 82,-15 82,-89 0,-175 -238,-295 -462,-295l-45 0c-13,0 -23,10 -23,23l0 180c0,13 10,23 23,23zm1489 930c41,0 84,-33 99,-72l9 -25 0 0 358 -1024c3,-7 1,-14 -3,-21 -4,-6 -11,-9 -19,-9l-168 0c-42,0 -83,34 -97,76l-236 685 -237 -685c-13,-42 -54,-76 -97,-76l-326 0c-42,0 -74,34 -74,77l0 997c0,42 32,77 75,77l145 0c42,0 75,-35 75,-77l0 -785 283 790c15,39 57,72 98,72l115 0zm381 -432l0 355c0,42 33,77 76,77l145 0c42,0 75,-35 75,-77l0 -997c0,-18 -6,-35 -16,-49 -6,-6 -14,-10 -22,-8 -9,1 -15,7 -18,15l-240 684zm503 -719c-43,0 -75,33 -75,75l0 76c0,43 32,75 75,75l358 0 0 851c0,41 35,74 76,74l151 0c41,0 76,-33 76,-74l0 -605 0 -246 0 -226 -661 0zm831 226l188 0c42,0 75,-32 75,-75l0 -76c0,-42 -33,-75 -75,-75l-188 0c-13,0 -23,10 -23,23l0 180c0,13 10,23 23,23z"/>
   <g>
    <path class="fil1" d="M231 886c0,-64 -52,-115 -115,-115 -64,0 -116,51 -116,115 0,690 0,1381 0,2072 0,120 22,234 66,339 43,106 108,202 194,287l479 480c65,64 231,64 295,0l479 -480c86,-85 151,-181 194,-287 44,-105 66,-219 66,-339l0 -245c0,-106 38,-197 113,-272l49 -49 190 -190c45,-45 45,-118 0,-163 -45,-45 -119,-45 -164,0l-189 189 -385 385c0,-704 0,-1215 0,-1919 0,-64 -51,-115 -115,-115 -64,0 -115,51 -115,115l0 1378c-51,51 -106,103 -155,156l0 -2112c0,-64 -52,-116 -115,-116 -64,0 -116,52 -116,116l0 2112c-49,-53 -103,-105 -155,-156l0 -1571c0,-64 -51,-115 -115,-115 -64,0 -115,51 -115,115l0 1341 -155 -155 0 -801zm0 1301l0 -173 348 348c65,65 113,135 144,211 32,77 48,161 48,252l0 173 -28 -28 0 -1 -320 -319c-64,-65 -113,-135 -144,-211 -32,-77 -48,-161 -48,-252zm0 771l0 -173 29 28 319 320c65,64 113,135 144,211 32,77 48,161 48,252l0 173 -348 -348c-64,-65 -113,-135 -144,-211 -32,-77 -48,-161 -48,-252zm1311 -173l0 173c0,91 -16,175 -48,252 -31,76 -79,146 -144,211l-348 348 0 -173c0,-91 16,-175 48,-252 31,-76 79,-147 144,-211l159 -159 0 0 189 -189zm-498 171l-42 42 0 -173c0,-91 16,-175 48,-252 25,-60 61,-118 107,-171l0 281c0,107 -38,198 -113,273z"/>
    <path class="fil2" d="M2201 1119l-116 0c-63,0 -115,51 -115,115l0 115 115 0c64,0 116,-52 116,-115l0 -115z"/>
    <path class="fil2" d="M2891 1119l-115 0c-63,0 -115,51 -115,115l0 115 115 0c64,0 115,-52 115,-115l0 -115z"/>
    <path class="fil2" d="M2661 658l-115 0c-63,0 -115,52 -115,115l0 115 115 0c63,0 115,-52 115,-115l0 -115z"/>
    <path class="fil2" d="M3179 600l-57 0c-32,0 -58,26 -58,58l0 58 58 0c31,0 57,-26 57,-58l0 -58z"/>
    <path class="fil2" d="M2201 773l-58 0c-32,0 -58,26 -58,58l0 57 58 0c32,0 58,-26 58,-57l0 -58z"/>
    <path class="fil2" d="M1798 1752l-58 0c-32,0 -58,26 -58,57l0 58 58 0c32,0 58,-26 58,-58l0 -57z"/>
    <path class="fil2" d="M2258 1522l-57 0c-32,0 -58,25 -58,57l0 58 58 0c31,0 57,-26 57,-58l0 -57z"/>
   </g>
  </g>
 </g>
</svg>
