<?xml version="1.0" encoding="UTF-8"?>
<!DOCTYPE svg PUBLIC "-//W3C//DTD SVG 1.1//EN" "http://www.w3.org/Graphics/SVG/1.1/DTD/svg11.dtd">
<!-- Creator: CorelDRAW X7 -->
<svg xmlns="http://www.w3.org/2000/svg" xml:space="preserve" width="400px" height="132px" version="1.1" style="shape-rendering:geometricPrecision; text-rendering:geometricPrecision; image-rendering:optimizeQuality; fill-rule:evenodd; clip-rule:evenodd"
viewBox="0 0 426640 140607"
 xmlns:xlink="http://www.w3.org/1999/xlink">
 <defs>
  <style type="text/css">
   <![CDATA[
    .str0 {stroke:red;stroke-width:182.765}
    .fil2 {fill:#FEFEFE}
    .fil0 {fill:#393185}
    .fil1 {fill:#E31E25}
    .fil4 {fill:#393185;fill-rule:nonzero}
    .fil3 {fill:#E31E24;fill-rule:nonzero}
    .fil5 {fill:#E31E25;fill-rule:nonzero}
   ]]>
  </style>
 </defs>
 <g id="Слой_x0020_1">
  <metadata id="CorelCorpID_0Corel-Layer"/>
  <path class="fil0" d="M289556 68744c-3336,4911 -15251,15580 -20536,19971 -7284,6052 -14558,11519 -23548,16637 -17512,9971 -39057,17889 -62953,17932 -10016,17 -30997,-1754 -39024,-5684 10283,-1221 37450,-442 45036,-3324 -7873,-796 -14687,-2934 -18873,-7580 -4570,-5073 -8091,-9107 -8053,-17887 1509,2685 2212,6620 3818,9258 5116,8402 14488,14330 25642,12836 7725,-1036 13287,-5283 16357,-9323 4765,-6269 6081,-10222 6068,-19867l1032 2683c1024,5835 -1126,13022 -4333,17788 -4391,6529 -6812,6791 -14226,10923 13918,-367 36521,-11460 47333,-20669 1236,-1054 10607,-9530 10962,-11276 46,-227 173,-268 245,-410l-53933 -4798c2105,4750 4746,7213 3072,14353 -3890,16592 -27124,15366 -30842,1909 1207,-1278 12938,-8328 14751,-8965l-6722 -2727c-2328,-786 -4479,-1482 -6805,-2272 687,-1506 1362,-2022 2088,-3394 -52052,-21507 99251,-8126 113444,-6114z"/>
  <path class="fil1 str0" d="M140268 34842l-646 27225 14733 528 1189 -18870 20923 -640 8901 -4876c27629,-15137 8963,-5416 53843,-27997l18912 0c-50845,30198 -89678,62271 -114244,119592l-19835 10652c-1093,-39988 -15023,-65122 -33088,-60433l0 -45187 49312 6z"/>
  <polygon class="fil2" points="96297,38652 102458,38652 102458,50171 96297,50171 "/>
  <polygon class="fil2" points="109021,38652 115182,38652 115182,50171 109021,50171 "/>
  <polygon class="fil2" points="109021,57029 115182,57029 115182,68548 109021,68548 "/>
  <polygon class="fil2" points="122951,38652 129112,38652 129112,50171 122951,50171 "/>
  <polygon class="fil2" points="140414,69574 146575,69574 146575,81093 140414,81093 "/>
  <polygon class="fil2" points="122951,55974 129112,55974 129112,67493 122951,67493 "/>
  <path class="fil3" d="M29672 14418c0,4046 -1456,7485 -4369,10321 -2913,2831 -6408,4249 -10486,4249 -3977,0 -7440,-1399 -10391,-4192 -2951,-2799 -4426,-6192 -4426,-10188 0,-4046 1443,-7484 4331,-10321 2887,-2831 6383,-4249 10486,-4249 4002,0 7478,1399 10429,4192 2950,2799 4426,6192 4426,10188zm-26861 190c0,3210 1197,5958 3591,8251 2393,2286 5211,3432 8453,3432 3318,0 6148,-1159 8491,-3470 2343,-2318 3514,-5117 3514,-8403 0,-3210 -1196,-5959 -3590,-8251 -2393,-2286 -5199,-3432 -8415,-3432 -3343,0 -6187,1159 -8529,3470 -2343,2318 -3515,5117 -3515,8403zm31161 -14152l20174 0 0 28076 -2812 0 0 -25531 -14551 0 0 25531 -2811 0 0 -28076zm29489 2545l-6421 0 0 -2545 15653 0 0 2545 -6421 0 0 25531 -2811 0 0 -25531zm33706 -2545l0 28076 -2812 0 0 -24695 -15956 24695 -2812 0 0 -28076 2812 0 0 23245 14930 -23245 3838 0zm5516 0l2811 0 0 16115 12930 -16140 3571 25 -11062 13683 11088 14393 -3502 0 -9378 -12113 -3647 4439 0 7674 -2811 0 0 -28076zm29754 0l3116 0 12043 28076 -3058 6 -4040 -9428 -13094 0 -4059 9416 -3027 6 12119 -28076zm6928 16108l-5370 -12904 -5490 12904 10860 0z"/>
  <path class="fil4" d="M158393 3001l-4749 0 0 -2545 7560 0 0 28076 -2811 0 0 -25531zm13988 20744l2811 0 0 4787 -2811 0 0 -4787zm7567 -13196c0,-1596 146,-2932 437,-4002 292,-1076 874,-2146 1748,-3210 874,-1057 1944,-1881 3210,-2463 1267,-583 2609,-874 4028,-874 1317,0 2577,253 3780,760 1203,506 2248,1254 3134,2235 887,988 1520,2121 1900,3400 380,1273 570,2660 570,4154l0 7282c0,1748 -102,3090 -304,4021 -304,1368 -887,2596 -1748,3685 -1849,2299 -4293,3451 -7332,3451 -2964,0 -5370,-1089 -7219,-3261 -887,-1064 -1475,-2223 -1767,-3476 -291,-1248 -437,-2723 -437,-4420l0 -7282zm15995 646c0,-1545 -101,-2736 -304,-3584 -202,-848 -506,-1564 -912,-2147 -557,-835 -1329,-1500 -2317,-2007 -988,-506 -2001,-760 -3039,-760 -1115,0 -2204,292 -3268,874 -1064,583 -1862,1349 -2393,2311 -355,634 -602,1438 -741,2413 -140,969 -209,1937 -209,2900l0 6180c0,1418 69,2615 209,3584 139,975 475,1855 1007,2640 1291,1792 3090,2692 5395,2692 2532,0 4407,-1039 5622,-3109 380,-659 634,-1501 760,-2527 127,-1019 190,-2115 190,-3280l0 -6180z"/>
  <path class="fil4" d="M236630 48811c0,2851 -987,5274 -2961,7273 -1973,1994 -4341,2994 -7104,2994 -2695,0 -5041,-986 -7041,-2954 -1999,-1972 -2999,-4363 -2999,-7179 0,-2851 979,-5274 2935,-7273 1956,-1994 4325,-2994 7105,-2994 2711,0 5066,987 7066,2954 1999,1972 2999,4364 2999,7179zm132565 -8449l0 2605 -68 71c-1579,1659 -2368,3573 -2368,5747 0,2297 802,4269 2407,5920l29 30 0 2622c-506,-356 -988,-767 -1445,-1233 -1931,-1972 -2896,-4417 -2896,-7339 0,-2798 961,-5185 2883,-7166 463,-476 949,-895 1458,-1257zm-150765 8583c0,2262 811,4199 2433,5814 1622,1610 3531,2418 5727,2418 2248,0 4166,-817 5754,-2445 1587,-1633 2381,-3605 2381,-5921 0,-2280 -807,-4221 -2420,-5827 -1613,-1602 -3518,-2405 -5715,-2405 -2265,0 -4191,817 -5779,2445 -1587,1633 -2381,3605 -2381,5921zm20249 -9972l4994 0c1201,0 2171,58 2909,174 738,116 1467,415 2188,897 1665,1089 2497,2713 2497,4872 0,1945 -721,3471 -2163,4578 -669,517 -1449,874 -2342,1071 -652,142 -1519,214 -2600,214l-3578 0 0 7977 -1905 0 0 -19783zm5174 10012c1064,0 1862,-67 2394,-200 532,-134 1013,-335 1442,-598 532,-340 944,-808 1236,-1401 291,-598 437,-1227 437,-1883 0,-1781 -789,-3007 -2368,-3681 -429,-179 -850,-299 -1262,-362 -411,-62 -900,-93 -1467,-93 -206,0 -412,0 -618,0 -206,0 -412,0 -617,0l-2446 0 0 8218 3269 0zm11626 -8218l-4376 0 0 -1794 10605 0 0 1794 -4324 0 0 17989 -1905 0 0 -17989zm7326 -1794l1905 0 0 19783 -1905 0 0 -19783zm20455 5086c-686,-1106 -1635,-1967 -2844,-2583 -1210,-616 -2476,-924 -3797,-924 -2145,0 -4007,830 -5586,2486 -1579,1659 -2369,3573 -2369,5747 0,2297 803,4269 2407,5920 1605,1646 3497,2472 5677,2472 1286,0 2518,-321 3693,-968 1176,-647 2141,-1522 2896,-2619l2111 0c-824,1633 -2033,2958 -3630,3971 -1596,1012 -3286,1517 -5070,1517 -2798,0 -5162,-986 -7093,-2954 -1930,-1972 -2895,-4417 -2895,-7339 0,-2798 961,-5185 2882,-7166 1923,-1977 4240,-2967 6951,-2967 2059,0 3887,553 5483,1660 669,446 1304,990 1905,1633 686,749 1150,1454 1390,2114l-2111 0zm23647 5569c0,2632 -1038,4885 -3115,6755 -1991,1798 -4307,2695 -6950,2695 -2763,0 -5153,-1004 -7169,-3008 -2017,-2007 -3025,-4444 -3025,-7312 0,-1303 262,-2575 785,-3824 524,-1249 1240,-2334 2150,-3262 978,-999 2085,-1748 3320,-2257 1236,-509 2549,-763 3939,-763 2076,0 3938,562 5586,1686 720,500 1364,1062 1930,1687 704,767 1167,1508 1391,2222l-2163 0c-652,-1142 -1596,-2044 -2831,-2704 -1236,-660 -2540,-991 -3913,-991 -1064,0 -2077,183 -3038,549 -961,366 -1836,924 -2625,1682 -790,759 -1425,1669 -1905,2726 -481,1062 -721,2151 -721,3276 0,2369 819,4359 2458,5974 1639,1610 3608,2418 5908,2418 1733,0 3329,-531 4788,-1597 1459,-1067 2428,-2454 2909,-4159l-10632 0 0 -1793 12923 0zm1972 -10655l4531 0c1304,0 2342,49 3114,147 773,98 1536,371 2292,817 960,571 1694,1329 2200,2275 506,946 760,2013 760,3208 0,1607 -550,2998 -1648,4176 -1094,1178 -2415,1767 -3955,1767l5354 7389 -2377 4 -6461 -8968 566 0 515 0c910,0 1605,-26 2085,-80 480,-54 995,-205 1545,-455 789,-375 1398,-910 1827,-1606 429,-696 644,-1499 644,-2410 0,-696 -159,-1361 -476,-1994 -318,-634 -751,-1151 -1300,-1553 -549,-401 -1172,-655 -1867,-763 -695,-107 -1505,-160 -2432,-160l-3012 0 0 17989 -1905 0 0 -19783zm21124 0l2111 0 8160 19783 -2072 5 -2737 -6644 -8873 0 -2750 6635 -2050 4 8211 -19783zm4694 11351l-3638 -9093 -3720 9093 7358 0zm6777 -11351l5123 0c1527,0 2891,165 4093,495 1201,331 2334,946 3398,1848 1064,901 1905,2016 2522,3346 618,1329 927,2717 927,4163 0,1392 -270,2730 -811,4015 -540,1285 -1326,2414 -2355,3387 -1030,972 -2205,1655 -3527,2048 -1098,321 -2471,481 -4118,481l-5252 0 0 -19783zm4350 17990c1614,0 2806,-80 3578,-241 1236,-250 2334,-776 3296,-1580 1956,-1588 2934,-3694 2934,-6317 0,-2552 -987,-4641 -2960,-6265 -944,-767 -2025,-1276 -3244,-1525 -858,-179 -2059,-268 -3604,-268l-2445 0 0 16196 2445 0zm14406 -1580l1905 0 0 3373 -1905 0 0 -3373z"/>
  <path class="fil5" d="M360230 55383l1905 0 0 3373 -1905 0 0 -3373zm21124 -11324c-686,-1106 -1634,-1967 -2844,-2583 -1210,-616 -2476,-924 -3797,-924 -2145,0 -4007,830 -5586,2486 -1579,1659 -2368,3573 -2368,5747 0,2297 802,4269 2407,5920 1604,1646 3496,2472 5676,2472 1287,0 2518,-321 3693,-968 1176,-647 2141,-1522 2896,-2619l2111 0c-824,1633 -2033,2958 -3629,3971 -1596,1012 -3287,1517 -5071,1517 -2798,0 -5162,-986 -7092,-2954 -1931,-1972 -2896,-4417 -2896,-7339 0,-2798 961,-5185 2883,-7166 1922,-1977 4239,-2967 6950,-2967 2059,0 3887,553 5483,1660 669,446 1304,990 1905,1633 686,749 1150,1454 1390,2114l-2111 0zm23493 4752c0,2851 -987,5274 -2961,7273 -1973,1994 -4342,2994 -7104,2994 -2695,0 -5042,-986 -7041,-2954 -1999,-1972 -2999,-4363 -2999,-7179 0,-2851 978,-5274 2935,-7273 1956,-1994 4325,-2994 7105,-2994 2711,0 5066,987 7066,2954 1999,1972 2999,4364 2999,7179zm-18200 134c0,2262 811,4199 2433,5814 1621,1610 3531,2418 5727,2418 2248,0 4166,-817 5754,-2445 1587,-1633 2381,-3605 2381,-5921 0,-2280 -807,-4221 -2420,-5827 -1613,-1602 -3518,-2405 -5715,-2405 -2265,0 -4191,817 -5779,2445 -1587,1633 -2381,3605 -2381,5921zm20249 -9972l2939 0 6946 16794 6920 -16794 2939 0 0 19783 -1905 0 0 -17588 -7156 17588 -1622 0 -7156 -17588 0 17588 -1905 0 0 -19783z"/>
 </g>
</svg>
