<?xml version="1.0" encoding="UTF-8"?>
<!DOCTYPE svg PUBLIC "-//W3C//DTD SVG 1.1//EN" "http://www.w3.org/Graphics/SVG/1.1/DTD/svg11.dtd">
<!-- Creator: CorelDRAW X7 -->
<svg xmlns="http://www.w3.org/2000/svg" xml:space="preserve" width="400px" height="148px" version="1.1" style="shape-rendering:geometricPrecision; text-rendering:geometricPrecision; image-rendering:optimizeQuality; fill-rule:evenodd; clip-rule:evenodd"
viewBox="0 0 364 135"
 xmlns:xlink="http://www.w3.org/1999/xlink">
 <defs>
  <style type="text/css">
   <![CDATA[
    .fil1 {fill:#37B5FF}
    .fil0 {fill:#FFDD58}
   ]]>
  </style>
 </defs>
 <g id="Слой_x0020_1">
  <metadata id="CorelCorpID_0Corel-Layer"/>
  <g id="_1975747937856">
   <path class="fil0" d="M271 68c0,-9 5,-17 10,-21 10,-7 22,-7 31,0 3,2 7,7 9,10 2,7 3,14 0,21 -2,3 -4,6 -6,8l0 0c-1,1 -1,1 -1,1 -3,3 -11,6 -16,6 -5,0 -8,0 -13,-2 -1,-1 -4,-3 -5,-4 -1,0 -1,-1 -2,-1 0,-1 -1,-1 -1,-2 -2,-2 -3,-4 -4,-6 -1,-3 -2,-7 -2,-10zm-5 -20c0,6 0,13 0,20 0,6 0,13 0,19 0,0 0,1 0,1 1,0 1,0 1,0 4,7 13,13 21,15 7,1 13,2 20,-1 4,-1 7,-3 10,-5 3,-2 6,-4 8,-7 0,-1 1,-1 1,-2 1,-1 1,-2 2,-3 4,-7 5,-16 4,-24 -2,-7 -4,-11 -8,-16 -1,-1 -2,-2 -3,-4l-5 -4c-2,-1 -5,-3 -7,-3 -7,-3 -14,-4 -22,-2 -4,1 -8,3 -11,5l-3 2c-5,4 -8,9 -8,9z"/>
   <path class="fil1" d="M22 48l0 36c0,7 8,5 12,5l0 -21c0,-2 0,-4 0,-6l0 0c0,1 3,7 4,8 0,1 1,2 2,4l1 4c1,1 2,2 2,4 3,6 4,7 12,7 1,0 3,0 4,0 1,0 2,-1 2,-2l0 -37c0,-6 -5,-6 -9,-5 -1,0 -2,0 -3,0 0,6 0,17 1,22 0,1 -1,2 0,3 0,1 0,1 0,2l-1 0c0,-2 -8,-17 -9,-20 -2,-4 -3,-7 -10,-7 -3,0 -8,1 -8,3z"/>
   <path class="fil1" d="M239 73l-1 -11 0 0 1 0 0 0c0,1 2,5 2,6 1,1 2,4 3,5 0,1 5,11 6,13 1,1 1,1 2,2 0,0 1,0 1,1 1,0 2,0 3,0 2,1 3,0 5,0 2,0 4,0 5,-2 0,-6 0,-13 0,-19 0,-7 0,-14 0,-20 0,-1 -1,-2 -2,-2 0,-1 -1,-1 -3,-1 -2,0 -5,0 -7,0l0 4 0 15c0,1 0,6 0,7 0,0 0,0 0,0l0 1c0,0 0,0 0,-1 -1,0 -2,-3 -2,-4 -1,-2 -2,-3 -2,-5 -2,-2 -3,-5 -4,-8 -1,-1 -2,-3 -3,-4 0,-1 -1,-3 -2,-4 -4,-2 -12,-2 -14,1 -1,1 -1,5 -1,6l0 31c0,6 5,6 10,5 1,0 2,0 3,0l0 -16z"/>
   <path class="fil1" d="M273 66c0,5 0,8 2,12 2,2 3,5 5,6 5,4 11,6 19,6 3,0 8,-1 10,-2 3,-1 6,-2 6,-6l0 -15c0,-3 -2,-5 -5,-5l-12 0c-4,0 -5,5 -4,8 1,1 1,2 1,2l8 0 0 7c-2,0 -5,2 -10,0 -4,-2 -7,-6 -7,-11 0,-4 1,-8 4,-10 5,-5 12,-5 18,-2l2 1c6,-4 4,-13 -12,-13 -5,0 -10,1 -14,4 -6,4 -11,10 -11,18z"/>
   <path class="fil1" d="M111 52l0 31c0,3 2,6 6,6l22 0c6,0 4,-10 2,-10l-18 0 0 -7 12 0c4,0 6,-1 6,-5 0,-3 -1,-4 -2,-5l-16 0 0 -7 15 0c7,0 4,-10 3,-10l-22 0c-4,0 -8,1 -8,7z"/>
   <path class="fil1" d="M187 51l0 32c0,3 3,6 6,6l22 0c4,0 5,-5 4,-8 -1,-1 -1,-1 -1,-2l-19 0 0 -7 12 0c4,0 6,-1 6,-5 0,-1 0,-2 0,-3 -1,-1 -1,-1 -1,-2l-17 0 0 -7 14 0c9,0 5,-10 4,-10l-21 0c-3,0 -5,0 -6,1 -2,1 -3,3 -3,5z"/>
   <path class="fil1" d="M67 50c0,2 1,5 2,5l11 0 0 29c0,6 5,6 10,5 1,0 1,0 2,0l0 -34c4,0 9,1 11,-1 1,0 1,-1 2,-3 0,-1 0,-2 -1,-3 0,-1 0,-3 -1,-3l-30 0c-3,0 -6,1 -6,5z"/>
   <path class="fil1" d="M150 45l0 37c0,4 3,7 6,7l21 0c6,0 4,-10 2,-10l-16 0 0 -29c0,-8 -10,-5 -13,-5z"/>
   <path class="fil1" d="M0 45l0 39c0,2 1,3 2,4 2,2 6,1 8,1 1,0 3,0 3,-1l0 -36c0,-7 -3,-8 -10,-7 -1,0 -2,0 -3,0z"/>
   <path class="fil0" d="M338 67c0,3 2,5 5,6 1,0 15,0 17,0 2,0 4,-2 4,-4 0,-3 0,-4 -2,-6 -1,-1 -3,-1 -5,-1l-12 0c-2,0 -3,1 -5,1 0,1 -2,3 -2,4z"/>
   <path class="fil0" d="M292 6l0 14c0,2 0,3 1,4 0,1 1,1 1,1 4,2 8,-1 8,-5l0 -14c0,-2 -1,-3 -1,-4 -2,-2 -3,-2 -5,-2 -2,0 -4,2 -4,6z"/>
   <path class="fil0" d="M332 91c0,2 1,4 3,5l13 7c2,2 4,2 6,0 2,-2 3,-5 1,-8 -1,-1 -9,-5 -10,-6 -1,0 -2,-1 -4,-2 -2,-1 -4,-2 -7,0 -1,1 -2,2 -2,4z"/>
   <path class="fil0" d="M292 115l0 14c0,4 3,6 4,6l0 0c2,0 3,0 5,-2 0,0 1,-2 1,-3l0 -15c0,-2 -1,-3 -1,-4 -4,-4 -9,-1 -9,4z"/>
   <path class="fil0" d="M332 44c0,3 4,7 8,5 1,-1 1,-1 1,-1 1,0 1,-1 2,-1 1,-1 3,-2 5,-3 1,-1 3,-2 5,-3 2,-1 3,-2 3,-5 0,-3 -3,-5 -5,-5 -2,0 -4,2 -6,2 -2,2 -10,6 -12,8 0,1 -1,2 -1,3z"/>
   <path class="fil0" d="M320 32c4,0 4,-2 7,-5l4 -8c1,-2 2,-4 2,-5 0,-3 -2,-6 -5,-6 -4,0 -5,4 -7,7 0,0 0,1 -1,1l-3 7c-1,1 -2,2 -2,4 0,2 2,5 5,5z"/>
   <path class="fil0" d="M266 127c2,0 3,-2 4,-3 1,-1 1,-2 2,-3l5 -9c0,0 0,0 1,-1 1,-2 1,-4 -1,-6 -2,-3 -5,-3 -7,0 -2,1 -7,10 -8,13 -2,3 -2,5 0,7 1,1 2,2 4,2z"/>
   <path class="fil0" d="M261 13c0,3 1,5 3,9l5 7c3,7 12,2 9,-5 -1,-2 -7,-13 -9,-15 -4,-2 -8,1 -8,4z"/>
   <path class="fil0" d="M315 108c0,2 0,2 1,3 1,1 1,2 1,3 1,1 1,1 2,2l4 8c1,1 1,1 2,2 4,3 8,-1 8,-4 0,-2 -5,-12 -7,-14 -2,-3 -2,-5 -6,-5 -3,0 -5,2 -5,5z"/>
   <path class="fil0" d="M261 89c-2,0 -3,1 -5,0 -1,0 -2,0 -3,0 0,-1 -1,-1 -1,-1l-11 6c-7,4 -3,12 4,9 1,0 1,0 2,0l7 -4c2,-2 6,-4 7,-6 1,-2 0,-2 0,-4z"/>
   <path class="fil0" d="M254 49l0 -4c2,0 5,0 7,0 0,-5 -2,-5 -6,-7l-8 -5c-2,-2 -4,-3 -7,-1 -2,1 -3,3 -2,6 0,2 3,3 4,4l9 5c0,0 1,1 1,1 1,0 1,1 2,1z"/>
   <path class="fil0" d="M239 73l5 0c-1,-1 -2,-4 -3,-5 0,-1 -2,-5 -2,-6l-1 0 1 11z"/>
   <path class="fil0" d="M254 71c0,0 0,0 0,0 0,-1 0,-6 0,-7 -1,0 -1,-1 -2,-1 -1,-1 -2,0 -2,-1 0,2 1,3 2,5 0,1 1,4 2,4z"/>
  </g>
 </g>
</svg>
