<?xml version="1.0" encoding="UTF-8"?>
<!DOCTYPE svg PUBLIC "-//W3C//DTD SVG 1.1//EN" "http://www.w3.org/Graphics/SVG/1.1/DTD/svg11.dtd">
<!-- Creator: CorelDRAW X7 -->
<svg xmlns="http://www.w3.org/2000/svg" xml:space="preserve" width="500px" height="153px" version="1.1" style="shape-rendering:geometricPrecision; text-rendering:geometricPrecision; image-rendering:optimizeQuality; fill-rule:evenodd; clip-rule:evenodd"
viewBox="0 0 422922 129712"
 xmlns:xlink="http://www.w3.org/1999/xlink">
 <defs>
  <style type="text/css">
   <![CDATA[
    .fil1 {fill:#212121}
    .fil0 {fill:#212121;fill-rule:nonzero}
   ]]>
  </style>
 </defs>
 <g id="Слой_x0020_1">
  <metadata id="CorelCorpID_0Corel-Layer"/>
  <path class="fil0" d="M160501 96202l-20074 -53455 5255 0 14906 42024 15644 -42024 5159 0 -20882 53455 -8 0zm26771 -41607c-860,0 -1668,-313 -2432,-955 -686,-661 -1034,-1469 -1034,-2433 0,-964 322,-1772 956,-2414 642,-643 1476,-956 2510,-956 964,0 1798,295 2502,877 590,695 886,1529 886,2502 0,964 -322,1772 -964,2432 -643,643 -1451,956 -2415,956l-9 -9zm-2015 39749l0 -31202 4439 0 0 31202 -4439 0zm14662 -27493l-5802 0 0 -3709 5802 0 0 -12803 4196 0 0 12803 6358 0 0 3709 -6358 0 0 27493 -4196 0 0 -27493zm29655 -4838c1129,0 2450,191 3961,547l-1303 4205c-313,-105 -738,-218 -1277,-322 -591,-52 -1129,-78 -1616,-78 -2797,0 -5081,1259 -6853,3787 -1772,2476 -2658,5429 -2658,8869l0 15322 -4274 0 0 -31201 4274 0 0 6289c1720,-2528 3275,-4378 4664,-5559 1521,-1234 3214,-1859 5082,-1859l0 0zm22576 29838c3170,0 5846,-1130 8000,-3388 2154,-2259 3223,-5455 3223,-9581 0,-3761 -939,-6854 -2832,-9268 -1885,-2433 -4378,-3640 -7497,-3640 -3014,0 -5559,1051 -7661,3145 -2085,2154 -3136,5203 -3136,9112 0,3830 887,7053 2659,9676 1772,2632 4178,3952 7244,3952l0 -8zm11223 2501l0 -5646c-2580,4621 -6481,6932 -11692,6932 -4404,0 -7853,-1529 -10319,-4613 -2633,-3170 -3953,-7470 -3953,-12890 0,-4404 1373,-8226 4109,-11449 2623,-3170 6089,-4760 10397,-4760 5594,0 9408,2285 11449,6871l0 -5655 4351 0 0 31202 -4351 0 9 8zm33780 -25320l0 -5890 4352 0 0 30463c0,10927 -4968,16383 -14914,16383 -7470,0 -12091,-3249 -13872,-9755l5385 0c1129,3874 4057,5802 8791,5802 3283,0 5837,-964 7670,-2918 1772,-1920 2658,-4908 2658,-8938l0 -5334c-2537,4578 -6211,6871 -11049,6871 -4248,0 -7766,-1477 -10562,-4447 -2850,-2901 -4274,-7149 -4274,-12743 0,-4517 1294,-8382 3874,-11614 2528,-3214 6141,-4820 10875,-4820 5116,0 8799,2310 11058,6931l8 9zm-21047 9598c0,3544 887,6610 2659,9190 1720,2632 4543,3952 8469,3952 3335,0 5863,-1181 7583,-3544 1668,-2362 2502,-5376 2502,-9033 0,-3588 -956,-6706 -2832,-9355 -1885,-2633 -4543,-3953 -7983,-3953 -3761,0 -6419,1260 -7983,3805 -1598,2562 -2406,5550 -2406,8938l-9 0zm53621 -3388c-200,-2475 -1034,-4586 -2502,-6358 -1503,-1789 -3935,-2676 -7270,-2676 -5577,0 -8773,3015 -9599,9034l19362 0 9 0zm5160 3631l-24835 0c0,3440 861,6454 2580,9016 1668,2650 4352,3961 8053,3961 4369,0 7861,-2501 10510,-7496l3952 2180c-1451,2624 -3188,4795 -5177,6515 -2041,1737 -5064,2597 -9094,2597 -4943,0 -8773,-1667 -11466,-4994 -2745,-3283 -4109,-7175 -4109,-11692 0,-5160 1321,-9303 3952,-12404 2633,-3075 6367,-4613 11206,-4613 2745,0 5185,591 7348,1790 2155,1234 3874,3118 5160,5629 1277,2528 1920,5698 1920,9511l0 0zm24191 -28465l-9129 22498 17980 0 -8851 -22498 0 0zm-22185 43944l22576 -53533 21611 53533 -4994 0 -6698 -17416 -21046 0 -6837 17416 -4612 0zm62646 -32330c1129,0 2449,191 3961,547l-1304 4204c-312,-104 -738,-217 -1276,-321 -591,-52 -1130,-78 -1616,-78 -2797,0 -5082,1259 -6854,3787 -1772,2475 -2658,5429 -2658,8869l0 15322 -4273 0 0 -31201 4273 0 0 6289c1720,-2528 3275,-4378 4665,-5559 1520,-1234 3214,-1859 5081,-1859l1 0zm12829 4838l-5802 0 0 -3709 5802 0 0 -12803 4196 0 0 12803 6358 0 0 3709 -6358 0 0 27492 -4196 0 0 -27492z"/>
  <path class="fil1" d="M64856 0c35818,0 64856,29038 64856,64856 0,35818 -29038,64856 -64856,64856 -35818,0 -64856,-29038 -64856,-64856 0,-35818 29038,-64856 64856,-64856zm0 4229c33480,0 60622,27142 60622,60621 0,33480 -27142,60622 -60622,60622 -33480,0 -60621,-27142 -60621,-60622 0,-33479 27141,-60621 60621,-60621z"/>
  <path class="fil1" d="M4224 64856l60632 -60632 60633 60632 -60633 60633 -60632 -60633zm5985 0l54653 54653 54652 -54653 -54652 -54653 -54653 54653z"/>
  <path class="fil1" d="M110715 18997l-15540 15540 2993 2993 15445 -15445c-935,-1063 -1896,-2092 -2892,-3094l-6 6zm-15540 76173l15540 15540c996,-996 1958,-2031 2892,-3094l-15445 -15439 -2992 2993 5 0zm-76172 15540c-996,-996 -1958,-2031 -2892,-3094l15439 -15439 2993 2993 -15540 15540zm12552 -73186l-15439 -15445c934,-1063 1896,-2092 2892,-3093l15540 15540 -2993 2993 0 5z"/>
  <path class="fil1" d="M59754 65785c2417,5812 3922,12385 4861,19204 935,-6819 2439,-13398 4856,-19204 559,-1343 1371,-2803 2372,-4319 -297,-587 -593,-1175 -884,-1762l-12128 0c-380,733 -772,1466 -1169,2193 879,1359 1589,2674 2092,3887l0 1zm9695 -9219c-1628,-3463 -3144,-6981 -4582,-10550 -1281,3585 -2780,7104 -4453,10550l9035 0zm4682 1790c5952,-7429 15490,-14975 22370,-14975 3166,0 5734,2473 5734,5521 0,3049 -2568,5521 -5734,5521 -2484,0 -4598,-1516 -5393,-3641 -6824,1734 -11366,6578 -14527,12284 2042,3770 4235,7429 6562,10903l2114 3166 -4084 95 -950 -1421c-1969,-2943 -3793,-5930 -5499,-8973 -123,274 -241,554 -353,828 -6231,14986 -6791,34901 -6858,51117l-11 2540 -3468 604 -1483 11 -11 -2539c-73,-18298 -419,-34280 -7680,-51733l-224 -526c-1790,2960 -3681,5857 -5639,8688l-973 1404 -4442 -140 2529 -3155c2562,-3563 4788,-7093 6735,-10517 -3166,-5862 -7759,-10880 -14729,-12648 -800,2126 -2915,3642 -5393,3642 -3166,0 -5733,-2472 -5733,-5521 0,-3049 2567,-5521 5733,-5521 6993,0 16743,7803 22667,15350 4598,-8900 7423,-16749 9722,-22052 2462,7239 5482,14606 9012,21677l6 11z"/>
 </g>
</svg>
