<?xml version="1.0" encoding="UTF-8"?>
<!DOCTYPE svg PUBLIC "-//W3C//DTD SVG 1.1//EN" "http://www.w3.org/Graphics/SVG/1.1/DTD/svg11.dtd">
<!-- Creator: CorelDRAW X7 -->
<svg xmlns="http://www.w3.org/2000/svg" xml:space="preserve" width="500px" height="329px" version="1.1" style="shape-rendering:geometricPrecision; text-rendering:geometricPrecision; image-rendering:optimizeQuality; fill-rule:evenodd; clip-rule:evenodd"
viewBox="0 0 473 312"
 xmlns:xlink="http://www.w3.org/1999/xlink">
 <defs>
  <style type="text/css">
   <![CDATA[
    .fil12 {fill:#1175BB}
    .fil10 {fill:#24AAE2}
    .fil18 {fill:#318D7A}
    .fil14 {fill:#383B3A}
    .fil17 {fill:#58A970}
    .fil8 {fill:#65666A}
    .fil0 {fill:#659C9D}
    .fil9 {fill:#74B73C}
    .fil1 {fill:#9DA993}
    .fil7 {fill:#9EB9CE}
    .fil4 {fill:#A55166}
    .fil15 {fill:#A9CF8A}
    .fil16 {fill:#BFE4FA}
    .fil5 {fill:#CDCDCE}
    .fil2 {fill:#D3AA69}
    .fil11 {fill:#E6352D}
    .fil3 {fill:#F1918D}
    .fil6 {fill:#F6B8B4}
    .fil13 {fill:#F7A936}
   ]]>
  </style>
 </defs>
 <g id="Слой_x0020_1">
  <metadata id="CorelCorpID_0Corel-Layer"/>
  <g id="_2517010940624">
   <g id="_300325728">
    <g>
     <path class="fil0" d="M366 221c-1,-2 0,-1 -1,-1l0 0c0,1 0,0 1,1l0 0z"/>
     <path class="fil0" d="M381 246c0,-1 1,-1 0,-2l0 2z"/>
    </g>
    <g>
     <path class="fil1" d="M376 236c0,-1 0,-1 -1,-1 0,0 0,0 0,1 1,0 1,0 1,0l0 0z"/>
     <path class="fil1" d="M383 249l0 -1c0,0 0,0 0,0 0,0 -1,0 -1,0 0,0 0,0 0,0l1 1z"/>
     <path class="fil1" d="M369 225c0,-1 0,-1 -1,-1 0,0 0,0 0,0 0,-1 0,0 0,-1 0,2 0,1 1,2z"/>
     <path class="fil1" d="M375 234c-1,-1 -1,-1 -1,-1 0,-1 0,-1 0,-1 0,0 0,0 -1,0 1,1 0,0 1,1 0,1 0,0 0,1l1 0z"/>
     <path class="fil1" d="M345 200c-1,-1 0,-1 -2,-2 1,1 0,1 2,2z"/>
     <path class="fil1" d="M382 248l-1 -2c0,1 0,0 1,1 0,0 0,0 0,1z"/>
     <path class="fil1" d="M355 209l-1 -2c1,2 0,1 1,2z"/>
     <path class="fil1" d="M363 217l-1 -1c0,1 0,0 1,1z"/>
     <path class="fil1" d="M370 226c0,0 0,0 -1,0 0,0 0,0 0,-1 0,0 0,0 0,0l1 2 0 -1z"/>
     <path class="fil1" d="M371 228c-1,-1 0,-1 -1,-2l1 2z"/>
    </g>
    <g>
     <path class="fil2" d="M378 240l0 -1c0,-1 0,0 -1,0l0 1 1 0z"/>
     <path class="fil2" d="M372 229c-1,-1 0,0 -1,-1l0 1 1 0z"/>
     <path class="fil2" d="M365 220c0,-1 0,-1 -1,-1l0 1 1 0 0 0z"/>
    </g>
    <g>
     <path class="fil3" d="M89 165c0,0 0,0 -1,0 0,0 0,0 0,0 0,0 0,0 0,0l0 1c1,0 0,0 1,-1l0 0z"/>
     <polygon class="fil3" points="73,152 74,152 73,150 "/>
    </g>
    <g>
     <path class="fil4" d="M390 265c-1,-1 0,0 -1,-1 0,-1 0,-1 -1,-1 1,0 0,0 1,1 0,1 0,1 1,1l0 0z"/>
     <path class="fil4" d="M391 269c0,0 0,0 0,-1 -1,-1 0,0 -1,-1 0,1 0,2 1,2z"/>
     <path class="fil4" d="M390 267c0,-1 1,0 0,-1 -1,-2 0,0 -1,-1l1 2 0 0z"/>
    </g>
    <g>
     <path class="fil5" d="M141 269l0 0c0,-2 0,-2 0,-3 0,-2 0,-3 0,-5 -2,0 -9,0 -10,1l10 -1 0 8 0 0z"/>
     <polygon class="fil5" points="234,270 233,270 234,271 "/>
    </g>
    <g>
     <path class="fil6" d="M105 206c1,2 5,1 6,1 2,0 4,0 6,0 1,-2 1,-5 0,-6l0 6 -12 -1 0 0z"/>
     <path class="fil6" d="M343 294l0 -1c0,-1 0,-1 1,-1l-2 1c0,2 0,0 1,1l0 0z"/>
     <path class="fil6" d="M103 152c0,0 0,0 0,0 0,0 0,0 0,0 0,0 0,1 1,1l-1 -3 0 2 0 0z"/>
     <path class="fil6" d="M96 173c0,0 0,0 0,0 1,-1 1,-1 1,-2 -1,0 -1,0 -1,1 0,1 0,1 0,1l0 0z"/>
     <path class="fil6" d="M339 216l1 0c0,-2 0,0 -1,-1l0 1z"/>
     <path class="fil6" d="M46 193c0,0 1,0 1,0 0,0 0,0 0,0 1,0 1,0 1,-1 -2,1 0,0 -1,1 0,0 0,0 -1,0l0 0z"/>
    </g>
    <g>
     <path class="fil7" d="M189 207l0 -72 25 0c0,0 0,0 -1,-1 -1,0 -2,0 -2,0 -4,0 -20,0 -22,1 0,3 0,57 0,67 0,2 0,3 0,5z"/>
     <path class="fil7" d="M406 184c0,-1 0,-1 0,-1 -1,-2 -1,-1 -1,-1 0,0 0,0 0,1 1,2 0,0 1,1l0 0z"/>
     <polygon class="fil7" points="83,258 83,257 82,258 "/>
    </g>
    <g>
     <path class="fil8" d="M20 259c0,-3 3,-9 4,-13 1,-2 1,-4 2,-6l2 -5 1 -1c0,-1 0,-1 0,-1l9 27 -18 0 0 -1zm5 -33c-1,1 -3,6 -4,9l-9 27c-1,3 -3,6 -4,9 0,2 -4,8 0,8 5,1 5,-1 7,-5 1,-3 2,-6 3,-9 6,0 15,0 22,0l5 14c2,0 5,1 6,0 1,-1 1,0 1,-1 0,-1 -10,-28 -10,-29 -2,-5 -4,-10 -6,-15 0,-1 -2,-6 -2,-7 -1,-2 -6,-2 -9,-1l0 0z"/>
     <path class="fil8" d="M274 245c15,-4 15,27 4,29 -5,0 -7,-2 -9,-4 -4,-3 -3,-3 -3,-9 0,-2 0,-4 0,-6 0,-2 -1,-3 1,-4 2,-2 4,-5 7,-6l0 0zm-8 30c2,1 4,4 8,5 22,4 25,-33 10,-40 -10,-4 -17,5 -19,5 0,-1 0,-3 0,-4 -1,-3 -6,-1 -6,-1 -1,1 0,45 0,51 0,1 0,1 0,2l0 1c2,1 5,0 7,0l0 -19z"/>
     <path class="fil8" d="M66 274l0 -13c8,0 18,-1 17,7 0,8 -10,7 -17,6l0 0zm0 -29c6,-1 16,-2 16,5 0,7 -9,6 -16,6l0 -11zm17 13l-1 0 1 -1c5,-1 7,-7 4,-12 -3,-7 -15,-6 -22,-5 -4,0 -5,0 -5,4 0,9 0,19 0,28 0,4 -1,6 2,7 4,1 14,1 18,0 14,-3 13,-19 3,-21l0 0z"/>
     <path class="fil8" d="M131 262c1,-1 8,-1 10,-1 0,2 0,3 0,5 0,1 0,1 0,3l0 0c-2,3 -9,8 -15,4 -4,-3 -2,-12 5,-11l0 0zm16 17c1,-3 1,-24 1,-28 -1,-9 -8,-13 -18,-12 -14,2 -12,9 -10,9 1,1 4,-1 5,-2 3,-1 9,-2 12,0 4,1 4,5 4,10 -5,1 -26,-2 -24,15 1,5 5,8 11,9 3,0 6,0 8,-1 3,-2 4,-3 6,-4l0 4c2,0 3,1 5,0l0 0z"/>
     <path class="fil8" d="M234 270l0 1 -1 -1c-1,-3 -9,-28 -11,-30 -2,0 -4,-1 -6,0 0,1 0,0 0,1 0,2 9,25 9,26 1,2 2,5 3,7 1,5 2,4 2,6 -1,4 -5,10 -5,14 3,1 7,1 8,-2 1,-2 2,-5 2,-8l15 -40c1,-3 2,-5 -5,-4 -2,2 -10,26 -11,30l0 0z"/>
     <path class="fil8" d="M190 232c0,7 0,44 0,47 2,1 5,1 7,0 1,-3 0,-40 0,-47 13,-1 18,3 16,-6l-39 0c-1,1 -1,4 0,6l16 0 0 0z"/>
     <path class="fil8" d="M100 279c2,0 3,1 5,0 2,0 2,0 2,-2l0 -35c0,-2 -1,-2 -3,-2 -3,0 -4,0 -4,2 0,7 0,32 1,37l-1 0z"/>
     <path class="fil8" d="M101 225c-1,0 -1,0 -1,2 -1,5 1,7 6,5 3,-1 3,-10 -5,-7l0 0z"/>
     <path class="fil8" d="M395 286l2 -1c-1,0 -1,0 -1,0 -1,0 -1,0 -1,-1 0,0 0,0 0,0l0 2 0 0z"/>
     <path class="fil8" d="M393 275c0,-1 0,-1 0,-2 -1,-2 0,0 -1,-1 0,1 0,1 0,1 1,2 0,1 1,2l0 0z"/>
     <path class="fil8" d="M392 271c0,-1 0,-1 -1,-1 0,1 0,0 0,1 1,0 0,0 1,0l0 0z"/>
     <path class="fil8" d="M394 277l-1 -2c0,1 0,1 1,2z"/>
     <path class="fil8" d="M354 76c1,-1 0,0 1,-1 0,0 -1,0 -1,1l0 0 0 0z"/>
    </g>
    <g>
     <path class="fil9" d="M404 178c1,0 5,3 6,4l1 0 1 1c2,1 5,3 7,5 2,2 4,4 6,6 3,3 9,10 12,14l0 0 0 1c4,3 16,27 15,33 5,-3 9,-7 14,-10 5,-4 10,-7 4,-14l-42 -55c-4,-6 -7,-10 -15,-4 -2,2 -12,10 -13,11 0,1 3,7 4,8l0 0z"/>
     <path class="fil9" d="M268 146l0 61 13 0 1 -61 19 0 0 -11 -52 0 0 11 14 0c4,0 4,-1 5,0l0 0z"/>
    </g>
    <g>
     <path class="fil10" d="M150 148c1,2 9,30 9,33l-18 0 9 -33 0 0zm-30 59l13 0 4 -15 25 0c2,4 3,11 5,15l14 0c0,-3 -20,-70 -21,-72l-19 0 -21 72z"/>
     <path class="fil10" d="M341 196l2 2c2,1 1,1 2,2l1 0c1,-1 11,-8 13,-10 3,-2 13,-10 15,-11 1,1 4,6 5,7 -2,1 -5,4 -7,5 -3,2 -18,14 -19,15l1 1 1 2 7 7 1 1c0,0 0,0 0,1 1,0 1,0 1,1 1,0 1,0 1,1l0 0c1,0 0,-1 1,1 0,1 1,2 2,2 0,1 0,1 0,1 0,0 0,0 0,0 1,0 1,0 1,1l0 0c0,0 0,0 0,0 0,1 0,1 0,1 1,0 1,0 1,0 1,1 0,1 1,2l0 0c1,1 0,0 1,1l1 3c1,0 1,0 1,0 0,0 0,0 0,0 0,1 0,1 1,2l0 1c1,0 1,0 1,1 1,1 1,1 1,3 1,0 1,-1 1,0l0 1 3 4c1,1 0,1 0,2l1 2c0,0 0,0 0,0 0,0 1,0 1,0 0,0 0,0 0,0 9,-19 12,-44 2,-65 -2,-4 -4,-9 -9,-11 -2,0 -5,0 -7,2 -3,2 -27,20 -28,22l0 0z"/>
    </g>
    <g>
     <path class="fil11" d="M73 152l0 -2 1 2c0,3 3,13 4,17 2,5 4,11 5,16l9 0 4 -12c0,0 0,0 0,-1 0,-1 0,-1 1,-1l6 -19 0 -2 1 3 1 53 12 1 0 -6 -3 -66 -16 0c-1,3 -9,28 -9,30 -1,1 0,1 -1,1l0 -1c-1,-3 -8,-28 -9,-30 -3,0 -5,0 -8,0 -2,0 -6,-1 -7,0l-4 72c2,0 10,0 12,-1l1 -41c0,-3 0,-10 0,-13l0 0z"/>
     <path class="fil11" d="M344 292c-1,0 -1,0 -1,1l0 1 10 13c6,7 9,5 15,0 2,-2 26,-20 27,-21l0 -2c0,-2 -1,-5 -1,-7 -1,-1 -1,-1 -1,-2l0 0c-1,-1 0,0 -1,-2 0,0 0,0 0,-1l0 -1c-1,0 0,0 -1,0 0,-1 0,0 0,-1l0 -1c-1,0 -1,-1 -1,-2l-1 -2 1 0c-1,0 -1,0 -1,-1 -1,-1 0,-1 -1,-1l0 -2c-1,1 -3,3 -5,5 -4,4 -11,9 -16,12 -3,3 -20,13 -24,14l1 0z"/>
    </g>
    <g>
     <path class="fil12" d="M405 182c0,0 0,-1 1,1 0,0 0,0 0,1 0,3 1,6 2,10 2,18 -2,37 -10,52 -4,9 -9,14 -10,15l0 2c1,0 1,0 1,1 1,1 0,0 1,1l-1 0c1,1 0,-1 1,1 1,1 0,0 0,1 1,1 0,0 1,1 0,1 0,1 0,1l0 1c1,0 1,0 1,2l0 0c1,1 0,-1 1,1 0,1 0,1 0,2l0 0 1 2c0,2 1,5 1,7 0,0 0,0 0,0 0,1 0,1 1,1 0,0 0,0 1,0 2,-1 37,-28 41,-32l14 -11c1,-6 -11,-30 -15,-33l0 -1c-3,-4 -9,-11 -12,-14 -2,-2 -4,-4 -6,-6 -2,-2 -5,-4 -7,-5l-2 -1c-1,-1 -5,-4 -6,-4l1 4 0 0z"/>
     <path class="fil12" d="M214 172c-1,0 -1,0 -3,0l-8 0 0 -26c1,0 9,0 10,0 2,0 1,0 1,1 7,-1 11,6 11,12 0,4 -1,7 -3,9 -1,1 -5,4 -8,4l0 0zm-25 35l14 0 0 -23c10,-1 15,0 24,-4 15,-8 15,-29 7,-38 -4,-4 -12,-7 -20,-7l-25 0 0 72 0 0z"/>
    </g>
    <g>
     <path class="fil13" d="M339 215c1,1 1,-1 1,1l-1 0c-7,6 -13,10 -20,16 -10,8 -16,9 -9,19 2,3 29,37 30,39 2,-1 11,-7 13,-8 8,-6 16,-12 22,-20 2,-2 8,-10 8,-13l-1 -1c0,-1 0,-1 0,-1 -1,-1 -1,0 -1,-1l0 -2 -3 -4 -1 0 0 -1c0,-2 0,-2 -1,-3 0,0 0,0 -1,0 0,-1 0,-1 0,-1l0 -1c-1,-1 -1,0 -1,-1 -1,-1 0,0 -1,-1l-1 -3 -1 0 0 -1 0 0 -1 -1 -1 -2 0 0c-1,-1 -1,0 -1,-2 -1,0 -2,-1 -2,-2 -1,-1 0,0 -1,-1l0 0 0 0 -1 0 0 -1c0,-1 0,0 -1,-1 0,-1 0,-1 0,-1 -1,-1 -1,0 -1,-1l-6 -7c-1,-1 -1,0 -1,-1l-2 -2c-3,1 -5,4 -7,5l-5 -6c1,-2 3,-3 5,-5l-1 0c-1,-1 -1,-1 -1,-2l-3 -2c-1,0 -4,2 -5,3 -1,1 -2,3 -2,6 0,4 3,8 5,10l0 0z"/>
     <path class="fil13" d="M48 192c0,1 0,1 -1,1 0,0 0,0 0,0 0,0 -1,0 -1,0 -9,2 -16,5 -24,-1 -10,-8 -11,-37 3,-44 10,-6 23,1 26,1l0 -12c-4,-3 -15,-3 -20,-3 -20,1 -31,16 -31,37 0,15 4,26 14,32 9,6 26,6 37,1l0 -13 -3 1 0 0z"/>
    </g>
    <path class="fil14" d="M354 76l0 0c0,-1 1,-1 1,-1 2,0 15,-4 18,-5l48 -16c2,-1 3,0 4,-2 0,-4 -5,-8 -8,-9 -2,-1 -11,0 -14,1 -5,0 -26,3 -29,3 -3,-3 -4,-8 -6,-10 -1,0 -8,4 -8,5 0,2 2,3 2,6 -1,1 -19,2 -21,2 -9,-15 -11,-26 -24,-41 -2,-2 -9,-9 -13,-9 -7,0 -5,11 -4,16 3,11 9,21 14,30 2,5 6,10 7,15 0,1 -4,6 -6,8 -1,2 -5,7 -7,8 -2,-1 -2,-4 -4,-5 -2,0 -7,2 -8,4 0,1 3,6 4,8 1,2 1,2 -3,6 -6,7 -15,18 -21,25 -2,2 -3,3 -3,8 0,3 1,6 3,8 2,1 6,-3 8,-5 11,-9 26,-20 37,-29 2,-2 4,-3 7,-5 2,-2 5,-5 7,-6 2,1 23,38 26,44 1,3 0,3 -3,9 -7,11 -8,10 -4,19 3,-1 8,-7 10,-9 2,-3 7,-8 9,-10 2,-3 3,-2 7,-3 6,-1 19,-3 24,-4 0,0 0,0 0,0 0,0 0,-1 0,-1 0,-1 0,-1 -1,-2 -2,-3 -4,-5 -8,-5 -6,0 -11,-1 -17,-1 -1,-2 -15,-31 -18,-35 -1,-2 -4,-10 -6,-12l0 0z"/>
    <path class="fil15" d="M268 146c-1,-1 -1,0 -5,0l-15 0 0 -11 53 0 0 11 -19 0 -1 61c1,-1 1,0 1,-2l0 -59 19 0c1,-2 1,-9 1,-11 -5,-1 -52,-1 -54,0l0 11c4,1 15,0 20,0l0 0z"/>
    <path class="fil16" d="M214 172l-11 0 0 -26c3,0 10,1 11,1 0,-1 1,-1 -1,-1 -1,0 -9,0 -10,0l0 26 8 0c2,0 2,0 3,0l0 0z"/>
    <polygon class="fil17" points="412,183 411,182 410,182 "/>
    <polygon class="fil18" points="437,209 437,208 437,208 "/>
   </g>
  </g>
 </g>
</svg>
