<?xml version="1.0" encoding="UTF-8"?>
<!DOCTYPE svg PUBLIC "-//W3C//DTD SVG 1.1//EN" "http://www.w3.org/Graphics/SVG/1.1/DTD/svg11.dtd">
<!-- Creator: CorelDRAW X7 -->
<svg xmlns="http://www.w3.org/2000/svg" xml:space="preserve" width="300px" height="87px" version="1.1" shape-rendering="geometricPrecision" text-rendering="geometricPrecision" image-rendering="optimizeQuality" fill-rule="evenodd" clip-rule="evenodd"
viewBox="0 0 145518 42191"
 xmlns:xlink="http://www.w3.org/1999/xlink">
 <g id="Слой_x0020_1">
  <metadata id="CorelCorpID_0Corel-Layer"/>
  <polygon fill="#FF0033" points="0,4598 10452,4598 10452,15049 0,15049 "/>
  <rect fill="#FF0033" x="33062" width="10452" height="10452"/>
  <rect fill="#FF0033" x="13504" y="4598" width="10452" height="10452"/>
  <rect fill="#FF0033" y="31605" width="10452" height="10452"/>
  <rect fill="#FF0033" x="27007" y="31605" width="10452" height="10452"/>
  <rect fill="#FF0033" x="13504" y="31605" width="10452" height="10452"/>
  <rect fill="#FF0033" y="18101" width="10452" height="10452"/>
  <rect fill="#FF0033" x="27007" y="18101" width="10452" height="10452"/>
  <rect fill="#FF0033" x="13504" y="18102" width="10452" height="10452"/>
  <path fill="white" fill-rule="nonzero" d="M51807 30135c-233,0 -420,-75 -559,-225 -140,-151 -211,-341 -211,-572l0 -22618c0,-254 71,-456 211,-606 139,-150 326,-225 559,-225l8538 0c2660,0 4742,618 6247,1853 1504,1235 2257,3031 2257,5386 0,1755 -444,3198 -1330,4330 -887,1131 -2123,1916 -3710,2355l5389 9248c70,138 105,266 105,381 0,185 -70,346 -209,485 -141,139 -304,208 -491,208l-1540 0c-349,0 -623,-81 -822,-242 -198,-162 -379,-393 -542,-694l-5144 -8866 -6228 0 0 9005c0,231 -82,421 -246,572 -163,150 -361,225 -594,225l-1680 0zm8398 -12643c3523,0 5284,-1466 5284,-4399 0,-2933 -1761,-4399 -5284,-4399l-5878 0 0 8798 5878 0z"/>
  <path id="_1" fill="white" fill-rule="nonzero" d="M81892 30481c-2216,0 -3931,-710 -5144,-2130 -1214,-1420 -1820,-3308 -1820,-5663l0 -9768c0,-231 76,-421 227,-572 153,-150 345,-224 578,-224l1610 0c233,0 425,74 577,224 152,151 228,341 228,572l0 9594c0,3511 1539,5265 4619,5265 1492,0 2676,-468 3551,-1403 875,-935 1312,-2222 1312,-3862l0 -9594c0,-231 76,-421 228,-572 151,-150 344,-224 578,-224l1609 0c233,0 426,74 577,224 152,151 228,341 228,572l0 16418c0,231 -76,421 -228,571 -151,151 -344,225 -577,225l-1505 0c-233,0 -425,-74 -577,-225 -152,-150 -227,-340 -227,-571l0 -1559c-677,901 -1470,1576 -2380,2027 -910,450 -2064,675 -3464,675z"/>
  <path id="_2" fill="white" fill-rule="nonzero" d="M106622 30481c-2519,0 -4444,-877 -5773,-2632l0 1489c0,231 -76,421 -228,572 -151,150 -344,225 -577,225l-1470 0c-233,0 -425,-75 -577,-225 -152,-151 -228,-341 -228,-572l0 -22999c0,-254 76,-450 228,-589 152,-139 344,-208 577,-208l1575 0c233,0 425,75 577,225 152,151 228,341 228,572l0 8001c1306,-1709 3196,-2563 5668,-2563 2450,0 4287,791 5511,2373 1225,1582 1872,3562 1943,5940 23,254 35,601 35,1039 0,439 -12,785 -35,1039 -71,2379 -718,4359 -1943,5941 -1224,1582 -3061,2372 -5511,2372zm-665 -2702c1680,0 2905,-519 3675,-1558 770,-1040 1190,-2402 1260,-4088 23,-230 34,-565 34,-1004 0,-4433 -1656,-6650 -4969,-6650 -1586,0 -2805,513 -3656,1541 -852,1028 -1301,2246 -1347,3655 -23,253 -35,703 -35,1350 0,624 12,1062 35,1316 46,1478 484,2754 1312,3828 828,1074 2059,1610 3692,1610l-1 0z"/>
  <path id="_3" fill="white" fill-rule="nonzero" d="M120681 8729c-234,0 -426,-75 -578,-225 -152,-151 -227,-341 -227,-572l0 -1801c0,-230 75,-427 227,-589 152,-161 344,-242 578,-242l2064 0c233,0 432,81 595,242 163,162 245,359 245,589l0 1801c0,231 -82,421 -245,572 -163,150 -362,225 -595,225l-2064 0zm280 21406c-234,0 -427,-75 -578,-225 -152,-151 -228,-341 -228,-572l0 -16418c0,-231 76,-421 228,-571 151,-151 344,-225 578,-225l1539 0c233,0 426,74 578,225 151,150 227,340 227,571l0 16418c0,231 -76,421 -227,572 -152,150 -345,225 -578,225l-1539 0z"/>
  <path id="_4" fill="white" fill-rule="nonzero" d="M131029 30135c-233,0 -426,-75 -577,-225 -152,-151 -227,-341 -227,-572l0 -22999c0,-254 75,-450 227,-589 151,-139 344,-208 577,-208l1505 0c233,0 425,75 577,225 152,151 227,341 227,572l0 12088 6999 -5715c350,-254 595,-415 735,-485 140,-69 362,-104 665,-104l1750 0c210,0 379,64 507,191 128,127 193,306 193,537 0,208 -129,427 -385,658l-8189 6650 9063 8590c257,254 385,474 385,658 0,208 -64,381 -192,520 -129,139 -297,208 -508,208l-1714 0c-350,0 -601,-35 -753,-104 -151,-70 -367,-231 -648,-485l-7908 -7413 0 7205c0,231 -76,421 -227,571 -152,151 -344,225 -577,225l-1505 0 0 1z"/>
  <path id="_5" fill="white" fill-rule="nonzero" stroke="white" stroke-width="720.859" d="M51807 30135c-233,0 -420,-75 -559,-225 -140,-151 -211,-341 -211,-572l0 -22618c0,-254 71,-456 211,-606 139,-150 326,-225 559,-225l8538 0c2660,0 4742,618 6247,1853 1504,1235 2257,3031 2257,5386 0,1755 -444,3198 -1330,4330 -887,1131 -2123,1916 -3710,2355l5389 9248c70,138 105,266 105,381 0,185 -70,346 -209,485 -141,139 -304,208 -491,208l-1540 0c-349,0 -623,-81 -822,-242 -198,-162 -379,-393 -542,-694l-5144 -8866 -6228 0 0 9005c0,231 -82,421 -246,572 -163,150 -361,225 -594,225l-1680 0zm8398 -12643c3523,0 5284,-1466 5284,-4399 0,-2933 -1761,-4399 -5284,-4399l-5878 0 0 8798 5878 0z"/>
  <path id="_6" fill="white" fill-rule="nonzero" stroke="white" stroke-width="720.859" d="M81892 30481c-2216,0 -3931,-710 -5144,-2130 -1214,-1420 -1820,-3308 -1820,-5663l0 -9768c0,-231 76,-421 227,-572 153,-150 345,-224 578,-224l1610 0c233,0 425,74 577,224 152,151 228,341 228,572l0 9594c0,3511 1539,5265 4619,5265 1492,0 2676,-468 3551,-1403 875,-935 1312,-2222 1312,-3862l0 -9594c0,-231 76,-421 228,-572 151,-150 344,-224 578,-224l1609 0c233,0 426,74 577,224 152,151 228,341 228,572l0 16418c0,231 -76,421 -228,571 -151,151 -344,225 -577,225l-1505 0c-233,0 -425,-74 -577,-225 -152,-150 -227,-340 -227,-571l0 -1559c-677,901 -1470,1576 -2380,2027 -910,450 -2064,675 -3464,675z"/>
  <path id="_7" fill="white" fill-rule="nonzero" stroke="white" stroke-width="720.859" d="M106622 30481c-2519,0 -4444,-877 -5773,-2632l0 1489c0,231 -76,421 -228,572 -151,150 -344,225 -577,225l-1470 0c-233,0 -425,-75 -577,-225 -152,-151 -228,-341 -228,-572l0 -22999c0,-254 76,-450 228,-589 152,-139 344,-208 577,-208l1575 0c233,0 425,75 577,225 152,151 228,341 228,572l0 8001c1306,-1709 3196,-2563 5668,-2563 2450,0 4287,791 5511,2373 1225,1582 1872,3562 1943,5940 23,254 35,601 35,1039 0,439 -12,785 -35,1039 -71,2379 -718,4359 -1943,5941 -1224,1582 -3061,2372 -5511,2372zm-665 -2702c1680,0 2905,-519 3675,-1558 770,-1040 1190,-2402 1260,-4088 23,-230 34,-565 34,-1004 0,-4433 -1656,-6650 -4969,-6650 -1586,0 -2805,513 -3656,1541 -852,1028 -1301,2246 -1347,3655 -23,253 -35,703 -35,1350 0,624 12,1062 35,1316 46,1478 484,2754 1312,3828 828,1074 2059,1610 3692,1610l-1 0z"/>
  <path id="_8" fill="white" fill-rule="nonzero" stroke="white" stroke-width="720.859" d="M120681 8729c-234,0 -426,-75 -578,-225 -152,-151 -227,-341 -227,-572l0 -1801c0,-230 75,-427 227,-589 152,-161 344,-242 578,-242l2064 0c233,0 432,81 595,242 163,162 245,359 245,589l0 1801c0,231 -82,421 -245,572 -163,150 -362,225 -595,225l-2064 0zm280 21406c-234,0 -427,-75 -578,-225 -152,-151 -228,-341 -228,-572l0 -16418c0,-231 76,-421 228,-571 151,-151 344,-225 578,-225l1539 0c233,0 426,74 578,225 151,150 227,340 227,571l0 16418c0,231 -76,421 -227,572 -152,150 -345,225 -578,225l-1539 0z"/>
  <path id="_9" fill="white" fill-rule="nonzero" stroke="white" stroke-width="720.859" d="M131029 30135c-233,0 -426,-75 -577,-225 -152,-151 -227,-341 -227,-572l0 -22999c0,-254 75,-450 227,-589 151,-139 344,-208 577,-208l1505 0c233,0 425,75 577,225 152,151 227,341 227,572l0 12088 6999 -5715c350,-254 595,-415 735,-485 140,-69 362,-104 665,-104l1750 0c210,0 379,64 507,191 128,127 193,306 193,537 0,208 -129,427 -385,658l-8189 6650 9063 8590c257,254 385,474 385,658 0,208 -64,381 -192,520 -129,139 -297,208 -508,208l-1714 0c-350,0 -601,-35 -753,-104 -151,-70 -367,-231 -648,-485l-7908 -7413 0 7205c0,231 -76,421 -227,571 -152,151 -344,225 -577,225l-1505 0 0 1z"/>
  <path fill="white" fill-rule="nonzero" d="M53247 42061c-125,0 -221,-26 -288,-78 -68,-52 -126,-134 -174,-247l-2034 -6028 -29 -142c0,-69 29,-130 86,-183 58,-51 125,-77 202,-77l275 0c86,0 158,21 216,65 58,43 91,86 101,129l1775 5405 1890 -5339c19,-69 63,-130 129,-183 68,-51 154,-77 260,-77l289 0c105,0 193,26 260,77 67,53 110,113 130,183l1890 5339 1775 -5405c9,-43 43,-86 100,-129 58,-44 131,-65 217,-65l274 0c77,0 144,26 202,77 58,53 87,113 87,183l-29 142 -2035 6028c-48,113 -105,195 -173,247 -67,52 -163,78 -288,78l-246 0c-259,0 -423,-108 -490,-325l-1818 -5118 -1818 5118c-68,217 -231,325 -491,325l-245 0z"/>
  <path id="_1_0" fill="white" fill-rule="nonzero" d="M67172 42191c-913,0 -1649,-271 -2207,-812 -558,-541 -875,-1267 -952,-2176l-15 -520 15 -519c77,-901 392,-1624 945,-2170 553,-545 1291,-818 2215,-818 1000,0 1782,298 2344,896 563,598 844,1416 844,2455l0 196c0,86 -31,155 -93,207 -63,52 -142,78 -239,78l-5136 0 0 130c19,407 123,786 310,1137 188,350 450,632 787,844 337,212 731,318 1183,318 529,0 960,-92 1291,-279 332,-186 570,-375 714,-565 87,-104 152,-169 195,-195 44,-26 123,-39 238,-39l231 0c87,0 158,22 217,65 58,43 86,99 86,169 0,182 -127,400 -382,656 -255,255 -609,476 -1061,662 -452,187 -962,280 -1529,280l-1 0zm2309 -3910l0 -52c0,-667 -209,-1217 -627,-1650 -419,-433 -979,-649 -1682,-649 -702,0 -1257,216 -1666,649 -409,433 -613,983 -613,1650l0 52 4588 0 0 0z"/>
  <path id="_2_1" fill="white" fill-rule="nonzero" d="M77520 42191c-1058,0 -1866,-342 -2424,-1027l0 611c0,86 -29,156 -86,208 -58,52 -135,78 -231,78l-246 0c-96,0 -173,-26 -230,-78 -58,-52 -87,-122 -87,-208l0 -8652c0,-86 29,-155 87,-208 57,-52 134,-77 230,-77l246 0c96,0 173,25 231,77 57,53 86,122 86,208l0 3079c568,-684 1376,-1026 2424,-1026 1039,0 1806,305 2302,916 495,610 757,1353 786,2227 9,87 14,208 14,364 0,156 -5,277 -14,364 -29,875 -291,1617 -786,2228 -496,610 -1263,915 -2302,915l0 1zm-87 -754c780,0 1350,-223 1711,-669 360,-446 555,-1019 584,-1721 9,-87 14,-207 14,-363 0,-806 -173,-1466 -519,-1981 -347,-516 -943,-773 -1790,-773 -509,0 -937,108 -1284,324 -346,217 -606,492 -779,825 -173,334 -264,687 -274,1059l-14 507 14 506c29,615 236,1150 621,1605 385,454 957,682 1716,682l0 -1z"/>
  <path id="_3_2" fill="white" fill-rule="nonzero" d="M99841 42191c-625,0 -1152,-96 -1580,-286 -428,-190 -751,-407 -967,-649 -216,-243 -325,-438 -325,-585 0,-78 34,-141 102,-188 67,-48 139,-72 216,-72l216 0c68,0 123,11 166,33 43,22 94,67 152,136 211,269 469,478 772,630 303,152 719,228 1248,228 596,0 1077,-102 1443,-306 365,-203 548,-496 548,-877 0,-233 -75,-424 -224,-571 -149,-147 -390,-275 -721,-383 -332,-109 -825,-232 -1479,-371 -856,-173 -1441,-411 -1753,-714 -313,-303 -469,-689 -469,-1156 0,-321 98,-624 296,-910 197,-285 490,-519 880,-701 389,-182 858,-273 1407,-273 577,0 1065,89 1464,266 399,178 697,383 894,617 198,234 296,425 296,572 0,78 -31,141 -94,188 -62,48 -137,72 -223,72l-217 0c-134,0 -240,-56 -317,-169 -193,-260 -411,-457 -657,-591 -245,-134 -627,-202 -1147,-202 -558,0 -981,104 -1270,312 -288,208 -432,481 -432,819 0,207 57,381 173,519 115,139 331,267 649,384 318,117 779,235 1385,357 895,182 1525,424 1890,727 366,303 549,706 549,1208 0,355 -111,680 -332,975 -222,294 -548,528 -981,701 -433,173 -953,260 -1559,260l1 0z"/>
  <path id="_4_3" fill="white" fill-rule="nonzero" d="M109020 42061c-712,0 -1217,-193 -1515,-578 -299,-386 -448,-916 -448,-1591l0 -3833 -1125 0c-96,0 -174,-26 -231,-78 -57,-52 -86,-121 -86,-208l0 -182c0,-86 29,-155 86,-208 57,-51 135,-77 231,-77l1125 0 0 -2183c0,-86 29,-155 87,-208 57,-52 134,-77 231,-77l245 0c96,0 173,25 230,77 58,53 87,122 87,208l0 2183 1789 0c97,0 174,26 231,77 58,53 87,122 87,208l0 182c0,87 -29,156 -87,208 -58,52 -134,78 -231,78l-1789 0 0 3780c0,486 89,852 267,1099 178,246 474,369 887,369l780 0c96,0 173,27 230,79 58,51 87,121 87,207l0 182c0,86 -29,156 -87,208 -57,52 -134,78 -230,78l-852 0 1 0z"/>
  <path id="_5_4" fill="white" fill-rule="nonzero" d="M116423 42191c-942,0 -1659,-269 -2149,-805 -491,-538 -736,-1239 -736,-2105l0 -3689c0,-87 29,-156 86,-208 58,-52 135,-78 231,-78l245 0c97,0 174,26 231,78 58,52 87,121 87,208l0 3624c0,1481 716,2221 2150,2221 692,0 1243,-197 1652,-590 408,-395 613,-938 613,-1631l0 -3624c0,-87 29,-156 86,-208 58,-52 135,-78 231,-78l245 0c97,0 173,26 231,78 58,52 87,121 87,208l0 6183c0,86 -29,156 -87,208 -58,52 -135,78 -231,78l-245 0c-96,0 -173,-26 -231,-78 -57,-52 -86,-122 -86,-208l0 -611c-289,339 -618,594 -988,767 -371,173 -845,260 -1422,260l0 0z"/>
  <path id="_6_5" fill="white" fill-rule="nonzero" d="M126699 42191c-1039,0 -1806,-305 -2301,-916 -496,-610 -758,-1353 -787,-2228l-14 -363 14 -364c29,-875 291,-1617 787,-2228 495,-611 1262,-916 2301,-916 1049,0 1857,342 2424,1026l0 -3078c0,-87 29,-156 86,-208 58,-52 135,-78 231,-78l245 0c97,0 174,26 231,78 58,52 87,121 87,208l0 8651c0,87 -29,156 -87,208 -58,52 -134,79 -231,79l-245 0c-96,0 -173,-26 -231,-79 -57,-52 -86,-121 -86,-208l0 -610c-558,684 -1366,1026 -2424,1026l0 0zm86 -754c760,0 1333,-227 1718,-681 384,-455 591,-990 620,-1605 9,-86 14,-255 14,-507 0,-251 -5,-420 -14,-506 -10,-372 -101,-725 -274,-1059 -173,-334 -433,-608 -779,-825 -346,-216 -774,-325 -1285,-325 -778,0 -1349,224 -1709,669 -361,446 -556,1020 -585,1721l-14 364c0,805 173,1466 520,1981 346,516 942,773 1788,773l0 0z"/>
  <path id="_7_6" fill="white" fill-rule="nonzero" d="M134449 33916c-96,0 -173,-26 -230,-78 -58,-52 -87,-121 -87,-208l0 -493c0,-87 29,-158 87,-215 57,-56 134,-84 230,-84l549 0c96,0 175,28 238,84 62,57 93,128 93,215l0 493c0,87 -31,156 -93,208 -63,52 -142,78 -238,78l-549 0zm159 8145c-96,0 -173,-26 -231,-78 -58,-52 -86,-122 -86,-208l0 -6183c0,-87 28,-156 86,-208 58,-52 135,-78 231,-78l246 0c95,0 173,26 230,78 58,52 87,121 87,208l0 6183c0,86 -29,156 -87,208 -57,52 -135,78 -230,78l-246 0z"/>
  <path id="_8_7" fill="white" fill-rule="nonzero" d="M142301 42191c-1000,0 -1777,-275 -2330,-825 -554,-550 -844,-1263 -874,-2137l-14 -546 14 -546c30,-874 320,-1586 874,-2136 553,-550 1330,-825 2330,-825 1000,0 1777,275 2330,825 553,550 844,1262 873,2136 10,87 14,269 14,546 0,277 -4,459 -14,546 -29,875 -320,1587 -873,2137 -553,550 -1330,825 -2330,825zm0 -754c683,0 1234,-197 1652,-590 419,-395 642,-955 671,-1683 9,-87 14,-247 14,-480 0,-234 -5,-395 -14,-481 -29,-728 -252,-1288 -671,-1682 -418,-395 -969,-591 -1652,-591 -683,0 -1234,196 -1652,591 -419,394 -642,954 -671,1682l-15 481 15 480c29,728 252,1288 671,1683 418,393 969,590 1652,590z"/>
 </g>
</svg>
