<?xml version="1.0" encoding="UTF-8"?>
<!DOCTYPE svg PUBLIC "-//W3C//DTD SVG 1.1//EN" "http://www.w3.org/Graphics/SVG/1.1/DTD/svg11.dtd">
<!-- Creator: CorelDRAW 2017 -->
<svg xmlns="http://www.w3.org/2000/svg" xml:space="preserve" width="146px" height="56px" version="1.1" style="shape-rendering:geometricPrecision; text-rendering:geometricPrecision; image-rendering:optimizeQuality; fill-rule:evenodd; clip-rule:evenodd"
viewBox="0 0 849390 322970"
 xmlns:xlink="http://www.w3.org/1999/xlink">
   <path style="fill:#fb9300;" d="M132110 6640l-104450 0c-2180,0 -4060,140 -5640,410 -1540,260 -2800,650 -3760,1180 -950,510 -1740,1160 -2370,1950 -620,800 -1100,1750 -1420,2860l-10020 39850 5160 0c340,-870 810,-1690 1370,-2440 660,-840 1470,-1600 2410,-2250 950,-660 2030,-1150 3220,-1470 1190,-320 2480,-480 3900,-480l18410 0 -29040 123650c-170,980 -290,1800 -370,2440 -80,650 -130,1150 -130,1460 0,2560 630,4450 1860,5690 1240,1240 3140,1860 5690,1860l70540 0 1420 -4680c-740,-90 -1500,-320 -2240,-670 -1000,-480 -2000,-1190 -2970,-2120 -1000,-950 -1710,-1900 -2130,-2850 -430,-990 -550,-1980 -350,-2960 2150,-25790 21760,-92490 28720,-121820l15560 0c4070,0 7310,-660 9720,-1970 2360,-1280 3940,-3210 4750,-5780l10010 -38500 -4630 0c-370,980 -950,1860 -1720,2630 -860,870 -1970,1610 -3320,2210 -1310,590 -2650,1040 -4010,1340 -1360,300 -2760,460 -4160,460l-10 0zm164970 0l-133830 0 -1210 4660c820,90 1620,310 2390,650 1010,460 1960,1140 2860,2050 910,910 1560,1860 1940,2840 370,1000 470,2030 280,3080l-34730 149180c-170,800 -290,1550 -380,2230 -80,650 -120,1230 -120,1710 0,2570 680,4600 2010,6100 650,730 1480,1280 2460,1650 1010,380 2210,570 3590,570l104710 0c2270,0 4340,-150 6190,-440 1850,-280 3490,-720 4940,-1300 1380,-560 2530,-1370 3420,-2440 900,-1070 1550,-2410 1950,-4010l9010 -38050 -4630 0c-330,870 -870,1670 -1650,2410 -880,830 -2060,1590 -3530,2250 -1430,650 -2850,1150 -4220,1480 -1390,330 -2750,490 -4070,490l-42170 0 6060 -25550c970,-3960 2610,-6950 4920,-8940 2340,-2020 5320,-3040 8970,-3040l15570 0c2250,0 4370,-280 6380,-830 2010,-560 3910,-1390 5680,-2520 1760,-1100 3180,-2380 4260,-3830 1080,-1440 1820,-3050 2220,-4840l4690 -20690 -42400 0c1960,-8420 3910,-16850 5910,-25260l35990 0c2780,0 5290,-230 7510,-690 2220,-460 4170,-1140 5870,-2050 1660,-890 3040,-2130 4160,-3700 1120,-1590 1970,-3550 2550,-5850l6460 -27330 -10 10zm112140 13440l-15820 22620 -7260 -25610c-400,-1440 -1110,-2770 -2090,-4000 -1000,-1230 -2300,-2370 -3900,-3390 -1610,-1010 -3220,-1780 -4810,-2290 -1570,-510 -3140,-760 -4690,-760l-53410 0 -1210 4650c2170,120 4060,800 5640,2020 1760,1350 3130,3360 4110,6030 7000,23340 16010,47730 23870,70960l-62790 77770c-640,790 -1110,1680 -1430,2680 -310,1000 -470,2100 -470,3310 0,1130 160,2130 500,3000 320,880 820,1650 1480,2310 1330,1320 3350,1980 6070,1980l63340 0 1010 -4640c-960,-50 -1870,-200 -2720,-450 -1080,-320 -2080,-800 -2990,-1440 -930,-650 -1630,-1370 -2100,-2170 -490,-830 -730,-1720 -730,-2680 0,-1150 120,-2170 340,-3030 240,-900 600,-1630 1090,-2220l19850 -25670c3780,10990 8360,22820 11630,33830 320,1220 810,2330 1450,3340 650,1010 1460,1920 2430,2730 970,810 1980,1410 3010,1810 1040,390 2120,590 3230,590l72280 0 1010 -4650c-2260,-130 -4650,-820 -7160,-2080 -1430,-710 -2660,-1580 -3680,-2610 -1030,-1030 -1860,-2220 -2480,-3560l-37710 -83760 54910 -63300c1440,-1590 2150,-3530 2150,-5930 0,-1110 -210,-2170 -620,-3180 -420,-1010 -1060,-1990 -1900,-2910 -830,-920 -1770,-1600 -2820,-2050 -1040,-460 -2210,-690 -3480,-690l-56200 0 -1010 4660c630,50 1190,170 1710,350 740,270 1390,670 1920,1200 530,520 920,1080 1190,1670 270,600 410,1240 410,1920 0,240 -1000,3450 -1140,3640l-10 0zm150430 83640l18920 0 -15740 66080 0 4010c0,2550 620,4450 1850,5690 1240,1240 3140,1860 5690,1860l70540 0 1430 -4680c-1760,-220 -3500,-1160 -5220,-2800 -990,-950 -1710,-1900 -2120,-2850 -440,-990 -560,-1980 -360,-2960l34730 -149920 500 -3740c0,-1290 -150,-2420 -450,-3390 -280,-950 -720,-1760 -1310,-2420 -1150,-1300 -3080,-1960 -5780,-1960l-70500 0 -1010 4660c760,90 1520,330 2250,690 970,490 1900,1200 2790,2150 910,940 1550,1890 1920,2820 390,980 490,1950 290,2920 -4220,16850 -7970,34160 -11870,51120l-19430 0 12950 -52830 0 -4020c0,-2540 -630,-4420 -1860,-5660 -1240,-1220 -3140,-1850 -5680,-1850l-70540 0 -1430 4680c1760,220 3500,1160 5220,2800 1000,950 1710,1900 2120,2850 440,1000 560,1990 370,2960l-35000 149680c-160,980 -290,1830 -370,2540 -80,690 -120,1250 -120,1650 0,2550 630,4450 1920,5690 1280,1240 3240,1860 5880,1860l70750 0 1020 -4660c-1740,-160 -3400,-880 -4990,-2140 -910,-740 -1610,-1550 -2070,-2440 -480,-900 -710,-1870 -710,-2910 0,-11910 11620,-51250 14940,-65490l500 0 -20 10zm238790 -97080l-48520 0c-9620,0 -18170,1440 -25620,4290 -7450,2850 -13820,7130 -19120,12830 -4130,4550 -7770,10260 -10940,17130 -3170,6900 -5870,14970 -8070,24180l-11240 48180c-2200,8970 -3300,17610 -3300,25870 0,7000 950,13140 2860,18390 1900,5240 4760,9630 8560,13160 7620,7120 19360,10680 35200,10680l52350 0c8290,0 15690,-910 22180,-2720 6470,-1810 12070,-4520 16770,-8130 5380,-4020 9960,-9400 13740,-16160 3810,-6790 6810,-14970 9010,-24510l15320 -64790c590,-2360 1040,-4770 1330,-7200 290,-2440 440,-4940 440,-7470 0,-6960 -1200,-13140 -3590,-18520 -2380,-5350 -5960,-9940 -10730,-13720 -4790,-3830 -10250,-6700 -16340,-8610 -6100,-1920 -12880,-2870 -20300,-2870l10 -10zm-55780 120600l16360 -70350c970,-3500 2410,-6140 4330,-7920 1950,-1810 4370,-2720 7260,-2720 5360,0 8030,2670 8030,8030 0,340 -40,880 -130,1590 -3470,23010 -11790,50960 -17260,74190 -430,1890 -970,3510 -1610,4850 -650,1370 -1420,2440 -2280,3220 -1740,1560 -4300,2340 -7690,2340 -2550,0 -4470,-590 -5780,-1760 -1340,-1190 -2000,-2940 -2000,-5250 0,-870 70,-1820 200,-2860 120,-1030 320,-2150 580,-3360l-10 0z"/>
   <path style="fill:#fb9300;" d="M54260 250280l10600 0 -15900 66880 0 1530c0,1460 370,2530 1110,3220 750,710 1930,1060 3510,1060l36930 0 610 -1970c-330,-60 -650,-180 -960,-330 -560,-260 -1130,-660 -1690,-1180 -570,-530 -970,-1080 -1210,-1620 -260,-580 -330,-1170 -210,-1750l18770 -79510c40,-160 70,-350 90,-600l30 -900c0,-1600 -380,-2780 -1130,-3540 -750,-760 -1910,-1140 -3490,-1140l-85740 0 -520 1950c970,170 1860,660 2680,1470 520,510 890,1060 1110,1610 230,580 280,1190 180,1800l-18770 79520 -200 1160c-40,330 -60,630 -60,880 0,660 90,1250 260,1760 160,490 410,920 750,1290 650,730 1670,1090 3050,1090l37600 0 510 -1940c-330,-40 -650,-110 -950,-220 -550,-170 -1060,-450 -1530,-810 -490,-370 -870,-810 -1110,-1300 -250,-500 -380,-1050 -380,-1640 0,-11130 12320,-53030 15590,-66780l490 0 -20 10zm124390 -19840l-26220 0c-5170,0 -9750,760 -13750,2270 -3970,1500 -7380,3750 -10210,6760 -2210,2400 -4170,5420 -5850,9050 -1710,3660 -3160,7940 -4350,12830l-6060 25670c-600,2390 -1040,4730 -1340,7020 -290,2270 -440,4520 -440,6700 0,3700 520,6940 1530,9710 1010,2740 2530,5050 4550,6890 2020,1860 4590,3270 7700,4200 3150,950 6860,1420 11120,1420l28280 0c4460,0 8430,-490 11910,-1440 3450,-950 6450,-2390 8960,-4290 2870,-2120 5330,-4960 7350,-8520 2040,-3590 3650,-7930 4830,-12990l8290 -34530c620,-2500 940,-5080 940,-7760 0,-3660 -630,-6910 -1910,-9740 -1260,-2810 -3170,-5220 -5710,-7200 -5130,-4040 -11670,-6060 -19620,-6060l0 10zm-30420 63910l8840 -37500c540,-1920 1350,-3380 2430,-4360 1100,-1020 2480,-1520 4100,-1520 3090,0 4630,1520 4630,4570l-70 880c-1850,12230 -6380,27230 -9320,39580 -240,1020 -540,1910 -900,2650 -370,760 -810,1370 -1300,1810 -510,440 -1140,780 -1880,1000 -710,210 -1540,310 -2470,310 -1450,0 -2550,-340 -3310,-1000 -790,-690 -1180,-1710 -1180,-3030 0,-470 40,-990 110,-1570 70,-560 180,-1160 320,-1810l0 -10zm142030 3320l-7730 -62340c-90,-690 -290,-1320 -620,-1890 -340,-580 -810,-1110 -1420,-1580 -1220,-940 -2730,-1430 -4520,-1430l-32880 0 -420 1930c340,60 660,140 970,260 540,210 1030,530 1460,960 430,420 760,900 970,1430 210,530 320,1110 320,1730 0,700 -210,1850 -280,2600l-27920 58780c-250,590 -570,1130 -940,1630 -390,510 -850,960 -1370,1390 -540,430 -1130,760 -1760,970 -620,210 -1300,320 -2010,320l-3230 0 -3330 14600 -270 2090c10,1280 400,2230 1180,2850 820,660 2110,980 3850,980l73110 0c1680,0 3120,-70 4300,-230 1160,-150 2090,-370 2770,-670 860,-410 1580,-1010 2160,-1790 590,-820 1050,-1850 1350,-3080l3410 -14750 -2660 0c-1250,0 -2250,-430 -3020,-1260 -720,-800 -1220,-1960 -1470,-3480l-10 -30 10 10zm-36140 -13050l1150 17820 -9450 0 8120 -20610 190 2800 -10 -10zm124990 -24010l-20800 0 5690 -23810 270 -2380c-10,-1190 -340,-2150 -1010,-2890 -650,-730 -1630,-1080 -2920,-1080l-48210 0 -3320 13630 -260 2500c0,1270 320,2200 950,2800 630,610 1620,910 2980,910l10580 0 -15760 65960 -270 1660c0,740 120,1400 340,2000 230,590 560,1150 1010,1630 890,950 2120,1430 3680,1430l54780 0c4050,0 7630,-280 10700,-810 3060,-530 5620,-1340 7710,-2390 2060,-1050 3920,-2610 5570,-4650 1680,-2080 3150,-4680 4410,-7800 780,-1880 1500,-3850 2160,-5900 660,-2050 1280,-4180 1820,-6380 550,-2200 960,-4310 1230,-6330 270,-2010 410,-3920 410,-5750 0,-3420 -490,-6500 -1480,-9210 -970,-2700 -2450,-5060 -4410,-7070 -3920,-4050 -9200,-6070 -15830,-6070l-20 0zm-30550 41070l4940 -21320 5050 0c3170,0 4760,1480 4760,4440 0,750 -100,1730 -290,2930 -180,1180 -470,2570 -830,4160 -510,2070 -1030,3790 -1540,5160 -530,1410 -1070,2470 -1610,3180 -1140,1470 -2960,2220 -5460,2220l-5210 0 170 -770 20 0zm144340 -71240l-71710 0 -510 1950c350,60 700,170 1040,320 570,260 1130,640 1630,1150 530,510 900,1060 1120,1610 220,580 280,1190 160,1800l-18770 79520c-170,850 -250,1530 -250,2040 0,660 90,1250 250,1760 170,500 420,930 750,1290 660,720 1690,1090 3070,1090l56550 0c1220,0 2330,-80 3310,-230 980,-150 1860,-380 2610,-680 710,-280 1280,-690 1740,-1220 450,-540 780,-1220 990,-2030l4780 -19910 -1950 0c-190,430 -490,840 -880,1210 -500,470 -1160,880 -1990,1260 -1600,720 -3130,1070 -4600,1070l-23140 0 3360 -13970c540,-2170 1450,-3820 2750,-4920 1310,-1130 2990,-1690 5030,-1690l8420 0c1190,0 2320,-140 3370,-430 1050,-290 2050,-730 2990,-1310 930,-580 1670,-1230 2230,-1970 550,-740 940,-1560 1140,-2470l2450 -10670 -22910 0 3330 -14050 19670 0c1490,0 2820,-120 4000,-360 1170,-240 2200,-590 3090,-1060 850,-450 1570,-1090 2150,-1890 580,-820 1030,-1820 1330,-3020l3400 -14190 0 0zm1830 92530l28770 0 510 -1930c-410,-40 -810,-120 -1180,-240 -610,-190 -1190,-480 -1700,-860 -550,-400 -960,-900 -1230,-1480 -270,-580 -410,-1230 -410,-1960l0 -2020c4680,-11700 9440,-23380 14160,-35070l870 43540 31660 0 17080 -44160 -300 39620c0,540 120,1060 360,1570 240,520 610,1030 1110,1520 980,970 1990,1460 3010,1460l37300 0 430 -1920c-490,-50 -970,-140 -1440,-280 -720,-200 -1420,-520 -2110,-930 -730,-440 -1280,-950 -1650,-1550 -390,-610 -590,-1290 -590,-2040l-4550 -79630c0,-840 -130,-1620 -380,-2350 -250,-720 -630,-1400 -1130,-2020 -500,-620 -1040,-1070 -1630,-1380 -580,-290 -1210,-440 -1890,-440l-37460 0 -510 1930c940,110 1670,420 2220,940 700,660 1060,1630 1060,2880 0,540 -60,1050 -160,1530 -90,470 -250,910 -450,1310l-13250 31230c-340,-11180 20,-24800 -1050,-35570 0,-720 -130,-1350 -380,-1860 -240,-510 -600,-930 -1090,-1270 -1030,-740 -2220,-1110 -3560,-1110l-36750 0 -430 1960c330,60 650,170 960,330 530,260 1030,650 1500,1160 460,510 810,1040 1040,1610 240,580 360,1180 360,1800 0,500 -50,970 -150,1430 -110,460 -270,900 -470,1300l-31450 76220c-410,820 -620,1720 -620,2720 0,530 110,1030 350,1480 230,460 590,900 1080,1300 980,810 2370,1220 4160,1220l-20 10z"/>
</svg>
